<?xml version="1.0" encoding="UTF-8"?>
<svg width="840px" height="840px" viewBox="0 0 840 840" version="1.1" xmlns="http://www.w3.org/2000/svg" xmlns:xlink="http://www.w3.org/1999/xlink">
    <!-- Generator: Sketch 43.1 (39012) - http://www.bohemiancoding.com/sketch -->
    <title>Group 33</title>
    <desc>Created with Sketch.</desc>
    <defs></defs>
    <g id="Page-1" stroke="none" stroke-width="1" fill="none" fill-rule="evenodd">
        <g id="Group-33" fill="#004D59">
            <path d="M260.933063,570.62743 L0,831.504409 L8.31683168,839.819453 L277.566727,570.62743 L260.933063,570.62743 Z M562.433273,570.62743 L831.683168,839.819453 L840,831.504409 L579.066937,570.62743 L562.433273,570.62743 Z M579.066937,269.192023 L840,8.31504409 L831.683168,0 L562.433273,269.192023 L579.066937,269.192023 Z M277.566727,269.192023 L8.31683168,0 L0,8.31504409 L260.933063,269.192023 L277.566727,269.192023 Z" id="Combined-Shape"></path>
            <path d="M325,495.326002 C325,506.443512 334.006947,515.454545 345.032693,515.454545 L494.967307,515.454545 C506.031876,515.454545 515,506.404503 515,495.326002 L515,344.673998 C515,333.556488 505.993053,324.545455 494.967307,324.545455 L345.032693,324.545455 C333.968124,324.545455 325,333.595497 325,344.673998 L325,495.326002 Z M494.967307,505.897388 L345.032693,505.897388 C339.248059,505.897388 334.511647,501.138314 334.511647,495.326002 L334.511647,470.165323 L370.539436,433.965152 L401.326114,464.899134 C403.18962,466.771557 406.178995,466.771557 408.042501,464.899134 L463.637107,409.038526 L505.488353,451.090017 L505.488353,495.326002 C505.488353,501.138314 500.751941,505.897388 494.967307,505.897388 Z M345.032693,334.102612 L494.967307,334.102612 C500.751941,334.102612 505.488353,338.861686 505.488353,344.673998 L505.488353,437.553962 L466.975889,398.896237 C465.112383,397.023814 462.123008,397.023814 460.259501,398.896237 L404.664896,454.756845 L373.878218,423.822863 C372.014712,421.95044 369.025337,421.95044 367.161831,423.822863 L334.511647,456.629268 L334.511647,344.673998 C334.511647,338.861686 339.248059,334.102612 345.032693,334.102612 Z" id="Shape-Copy-2" fill-rule="nonzero"></path>
        </g>
    </g>
</svg>
