<svg id="Ebene_1" xmlns="http://www.w3.org/2000/svg" viewBox="0 0 700 700">
  <style>
    .st0{fill:#004DB9;}
  </style>
  <path class="st0" d="M660.9 241.3c-2-5.1-5.9-9.1-11-11.2l-23.1-9.6 9.4-17.4c.8-1.5.9-3.2.4-4.7-.6-1.6-1.7-2.8-3.3-3.5l-52.9-22.1c-1.5-.6-3.1-.6-4.4 0-1.4.5-2.5 1.6-3.2 3.1l-8.3 18.6-20.6-8.6c-4.9-2-10.3-2.1-15.2-.1-5 2-9 5.8-11.1 10.8l-39.1 91.3c-2.1 5-2.2 10.5-.1 15.5 2 5 5.9 8.9 10.9 11l1.2.5-5.3 9.9c-1.5 2.7-1.6 5.9-.5 8.8l6 15.1c1 2.4 2.7 4.3 5.1 5.5l9.9 4.9-3.1 9c-1.7 5.1.6 10.6 5.5 12.9l3.2 1.5c-6.1 10.8-21 35.3-46.4 67-2.6 3.2-5.1 6.1-7.6 8.9 12.2-22.3 14.2-49.9 3-75.1-17.5-39.2-62.7-59.3-103.5-45.9-46.8 15.4-70.3 66.7-52.3 111.8 9.9 24.7 19.7 34.9 19.7 34.9l-130.3-56.4 4.3-10c1.2-2.7 1.1-5.8-.1-8.4-1.2-2.7-3.5-4.7-6.3-5.6l-2.6-.8-10.8-16.5c-1.1-1.8-2.8-3.1-4.7-3.9L133 365.4c-2.5-1-5.3-1-7.8 0-2.6 1-4.6 3-5.7 5.5l-1 2.3h-.1l-55.8-24.7c-1.4-.6-3.1-.7-4.5-.1-1.5.6-2.6 1.7-3.2 3.2L38.1 392c-1.2 2.9.1 6.3 3 7.6L96.6 424l-2.9 6.6c-2.1 4.9-.1 10.7 4.8 13.4l42.4 21c2.5 1.3 5.4 1.6 8.1.7l14.1-4.6 4.5 1.9c2.5 1.1 5.4 1.1 7.9.1 2.6-1 4.6-3 5.7-5.5l5.7-13.3c127.1 57.4 177.2 75.3 231.5 56.6 55.4-19.1 100.6-88.7 113-109.3l2.7 1.2c5.1 2.4 11.1.3 13.7-4.6l4.6-8.8 5.4 1.7c2.7.8 5.5.6 7.9-.7l14.9-7.7c2-1 3.7-2.8 4.6-4.8l5.3-11.3 3.3 1.4c10.2 4.2 21.7-.3 26.2-10.4l40.7-90.5c2.1-5.1 2.2-10.7.2-15.8zM51.1 391l12.3-29.5 50.4 22.3h.2l-12.7 29.4L51.1 391zm119.1 58.8l-2.9-1.3c-2.3-1-4.9-1.1-7.3-.3l-14.1 4.5-39.1-19.3 23.6-54.8 37.5 15.5 10.8 16.7c1.3 2 3.3 3.5 5.7 4.3l.5.1-14.7 34.6zm229.1 31c-28.3 7.3-58.7-5.7-72.9-31.3-20.8-37.5-.7-84.2 40.8-94.9 28.3-7.3 58.7 5.7 72.9 31.3 20.7 37.4.7 84.1-40.8 94.9zm182-295l41.7 17.4-6.9 12.7-40.6-17 5.8-13.1zm-7.8 175.5l-13 6.8-6.5-2c-4.8-1.5-10 .6-12.4 5.1l-4.5 8.5-21.2-9.8 3.1-8.9c1.7-4.9-.5-10.4-5.2-12.8l-11.1-5.5-5.2-13 5.2-9.9 68.1 28.4 7.4 3.1-4.7 10zm75-109.7l-40.7 90.5c-.8 1.7-2.1 3-3.8 3.6-1.7.7-3.6.7-5.3-.1l-35.4-14.7-57.8-24.3c-.7-.3-1.3-.5-2-.6l-9.3-3.9c-1.7-.7-3.1-2.1-3.8-3.8-.7-1.7-.7-3.6.1-5.4l39.1-91.3c1.5-3.5 5.6-5.2 9.1-3.7l106 44.3c1.8.7 3.1 2.1 3.8 3.9.9 1.8.8 3.8 0 5.5z"/>
</svg>
