<?xml version="1.0" encoding="utf-8"?>
<!-- Generator: Adobe Illustrator 21.1.0, SVG Export Plug-In . SVG Version: 6.00 Build 0)  -->
<svg version="1.1" id="Layer_1" xmlns="http://www.w3.org/2000/svg" xmlns:xlink="http://www.w3.org/1999/xlink" x="0px" y="0px"
	 viewBox="0 0 507 117.3" style="enable-background:new 0 0 507 117.3;" xml:space="preserve">
<style type="text/css">
	.st0{fill:#F1F3F5;}
</style>
<g>
	<path class="st0" d="M491.8,42.4v3.5c0,9.7-0.5,13-3.5,15.9c-3,3-7.6,3.8-17.6,3.8H280.5c-14,0-21.3,4.9-27,16.5
		c-5.7-11.6-13-16.5-27-16.5H36.2c-10,0-14.6-0.8-17.6-3.8c-3-3-3.5-6.2-3.5-15.9v-3.5H3v3.8C3,59.4,4.9,67,10.3,72.4
		c5.1,5.1,10.8,7,25.7,7h190.2c7.6,0,13,1.6,16.2,4.9c3,3,5.1,6.5,5.1,11.6v4.9h5.9h0h5.9v-4.9c0-5.1,2.2-8.6,5.1-11.6
		c3.2-3.2,8.6-4.9,16.2-4.9H471c14.9,0,20.5-1.9,25.7-7c5.4-5.4,7.3-13,7.3-26.2v-3.8H491.8z"/>
	<path class="st0" d="M491.8,42.4v3.5c0,9.7-0.5,13-3.5,15.9c-3,3-7.6,3.8-17.6,3.8H280.5c-14,0-21.3,4.9-27,16.5
		c-5.7-11.6-13-16.5-27-16.5H36.2c-10,0-14.6-0.8-17.6-3.8c-3-3-3.5-6.2-3.5-15.9v-3.5H3v3.8C3,59.4,4.9,67,10.3,72.4
		c5.1,5.1,10.8,7,25.7,7h190.2c7.6,0,13,1.6,16.2,4.9c3,3,5.1,6.5,5.1,11.6v4.9h5.9h0h5.9v-4.9c0-5.1,2.2-8.6,5.1-11.6
		c3.2-3.2,8.6-4.9,16.2-4.9H471c14.9,0,20.5-1.9,25.7-7c5.4-5.4,7.3-13,7.3-26.2v-3.8H491.8z"/>
</g>
</svg>
