<svg id="Ebene_1" xmlns="http://www.w3.org/2000/svg" viewBox="0 0 700 700">
  <style>
    .st0{fill:#004DB9;}
  </style>
  <path class="st0" d="M250.1 263.2c-14.9 2.5-24.9 16.7-22.4 31.6 2.3 13.3 13.9 22.8 27 22.8 1.5 0 3.1-.1 4.6-.4 14.9-2.5 24.9-16.7 22.4-31.6-2.5-14.9-16.7-24.9-31.6-22.4zm-4.4 28.6c-.4-2.4.1-4.8 1.5-6.8s3.5-3.3 5.9-3.7c.5-.1 1-.1 1.5-.1 1.9 0 3.7.6 5.2 1.7 2 1.4 3.3 3.5 3.7 5.9s-.1 4.8-1.5 6.8-3.5 3.3-5.9 3.7c-2.4.4-4.8-.1-6.8-1.5-1.9-1.5-3.2-3.6-3.6-6z"/>
  <path class="st0" d="M582.1 420.8l35.2-6-8.5-49.6-35.2 6-1.7-9.7-41.9 7.2-2.4-14.1 41.9-7.2-1.7-9.7 35.2-6-8.5-49.6-35.2 6-1.7-9.7-41.9 7.2-2.2-12.8 41.9-7.2-1.7-9.8 35.2-6-8.5-49.6-35.2 6-1.7-9.7-41.9 7.2-1.8-10.4c-2-11.9-8.6-22.3-18.5-29.3s-21.8-9.7-33.7-7.7l-10.4 1.8-7.1-41.7-9.7 1.7-6-35.1-49.4 8.3 6 35.1-9.7 1.7 7.1 41.7-12.7 2.2-7.1-41.7-9.8 1.7-6-35.1-49.6 8.5 6 35.1-9.7 1.7 7.1 41.7-14.1 2.4-7.1-41.7-9.7 1.7-6-35.1-49.6 8.5 6 35.1-9.7 1.7 7.1 41.7-10.4 1.8c-24.6 4.2-41.2 27.6-37 52.2l1.8 10.4-41.7 7.1 1.7 9.7-35.1 6 8.5 49.6 35.1-6 1.7 9.7 41.7-7.1 2.2 12.7-41.7 7.1 1.7 9.8-35.1 6 8.5 49.6 35.1-6 1.7 9.7 41.7-7.1 2.4 14.1-41.7 7.1 1.7 9.7-35.1 6 8.5 49.6 35.1-6 1.7 9.7 41.7-7.1 1.8 10.4c3.8 22 22.9 37.6 44.5 37.6 2.5 0 5.1-.2 7.6-.7l10.4-1.8 7.1 41.7 9.7-1.7 6 35.1 49.6-8.5-6-35.1 9.7-1.7-7.1-41.7 12.7-2.2 7.1 41.7 9.8-1.7 6 35.1 49.6-8.5-6-35.1 9.7-1.7-7.1-41.7 14.1-2.4 7.1 41.7 9.7-1.7 6 35.1 49.6-8.5-6-35.1 9.7-1.7-7.1-41.7 10.4-1.8c11.9-2 22.3-8.6 29.3-18.5s9.7-21.8 7.7-33.7l-1.8-10.4 41.9-7.2-1.8-9.3zM399.1 543l-9.7 1.7 6 35.1-13.5 2.3-6-35.1-9.8 1.7-4.2-24.7 33-5.6 4.2 24.6zm-81.8 14l-9.7 1.7 6 35.1L300 596l-6-35.1-9.7 1.7-4.2-24.7 33-5.6 4.2 24.7zM165.4 449.5l24.7-4.2 5.6 33-24.7 4.2-1.7-9.7-35.1 6-2.3-13.5 35.1-6-1.6-9.8zm-14.2-83.3l24.7-4.2 5.6 33-24.7 4.2-1.7-9.7-35.1 6-2.3-13.5 35.1-6-1.6-9.8zM300.6 157l9.7-1.7-6-35.1 13.5-2.3 6 35.1 9.8-1.7 4.3 24.9-33 5.6-4.3-24.8zm81.8-14l9.7-1.7-6-35.1 13.5-2.3 6 35.1 9.7-1.7 4.3 24.9-33 5.6-4.2-24.8zm152 107.5l-24.8 4.2-5.6-33 24.8-4.2 1.7 9.7 35.2-6 2.3 13.5-35.2 6 1.6 9.8zm14 81.9l-24.8 4.2-5.6-33 24.8-4.2 1.7 9.7 35.2-6 2.3 13.5-35.2 6 1.6 9.8zm-70.3 171.7l4.2 24.7-9.7 1.7 6 35.1-13.5 2.3-6-35.1-9.7 1.7-4.2-24.7 32.9-5.7zm-256.5-308l-4.3-24.9 9.7-1.7-6-35.1 13.5-2.3 6 35.1 9.7-1.7 4.3 24.9-32.9 5.7zm268.2 288.5v-.2l-226.9 38.8v.2l-14.2 2.4c-14.6 2.5-28.6-7.4-31.1-22l-3.1-18h.2l-38.8-226.9h-.2l-1.7-10.1c-1.2-7.1.4-14.2 4.6-20.1s10.3-9.8 17.4-11l14.2-2.4.1.4 226.9-38.8-.1-.4 13.9-2.4c7.1-1.2 14.2.4 20.1 4.6s9.8 10.3 11 17.4l1.7 10.1h-.1l38.8 226.9h.1l3.1 18c1.2 7.1-.4 14.2-4.6 20.1-4.2 5.9-10.3 9.8-17.4 11l-13.9 2.4zm72.9-69l-24.8 4.2-5.6-33 24.8-4.2 1.7 9.7 35.2-6 2.3 13.5-35.2 6 1.6 9.8zM137.2 284.4l24.7-4.2 5.6 33-24.7 4.2-1.7-9.7-35.1 6-2.3-13.5 35.1-6-1.6-9.8z"/>
</svg>
