<svg id="Ebene_1" xmlns="http://www.w3.org/2000/svg" viewBox="0 0 700 700">
  <style>
    .st0{fill:#0D56BD;}
  </style>
  <path class="st0" d="M633.9 529.8V417.4 192.6c.6-10-3.4-20.2-11-28-8-8.3-18.9-12.9-30-12.6H143.3c-5.9.3-12.1.1-18.1 0-11-.3-22.5-.6-33.6 1.9l1 4.7-1.4-4.6c-16.9 5.3-28.9 22-27.9 38.9.1 107.8 0 217.3 0 323.4 0 2.1 0 4.2-.1 6.5-.2 8.1-.4 17.3 4 25.6 6.4 13.5 21.3 22.5 36.8 22.5H592.8c11 .3 22-4.3 30-12.6 7.7-8.1 11.8-18.4 11.1-28.5zm-18.4-329.2c0 .8 0 1.6-.1 2.4H504.3c-138.6 0-281.9.1-422.9-.1v-.7c-.2-10.1-.5-19.7 6.6-25.8l.3-.3c6.5-6.8 17.3-6.6 27.8-6.3h474.3c8.5-.6 16.8 3.2 21.3 9.6 4.2 5.8 4 13.3 3.8 21.2zM81.6 329.4V221.1c178.3-.2 359-.1 533.9 0 .1 65.9.1 132.8.1 197.6v111.6c.4 5.4-1.8 11-6 15.4-4.4 4.6-10.4 7.2-16.5 7.1-147.1.2-296.6.1-441.2.1h-46.5c-6.5.4-13-2.1-17.8-7-4.3-4.4-6.6-10.1-6.1-15.6v-.4c.1-66.9.1-134.8.1-200.5z"/>
  <path class="st0" d="M552.6 176.6c-8.3 2.7-10.7 14.2-3.4 19.1 5.9 5.4 16.9 1.8 18.7-5.8 2.6-8.2-7-16.5-15.3-13.3zM520.6 176.7c-8.2 2.7-10.5 14-3.3 19 5.9 5.4 17 1.9 18.7-5.9 2.7-8.1-7.2-16.6-15.4-13.1zM524.4 402.7c18.1-7.1 35.9-14.8 54-22.3 5.4-1.2 4.8-8.8-.2-10.2-17.9-8.5-35.7-17.1-53.7-25.3-.3 3.5-.3 6.9-.2 10.4 13.8 6.9 28.1 13 42.4 19-13.5 7.4-28.6 11.3-42.4 17.9-.2 3.5-.1 7 .1 10.5zM584.3 176.7c-8.1 2.9-10.5 14.2-3.1 19.1 5.8 5.3 16.8 1.8 18.6-5.8 2.8-8.3-7.2-16.8-15.5-13.3zM357.8 402.3c5.9-12.7 5.8-29.2-3-40.6-8.4-10.5-24.5-12.3-36.7-7.9-19.1 7.5-21.9 32.1-13.9 48.1 9.5 19.7 43.8 20.1 53.6.4zm-36.4-37c7.4-4.8 19.7-3.1 23.6 5.4 3.3 8.7 3.4 19-.3 27.6-5.5 10.8-24.9 9.5-28.3-2.2-3-10-3.8-23.3 5-30.8zM176.5 402.4c-1.9-3.8 1.7-11-4.1-12.1-12.2-5-24.7-9.4-36.7-14.5-1.7-3.4 3.5-3.3 5.8-4.8 11.5-4.8 22.7-10.2 34.3-15.1.1-2.7.3-8 .5-10.6-18.8 7.6-36.8 17-55.1 25.6-3.8 1.1-2.4 5.3-2.9 7.9 19.5 7.6 38.3 16.9 58.2 23.6zM198.4 415.1c9.9-27.3 21.8-54.1 31.2-81.6-4.6.1-8.8.3-12.9.6-10.1 27.3-21.7 54.1-31.5 81.5 4.2-.2 8.6-.4 13.2-.5zM242.8 402.2c7.2 16.3 29.9 17.5 44.9 11-.2-4-.3-7.9 0-11.8-7.1 2.8-15 5.5-22.5 3.7-7.3-2-11-9.2-11.3-15.8-.8-8.1-.5-17.9 6.6-23.7 7-5.1 16.3-2.2 24.1.3 1.5-3.5 3-7 4.9-10.5-13-5.4-30-6.1-40.9 3.5-11.3 11.3-11.6 29.5-5.8 43.3zM465.4 410.8c12.2 8.7 28.8 6.6 42.6 2.5-.1-3.5.1-7 .5-10.4-10.1 2.7-21.2 6.6-31.2 2.1-7-3-8.5-10.7-9.9-16.9 14.6-.8 29.4.1 44.2-.6-.6-9 .1-18.9-6.1-26.3-12-15.3-41.2-11.9-48.4 6.2-5.9 14.1-5.1 33.2 8.3 43.4zm17-49.5c10-1.4 15.6 8.3 15.7 16.6-10.2.1-20.3.1-30.3-.2 1.6-7.2 5.4-16.2 14.6-16.4zM423.2 408c-1 8.3 6.8 7.6 13.2 7.4-.2-29.1-.1-58.1-.1-87.2h-14.1c-.1 10.3-.1 20.6.3 30.9-11.2-10.4-32.3-10.6-40.3 3.3-7.6 14-7.8 32.9 1.8 46.1 9.6 12 29.2 10 39.2-.5zm-23.8-43.5c7.7-4.2 19.7-.9 22 7.9 2 8 2 16.8-.2 24.8-4 11.1-23.6 11.5-27.5.2-3.7-10.5-4.5-25.3 5.7-32.9z"/>
</svg>
