<?xml version="1.0" encoding="utf-8"?>
<!-- Generator: Adobe Illustrator 21.0.2, SVG Export Plug-In . SVG Version: 6.00 Build 0)  -->
<svg version="1.1" id="Ebene_1" xmlns="http://www.w3.org/2000/svg" xmlns:xlink="http://www.w3.org/1999/xlink" x="0px" y="0px"
	 viewBox="0 0 700 700" style="enable-background:new 0 0 700 700;" xml:space="preserve">
<style type="text/css">
	.st0{fill:#004DB9;}
</style>
<path class="st0" d="M611.2,119.1l-34.3-34.3c-1.6-1.6-3.8-2.5-6.1-2.5H119.2c-2.3,0-4.5,0.9-6.1,2.5l-34.3,34.3
	c-1.6,1.6-2.5,3.8-2.5,6.1v486c0,4.7,3.8,8.6,8.6,8.6h68.6c4.7,0,8.6-3.8,8.6-8.6v-25.7H528v25.7c0,4.7,3.8,8.6,8.6,8.6h68.6
	c4.7,0,8.6-3.8,8.6-8.6v-486C613.7,122.9,612.8,120.7,611.2,119.1z M223,99.4h234.4v85.8H223L223,99.4L223,99.4z M528,202.4v297.3
	H162V202.4H528z M596.6,602.6h-51.5v-25.7c0-4.7-3.8-8.6-8.6-8.6H153.5c-4.7,0-8.6,3.8-8.6,8.6v25.7H93.4V128.7l29.3-29.3h83.1v85.8
	h-52.4c-4.7,0-8.6,3.8-8.6,8.6v314.4c0,4.7,3.8,8.6,8.6,8.6h383.1c4.7,0,8.6-3.8,8.6-8.6V193.8c0-4.7-3.8-8.6-8.6-8.6h-62V99.4h92.7
	l29.3,29.3V602.6z"/>
<path class="st0" d="M414.5,116.6c-14.2,0-25.7,11.5-25.7,25.7c0,14.2,11.5,25.7,25.7,25.7s25.7-11.5,25.7-25.7
	C440.3,128.1,428.7,116.6,414.5,116.6z M414.5,150.9c-4.7,0-8.6-3.8-8.6-8.6c0-4.7,3.8-8.6,8.6-8.6c4.7,0,8.6,3.8,8.6,8.6
	C423.1,147,419.3,150.9,414.5,150.9z"/>
<g>
	<path class="st0" d="M463.9,460.1l-47-47v-32.9h7.8c12.5,0,23.5-11,23.5-23.5v-4.7c0-12.5-11-23.5-23.5-23.5H417v-64.2
		c0-12.5-11-23.5-23.5-23.5c-4.7,0-9.4,1.6-14.1,4.7L307.9,304l-63.1-63.1c-3.1-3.1-7.8-3.1-11,0s-3.1,7.8,0,11l54.8,54.8h-29.7
		c-4.7,0-7.8,3.1-7.8,7.8v83c0,4.7,3.1,7.8,7.8,7.8h45.7l74.8,61c3.1,3.1,9.4,4.7,14.1,4.7c12.5,0,23.5-11,23.5-21.9V435l36,36
		c1.6,1.6,4.7,1.6,6.3,1.6s4.7,0,4.7-1.6C467.1,467.9,467.1,463.2,463.9,460.1L463.9,460.1z M424.8,344.2c4.7,0,7.8,3.1,7.8,7.8v4.7
		c0,4.7-3.1,7.8-7.8,7.8H417v-20.3L424.8,344.2L424.8,344.2z M387.3,256.6c4.7-3.1,12.5-1.6,12.5,6.3v133L318,314.1
		C318,314.1,387.3,256.6,387.3,256.6z M298,389.6h-31.3v-67.3H298V389.6z M399.8,447.5c0,7.8-7.8,9.4-12.5,6.3l-73.6-61v-61
		l86.1,86.1L399.8,447.5L399.8,447.5z"/>
</g>
</svg>
