<?xml version="1.0" encoding="utf-8"?>
<!-- Generator: Adobe Illustrator 21.0.2, SVG Export Plug-In . SVG Version: 6.00 Build 0)  -->
<svg version="1.1" id="Ebene_1" xmlns="http://www.w3.org/2000/svg" xmlns:xlink="http://www.w3.org/1999/xlink" x="0px" y="0px"
	 viewBox="0 0 700 700" style="enable-background:new 0 0 700 700;" xml:space="preserve">
<style type="text/css">
	.st0{fill:none;stroke:#004DB9;stroke-width:14;stroke-linecap:round;stroke-miterlimit:10;stroke-dasharray:12,48;}
	
		.st1{fill:none;stroke:#004DB9;stroke-width:14;stroke-linecap:round;stroke-linejoin:round;stroke-miterlimit:10;stroke-dasharray:12,48;}
	.st2{fill:#004DB9;}
</style>
<g>
	<g>
		<line class="st0" x1="43.8" y1="176.6" x2="49.8" y2="176.6"/>
		<line class="st0" x1="74.2" y1="176.6" x2="639" y2="176.6"/>
		<line class="st0" x1="651.2" y1="176.6" x2="657.2" y2="176.6"/>
	</g>
</g>
<g>
	<g>
		<line class="st1" x1="43.8" y1="529.2" x2="49.8" y2="529.2"/>
		<line class="st1" x1="74.2" y1="529.2" x2="639" y2="529.2"/>
		<line class="st1" x1="651.2" y1="529.2" x2="657.2" y2="529.2"/>
	</g>
</g>
<line class="st1" x1="350.5" y1="133.3" x2="350.5" y2="569.1"/>
<g>
	<path class="st2" d="M657.2,555.9c-2.9,0-5.8-0.5-8.5-1.4v6.1H52.3v-6.1c-2.7,0.9-5.6,1.4-8.5,1.4c-3,0-5.8-0.5-8.5-1.4v23.1h630.4
		v-23.1C663,555.4,660.2,555.9,657.2,555.9z"/>
	<path class="st2" d="M43.8,502.3c2.9,0,5.8,0.5,8.5,1.4V141.8h596.4v361.9c2.7-0.9,5.6-1.4,8.5-1.4c3,0,5.8,0.5,8.5,1.4V124.8H35.3
		v378.9C38,502.8,40.8,502.3,43.8,502.3z"/>
</g>
<path class="st2" d="M350.5,166.6v0.1c48,0,86.6,15,114.7,44.5c52.2,54.8,49.6,140,49.3,146.8c1.2,54.9,16.9,97.1,46.7,125.4
	c26.8,25.4,59,33.8,78.5,36.5c3.3-6.3,9.9-10.6,17.5-10.6c10.9,0,19.8,8.9,19.8,19.8c0,10.9-8.9,19.8-19.8,19.8
	c-8.5,0-15.8-5.4-18.6-13c-21.6-2.9-57.9-12-88.4-41c-33-31.4-50.4-77.4-51.7-136.9v-0.3v-0.3c0-0.8,3.5-84.4-45-135.3
	c-24.9-26.2-59.6-39.4-103-39.4v-0.1c-43.5,0-78.1,13.3-103.1,39.5c-48.5,51-45,134.4-44.9,135.2v0.3v0.3
	c-1.3,59.5-18.7,105.6-51.7,136.9c-30.5,29.1-66.8,38.3-88.4,41.1c-2.8,7.6-10,13-18.6,13c-10.9,0-19.8-8.9-19.8-19.8
	c0-10.9,8.9-19.8,19.8-19.8c7.6,0,14.2,4.3,17.5,10.5c19.5-2.8,52-11.2,78.7-36.6c29.6-28.3,45.3-70.4,46.5-125.3
	c-0.3-6.7-2.9-91.9,49.3-146.8C263.9,181.6,302.5,166.6,350.5,166.6"/>
</svg>
