<?xml version="1.0" encoding="utf-8"?>
<!-- Generator: Adobe Illustrator 21.1.0, SVG Export Plug-In . SVG Version: 6.00 Build 0)  -->
<svg version="1.1" id="Ebene_1" xmlns="http://www.w3.org/2000/svg" xmlns:xlink="http://www.w3.org/1999/xlink" x="0px" y="0px"
	 viewBox="0 0 700 700" style="enable-background:new 0 0 700 700;" xml:space="preserve">
<style type="text/css">
	.st0{fill:#004DB9;}
</style>
<g>
	<path class="st0" d="M350,588.8c-129.4,0-234.7-105.2-234.7-234.6S220.6,119.5,350,119.5s234.6,105.2,234.6,234.6
		S479.4,588.8,350,588.8z M350,141.6c-117.2,0-212.5,95.3-212.5,212.5S232.9,566.6,350,566.6s212.5-95.3,212.5-212.5
		S467.2,141.6,350,141.6z"/>
	<path class="st0" d="M350,661.6c-6.1,0-11.1-4.9-11.1-11.1V53.1c0-6.1,4.9-11.1,11.1-11.1s11.1,4.9,11.1,11.1v597.4
		C361.1,656.6,356.1,661.6,350,661.6z"/>
	<path class="st0" d="M637.7,362.9H62.4c-6.1,0-11.1-4.9-11.1-11.1c0-6.1,4.9-11.1,11.1-11.1h575.3c6.1,0,11.1,4.9,11.1,11.1
		C648.7,357.9,643.8,362.9,637.7,362.9z"/>
</g>
</svg>
