<?xml version="1.0" encoding="utf-8"?>
<!-- Generator: Adobe Illustrator 21.1.0, SVG Export Plug-In . SVG Version: 6.00 Build 0)  -->
<svg version="1.1" id="Layer_1" xmlns="http://www.w3.org/2000/svg" xmlns:xlink="http://www.w3.org/1999/xlink" x="0px" y="0px"
	 viewBox="0 0 837.7 74" style="enable-background:new 0 0 837.7 74;" xml:space="preserve">
<style type="text/css">
	.st0{fill:#F1F3F5;}
</style>
<path class="st0" d="M781.1,18.2V25c0,4.5-0.3,6-1.6,7.4c-1.4,1.4-3.5,1.8-8.2,1.8H431.4c-6.5,0-9.9,2.3-12.6,7.7
	c-2.6-5.4-6-7.7-12.6-7.7H66.5c-4.7,0-6.8-0.4-8.2-1.8c-1.4-1.4-1.6-2.9-1.6-7.4v-6.8H51v6.9c0,6.2,0.9,9.7,3.4,12.2
	c2.4,2.4,5,3.3,12,3.3h339.8c3.5,0,6,0.8,7.5,2.3c1.4,1.4,2.4,3,2.4,5.4v4.2h5.5v-4.2c0-2.4,1-4,2.4-5.4c1.5-1.5,4-2.3,7.5-2.3
	h339.8c6.9,0,9.6-0.9,12-3.3c2.5-2.5,3.4-6,3.4-12.2v-6.9C786.7,18.2,781.1,18.2,781.1,18.2z"/>
</svg>
