<svg xmlns="http://www.w3.org/2000/svg" xmlns:xlink="http://www.w3.org/1999/xlink" viewBox="0 0 318.98 283.66"><defs><style>.cls-1,.cls-10,.cls-11,.cls-3,.cls-5{fill:none;}.cls-2{clip-path:url(#clip-path);}.cls-10,.cls-11,.cls-3,.cls-5{stroke:#000;stroke-linecap:round;stroke-linejoin:round;}.cls-3{stroke-width:0.46px;}.cls-4{font-size:5.55px;}.cls-12,.cls-13,.cls-4,.cls-6,.cls-7,.cls-8{font-family:ManualOrifice,Bold, ManualOrifice,Bold;}.cls-5{stroke-width:0.44px;}.cls-6{font-size:5.55px;}.cls-7{font-size:8.63px;}.cls-8{font-size:8.63px;}.cls-9{fill:#bfbfbf;}.cls-10{stroke-width:0.15px;}.cls-11{stroke-width:0.74px;}.cls-12{font-size:4.93px;}.cls-13{font-size:14.79px;}</style><clipPath id="clip-path"><rect class="cls-1" x="-14.6" y="-13.4" width="343.3" height="308.64"/></clipPath></defs><title>TMC2130-TA</title><g id="Ebene_2" data-name="Ebene 2"><g id="Ebene_1-2" data-name="Ebene 1"><g class="cls-2"><polyline class="cls-3" points="252.94 205.81 252.94 197.26 235.47 197.26 235.47 205.81 252.94 205.81"/><text class="cls-4" transform="translate(241.43 203.29)">2</text><text class="cls-4" transform="translate(244.21 203.29)">5</text><polyline class="cls-3" points="252.94 192.82 252.94 184.26 235.47 184.26 235.47 192.82 252.94 192.82"/><text class="cls-4" transform="translate(241.43 190.3)">2</text><text class="cls-4" transform="translate(244.21 190.3)">6</text><polyline class="cls-5" points="226.74 27.05 218.19 27.05 218.19 44.51 226.74 44.51 226.74 27.05"/><text class="cls-6" transform="matrix(0, -1, 1, 0, 224.21, 38.55)">3</text><text class="cls-6" transform="matrix(0, -1, 1, 0, 224.21, 35.78)">7</text><polyline class="cls-5" points="226.74 214.98 218.19 214.98 218.19 232.16 226.74 232.16 226.74 214.98"/><text class="cls-6" transform="matrix(0, -1, 1, 0, 224.21, 226.34)">2</text><text class="cls-6" transform="matrix(0, -1, 1, 0, 224.21, 223.57)">4</text><polyline class="cls-5" points="65.14 61.98 65.14 53.44 47.68 53.44 47.68 61.98 65.14 61.98"/><text class="cls-7" transform="translate(262.29 165.02)">-</text><text class="cls-7" transform="translate(262.29 60.24)">-</text><text class="cls-8" transform="matrix(0, -1, 1, 0, 159.44, 22.06)">O</text><text class="cls-8" transform="matrix(0, -1, 1, 0, 159.44, 16.45)">A</text><text class="cls-8" transform="matrix(0, -1, 1, 0, 159.44, 11.28)">2</text><text class="cls-8" transform="matrix(0, -1, 1, 0, 107.04, 22.35)">O</text><text class="cls-8" transform="matrix(0, -1, 1, 0, 107.04, 16.74)">A</text><text class="cls-8" transform="matrix(0, -1, 1, 0, 107.04, 11.57)">1</text><text class="cls-8" transform="matrix(0, -1, 1, 0, 172.55, 22.35)">-</text><text class="cls-8" transform="matrix(0, -1, 1, 0, 185.65, 22.35)">V</text><text class="cls-8" transform="matrix(0, -1, 1, 0, 185.65, 17.52)">S</text><text class="cls-8" transform="matrix(0, -1, 1, 0, 120.14, 22.06)">-</text><text class="cls-8" transform="matrix(0, -1, 1, 0, 133.24, 22.35)">B</text><text class="cls-8" transform="matrix(0, -1, 1, 0, 133.24, 17.39)">R</text><text class="cls-8" transform="matrix(0, -1, 1, 0, 133.24, 12.68)">A</text><text class="cls-8" transform="matrix(0, -1, 1, 0, 146.34, 22.35)">-</text><text class="cls-8" transform="matrix(0, -1, 1, 0, 211.85, 22.06)">V</text><text class="cls-8" transform="matrix(0, -1, 1, 0, 211.85, 17.23)">C</text><text class="cls-8" transform="matrix(0, -1, 1, 0, 211.85, 12.62)">P</text><text class="cls-7" transform="translate(20.83 151.91)">S</text><text class="cls-7" transform="translate(25.34 151.91)">T</text><text class="cls-7" transform="translate(29.52 151.91)">E</text><text class="cls-7" transform="translate(33.71 151.91)">P</text><text class="cls-7" transform="translate(25.27 73.3)">C</text><text class="cls-7" transform="translate(29.88 73.3)">L</text><text class="cls-7" transform="translate(33.8 73.3)">K</text><text class="cls-8" transform="matrix(0, -1, 1, 0, 120.23, 244.36)">-</text><text class="cls-8" transform="matrix(0, -1, 1, 0, 107.13, 256.54)">O</text><text class="cls-8" transform="matrix(0, -1, 1, 0, 107.13, 250.93)">B</text><text class="cls-8" transform="matrix(0, -1, 1, 0, 107.13, 245.97)">1</text><text class="cls-8" transform="matrix(0, -1, 1, 0, 224.95, 283.66)">D</text><text class="cls-8" transform="matrix(0, -1, 1, 0, 224.95, 278.13)">C</text><text class="cls-8" transform="matrix(0, -1, 1, 0, 224.95, 273.53)">E</text><text class="cls-8" transform="matrix(0, -1, 1, 0, 224.95, 269.34)">N</text><text class="cls-8" transform="matrix(0, -1, 1, 0, 224.95, 263.86)">_</text><text class="cls-8" transform="matrix(0, -1, 1, 0, 224.95, 260.07)">C</text><text class="cls-8" transform="matrix(0, -1, 1, 0, 224.95, 255.46)">F</text><text class="cls-8" transform="matrix(0, -1, 1, 0, 224.95, 251.28)">G</text><text class="cls-8" transform="matrix(0, -1, 1, 0, 224.95, 245.97)">4</text><text class="cls-8" transform="matrix(0, -1, 1, 0, 133.33, 256.58)">B</text><text class="cls-8" transform="matrix(0, -1, 1, 0, 133.33, 251.62)">R</text><text class="cls-8" transform="matrix(0, -1, 1, 0, 133.33, 246.91)">B</text><text class="cls-8" transform="matrix(0, -1, 1, 0, 159.54, 256.83)">O</text><text class="cls-8" transform="matrix(0, -1, 1, 0, 159.54, 251.22)">B</text><text class="cls-8" transform="matrix(0, -1, 1, 0, 159.54, 246.26)">2</text><text class="cls-8" transform="matrix(0, -1, 1, 0, 211.85, 257.39)">D</text><text class="cls-8" transform="matrix(0, -1, 1, 0, 211.85, 251.87)">C</text><text class="cls-8" transform="matrix(0, -1, 1, 0, 211.85, 247.26)">O</text><text class="cls-4" transform="translate(55.02 59.63)">1</text><polyline class="cls-5" points="86.98 66.35 86.99 193 213.63 193 213.63 66.35 86.98 66.35"/><text class="cls-7" transform="translate(0 60.2)">T</text><text class="cls-7" transform="translate(4.18 60.2)">S</text><text class="cls-7" transform="translate(8.69 60.2)">T</text><text class="cls-7" transform="translate(12.87 60.2)">_</text><text class="cls-7" transform="translate(16.67 60.2)">M</text><text class="cls-7" transform="translate(23.01 60.2)">O</text><text class="cls-7" transform="translate(28.62 60.2)">D</text><text class="cls-7" transform="translate(34.14 60.2)">E</text><text class="cls-7" transform="translate(24.94 165.02)">D</text><text class="cls-7" transform="translate(30.46 165.02)">I</text><text class="cls-7" transform="translate(33.61 165.02)">R</text><text class="cls-7" transform="translate(11.72 178.12)">V</text><text class="cls-7" transform="translate(16.56 178.12)">C</text><text class="cls-7" transform="translate(21.16 178.12)">C</text><text class="cls-7" transform="translate(25.77 178.12)">_</text><text class="cls-7" transform="translate(29.57 178.12)">I</text><text class="cls-7" transform="translate(32.72 178.12)">O</text><text class="cls-7" transform="translate(0.48 138.81)">S</text><text class="cls-7" transform="translate(4.99 138.81)">D</text><text class="cls-7" transform="translate(10.51 138.81)">O</text><text class="cls-7" transform="translate(16.12 138.81)">_</text><text class="cls-7" transform="translate(19.91 138.81)">C</text><text class="cls-7" transform="translate(24.52 138.81)">F</text><text class="cls-7" transform="translate(28.7 138.81)">G</text><text class="cls-7" transform="translate(34.01 138.81)">0</text><text class="cls-7" transform="translate(2.94 112.61)">S</text><text class="cls-7" transform="translate(7.45 112.61)">D</text><text class="cls-7" transform="translate(12.97 112.61)">I</text><text class="cls-7" transform="translate(16.12 112.61)">_</text><text class="cls-7" transform="translate(19.91 112.61)">C</text><text class="cls-7" transform="translate(24.52 112.61)">F</text><text class="cls-7" transform="translate(28.7 112.61)">G</text><text class="cls-7" transform="translate(34.01 112.61)">1</text><text class="cls-7" transform="translate(2.48 99.51)">S</text><text class="cls-7" transform="translate(6.99 99.51)">C</text><text class="cls-7" transform="translate(11.59 99.51)">K</text><text class="cls-7" transform="translate(16.12 99.51)">_</text><text class="cls-7" transform="translate(19.91 99.51)">C</text><text class="cls-7" transform="translate(24.52 99.51)">F</text><text class="cls-7" transform="translate(28.7 99.51)">G</text><text class="cls-7" transform="translate(34.01 99.51)">2</text><text class="cls-7" transform="translate(1.53 86.41)">C</text><text class="cls-7" transform="translate(6.13 86.41)">S</text><text class="cls-7" transform="translate(10.64 86.41)">N</text><text class="cls-7" transform="translate(16.12 86.41)">_</text><text class="cls-7" transform="translate(19.91 86.41)">C</text><text class="cls-7" transform="translate(24.52 86.41)">F</text><text class="cls-7" transform="translate(28.7 86.41)">G</text><text class="cls-7" transform="translate(34.01 86.41)">3</text><text class="cls-7" transform="translate(262.29 178.12)">D</text><text class="cls-7" transform="translate(267.81 178.12)">I</text><text class="cls-7" transform="translate(270.96 178.12)">A</text><text class="cls-7" transform="translate(276.14 178.12)">G</text><text class="cls-7" transform="translate(281.44 178.12)">1</text><text class="cls-7" transform="translate(262.29 191.22)">D</text><text class="cls-7" transform="translate(267.81 191.22)">I</text><text class="cls-7" transform="translate(270.96 191.22)">A</text><text class="cls-7" transform="translate(276.14 191.22)">G</text><text class="cls-7" transform="translate(281.44 191.22)">0</text><text class="cls-7" transform="translate(262.29 138.81)">A</text><text class="cls-7" transform="translate(267.46 138.81)">I</text><text class="cls-7" transform="translate(270.61 138.81)">N</text><text class="cls-7" transform="translate(276.09 138.81)">_</text><text class="cls-7" transform="translate(279.89 138.81)">I</text><text class="cls-7" transform="translate(283.04 138.81)">R</text><text class="cls-7" transform="translate(287.75 138.81)">E</text><text class="cls-7" transform="translate(291.93 138.81)">F</text><text class="cls-7" transform="translate(262.29 112.5)">G</text><text class="cls-7" transform="translate(267.59 112.5)">N</text><text class="cls-7" transform="translate(273.07 112.5)">D</text><text class="cls-7" transform="translate(278.59 112.5)">A</text><text class="cls-7" transform="translate(262.29 73.05)">C</text><text class="cls-7" transform="translate(266.9 73.05)">P</text><text class="cls-7" transform="translate(271.51 73.05)">O</text><text class="cls-7" transform="translate(35.91 125.71)">-</text><text class="cls-7" transform="translate(35.91 191.22)">-</text><text class="cls-8" transform="matrix(0, -1, 1, 0, 146.43, 244.07)">-</text><text class="cls-8" transform="matrix(0, -1, 1, 0, 198.75, 22.06)">V</text><text class="cls-8" transform="matrix(0, -1, 1, 0, 198.75, 17.23)">S</text><text class="cls-8" transform="matrix(0, -1, 1, 0, 198.75, 12.72)">A</text><text class="cls-8" transform="matrix(0, -1, 1, 0, 94.03, 244.07)">-</text><circle class="cls-9" cx="79.99" cy="57.61" r="4.37"/><circle class="cls-10" cx="79.99" cy="57.61" r="4.37"/><polyline class="cls-5" points="65.14 74.9 65.14 66.35 47.68 66.35 47.68 74.9 65.14 74.9"/><text class="cls-4" transform="translate(55.02 72.38)">2</text><polyline class="cls-5" points="65.14 88 65.14 79.45 47.68 79.45 47.68 88 65.14 88"/><text class="cls-4" transform="translate(55.02 85.48)">3</text><polyline class="cls-5" points="65.14 101.1 65.14 92.56 47.68 92.56 47.68 101.1 65.14 101.1"/><text class="cls-4" transform="translate(55.02 98.58)">4</text><polyline class="cls-5" points="65.14 114.39 65.14 105.84 47.68 105.84 47.68 114.39 65.14 114.39"/><text class="cls-4" transform="translate(55.02 111.87)">5</text><polyline class="cls-5" points="65.14 127.31 65.14 118.75 47.68 118.75 47.68 127.31 65.14 127.31"/><text class="cls-4" transform="translate(55.02 124.79)">6</text><polyline class="cls-5" points="65.14 140.41 65.14 131.85 47.68 131.85 47.68 140.41 65.14 140.41"/><text class="cls-4" transform="translate(55.02 137.89)">7</text><polyline class="cls-5" points="65.14 153.51 65.14 144.96 47.68 144.96 47.68 153.51 65.14 153.51"/><text class="cls-4" transform="translate(55.02 150.99)">8</text><polyline class="cls-5" points="65.14 166.61 65.14 158.06 47.68 158.06 47.68 166.61 65.14 166.61"/><text class="cls-4" transform="translate(55.02 164.09)">9</text><polyline class="cls-5" points="65.14 179.72 65.14 171.16 47.68 171.16 47.68 179.72 65.14 179.72"/><text class="cls-4" transform="translate(53.64 177.19)">1</text><text class="cls-4" transform="translate(56.41 177.19)">0</text><polyline class="cls-5" points="65.14 192.82 65.14 184.26 47.68 184.26 47.68 192.82 65.14 192.82"/><text class="cls-4" transform="translate(53.64 190.3)">1</text><text class="cls-4" transform="translate(56.41 190.3)">1</text><polyline class="cls-5" points="95.9 214.98 87.35 214.98 87.35 232.16 95.9 232.16 95.9 214.98"/><text class="cls-6" transform="matrix(0, -1, 1, 0, 93.38, 226.34)">1</text><text class="cls-6" transform="matrix(0, -1, 1, 0, 93.38, 223.57)">4</text><polyline class="cls-5" points="108.82 214.98 100.27 214.98 100.27 232.16 108.82 232.16 108.82 214.98"/><text class="cls-6" transform="matrix(0, -1, 1, 0, 106.3, 226.34)">1</text><text class="cls-6" transform="matrix(0, -1, 1, 0, 106.3, 223.57)">5</text><polyline class="cls-5" points="121.92 214.98 113.37 214.98 113.37 232.16 121.92 232.16 121.92 214.98"/><text class="cls-6" transform="matrix(0, -1, 1, 0, 119.4, 226.34)">1</text><text class="cls-6" transform="matrix(0, -1, 1, 0, 119.4, 223.57)">6</text><polyline class="cls-5" points="135.02 214.98 126.47 214.98 126.47 232.16 135.02 232.16 135.02 214.98"/><text class="cls-6" transform="matrix(0, -1, 1, 0, 132.5, 226.34)">1</text><text class="cls-6" transform="matrix(0, -1, 1, 0, 132.5, 223.57)">7</text><polyline class="cls-5" points="148.31 214.98 139.76 214.98 139.76 232.16 148.31 232.16 148.31 214.98"/><text class="cls-6" transform="matrix(0, -1, 1, 0, 145.79, 226.34)">1</text><text class="cls-6" transform="matrix(0, -1, 1, 0, 145.79, 223.57)">8</text><polyline class="cls-5" points="161.22 214.98 152.68 214.98 152.68 232.16 161.22 232.16 161.22 214.98"/><text class="cls-6" transform="matrix(0, -1, 1, 0, 158.7, 226.34)">1</text><text class="cls-6" transform="matrix(0, -1, 1, 0, 158.71, 223.57)">9</text><polyline class="cls-5" points="174.33 214.98 165.78 214.98 165.78 232.16 174.33 232.16 174.33 214.98"/><text class="cls-6" transform="matrix(0, -1, 1, 0, 171.81, 226.34)">2</text><text class="cls-6" transform="matrix(0, -1, 1, 0, 171.81, 223.57)">0</text><polyline class="cls-5" points="187.43 214.98 178.88 214.98 178.88 232.16 187.43 232.16 187.43 214.98"/><text class="cls-6" transform="matrix(0, -1, 1, 0, 184.91, 226.34)">2</text><text class="cls-6" transform="matrix(0, -1, 1, 0, 184.91, 223.57)">1</text><polyline class="cls-5" points="200.53 214.98 191.98 214.98 191.98 232.16 200.53 232.16 200.53 214.98"/><text class="cls-6" transform="matrix(0, -1, 1, 0, 198.01, 226.34)">2</text><text class="cls-6" transform="matrix(0, -1, 1, 0, 198.01, 223.57)">2</text><polyline class="cls-5" points="213.82 214.98 205.27 214.98 205.27 232.16 213.82 232.16 213.82 214.98"/><text class="cls-6" transform="matrix(0, -1, 1, 0, 211.3, 226.34)">2</text><text class="cls-6" transform="matrix(0, -1, 1, 0, 211.3, 223.57)">3</text><polyline class="cls-5" points="252.94 61.8 252.94 53.25 235.47 53.25 235.47 61.8 252.94 61.8"/><text class="cls-4" transform="translate(241.43 59.28)">3</text><text class="cls-4" transform="translate(244.21 59.28)">6</text><polyline class="cls-5" points="252.94 74.9 252.94 66.35 235.47 66.35 235.47 74.9 252.94 74.9"/><text class="cls-4" transform="translate(241.43 72.38)">3</text><text class="cls-4" transform="translate(244.21 72.38)">5</text><polyline class="cls-5" points="252.94 88 252.94 79.45 235.47 79.45 235.47 88 252.94 88"/><text class="cls-4" transform="translate(241.43 85.48)">3</text><text class="cls-4" transform="translate(244.21 85.48)">4</text><polyline class="cls-5" points="252.94 101.29 252.94 92.74 235.47 92.74 235.47 101.29 252.94 101.29"/><text class="cls-4" transform="translate(241.43 98.77)">3</text><text class="cls-4" transform="translate(244.21 98.77)">3</text><polyline class="cls-5" points="252.94 114.2 252.94 105.66 235.47 105.66 235.47 114.2 252.94 114.2"/><text class="cls-4" transform="translate(241.43 111.68)">3</text><text class="cls-4" transform="translate(244.21 111.68)">2</text><polyline class="cls-5" points="252.94 127.31 252.94 118.75 235.47 118.75 235.47 127.31 252.94 127.31"/><text class="cls-4" transform="translate(241.43 124.79)">3</text><text class="cls-4" transform="translate(244.21 124.79)">1</text><polyline class="cls-5" points="252.94 140.41 252.94 131.85 235.47 131.85 235.47 140.41 252.94 140.41"/><text class="cls-4" transform="translate(241.43 137.89)">3</text><text class="cls-4" transform="translate(244.21 137.89)">0</text><polyline class="cls-5" points="252.94 153.51 252.94 144.96 235.47 144.96 235.47 153.51 252.94 153.51"/><text class="cls-4" transform="translate(241.43 150.99)">2</text><text class="cls-4" transform="translate(244.21 150.99)">9</text><polyline class="cls-5" points="252.94 166.61 252.94 158.06 235.47 158.06 235.47 166.61 252.94 166.61"/><text class="cls-4" transform="translate(241.43 164.09)">2</text><text class="cls-4" transform="translate(244.21 164.09)">8</text><polyline class="cls-5" points="252.94 179.72 252.94 171.16 235.47 171.16 235.47 179.72 252.94 179.72"/><text class="cls-4" transform="translate(241.43 177.19)">2</text><text class="cls-4" transform="translate(244.21 177.19)">7</text><polyline class="cls-5" points="82.8 27.05 74.25 27.05 74.25 44.51 82.8 44.51 82.8 27.05"/><text class="cls-6" transform="matrix(0, -1, 1, 0, 80.28, 38.55)">4</text><text class="cls-6" transform="matrix(0, -1, 1, 0, 80.28, 35.78)">8</text><polyline class="cls-5" points="95.9 27.05 87.35 27.05 87.35 44.51 95.9 44.51 95.9 27.05"/><text class="cls-6" transform="matrix(0, -1, 1, 0, 93.38, 38.55)">4</text><text class="cls-6" transform="matrix(0, -1, 1, 0, 93.38, 35.78)">7</text><polyline class="cls-5" points="109 27.05 100.45 27.05 100.45 44.51 109 44.51 109 27.05"/><text class="cls-6" transform="matrix(0, -1, 1, 0, 106.48, 38.55)">4</text><text class="cls-6" transform="matrix(0, -1, 1, 0, 106.48, 35.78)">6</text><polyline class="cls-5" points="122.29 27.05 113.74 27.05 113.74 44.51 122.29 44.51 122.29 27.05"/><text class="cls-6" transform="matrix(0, -1, 1, 0, 119.77, 38.55)">4</text><text class="cls-6" transform="matrix(0, -1, 1, 0, 119.77, 35.78)">5</text><polyline class="cls-5" points="135.21 27.05 126.66 27.05 126.66 44.51 135.21 44.51 135.21 27.05"/><text class="cls-6" transform="matrix(0, -1, 1, 0, 132.69, 38.55)">4</text><text class="cls-6" transform="matrix(0, -1, 1, 0, 132.69, 35.78)">4</text><polyline class="cls-5" points="148.31 27.05 139.76 27.05 139.76 44.51 148.31 44.51 148.31 27.05"/><text class="cls-6" transform="matrix(0, -1, 1, 0, 145.79, 38.55)">4</text><text class="cls-6" transform="matrix(0, -1, 1, 0, 145.79, 35.78)">3</text><polyline class="cls-5" points="161.41 27.05 152.86 27.05 152.86 44.51 161.41 44.51 161.41 27.05"/><text class="cls-6" transform="matrix(0, -1, 1, 0, 158.89, 38.55)">4</text><text class="cls-6" transform="matrix(0, -1, 1, 0, 158.89, 35.78)">2</text><polyline class="cls-5" points="174.51 27.05 165.96 27.05 165.96 44.51 174.51 44.51 174.51 27.05"/><text class="cls-6" transform="matrix(0, -1, 1, 0, 171.99, 38.55)">4</text><text class="cls-6" transform="matrix(0, -1, 1, 0, 171.99, 35.78)">1</text><polyline class="cls-5" points="187.8 27.05 179.25 27.05 179.25 44.51 187.8 44.51 187.8 27.05"/><text class="cls-6" transform="matrix(0, -1, 1, 0, 185.28, 38.55)">4</text><text class="cls-6" transform="matrix(0, -1, 1, 0, 185.28, 35.78)">0</text><polyline class="cls-5" points="200.72 27.05 192.17 27.05 192.17 44.51 200.72 44.51 200.72 27.05"/><text class="cls-6" transform="matrix(0, -1, 1, 0, 198.2, 38.55)">3</text><text class="cls-6" transform="matrix(0, -1, 1, 0, 198.2, 35.78)">9</text><text class="cls-7" transform="translate(262.29 151.91)">D</text><text class="cls-7" transform="translate(267.81 151.91)">R</text><text class="cls-7" transform="translate(272.52 151.91)">V</text><text class="cls-7" transform="translate(277.36 151.91)">_</text><text class="cls-7" transform="translate(281.15 151.91)">E</text><text class="cls-7" transform="translate(285.34 151.91)">N</text><text class="cls-7" transform="translate(290.82 151.91)">N</text><text class="cls-7" transform="translate(296.29 151.91)">_</text><text class="cls-7" transform="translate(300.09 151.91)">C</text><text class="cls-7" transform="translate(304.7 151.91)">F</text><text class="cls-7" transform="translate(308.88 151.91)">G</text><text class="cls-7" transform="translate(314.18 151.91)">6</text><polyline class="cls-5" points="213.82 27.05 205.27 27.05 205.27 44.51 213.82 44.51 213.82 27.05"/><text class="cls-6" transform="matrix(0, -1, 1, 0, 211.3, 38.55)">3</text><text class="cls-6" transform="matrix(0, -1, 1, 0, 211.3, 35.78)">8</text><text class="cls-8" transform="matrix(0, -1, 1, 0, 80.83, 262.58)">G</text><text class="cls-8" transform="matrix(0, -1, 1, 0, 80.83, 257.27)">N</text><text class="cls-8" transform="matrix(0, -1, 1, 0, 80.83, 251.79)">D</text><text class="cls-8" transform="matrix(0, -1, 1, 0, 80.83, 246.27)">P</text><polyline class="cls-5" points="82.61 214.98 74.06 214.98 74.06 232.16 82.61 232.16 82.61 214.98"/><text class="cls-6" transform="matrix(0, -1, 1, 0, 80.09, 226.34)">1</text><text class="cls-6" transform="matrix(0, -1, 1, 0, 80.09, 223.57)">3</text><text class="cls-8" transform="matrix(0, -1, 1, 0, 224.96, 22.06)">C</text><text class="cls-8" transform="matrix(0, -1, 1, 0, 224.95, 17.45)">P</text><text class="cls-8" transform="matrix(0, -1, 1, 0, 224.95, 12.84)">I</text><text class="cls-7" transform="translate(262.29 86.3)">V</text><text class="cls-7" transform="translate(267.12 86.3)">C</text><text class="cls-7" transform="translate(271.73 86.3)">C</text><text class="cls-7" transform="translate(262.29 99.4)">5</text><text class="cls-7" transform="translate(266.6 99.4)">V</text><text class="cls-7" transform="translate(271.43 99.4)">O</text><text class="cls-7" transform="translate(277.04 99.4)">U</text><text class="cls-7" transform="translate(282.31 99.4)">T</text><polyline class="cls-11" points="65.14 214.84 235.47 214.84 235.47 44.51 65.14 44.51 65.14 214.84"/><text class="cls-12" transform="translate(178.42 190.11)">P</text><text class="cls-12" transform="translate(181.06 190.11)">A</text><text class="cls-12" transform="translate(184.02 190.11)">D</text><text class="cls-12" transform="translate(187.18 190.11)"> </text><text class="cls-12" transform="translate(188.9 190.11)">=</text><text class="cls-12" transform="translate(190.97 190.11)"> </text><text class="cls-12" transform="translate(192.7 190.11)">G</text><text class="cls-12" transform="translate(195.73 190.11)">N</text><text class="cls-12" transform="translate(198.86 190.11)">D</text><text class="cls-12" transform="translate(202.02 190.11)">D</text><polyline class="cls-5" points="65.14 206.1 65.14 197.55 47.68 197.55 47.68 206.1 65.14 206.1"/><text class="cls-4" transform="translate(53.64 203.58)">1</text><text class="cls-4" transform="translate(56.41 203.58)">2</text><text class="cls-7" transform="translate(0.6 204.32)">S</text><text class="cls-7" transform="translate(5.11 204.32)">P</text><text class="cls-7" transform="translate(9.72 204.32)">I</text><text class="cls-7" transform="translate(12.87 204.32)">_</text><text class="cls-7" transform="translate(16.67 204.32)">M</text><text class="cls-7" transform="translate(23.01 204.32)">O</text><text class="cls-7" transform="translate(28.62 204.32)">D</text><text class="cls-7" transform="translate(34.14 204.32)">E</text><text class="cls-8" transform="matrix(0, -1, 1, 0, 172.55, 244.07)">-</text><text class="cls-8" transform="matrix(0, -1, 1, 0, 185.65, 250.99)">V</text><text class="cls-8" transform="matrix(0, -1, 1, 0, 185.65, 246.16)">S</text><text class="cls-8" transform="matrix(0, -1, 1, 0, 198.75, 244.07)">-</text><text class="cls-7" transform="translate(262.29 204.32)">D</text><text class="cls-7" transform="translate(267.81 204.32)">C</text><text class="cls-7" transform="translate(272.42 204.32)">I</text><text class="cls-7" transform="translate(275.57 204.32)">N</text><text class="cls-7" transform="translate(281.05 204.32)">_</text><text class="cls-7" transform="translate(284.84 204.32)">C</text><text class="cls-7" transform="translate(289.45 204.32)">F</text><text class="cls-7" transform="translate(293.64 204.32)">G</text><text class="cls-7" transform="translate(298.94 204.32)">5</text><text class="cls-7" transform="translate(262.29 125.71)">-</text><text class="cls-8" transform="matrix(0, -1, 1, 0, 93.93, 22.06)">-</text><text class="cls-8" transform="matrix(0, -1, 1, 0, 80.83, 22.06)">G</text><text class="cls-8" transform="matrix(0, -1, 1, 0, 80.83, 16.75)">N</text><text class="cls-8" transform="matrix(0, -1, 1, 0, 80.83, 11.28)">D</text><text class="cls-8" transform="matrix(0, -1, 1, 0, 80.83, 5.75)">P</text><text class="cls-13" transform="translate(112.45 116.36)">T</text><text class="cls-13" transform="translate(119.62 116.36)">M</text><text class="cls-13" transform="translate(130.49 116.36)">C</text><text class="cls-13" transform="translate(138.39 116.36)">2</text><text class="cls-13" transform="translate(145.79 116.36)">1</text><text class="cls-13" transform="translate(153.18 116.36)">3</text><text class="cls-13" transform="translate(160.58 116.36)">0</text><text class="cls-13" transform="translate(167.97 116.36)">-</text><text class="cls-13" transform="translate(172.12 116.36)">T</text><text class="cls-13" transform="translate(179.29 116.36)">A</text><text class="cls-13" transform="translate(124.9 134.11)">T</text><text class="cls-13" transform="translate(132.08 134.11)">Q</text><text class="cls-13" transform="translate(141.69 134.11)">F</text><text class="cls-13" transform="translate(148.86 134.11)">P</text><text class="cls-13" transform="translate(156.78 134.11)">-</text><text class="cls-13" transform="translate(160.92 134.11)">4</text><text class="cls-13" transform="translate(168.31 134.11)">8</text><text class="cls-13" transform="translate(109.52 151.86)">9</text><text class="cls-13" transform="translate(116.92 151.86)">m</text><text class="cls-13" transform="translate(129.41 151.86)">m</text><text class="cls-13" transform="translate(141.91 151.86)"> </text><text class="cls-13" transform="translate(147.09 151.86)">x</text><text class="cls-13" transform="translate(153.52 151.86)"> </text><text class="cls-13" transform="translate(158.7 151.86)">9</text><text class="cls-13" transform="translate(166.09 151.86)">m</text><text class="cls-13" transform="translate(178.59 151.86)">m</text></g></g></g></svg>