<svg xmlns="http://www.w3.org/2000/svg" xmlns:xlink="http://www.w3.org/1999/xlink" viewBox="0 0 260.84 274.72"><defs><style>.cls-1,.cls-10,.cls-12,.cls-4{fill:none;}.cls-2{clip-path:url(#clip-path);}.cls-3{fill:#fff;}.cls-10,.cls-12,.cls-4{stroke:#000;stroke-linecap:round;stroke-linejoin:round;}.cls-4{stroke-width:0.44px;}.cls-5{font-size:8.61px;}.cls-11,.cls-13,.cls-14,.cls-15,.cls-5,.cls-6,.cls-7,.cls-8{font-family:ManualOrifice,Bold, ManualOrifice,Bold;}.cls-6,.cls-8{font-size:8.6px;}.cls-7{font-size:5.54px;}.cls-8{fill:#7f7f7f;}.cls-9{fill:#bfbfbf;}.cls-10{stroke-width:0.15px;}.cls-11{font-size:5.53px;}.cls-12{stroke-width:0.74px;}.cls-13{font-size:4.92px;}.cls-14{font-size:14.76px;}.cls-15{font-size:9.84px;}</style><clipPath id="clip-path"><rect class="cls-1" x="-36.8" y="-1.39" width="329.16" height="283.41"/></clipPath></defs><title>TMC2130-LA</title><g id="Ebene_2" data-name="Ebene 2"><g id="Ebene_1-2" data-name="Ebene 1"><g class="cls-2"><rect class="cls-3" x="51.39" y="73.15" width="13.06" height="8.53"/><rect class="cls-4" x="51.39" y="73.15" width="13.06" height="8.53"/><text class="cls-5" transform="translate(204.34 80.82)">C</text><text class="cls-5" transform="translate(208.93 80.82)">P</text><text class="cls-5" transform="translate(213.53 80.82)">I</text><text class="cls-6" transform="matrix(0, -1, 1, 0, 116.64, 39.81)">B</text><text class="cls-6" transform="matrix(0, -1, 1, 0, 116.64, 34.86)">R</text><text class="cls-6" transform="matrix(0, -1, 1, 0, 116.64, 30.16)">A</text><text class="cls-6" transform="matrix(0, -1, 1, 0, 129.69, 40.1)">O</text><text class="cls-6" transform="matrix(0, -1, 1, 0, 129.69, 34.51)">A</text><text class="cls-6" transform="matrix(0, -1, 1, 0, 129.69, 29.34)">2</text><text class="cls-6" transform="matrix(0, -1, 1, 0, 142.75, 40.1)">V</text><text class="cls-6" transform="matrix(0, -1, 1, 0, 142.75, 35.28)">S</text><text class="cls-6" transform="matrix(0, -1, 1, 0, 77.46, 39.81)">T</text><text class="cls-6" transform="matrix(0, -1, 1, 0, 77.46, 35.63)">S</text><text class="cls-6" transform="matrix(0, -1, 1, 0, 77.46, 31.14)">T</text><text class="cls-6" transform="matrix(0, -1, 1, 0, 77.46, 26.97)">_</text><text class="cls-6" transform="matrix(0, -1, 1, 0, 77.46, 23.18)">M</text><text class="cls-6" transform="matrix(0, -1, 1, 0, 77.46, 16.85)">O</text><text class="cls-6" transform="matrix(0, -1, 1, 0, 77.46, 11.25)">D</text><text class="cls-6" transform="matrix(0, -1, 1, 0, 77.46, 5.74)">E</text><text class="cls-6" transform="matrix(0, -1, 1, 0, 90.52, 40.1)">G</text><text class="cls-6" transform="matrix(0, -1, 1, 0, 90.52, 34.81)">N</text><text class="cls-6" transform="matrix(0, -1, 1, 0, 90.52, 29.34)">D</text><text class="cls-6" transform="matrix(0, -1, 1, 0, 90.52, 23.83)">P</text><text class="cls-6" transform="matrix(0, -1, 1, 0, 103.58, 40.1)">O</text><text class="cls-6" transform="matrix(0, -1, 1, 0, 103.58, 34.51)">A</text><text class="cls-6" transform="matrix(0, -1, 1, 0, 103.58, 29.34)">1</text><text class="cls-6" transform="matrix(0, -1, 1, 0, 168.87, 39.81)">V</text><text class="cls-6" transform="matrix(0, -1, 1, 0, 168.87, 34.99)">C</text><text class="cls-6" transform="matrix(0, -1, 1, 0, 168.87, 30.39)">P</text><text class="cls-5" transform="translate(20.28 145.28)">S</text><text class="cls-5" transform="translate(24.77 145.28)">T</text><text class="cls-5" transform="translate(28.94 145.28)">E</text><text class="cls-5" transform="translate(33.11 145.28)">P</text><text class="cls-5" transform="translate(24.71 79.91)">C</text><text class="cls-5" transform="translate(29.3 79.91)">L</text><text class="cls-5" transform="translate(33.21 79.91)">K</text><text class="cls-6" transform="matrix(0, -1, 1, 0, 103.76, 247.95)">O</text><text class="cls-6" transform="matrix(0, -1, 1, 0, 103.76, 242.36)">B</text><text class="cls-6" transform="matrix(0, -1, 1, 0, 103.76, 237.4)">1</text><text class="cls-6" transform="matrix(0, -1, 1, 0, 90.71, 253.69)">G</text><text class="cls-6" transform="matrix(0, -1, 1, 0, 90.71, 248.39)">N</text><text class="cls-6" transform="matrix(0, -1, 1, 0, 90.71, 242.93)">D</text><text class="cls-6" transform="matrix(0, -1, 1, 0, 90.71, 237.42)">P</text><text class="cls-6" transform="matrix(0, -1, 1, 0, 168.87, 274.72)">D</text><text class="cls-6" transform="matrix(0, -1, 1, 0, 168.87, 269.21)">C</text><text class="cls-6" transform="matrix(0, -1, 1, 0, 168.87, 264.62)">E</text><text class="cls-6" transform="matrix(0, -1, 1, 0, 168.87, 260.44)">N</text><text class="cls-6" transform="matrix(0, -1, 1, 0, 168.87, 254.97)">_</text><text class="cls-6" transform="matrix(0, -1, 1, 0, 168.87, 251.18)">C</text><text class="cls-6" transform="matrix(0, -1, 1, 0, 168.87, 246.58)">F</text><text class="cls-6" transform="matrix(0, -1, 1, 0, 168.87, 242.41)">G</text><text class="cls-6" transform="matrix(0, -1, 1, 0, 168.87, 237.11)">4</text><text class="cls-6" transform="matrix(0, -1, 1, 0, 116.82, 247.7)">B</text><text class="cls-6" transform="matrix(0, -1, 1, 0, 116.82, 242.75)">R</text><text class="cls-6" transform="matrix(0, -1, 1, 0, 116.82, 238.05)">B</text><text class="cls-6" transform="matrix(0, -1, 1, 0, 142.94, 242.42)">V</text><text class="cls-6" transform="matrix(0, -1, 1, 0, 142.94, 237.59)">S</text><text class="cls-6" transform="matrix(0, -1, 1, 0, 155.99, 248.8)">D</text><text class="cls-6" transform="matrix(0, -1, 1, 0, 155.99, 243.29)">C</text><text class="cls-6" transform="matrix(0, -1, 1, 0, 155.99, 238.7)">O</text><text class="cls-7" transform="translate(56.53 79.34)">1</text><polygon class="cls-4" points="73.15 85.33 73.15 193.26 168.9 193.26 168.9 79.94 77.7 79.94 73.15 85.33"/><text class="cls-5" transform="translate(24.38 158.36)">D</text><text class="cls-5" transform="translate(29.88 158.36)">I</text><text class="cls-5" transform="translate(33.02 158.36)">R</text><text class="cls-5" transform="translate(11.2 171.43)">V</text><text class="cls-5" transform="translate(16.02 171.43)">C</text><text class="cls-5" transform="translate(20.61 171.43)">C</text><text class="cls-5" transform="translate(25.2 171.43)">_</text><text class="cls-5" transform="translate(28.99 171.43)">I</text><text class="cls-5" transform="translate(32.13 171.43)">O</text><text class="cls-5" transform="translate(0 132.21)">S</text><text class="cls-5" transform="translate(4.49 132.21)">D</text><text class="cls-5" transform="translate(9.99 132.21)">O</text><text class="cls-5" transform="translate(15.58 132.21)">_</text><text class="cls-5" transform="translate(19.36 132.21)">C</text><text class="cls-5" transform="translate(23.96 132.21)">F</text><text class="cls-5" transform="translate(28.13 132.21)">G</text><text class="cls-5" transform="translate(33.42 132.21)">0</text><text class="cls-5" transform="translate(2.45 119.13)">S</text><text class="cls-5" transform="translate(6.94 119.13)">D</text><text class="cls-5" transform="translate(12.44 119.13)">I</text><text class="cls-5" transform="translate(15.58 119.13)">_</text><text class="cls-5" transform="translate(19.36 119.13)">C</text><text class="cls-5" transform="translate(23.96 119.13)">F</text><text class="cls-5" transform="translate(28.13 119.13)">G</text><text class="cls-5" transform="translate(33.42 119.13)">1</text><text class="cls-5" transform="translate(2 106.06)">S</text><text class="cls-5" transform="translate(6.48 106.06)">C</text><text class="cls-5" transform="translate(11.07 106.06)">K</text><text class="cls-5" transform="translate(15.58 106.06)">_</text><text class="cls-5" transform="translate(19.36 106.06)">C</text><text class="cls-5" transform="translate(23.96 106.06)">F</text><text class="cls-5" transform="translate(28.13 106.06)">G</text><text class="cls-5" transform="translate(33.42 106.06)">2</text><text class="cls-5" transform="translate(1.04 92.98)">C</text><text class="cls-5" transform="translate(5.63 92.98)">S</text><text class="cls-5" transform="translate(10.12 92.98)">N</text><text class="cls-5" transform="translate(15.58 92.98)">_</text><text class="cls-5" transform="translate(19.36 92.98)">C</text><text class="cls-5" transform="translate(23.96 92.98)">F</text><text class="cls-5" transform="translate(28.13 92.98)">G</text><text class="cls-5" transform="translate(33.42 92.98)">3</text><text class="cls-5" transform="translate(204.34 172.31)">D</text><text class="cls-5" transform="translate(209.84 172.31)">I</text><text class="cls-5" transform="translate(212.98 172.31)">A</text><text class="cls-5" transform="translate(218.14 172.31)">G</text><text class="cls-5" transform="translate(223.42 172.31)">1</text><text class="cls-5" transform="translate(204.34 185.38)">D</text><text class="cls-5" transform="translate(209.84 185.38)">I</text><text class="cls-5" transform="translate(212.98 185.38)">A</text><text class="cls-5" transform="translate(218.14 185.38)">G</text><text class="cls-5" transform="translate(223.42 185.38)">0</text><text class="cls-5" transform="translate(204.34 146.05)">A</text><text class="cls-5" transform="translate(209.49 146.05)">I</text><text class="cls-5" transform="translate(212.63 146.05)">N</text><text class="cls-5" transform="translate(218.09 146.05)">_</text><text class="cls-5" transform="translate(221.88 146.05)">I</text><text class="cls-5" transform="translate(225.01 146.05)">R</text><text class="cls-5" transform="translate(229.71 146.05)">E</text><text class="cls-5" transform="translate(233.88 146.05)">F</text><text class="cls-5" transform="translate(204.34 132.98)">G</text><text class="cls-5" transform="translate(209.62 132.98)">N</text><text class="cls-5" transform="translate(215.08 132.98)">D</text><text class="cls-5" transform="translate(220.59 132.98)">A</text><text class="cls-5" transform="translate(204.34 93.6)">C</text><text class="cls-5" transform="translate(208.93 93.6)">P</text><text class="cls-5" transform="translate(213.53 93.6)">O</text><text class="cls-5" transform="translate(35.31 184.51)">-</text><text class="cls-6" transform="matrix(0, -1, 1, 0, 129.88, 247.66)">O</text><text class="cls-6" transform="matrix(0, -1, 1, 0, 129.88, 242.06)">B</text><text class="cls-6" transform="matrix(0, -1, 1, 0, 129.88, 237.11)">2</text><text class="cls-6" transform="matrix(0, -1, 1, 0, 155.81, 39.81)">V</text><text class="cls-6" transform="matrix(0, -1, 1, 0, 155.81, 34.99)">S</text><text class="cls-6" transform="matrix(0, -1, 1, 0, 155.81, 30.49)">A</text><text class="cls-8" transform="matrix(0, -1, 1, 0, 77.65, 235.22)">-</text><ellipse class="cls-9" cx="73.15" cy="75.58" rx="4.35" ry="4.36"/><ellipse class="cls-10" cx="73.15" cy="75.58" rx="4.35" ry="4.36"/><rect class="cls-3" x="51.39" y="86.04" width="13.06" height="8.53"/><rect class="cls-4" x="51.39" y="86.04" width="13.06" height="8.53"/><text class="cls-7" transform="translate(56.53 92.06)">2</text><rect class="cls-3" x="51.39" y="99.12" width="13.06" height="8.53"/><rect class="cls-4" x="51.39" y="99.12" width="13.06" height="8.53"/><text class="cls-7" transform="translate(56.53 105.14)">3</text><rect class="cls-3" x="51.39" y="112.19" width="13.06" height="8.53"/><rect class="cls-4" x="51.39" y="112.19" width="13.06" height="8.53"/><text class="cls-7" transform="translate(56.53 118.21)">4</text><rect class="cls-3" x="51.39" y="125.45" width="13.06" height="8.53"/><rect class="cls-4" x="51.39" y="125.45" width="13.06" height="8.53"/><text class="cls-7" transform="translate(56.53 131.47)">5</text><rect class="cls-3" x="51.39" y="138.34" width="13.06" height="8.53"/><rect class="cls-4" x="51.39" y="138.34" width="13.06" height="8.53"/><text class="cls-7" transform="translate(56.53 144.36)">6</text><rect class="cls-3" x="51.39" y="151.42" width="13.06" height="8.53"/><rect class="cls-4" x="51.39" y="151.42" width="13.06" height="8.53"/><text class="cls-7" transform="translate(56.53 157.44)">7</text><rect class="cls-3" x="51.39" y="164.49" width="13.06" height="8.53"/><rect class="cls-4" x="51.39" y="164.49" width="13.06" height="8.53"/><text class="cls-7" transform="translate(56.53 170.51)">8</text><rect class="cls-3" x="51.39" y="177.57" width="13.06" height="8.53"/><rect class="cls-4" x="51.39" y="177.57" width="13.06" height="8.53"/><text class="cls-7" transform="translate(56.53 183.59)">9</text><rect class="cls-3" x="51.39" y="190.65" width="13.06" height="8.53"/><rect class="cls-4" x="51.39" y="190.65" width="13.06" height="8.53"/><text class="cls-7" transform="translate(55.15 196.66)">1</text><text class="cls-7" transform="translate(57.92 196.66)">0</text><rect class="cls-3" x="71" y="206.34" width="8.52" height="13.08"/><rect class="cls-4" x="71" y="206.34" width="8.52" height="13.08"/><text class="cls-11" transform="matrix(0, -1, 1, 0, 77, 215.64)">1</text><text class="cls-11" transform="matrix(0, -1, 1, 0, 77, 212.87)">1</text><rect class="cls-3" x="83.87" y="206.34" width="8.52" height="13.08"/><rect class="cls-4" x="83.87" y="206.34" width="8.52" height="13.08"/><text class="cls-11" transform="matrix(0, -1, 1, 0, 89.88, 215.64)">1</text><text class="cls-11" transform="matrix(0, -1, 1, 0, 89.88, 212.87)">2</text><rect class="cls-3" x="96.93" y="206.34" width="8.52" height="13.08"/><rect class="cls-4" x="96.93" y="206.34" width="8.52" height="13.08"/><text class="cls-11" transform="matrix(0, -1, 1, 0, 102.93, 215.64)">1</text><text class="cls-11" transform="matrix(0, -1, 1, 0, 102.93, 212.87)">3</text><rect class="cls-3" x="109.98" y="206.34" width="8.52" height="13.08"/><rect class="cls-4" x="109.98" y="206.34" width="8.52" height="13.08"/><text class="cls-11" transform="matrix(0, -1, 1, 0, 115.99, 215.64)">1</text><text class="cls-11" transform="matrix(0, -1, 1, 0, 115.99, 212.87)">4</text><rect class="cls-3" x="123.23" y="206.34" width="8.52" height="13.08"/><rect class="cls-4" x="123.23" y="206.34" width="8.52" height="13.08"/><text class="cls-11" transform="matrix(0, -1, 1, 0, 129.23, 215.64)">1</text><text class="cls-11" transform="matrix(0, -1, 1, 0, 129.23, 212.87)">5</text><rect class="cls-3" x="136.1" y="206.34" width="8.52" height="13.08"/><rect class="cls-4" x="136.1" y="206.34" width="8.52" height="13.08"/><text class="cls-11" transform="matrix(0, -1, 1, 0, 142.11, 215.64)">1</text><text class="cls-11" transform="matrix(0, -1, 1, 0, 142.11, 212.87)">6</text><rect class="cls-3" x="149.16" y="206.34" width="8.52" height="13.08"/><rect class="cls-4" x="149.16" y="206.34" width="8.52" height="13.08"/><text class="cls-11" transform="matrix(0, -1, 1, 0, 155.16, 215.64)">1</text><text class="cls-11" transform="matrix(0, -1, 1, 0, 155.16, 212.87)">7</text><rect class="cls-3" x="162.21" y="206.34" width="8.52" height="13.08"/><rect class="cls-4" x="162.21" y="206.34" width="8.52" height="13.08"/><text class="cls-11" transform="matrix(0, -1, 1, 0, 168.22, 215.64)">1</text><text class="cls-11" transform="matrix(0, -1, 1, 0, 168.22, 212.87)">8</text><rect class="cls-4" x="177.61" y="73.84" width="13.06" height="8.53"/><text class="cls-7" transform="translate(181.37 79.86)">2</text><text class="cls-7" transform="translate(184.13 79.86)">8</text><rect class="cls-3" x="177.61" y="86.92" width="13.06" height="8.53"/><rect class="cls-4" x="177.61" y="86.92" width="13.06" height="8.53"/><text class="cls-7" transform="translate(181.37 92.93)">2</text><text class="cls-7" transform="translate(184.13 92.93)">7</text><rect class="cls-3" x="177.61" y="99.99" width="13.06" height="8.53"/><rect class="cls-4" x="177.61" y="99.99" width="13.06" height="8.53"/><text class="cls-7" transform="translate(181.37 106.01)">2</text><text class="cls-7" transform="translate(184.13 106.01)">6</text><rect class="cls-3" x="177.61" y="113.25" width="13.06" height="8.53"/><rect class="cls-4" x="177.61" y="113.25" width="13.06" height="8.53"/><text class="cls-7" transform="translate(181.37 119.27)">2</text><text class="cls-7" transform="translate(184.13 119.27)">5</text><rect class="cls-3" x="177.61" y="126.14" width="13.06" height="8.53"/><rect class="cls-4" x="177.61" y="126.14" width="13.06" height="8.53"/><text class="cls-7" transform="translate(181.37 132.16)">2</text><text class="cls-7" transform="translate(184.13 132.16)">4</text><rect class="cls-3" x="177.61" y="139.22" width="13.06" height="8.53"/><rect class="cls-4" x="177.61" y="139.22" width="13.06" height="8.53"/><text class="cls-7" transform="translate(181.37 145.23)">2</text><text class="cls-7" transform="translate(184.13 145.23)">3</text><rect class="cls-3" x="177.61" y="152.29" width="13.06" height="8.53"/><rect class="cls-4" x="177.61" y="152.29" width="13.06" height="8.53"/><text class="cls-7" transform="translate(181.37 158.31)">2</text><text class="cls-7" transform="translate(184.13 158.31)">2</text><rect class="cls-3" x="177.61" y="165.37" width="13.06" height="8.53"/><rect class="cls-4" x="177.61" y="165.37" width="13.06" height="8.53"/><text class="cls-7" transform="translate(181.37 171.38)">2</text><text class="cls-7" transform="translate(184.13 171.38)">1</text><rect class="cls-3" x="177.61" y="178.44" width="13.06" height="8.53"/><rect class="cls-4" x="177.61" y="178.44" width="13.06" height="8.53"/><text class="cls-7" transform="translate(181.37 184.46)">2</text><text class="cls-7" transform="translate(184.13 184.46)">0</text><rect class="cls-3" x="177.61" y="191.52" width="13.06" height="8.53"/><rect class="cls-4" x="177.61" y="191.52" width="13.06" height="8.53"/><text class="cls-7" transform="translate(181.37 197.53)">1</text><text class="cls-7" transform="translate(184.13 197.53)">9</text><rect class="cls-3" x="70.72" y="53.79" width="8.52" height="13.08"/><rect class="cls-4" x="70.72" y="53.79" width="8.52" height="13.08"/><text class="cls-11" transform="matrix(0, -1, 1, 0, 76.73, 63.1)">3</text><text class="cls-11" transform="matrix(0, -1, 1, 0, 76.73, 60.33)">6</text><rect class="cls-3" x="83.78" y="53.79" width="8.52" height="13.08"/><rect class="cls-4" x="83.78" y="53.79" width="8.52" height="13.08"/><text class="cls-11" transform="matrix(0, -1, 1, 0, 89.78, 63.1)">3</text><text class="cls-11" transform="matrix(0, -1, 1, 0, 89.78, 60.33)">5</text><rect class="cls-3" x="97.02" y="53.79" width="8.52" height="13.08"/><rect class="cls-4" x="97.02" y="53.79" width="8.52" height="13.08"/><text class="cls-11" transform="matrix(0, -1, 1, 0, 103.03, 63.1)">3</text><text class="cls-11" transform="matrix(0, -1, 1, 0, 103.03, 60.33)">4</text><rect class="cls-3" x="109.89" y="53.79" width="8.52" height="13.08"/><rect class="cls-4" x="109.89" y="53.79" width="8.52" height="13.08"/><text class="cls-11" transform="matrix(0, -1, 1, 0, 115.9, 63.1)">3</text><text class="cls-11" transform="matrix(0, -1, 1, 0, 115.9, 60.33)">3</text><rect class="cls-3" x="122.95" y="53.79" width="8.52" height="13.08"/><rect class="cls-4" x="122.95" y="53.79" width="8.52" height="13.08"/><text class="cls-11" transform="matrix(0, -1, 1, 0, 128.96, 63.1)">3</text><text class="cls-11" transform="matrix(0, -1, 1, 0, 128.96, 60.33)">2</text><rect class="cls-3" x="136.01" y="53.79" width="8.52" height="13.08"/><rect class="cls-4" x="136.01" y="53.79" width="8.52" height="13.08"/><text class="cls-11" transform="matrix(0, -1, 1, 0, 142.01, 63.1)">3</text><text class="cls-11" transform="matrix(0, -1, 1, 0, 142.01, 60.33)">1</text><rect class="cls-3" x="149.07" y="53.79" width="8.52" height="13.08"/><rect class="cls-4" x="149.07" y="53.79" width="8.52" height="13.08"/><text class="cls-11" transform="matrix(0, -1, 1, 0, 155.07, 63.1)">3</text><text class="cls-11" transform="matrix(0, -1, 1, 0, 155.07, 60.33)">0</text><rect class="cls-3" x="162.31" y="53.79" width="8.52" height="13.08"/><rect class="cls-4" x="162.31" y="53.79" width="8.52" height="13.08"/><text class="cls-11" transform="matrix(0, -1, 1, 0, 168.31, 63.1)">2</text><text class="cls-11" transform="matrix(0, -1, 1, 0, 168.31, 60.33)">9</text><text class="cls-5" transform="translate(204.34 159.13)">D</text><text class="cls-5" transform="translate(209.84 159.13)">R</text><text class="cls-5" transform="translate(214.53 159.13)">V</text><text class="cls-5" transform="translate(219.35 159.13)">_</text><text class="cls-5" transform="translate(223.13 159.13)">E</text><text class="cls-5" transform="translate(227.3 159.13)">N</text><text class="cls-5" transform="translate(232.76 159.13)">N</text><text class="cls-5" transform="translate(238.22 159.13)">_</text><text class="cls-5" transform="translate(242 159.13)">C</text><text class="cls-5" transform="translate(246.59 159.13)">F</text><text class="cls-5" transform="translate(250.76 159.13)">G</text><text class="cls-5" transform="translate(256.06 159.13)">6</text><text class="cls-5" transform="translate(204.34 106.83)">V</text><text class="cls-5" transform="translate(209.15 106.83)">C</text><text class="cls-5" transform="translate(213.74 106.83)">C</text><text class="cls-5" transform="translate(204.34 119.9)">5</text><text class="cls-5" transform="translate(208.63 119.9)">V</text><text class="cls-5" transform="translate(213.45 119.9)">O</text><text class="cls-5" transform="translate(219.04 119.9)">U</text><text class="cls-5" transform="translate(224.28 119.9)">T</text><rect class="cls-12" x="51.39" y="53.79" width="139.28" height="165.62"/><text class="cls-5" transform="translate(0.12 197.58)">S</text><text class="cls-5" transform="translate(4.61 197.58)">P</text><text class="cls-5" transform="translate(9.21 197.58)">I</text><text class="cls-5" transform="translate(12.35 197.58)">_</text><text class="cls-5" transform="translate(16.13 197.58)">M</text><text class="cls-5" transform="translate(22.45 197.58)">O</text><text class="cls-5" transform="translate(28.04 197.58)">D</text><text class="cls-5" transform="translate(33.54 197.58)">E</text><text class="cls-5" transform="translate(204.34 199.33)">D</text><text class="cls-5" transform="translate(209.84 199.33)">C</text><text class="cls-5" transform="translate(214.43 199.33)">I</text><text class="cls-5" transform="translate(217.57 199.33)">N</text><text class="cls-5" transform="translate(223.03 199.33)">_</text><text class="cls-5" transform="translate(226.81 199.33)">C</text><text class="cls-5" transform="translate(231.4 199.33)">F</text><text class="cls-5" transform="translate(235.57 199.33)">G</text><text class="cls-5" transform="translate(240.86 199.33)">5</text><text class="cls-13" transform="translate(131.63 185.09)">P</text><text class="cls-13" transform="translate(134.26 185.09)">A</text><text class="cls-13" transform="translate(137.21 185.09)">D</text><text class="cls-13" transform="translate(140.36 185.09)"> </text><text class="cls-13" transform="translate(142.08 185.09)">=</text><text class="cls-13" transform="translate(144.14 185.09)"> </text><text class="cls-13" transform="translate(145.86 185.09)">G</text><text class="cls-13" transform="translate(148.88 185.09)">N</text><text class="cls-13" transform="translate(152 185.09)">D</text><text class="cls-13" transform="translate(155.15 185.09)">D</text><text class="cls-14" transform="translate(83.52 125.39)">T</text><text class="cls-14" transform="translate(90.67 125.39)">M</text><text class="cls-14" transform="translate(101.5 125.39)">C</text><text class="cls-14" transform="translate(109.37 125.39)">2</text><text class="cls-14" transform="translate(116.74 125.39)">1</text><text class="cls-14" transform="translate(124.11 125.39)">3</text><text class="cls-14" transform="translate(131.48 125.39)">0</text><text class="cls-14" transform="translate(138.85 125.39)">-</text><text class="cls-14" transform="translate(142.98 125.39)">L</text><text class="cls-14" transform="translate(149.69 125.39)">A</text><text class="cls-14" transform="translate(98.54 143.11)">Q</text><text class="cls-14" transform="translate(108.12 143.11)">F</text><text class="cls-14" transform="translate(115.27 143.11)">N</text><text class="cls-14" transform="translate(124.63 143.11)">-</text><text class="cls-14" transform="translate(128.76 143.11)">3</text><text class="cls-14" transform="translate(136.13 143.11)">6</text><text class="cls-15" transform="translate(93.92 156.39)">5</text><text class="cls-15" transform="translate(98.84 156.39)">m</text><text class="cls-15" transform="translate(107.14 156.39)">m</text><text class="cls-15" transform="translate(115.45 156.39)"> </text><text class="cls-15" transform="translate(118.88 156.39)">x</text><text class="cls-15" transform="translate(123.16 156.39)"> </text><text class="cls-15" transform="translate(126.6 156.39)">6</text><text class="cls-15" transform="translate(131.51 156.39)">m</text><text class="cls-15" transform="translate(139.82 156.39)">m</text></g></g></g></svg>