<svg xmlns="http://www.w3.org/2000/svg" xmlns:xlink="http://www.w3.org/1999/xlink" viewBox="0 0 431.71 169.4"><defs><style>.cls-1,.cls-15,.cls-18,.cls-20,.cls-4,.cls-7,.cls-8{fill:none;}.cls-2{clip-path:url(#clip-path);}.cls-3{fill:#d9d9d9;}.cls-4{stroke:#003a8a;}.cls-15,.cls-18,.cls-20,.cls-4,.cls-7,.cls-8{stroke-linecap:round;stroke-linejoin:round;}.cls-4,.cls-7{stroke-width:0.77px;}.cls-5{font-size:5.43px;}.cls-10,.cls-11,.cls-12,.cls-16,.cls-21,.cls-22,.cls-5{font-family:ManualOrifice,Bold, ManualOrifice,Bold;}.cls-6{fill:#96afcf;}.cls-13,.cls-19,.cls-6,.cls-9{fill-rule:evenodd;}.cls-18,.cls-20,.cls-7,.cls-8{stroke:#000;}.cls-8{stroke-width:1.38px;}.cls-9{fill:#e8eef7;}.cls-10{font-size:6.38px;}.cls-11{font-size:12.77px;}.cls-12{font-size:5.74px;}.cls-14{fill:#fff;}.cls-15{stroke:#2fde10;stroke-width:2.6px;}.cls-16{font-size:7.66px;}.cls-17{fill:#c05046;}.cls-18{stroke-width:0.46px;}.cls-19{fill:#e4b4b1;}.cls-20{stroke-width:0.15px;}.cls-21{font-size:4.47px;}.cls-22{font-size:5.11px;}</style><clipPath id="clip-path"><rect class="cls-1" x="-13.04" y="-4.27" width="446.17" height="175.55"/></clipPath></defs><title>TMC2130-LA</title><g id="Ebene_2" data-name="Ebene 2"><g id="Ebene_1-2" data-name="Ebene 1"><g class="cls-2"><rect class="cls-3" x="251.61" y="81.1" width="37.73" height="18.86"/><rect class="cls-4" x="251.61" y="81.1" width="37.73" height="18.86"/><text class="cls-5" transform="translate(255.68 92.15)">s</text><text class="cls-5" transform="translate(258.24 92.15)">p</text><text class="cls-5" transform="translate(261.42 92.15)">r</text><text class="cls-5" transform="translate(263.43 92.15)">e</text><text class="cls-5" transform="translate(266.29 92.15)">a</text><text class="cls-5" transform="translate(269.36 92.15)">d</text><text class="cls-5" transform="translate(272.53 92.15)">C</text><text class="cls-5" transform="translate(275.59 92.15)">y</text><text class="cls-5" transform="translate(278.39 92.15)">c</text><text class="cls-5" transform="translate(280.9 92.15)">l</text><text class="cls-5" transform="translate(282.4 92.15)">e</text><rect class="cls-3" x="251.61" y="99.96" width="37.73" height="18.86"/><rect class="cls-4" x="251.61" y="99.96" width="37.73" height="18.86"/><text class="cls-5" transform="translate(255.72 111.01)">s</text><text class="cls-5" transform="translate(258.28 111.01)">t</text><text class="cls-5" transform="translate(260.15 111.01)">e</text><text class="cls-5" transform="translate(263.01 111.01)">a</text><text class="cls-5" transform="translate(266.08 111.01)">l</text><text class="cls-5" transform="translate(267.57 111.01)">t</text><text class="cls-5" transform="translate(269.44 111.01)">h</text><text class="cls-5" transform="translate(272.62 111.01)">C</text><text class="cls-5" transform="translate(275.68 111.01)">h</text><text class="cls-5" transform="translate(278.85 111.01)">o</text><text class="cls-5" transform="translate(282.05 111.01)">p</text><polygon class="cls-6" points="309.33 72.96 309.33 118.19 354.57 95.57 309.33 72.96"/><polygon class="cls-7" points="309.33 72.96 309.33 118.19 354.57 95.57 309.33 72.96"/><rect class="cls-8" x="37" y="20.35" width="334.76" height="148.36"/><polygon class="cls-9" points="313.86 77.48 313.86 122.71 359.1 100.1 313.86 77.48"/><polygon class="cls-7" points="313.86 77.48 313.86 122.71 359.1 100.1 313.86 77.48"/><text class="cls-10" transform="translate(316.41 102.01)"> </text><text class="cls-10" transform="translate(318.65 102.01)">D</text><text class="cls-10" transform="translate(322.92 102.01)">R</text><text class="cls-10" transform="translate(326.66 102.01)">I</text><text class="cls-10" transform="translate(329.31 102.01)">V</text><text class="cls-10" transform="translate(333.26 102.01)">E</text><text class="cls-10" transform="translate(336.36 102.01)">R</text><text class="cls-11" transform="translate(311.88 47.83)">T</text><text class="cls-11" transform="translate(318.71 47.83)">M</text><text class="cls-11" transform="translate(328.35 47.83)">C</text><text class="cls-11" transform="translate(335.56 47.83)">2</text><text class="cls-11" transform="translate(341.94 47.83)">1</text><text class="cls-11" transform="translate(348.32 47.83)">3</text><text class="cls-11" transform="translate(354.71 47.83)">0</text><text class="cls-11" transform="translate(361.09 47.83)"> </text><rect class="cls-3" x="175.81" y="84.8" width="56.1" height="38.67"/><rect class="cls-7" x="175.81" y="84.8" width="56.1" height="38.67"/><text class="cls-10" transform="translate(182.57 104.14)">P</text><text class="cls-10" transform="translate(186.18 104.14)">r</text><text class="cls-10" transform="translate(188.54 104.14)">o</text><text class="cls-10" transform="translate(192.31 104.14)">g</text><text class="cls-10" transform="translate(196.04 104.14)">r</text><text class="cls-10" transform="translate(198.4 104.14)">a</text><text class="cls-10" transform="translate(201.79 104.14)">m</text><text class="cls-10" transform="translate(207.31 104.14)">m</text><text class="cls-10" transform="translate(212.83 104.14)">a</text><text class="cls-10" transform="translate(216.21 104.14)">b</text><text class="cls-10" transform="translate(219.95 104.14)">l</text><text class="cls-10" transform="translate(221.7 104.14)">e</text><text class="cls-10" transform="translate(189.66 111.16)">2</text><text class="cls-10" transform="translate(192.86 111.16)">5</text><text class="cls-10" transform="translate(196.05 111.16)">6</text><text class="cls-10" transform="translate(199.24 111.16)"> </text><text class="cls-10" transform="translate(201.47 111.16)">µ</text><text class="cls-10" transform="translate(205.14 111.16)">S</text><text class="cls-10" transform="translate(208.67 111.16)">t</text><text class="cls-10" transform="translate(210.87 111.16)">e</text><text class="cls-10" transform="translate(214.3 111.16)">p</text><text class="cls-10" transform="translate(188.71 118.18)">S</text><text class="cls-10" transform="translate(192.24 118.18)">e</text><text class="cls-10" transform="translate(195.67 118.18)">q</text><text class="cls-10" transform="translate(199.41 118.18)">u</text><text class="cls-10" transform="translate(203.08 118.18)">e</text><text class="cls-10" transform="translate(206.51 118.18)">n</text><text class="cls-10" transform="translate(210.24 118.18)">c</text><text class="cls-10" transform="translate(213.2 118.18)">e</text><text class="cls-10" transform="translate(216.63 118.18)">r</text><rect class="cls-3" x="175.81" y="128.9" width="56.1" height="18.09"/><rect class="cls-7" x="175.81" y="128.9" width="56.1" height="18.09"/><text class="cls-12" transform="translate(190.45 136.23)">P</text><text class="cls-12" transform="translate(193.7 136.23)">r</text><text class="cls-12" transform="translate(195.82 136.23)">o</text><text class="cls-12" transform="translate(199.21 136.23)">t</text><text class="cls-12" transform="translate(201.19 136.23)">e</text><text class="cls-12" transform="translate(204.28 136.23)">c</text><text class="cls-12" transform="translate(206.94 136.23)">t</text><text class="cls-12" transform="translate(208.93 136.23)">i</text><text class="cls-12" transform="translate(210.51 136.23)">o</text><text class="cls-12" transform="translate(213.9 136.23)">n</text><text class="cls-12" transform="translate(185.73 143.12)">&amp;</text><text class="cls-12" transform="translate(189.74 143.12)"> </text><text class="cls-12" transform="translate(191.75 143.12)">D</text><text class="cls-12" transform="translate(195.6 143.12)">i</text><text class="cls-12" transform="translate(197.18 143.12)">a</text><text class="cls-12" transform="translate(200.23 143.12)">g</text><text class="cls-12" transform="translate(203.59 143.12)">n</text><text class="cls-12" transform="translate(206.95 143.12)">o</text><text class="cls-12" transform="translate(210.34 143.12)">s</text><text class="cls-12" transform="translate(213.05 143.12)">t</text><text class="cls-12" transform="translate(215.03 143.12)">i</text><text class="cls-12" transform="translate(216.61 143.12)">c</text><text class="cls-12" transform="translate(219.27 143.12)">s</text><line class="cls-7" x1="154.62" y1="99.96" x2="169.65" y2="99.96"/><polygon class="cls-13" points="169.06 97.58 176.18 99.96 169.06 102.33 169.06 97.58"/><line class="cls-7" x1="288.53" y1="99.96" x2="302.8" y2="99.96"/><polygon class="cls-13" points="302.21 97.58 309.33 99.96 302.21 102.33 302.21 97.58"/><text class="cls-10" transform="translate(3.85 102.48)">S</text><text class="cls-10" transform="translate(7.38 102.48)">P</text><text class="cls-10" transform="translate(10.98 102.48)">I</text><rect class="cls-14" x="245.09" y="145.88" width="115.81" height="13.09"/><rect class="cls-15" x="245.09" y="145.88" width="115.81" height="13.09"/><rect class="cls-14" x="245.09" y="145.88" width="38.6" height="13.09"/><rect class="cls-7" x="245.09" y="145.88" width="38.6" height="13.09"/><text class="cls-10" transform="translate(247.89 154.34)">s</text><text class="cls-10" transform="translate(250.9 154.34)">t</text><text class="cls-10" transform="translate(253.1 154.34)">a</text><text class="cls-10" transform="translate(256.71 154.34)">l</text><text class="cls-10" transform="translate(258.47 154.34)">l</text><text class="cls-10" transform="translate(260.22 154.34)">G</text><text class="cls-10" transform="translate(264.34 154.34)">u</text><text class="cls-10" transform="translate(268.01 154.34)">a</text><text class="cls-10" transform="translate(271.62 154.34)">r</text><text class="cls-10" transform="translate(273.98 154.34)">d</text><text class="cls-10" transform="translate(277.71 154.34)">2</text><rect class="cls-14" x="283.7" y="145.88" width="38.6" height="13.09"/><rect class="cls-7" x="283.7" y="145.88" width="38.6" height="13.09"/><text class="cls-10" transform="translate(290.46 154.34)">c</text><text class="cls-10" transform="translate(293.42 154.34)">o</text><text class="cls-10" transform="translate(297.18 154.34)">o</text><text class="cls-10" transform="translate(300.95 154.34)">l</text><text class="cls-10" transform="translate(302.71 154.34)">S</text><text class="cls-10" transform="translate(306.23 154.34)">t</text><text class="cls-10" transform="translate(308.43 154.34)">e</text><text class="cls-10" transform="translate(311.8 154.34)">p</text><rect class="cls-14" x="322.3" y="145.88" width="38.6" height="13.09"/><rect class="cls-7" x="322.3" y="145.88" width="38.6" height="13.09"/><text class="cls-10" transform="translate(331.85 154.34)">d</text><text class="cls-10" transform="translate(335.58 154.34)">c</text><text class="cls-10" transform="translate(338.54 154.34)">S</text><text class="cls-10" transform="translate(342.06 154.34)">t</text><text class="cls-10" transform="translate(344.26 154.34)">e</text><text class="cls-10" transform="translate(347.63 154.34)">p</text><text class="cls-10" transform="translate(0.43 39.18)">P</text><text class="cls-10" transform="translate(4.04 39.18)">o</text><text class="cls-10" transform="translate(7.8 39.18)">w</text><text class="cls-10" transform="translate(13.49 39.18)">e</text><text class="cls-10" transform="translate(16.92 39.18)">r</text><text class="cls-10" transform="translate(19.28 39.18)"> </text><text class="cls-10" transform="translate(0 46.84)">S</text><text class="cls-10" transform="translate(3.52 46.84)">u</text><text class="cls-10" transform="translate(7.19 46.84)">p</text><text class="cls-10" transform="translate(10.93 46.84)">p</text><text class="cls-10" transform="translate(14.66 46.84)">l</text><text class="cls-10" transform="translate(16.42 46.84)">y</text><line class="cls-7" x1="49.47" y1="41.14" x2="23.43" y2="41.1"/><polygon class="cls-13" points="48.88 38.77 56 41.15 48.87 43.52 48.88 38.77"/><text class="cls-16" transform="translate(402.15 76.02)">M</text><text class="cls-16" transform="translate(407.93 76.02)">o</text><text class="cls-16" transform="translate(412.45 76.02)">t</text><text class="cls-16" transform="translate(415.1 76.02)">o</text><text class="cls-16" transform="translate(419.62 76.02)">r</text><line class="cls-7" x1="358.73" y1="100" x2="386.27" y2="100"/><polygon class="cls-13" points="385.67 97.63 392.8 100 385.67 102.38 385.67 97.63"/><rect class="cls-17" x="392.8" y="80.62" width="38.68" height="38.68"/><rect class="cls-18" x="392.8" y="80.62" width="38.68" height="38.68"/><path class="cls-19" d="M401.1,100.17a11.11,11.11,0,1,1,22.22,0h0a11.11,11.11,0,0,1-22.22,0Z"/><path class="cls-20" d="M401.1,100.17a11.11,11.11,0,1,1,22.22,0h0a11.11,11.11,0,0,1-22.22,0Z"/><path class="cls-13" d="M409.82,100.45a2.41,2.41,0,1,1,4.78-.56h0a2.41,2.41,0,0,1-4.78.56Z"/><path class="cls-20" d="M409.82,100.45a2.41,2.41,0,1,1,4.78-.56h0a2.41,2.41,0,0,1-4.78.56Z"/><path class="cls-13" d="M394.67,83.7a1.09,1.09,0,0,1,2.17-.26h0a1.09,1.09,0,0,1-2.17.26Z"/><path class="cls-20" d="M394.67,83.7a1.09,1.09,0,0,1,2.17-.26h0a1.09,1.09,0,0,1-2.17.26Z"/><path class="cls-13" d="M427.62,83.55a1.09,1.09,0,0,1,2.17-.26h0a1.09,1.09,0,0,1-2.17.26Z"/><path class="cls-20" d="M427.62,83.55a1.09,1.09,0,0,1,2.17-.26h0a1.09,1.09,0,0,1-2.17.26Z"/><path class="cls-13" d="M394.43,116.74a1.09,1.09,0,0,1,2.17-.26h0a1.09,1.09,0,0,1-2.17.26Z"/><path class="cls-20" d="M394.43,116.74a1.09,1.09,0,0,1,2.17-.26h0a1.09,1.09,0,0,1-2.17.26Z"/><path class="cls-13" d="M427.58,116.74a1.09,1.09,0,0,1,2.17-.26h0a1.09,1.09,0,0,1-2.17.26Z"/><path class="cls-20" d="M427.58,116.74a1.09,1.09,0,0,1,2.17-.26h0a1.09,1.09,0,0,1-2.17.26Z"/><line class="cls-7" x1="202.97" y1="9.49" x2="202.97" y2="39.15"/><polygon class="cls-13" points="205.34 38.56 202.97 45.68 200.59 38.56 205.34 38.56"/><text class="cls-10" transform="translate(189.75 5.98)">S</text><text class="cls-10" transform="translate(193.27 5.98)">t</text><text class="cls-10" transform="translate(195.47 5.98)">e</text><text class="cls-10" transform="translate(198.91 5.98)">p</text><text class="cls-10" transform="translate(202.64 5.98)">/</text><text class="cls-10" transform="translate(204.88 5.98)">D</text><text class="cls-10" transform="translate(209.15 5.98)">i</text><text class="cls-10" transform="translate(210.91 5.98)">r</text><rect class="cls-3" x="175.05" y="45.68" width="56.1" height="10.86"/><rect class="cls-7" x="175.05" y="45.68" width="56.1" height="10.86"/><text class="cls-12" transform="translate(183.34 52.83)">S</text><text class="cls-12" transform="translate(186.51 52.83)">t</text><text class="cls-12" transform="translate(188.49 52.83)">e</text><text class="cls-12" transform="translate(191.58 52.83)">p</text><text class="cls-12" transform="translate(194.94 52.83)"> </text><text class="cls-12" transform="translate(196.95 52.83)">M</text><text class="cls-12" transform="translate(201.29 52.83)">u</text><text class="cls-12" transform="translate(204.6 52.83)">l</text><text class="cls-12" transform="translate(206.18 52.83)">t</text><text class="cls-12" transform="translate(208.16 52.83)">i</text><text class="cls-12" transform="translate(209.74 52.83)">p</text><text class="cls-12" transform="translate(213.1 52.83)">l</text><text class="cls-12" transform="translate(214.68 52.83)">y</text><text class="cls-12" transform="translate(217.64 52.83)">e</text><text class="cls-12" transform="translate(220.73 52.83)">r</text><rect class="cls-3" x="252.33" y="81.86" width="36.19" height="18.09"/><rect class="cls-7" x="252.33" y="81.86" width="36.19" height="18.09"/><text class="cls-5" transform="translate(255.64 92.53)">s</text><text class="cls-5" transform="translate(258.2 92.53)">p</text><text class="cls-5" transform="translate(261.37 92.53)">r</text><text class="cls-5" transform="translate(263.38 92.53)">e</text><text class="cls-5" transform="translate(266.25 92.53)">a</text><text class="cls-5" transform="translate(269.31 92.53)">d</text><text class="cls-5" transform="translate(272.49 92.53)">C</text><text class="cls-5" transform="translate(275.55 92.53)">y</text><text class="cls-5" transform="translate(278.35 92.53)">c</text><text class="cls-5" transform="translate(280.86 92.53)">l</text><text class="cls-5" transform="translate(282.35 92.53)">e</text><rect class="cls-3" x="252.33" y="99.96" width="36.19" height="18.09"/><rect class="cls-7" x="252.33" y="99.96" width="36.19" height="18.09"/><text class="cls-5" transform="translate(255.67 110.63)">s</text><text class="cls-5" transform="translate(258.23 110.63)">t</text><text class="cls-5" transform="translate(260.1 110.63)">e</text><text class="cls-5" transform="translate(262.97 110.63)">a</text><text class="cls-5" transform="translate(266.03 110.63)">l</text><text class="cls-5" transform="translate(267.53 110.63)">t</text><text class="cls-5" transform="translate(269.4 110.63)">h</text><text class="cls-5" transform="translate(272.57 110.63)">C</text><text class="cls-5" transform="translate(275.63 110.63)">h</text><text class="cls-5" transform="translate(278.81 110.63)">o</text><text class="cls-5" transform="translate(282.01 110.63)">p</text><line class="cls-7" x1="245.08" y1="99.96" x2="232.28" y2="99.96"/><polygon class="cls-13" points="244.49 97.58 251.61 99.96 244.49 102.33 244.49 97.58"/><rect class="cls-3" x="252.33" y="45.68" width="36.19" height="23.52"/><rect class="cls-7" x="252.33" y="45.68" width="36.19" height="23.52"/><text class="cls-21" transform="translate(255.47 67.39)">D</text><text class="cls-21" transform="translate(258.47 67.39)">A</text><text class="cls-21" transform="translate(261.33 67.39)">C</text><text class="cls-21" transform="translate(263.85 67.39)"> </text><text class="cls-21" transform="translate(265.41 67.39)">R</text><text class="cls-21" transform="translate(268.03 67.39)">e</text><text class="cls-21" transform="translate(270.43 67.39)">f</text><text class="cls-21" transform="translate(271.84 67.39)">e</text><text class="cls-21" transform="translate(274.24 67.39)">r</text><text class="cls-21" transform="translate(275.89 67.39)">e</text><text class="cls-21" transform="translate(278.3 67.39)">n</text><text class="cls-21" transform="translate(280.91 67.39)">c</text><text class="cls-21" transform="translate(282.98 67.39)">e</text><polygon class="cls-7" points="278.72 61.96 264.85 55.02 278.72 48.09 278.72 61.96"/><line class="cls-18" x1="282.19" y1="58.5" x2="278.72" y2="58.5"/><line class="cls-18" x1="282.19" y1="51.56" x2="278.72" y2="51.56"/><line class="cls-7" x1="277.61" y1="51.56" x2="275.67" y2="51.56"/><line class="cls-7" x1="276.64" y1="52.53" x2="276.64" y2="50.59"/><line class="cls-7" x1="277.61" y1="58.35" x2="275.67" y2="58.35"/><line class="cls-18" x1="264.85" y1="55.02" x2="261.38" y2="55.02"/><line class="cls-7" x1="271.34" y1="8.59" x2="271.34" y2="39.15"/><polygon class="cls-13" points="273.71 38.56 271.34 45.68 268.96 38.56 273.71 38.56"/><text class="cls-10" transform="translate(263.94 5.66)">I</text><text class="cls-10" transform="translate(266.59 5.66)">R</text><text class="cls-10" transform="translate(270.32 5.66)">E</text><text class="cls-10" transform="translate(273.42 5.66)">F</text><text class="cls-10" transform="translate(276.51 5.66)"> </text><text class="cls-10" transform="translate(278.75 5.66)">o</text><text class="cls-10" transform="translate(282.39 5.66)">p</text><text class="cls-10" transform="translate(285.93 5.66)">t</text><text class="cls-10" transform="translate(288 5.66)">i</text><text class="cls-10" transform="translate(289.7 5.66)">o</text><text class="cls-10" transform="translate(293.33 5.66)">n</text><text class="cls-10" transform="translate(296.94 5.66)">a</text><text class="cls-10" transform="translate(300.36 5.66)">l</text><text class="cls-10" transform="translate(302.05 5.66)"> </text><text class="cls-10" transform="translate(304.28 5.66)">c</text><text class="cls-10" transform="translate(306.98 5.66)">u</text><text class="cls-10" transform="translate(310.52 5.66)">r</text><text class="cls-10" transform="translate(312.7 5.66)">r</text><text class="cls-10" transform="translate(314.87 5.66)">e</text><text class="cls-10" transform="translate(317.99 5.66)">n</text><text class="cls-10" transform="translate(321.6 5.66)">t</text><text class="cls-10" transform="translate(323.68 5.66)"> </text><text class="cls-10" transform="translate(325.91 5.66)">s</text><text class="cls-10" transform="translate(328.73 5.66)">c</text><text class="cls-10" transform="translate(331.43 5.66)">a</text><text class="cls-10" transform="translate(334.85 5.66)">l</text><text class="cls-10" transform="translate(336.54 5.66)">i</text><text class="cls-10" transform="translate(338.23 5.66)">n</text><text class="cls-10" transform="translate(341.84 5.66)">g</text><line class="cls-7" x1="202.97" y1="66.03" x2="202.97" y2="78.28"/><polygon class="cls-13" points="205.34 77.68 202.97 84.81 200.59 77.68 205.34 77.68"/><line class="cls-7" x1="25.49" y1="100.27" x2="49.37" y2="100.27"/><polygon class="cls-13" points="26.08 102.64 18.96 100.27 26.08 97.9 26.08 102.64"/><polygon class="cls-13" points="48.77 97.9 55.9 100.27 48.77 102.64 48.77 97.9"/><rect class="cls-3" x="55.89" y="78.24" width="48.86" height="45.23"/><rect class="cls-7" x="55.89" y="78.24" width="48.86" height="45.23"/><text class="cls-10" transform="translate(63.01 98.94)">S</text><text class="cls-10" transform="translate(66.53 98.94)">P</text><text class="cls-10" transform="translate(70.14 98.94)">I</text><text class="cls-10" transform="translate(72.79 98.94)"> </text><text class="cls-10" transform="translate(75.02 98.94)">C</text><text class="cls-10" transform="translate(78.62 98.94)">o</text><text class="cls-10" transform="translate(82.39 98.94)">n</text><text class="cls-10" transform="translate(86.12 98.94)">t</text><text class="cls-10" transform="translate(88.32 98.94)">r</text><text class="cls-10" transform="translate(90.69 98.94)">o</text><text class="cls-10" transform="translate(94.45 98.94)">l</text><text class="cls-10" transform="translate(96.21 98.94)">,</text><text class="cls-10" transform="translate(58.48 106.6)">C</text><text class="cls-10" transform="translate(62.08 106.6)">o</text><text class="cls-10" transform="translate(65.85 106.6)">n</text><text class="cls-10" transform="translate(69.58 106.6)">f</text><text class="cls-10" transform="translate(71.59 106.6)">i</text><text class="cls-10" transform="translate(73.35 106.6)">g</text><text class="cls-10" transform="translate(77.08 106.6)"> </text><text class="cls-10" transform="translate(79.32 106.6)">&amp;</text><text class="cls-10" transform="translate(83.77 106.6)"> </text><text class="cls-10" transform="translate(86.01 106.6)">D</text><text class="cls-10" transform="translate(90.28 106.6)">i</text><text class="cls-10" transform="translate(92.04 106.6)">a</text><text class="cls-10" transform="translate(95.42 106.6)">g</text><text class="cls-10" transform="translate(99.16 106.6)">s</text><text class="cls-10" transform="translate(4.76 139.87)">C</text><text class="cls-10" transform="translate(8.36 139.87)">L</text><text class="cls-10" transform="translate(11.27 139.87)">K</text><line class="cls-7" x1="49.47" y1="137.95" x2="18.9" y2="137.95"/><polygon class="cls-13" points="48.88 135.58 56 137.95 48.88 140.32 48.88 135.58"/><rect class="cls-3" x="124.76" y="78.24" width="30.76" height="45.23"/><rect class="cls-7" x="124.76" y="78.24" width="30.76" height="45.23"/><text class="cls-10" transform="translate(129.55 95.11)">C</text><text class="cls-10" transform="translate(133.15 95.11)">o</text><text class="cls-10" transform="translate(136.92 95.11)">n</text><text class="cls-10" transform="translate(140.65 95.11)">t</text><text class="cls-10" transform="translate(142.85 95.11)">r</text><text class="cls-10" transform="translate(145.21 95.11)">o</text><text class="cls-10" transform="translate(148.98 95.11)">l</text><text class="cls-10" transform="translate(128.31 102.77)">R</text><text class="cls-10" transform="translate(132.04 102.77)">e</text><text class="cls-10" transform="translate(135.48 102.77)">g</text><text class="cls-10" transform="translate(139.21 102.77)">i</text><text class="cls-10" transform="translate(140.97 102.77)">s</text><text class="cls-10" transform="translate(143.98 102.77)">t</text><text class="cls-10" transform="translate(146.18 102.77)">e</text><text class="cls-10" transform="translate(149.62 102.77)">r</text><text class="cls-10" transform="translate(135.56 110.43)">S</text><text class="cls-10" transform="translate(139.09 110.43)">e</text><text class="cls-10" transform="translate(142.52 110.43)">t</text><line class="cls-7" x1="104.76" y1="99.96" x2="118.23" y2="99.96"/><polygon class="cls-13" points="117.64 97.58 124.76 99.96 117.64 102.33 117.64 97.58"/><rect class="cls-3" x="175.06" y="56.17" width="56.1" height="13.03"/><rect class="cls-7" x="175.06" y="56.17" width="56.1" height="13.03"/><text class="cls-21" transform="translate(185.39 61.34)">S</text><text class="cls-21" transform="translate(187.85 61.34)">t</text><text class="cls-21" transform="translate(189.4 61.34)">a</text><text class="cls-21" transform="translate(191.76 61.34)">n</text><text class="cls-21" transform="translate(194.38 61.34)">d</text><text class="cls-21" transform="translate(196.99 61.34)">s</text><text class="cls-21" transform="translate(199.1 61.34)">t</text><text class="cls-21" transform="translate(200.64 61.34)">i</text><text class="cls-21" transform="translate(201.87 61.34)">l</text><text class="cls-21" transform="translate(203.1 61.34)">l</text><text class="cls-21" transform="translate(204.33 61.34)"> </text><text class="cls-21" transform="translate(205.89 61.34)">C</text><text class="cls-21" transform="translate(208.41 61.34)">u</text><text class="cls-21" transform="translate(210.98 61.34)">r</text><text class="cls-21" transform="translate(212.64 61.34)">r</text><text class="cls-21" transform="translate(214.29 61.34)">e</text><text class="cls-21" transform="translate(216.69 61.34)">n</text><text class="cls-21" transform="translate(219.31 61.34)">t</text><text class="cls-21" transform="translate(220.85 61.34)"> </text><text class="cls-21" transform="translate(192.97 66.7)">R</text><text class="cls-21" transform="translate(195.58 66.7)">e</text><text class="cls-21" transform="translate(197.99 66.7)">d</text><text class="cls-21" transform="translate(200.6 66.7)">u</text><text class="cls-21" transform="translate(203.17 66.7)">c</text><text class="cls-21" transform="translate(205.24 66.7)">t</text><text class="cls-21" transform="translate(206.78 66.7)">i</text><text class="cls-21" transform="translate(208.01 66.7)">o</text><text class="cls-21" transform="translate(210.65 66.7)">n</text><rect class="cls-3" x="56" y="128.9" width="48.86" height="18.09"/><rect class="cls-7" x="56" y="128.9" width="48.86" height="18.09"/><text class="cls-22" transform="translate(62.84 136.42)">C</text><text class="cls-22" transform="translate(65.72 136.42)">L</text><text class="cls-22" transform="translate(68.04 136.42)">K</text><text class="cls-22" transform="translate(70.82 136.42)"> </text><text class="cls-22" transform="translate(72.61 136.42)">O</text><text class="cls-22" transform="translate(76.08 136.42)">s</text><text class="cls-22" transform="translate(78.49 136.42)">c</text><text class="cls-22" transform="translate(80.86 136.42)">i</text><text class="cls-22" transform="translate(82.26 136.42)">l</text><text class="cls-22" transform="translate(83.67 136.42)">l</text><text class="cls-22" transform="translate(85.07 136.42)">a</text><text class="cls-22" transform="translate(87.78 136.42)">t</text><text class="cls-22" transform="translate(89.54 136.42)">o</text><text class="cls-22" transform="translate(92.55 136.42)">r</text><text class="cls-22" transform="translate(94.44 136.42)"> </text><text class="cls-22" transform="translate(96.23 136.42)">/</text><text class="cls-22" transform="translate(98.01 136.42)"> </text><text class="cls-22" transform="translate(71.06 142.55)">S</text><text class="cls-22" transform="translate(73.88 142.55)">e</text><text class="cls-22" transform="translate(76.62 142.55)">l</text><text class="cls-22" transform="translate(78.03 142.55)">e</text><text class="cls-22" transform="translate(80.77 142.55)">c</text><text class="cls-22" transform="translate(83.14 142.55)">t</text><text class="cls-22" transform="translate(84.9 142.55)">o</text><text class="cls-22" transform="translate(87.91 142.55)">r</text><rect class="cls-3" x="56" y="55.46" width="48.86" height="18.32"/><rect class="cls-7" x="56" y="55.46" width="48.86" height="18.32"/><text class="cls-12" transform="translate(68.57 66.34)">I</text><text class="cls-12" transform="translate(70.96 66.34)">n</text><text class="cls-12" transform="translate(74.32 66.34)">t</text><text class="cls-12" transform="translate(76.3 66.34)">e</text><text class="cls-12" transform="translate(79.39 66.34)">r</text><text class="cls-12" transform="translate(81.52 66.34)">r</text><text class="cls-12" transform="translate(83.64 66.34)">u</text><text class="cls-12" transform="translate(86.95 66.34)">p</text><text class="cls-12" transform="translate(90.31 66.34)">t</text><line class="cls-7" x1="56" y1="64.51" x2="25.43" y2="64.51"/><polygon class="cls-13" points="26.03 66.88 18.9 64.51 26.03 62.13 26.03 66.88"/><text class="cls-10" transform="translate(4.73 66.42)">I</text><text class="cls-10" transform="translate(7.38 66.42)">N</text><text class="cls-10" transform="translate(11.56 66.42)">T</text><rect class="cls-3" x="103.95" y="32.11" width="30.76" height="18.27"/><rect class="cls-7" x="103.95" y="32.11" width="30.76" height="18.27"/><text class="cls-12" transform="translate(110.22 39.52)">C</text><text class="cls-12" transform="translate(113.46 39.52)">h</text><text class="cls-12" transform="translate(116.82 39.52)">a</text><text class="cls-12" transform="translate(119.87 39.52)">r</text><text class="cls-12" transform="translate(121.99 39.52)">g</text><text class="cls-12" transform="translate(125.35 39.52)">e</text><text class="cls-12" transform="translate(128.44 39.52)"> </text><text class="cls-12" transform="translate(111.89 46.41)">P</text><text class="cls-12" transform="translate(115.14 46.41)">u</text><text class="cls-12" transform="translate(118.44 46.41)">m</text><text class="cls-12" transform="translate(123.41 46.41)">p</text><path class="cls-7" d="M192.62,92.72c0-1.81,3.26-5.13,5.76-5.43s4.41,2.72,6,5.36,2.93,5,4.7,5.46c2.95.76,7.11-3.57,7.11-5.39"/><rect class="cls-3" x="56" y="32.11" width="48.86" height="18.26"/><rect class="cls-7" x="56" y="32.11" width="48.86" height="18.26"/><text class="cls-12" transform="translate(62.29 42.96)">+</text><text class="cls-12" transform="translate(64.88 42.96)">5</text><text class="cls-12" transform="translate(67.75 42.96)">V</text><text class="cls-12" transform="translate(71.31 42.96)"> </text><text class="cls-12" transform="translate(73.32 42.96)">R</text><text class="cls-12" transform="translate(76.68 42.96)">e</text><text class="cls-12" transform="translate(79.77 42.96)">g</text><text class="cls-12" transform="translate(83.13 42.96)">u</text><text class="cls-12" transform="translate(86.44 42.96)">l</text><text class="cls-12" transform="translate(88.02 42.96)">a</text><text class="cls-12" transform="translate(91.06 42.96)">t</text><text class="cls-12" transform="translate(93.05 42.96)">o</text><text class="cls-12" transform="translate(96.44 42.96)">r</text></g></g></g></svg>