<svg width="9100" height="200" viewBox="0 0 9100 200" xmlns="http://www.w3.org/2000/svg">
  <g fill="#004DB9">
    <path d="M1915.27 18.23c3.43-1.2 5.21 4.58 1.68 5.55-3.37 1.3-5.23-4.56-1.68-5.55zM2632.28 18.18c3.26-1.53 5.49 3.93 2.28 5.32-3.37 1.93-5.87-4.01-2.28-5.32zM3332.34 18.43c2.97-2.13 6.02 3.32 2.88 4.95-3.11 2.28-6.29-3.29-2.88-4.95zM3669.22 18.2c2.15-1.59 5.39.84 4.38 3.33-.56 2.54-4.61 2.59-5.27.14-.71-1.25.01-2.54.89-3.47zM4026.53 19.69c1.2-.8 2.62-2.88 4.25-1.47 3.48 2.89 8.24 2.63 12.49 3.4 2.36-2.25 5.08-.76 6.37 1.79 3.17 1.24 6.37 2.43 9.57 3.71.91-.35 1.87-.7 2.87-1.06 1.17.99 2.01 2.28 2.68 3.71 3.58 2.24 6.84 5.58 11.27 6.03 2.14-.11 1.94 2.32 2.55 3.79 2.99 2.74 5.35 6.49 9.38 7.86 2.31.54 1.68 3.35 2.56 5.07 1.42 2.85 3.48 5.34 5.1 8.1.63.17 1.9.51 2.54.68.52 1.46.49 3.01.3 4.53 1.51 4.3 2.76 8.86 6.02 12.23 1.26 3.01-4.22 4.98-5.18 1.84.19-4.67-1.94-8.9-3.73-13.07-2.69-1.37-2.15-4.65-3.58-6.85-1.37-2.24-2.87-4.39-4.31-6.55-3.32-.87-3.35-4.62-5.55-6.62-1.8-1.84-3.65-3.61-5.45-5.39-3.35.19-3.94-3.42-6.28-4.9-2.94-1.92-5.77-4.44-9.42-4.65-1.45 0-1.91-1.64-2.7-2.49-3.25-1.41-6.53-2.7-9.86-3.82-2.21.92-4.22.36-5.51-1.53-3.42-.76-6.88-1.28-10.29-1.81-1.43.69-2.86 1.67-4.29.62-3.74-1.6-7.89-.62-11.77-.57-1.64 1.94-3.88 2.33-5.97.93-3.24.73-6.44 1.56-9.59 2.44-1.04 2.74-5.39 3.96-6.1.38-.66-3.39 3.33-3.92 5.47-2.25 4.41-1.14 9.28-1.66 12.53-5.24 4.22 2.27 9.03 1.45 13.63 1.16zM4368.18 18.23c2.22-1.63 5.56 1.19 4.2 3.61-.65 2.4-4.5 2.19-5.12-.09-.87-1.19.05-2.63.92-3.52zM4723.32 19.24c1.34-.75 2.8-2.3 4.54-1.26 1.81.99 1.77 4.03.01 5.05-1.52.77-2.96-.33-4.25-.77-3.55.2-7.07.57-10.54.95-1.49 1.45-3.43 1.8-5.28 1-3.44.89-6.83 1.92-10.13 3.11-1.08 1.79-2.87 2.46-4.82 2.03-3.95 2.07-8.37 3.73-10.96 7.54-.64.14-1.93.42-2.57.56-2.87 2.65-6.69 4.63-8.18 8.42-.38 1.45-2.06 1.55-3.07 2.2-2.28 3.12-5.61 5.87-6.11 9.9-.05 1.49-1.81 1.82-2.63 2.64-1.41 2.84-2.73 5.72-3.99 8.61.97 2.19 0 4.05-1.82 5.39-1.01 4.01-2.5 8.14-1.29 12.29-.34.58-1.03 1.74-1.37 2.33-.26 3.99-.99 8.26 1.12 11.92.81 2.67-3.35 3.6-4.45 1.39-1.48-1.56.7-3.06 1.1-4.57.52-2.96.22-5.99.25-8.98-.58-.79-1.06-1.6-1.43-2.43-.87-1.58 1.19-2.46 2.07-3.48.79-3.06 1.47-6.15 2.07-9.27-1.65-2.29-.82-4.83 1.88-5.66 1.15-2.4 2.39-4.78 3.33-7.3.72-1.67-.15-3.67.75-5.29.88-.48 1.84-.92 2.9-1.3 2.76-3.4 5.65-6.85 6.49-11.3 4.35-1.08 7.41-4.42 10.61-7.35.59-1.24.55-3.63 2.5-3.57 4.36-.18 7.82-3.12 11.47-5.21.47-.94 1.05-1.84 1.74-2.71 5.96.78 11.97-1.59 16.7-5.13.94.35 1.91.74 2.93 1.18 3.45-.18 6.94-.45 10.43-.93zM5065.34 18.37c2.1-1.35 4.82 1.33 3.86 3.55-.38 1.79-3.11 2.68-4.33 1.28-1.69-1.1-1.41-4.05.47-4.83zM5081.39 18.55c2.54-2.41 6.3 2.3 3.55 4.43-2.75 2.91-6.87-2.32-3.55-4.43zM5421.27 18.28c2.98-2.54 6.58 2.39 3.57 4.67-3.01 2.04-6.21-2.38-3.57-4.67zM5768.47 18.35c1.48-1.42 3.1.81 4.64 1.25 3.83.67 7.79.4 11.73.55 1.3-.62 3.13-2.42 4.58-.84 2.92 3.29 7.63 3.37 11.59 4.71 1.94.76 3.86-.33 5.92-.08 1.17 1.5 2.12 3.35 4.02 4.18 3.79 2.01 7.39 4.85 11.91 4.91 1.59.04 1.23 2.37 1.98 3.46 3.95 3.31 7.15 7.96 12.45 9.23.96 5.39 4.76 9.47 7.86 13.8 4.11.64 2.42 4.91 3.63 7.74 1.07 3.01 2.33 5.97 3.64 8.92 2.39 1.14 3.34 4.37.62 5.73-3.07 1.17-4.65-2.29-3.49-4.68-1.88-4.54-2.9-9.59-6.22-13.35-1.2-4.96-4.81-8.73-7.59-12.84-3.2-.76-3.37-4.4-5.62-6.21-2.37-2.21-4.8-4.33-7.21-6.43-2.31.12-3.8-1.12-4.44-3.21-4.56-2.48-8.79-5.99-14.13-6.4-3.72-3.5-9.07-3.7-13.66-5.29-3.13 2.19-5.57-1.46-8.71-1.23-3.81-.08-7.88-1-11.35.87-1.36.78-2.65-.47-3.75-.84-3.88.62-7.69 1.35-11.49 2.09-1.28 2.05-4.45 3.84-5.82.89-1.73-3.39 3.03-5.47 5.26-2.85 4.53-1.22 10.03-.55 13.65-4.08zM6126.16 18.04c3.27-2.2 6.33 3.56 2.79 5.06-3.13 1.73-5.66-3.21-2.79-5.06zM6484.55 18.6c1.93-1.26 4.73 1.12 3.9 3.32-.42 2.15-3.37 3-4.71 1.33-1.51-1.37-1.07-3.85.81-4.65zM7177.15 18.22c1.35-.95 3.72-.6 4.38 1.19 1.07 2.05-1.29 4.92-3.46 3.87-2.3-.51-2.57-3.63-.92-5.06zM7878.1 18.01c1.47-.78 3.88.06 4.08 1.98.68 2.23-2.24 4.51-4.1 3.09-2.04-.95-1.92-4.06.02-5.07zM8217.54 20.48c1.09-1.16 2.23-3.75 4.31-2.37 3.64 3.11 8.49 3.77 12.94 5.27 11.39 3.57 22.82 7.04 34.22 10.66 2.17.76 4.51.62 6.9.94 1.24.84.9 2.54 1.34 3.86 5.33 8.93 10.92 17.71 16.36 26.58 3.98 6.26 7.47 12.94 12.31 18.57-2.83 6.6-3.03 13.89-4.51 20.83-1.63 10.8-4.31 21.47-5.09 32.38-.77 1.66-3.02 1.89-4.22.86-1.89-1.71.17-3.99.43-5.97 2.72-14.02 5.02-28.13 7.68-42.18.68-2.74.58-5.78-.95-8.23-7.91-13.05-15.87-26.05-23.77-39.1-1.85-3.04-5.07-4.89-8.39-5.73-13.38-4.23-26.74-8.49-40.07-12.82-3.79-1.35-8.12-1.29-11.66.53-13.57 5.99-27.24 11.74-40.78 17.75-.97 1.31-2.11 2.44-3.38 3.26-6.78 13.83-13.03 27.91-19.7 41.79.13.88.38 1.77.75 2.65l-1.16 1.92c4.08 14.5 7.72 29.13 11.97 43.58 1.48.97 2.36 2.52 2.89 4.25 11.82 8.98 23.69 17.93 35.66 26.73 1.93-.4 3.75.42 5.29 1.71 14.03-.23 28.07.07 42.13.04 2.04.36 3.2-1.62 4.99-2.36 2.35-.58 4.21 3.14 1.85 4.38-1.76 1.49-3.42-.57-4.5-1.56-15.02.31-30.05-.07-45.05.4-.34.56-1.01 1.68-1.35 2.24-2.54-.08-3.99-1.68-4.13-4.07-11.86-8.95-23.8-17.81-35.86-26.46-1.88.18-4.93-.15-4.3-2.74.22-.56.64-1.69.86-2.25-3.87-14.44-8.01-28.81-12.06-43.2-1.28-1.18-3.36-2.42-2.36-4.43.74-.66 1.64-1.23 2.7-1.71 5.12-10.81 9.95-21.75 14.95-32.62 1.58-3.9 4.23-7.57 4.15-11.97-.05-3.29 4.23-1.39 6.3-2.56 14.1-6.26 28.23-12.49 42.31-18.85zM8579.22 18.13c3.25-2.07 6.08 3.67 2.69 5.1-3.22 1.83-5.8-3.37-2.69-5.1zM534.58 22.66c.8-1.62 1.05-4.24 3.45-4.05 2.65-.09 2.78 2.82 2.66 4.73 19.83 28.48 40.05 56.69 59.96 85.12 1.24 1.85 3.13 3.08 4.66 4.66.95 3.53-3.7 3.16-5.68 4.63-19.43 12.55-38.82 25.18-58.23 37.76-8.93 6.02-18.35 11.35-26.88 17.94-1.32.83-2.73-.52-3.39-1.57-.49-2.96 3.48-3.07 5.2-4.53 28.02-17.84 55.99-35.77 83.99-53.65-6.8-10.74-14.43-20.94-21.56-31.47-13.35-19.26-26.74-38.49-40.07-57.76-.61-.09-1.81-.29-2.42-.39-27.92 20.53-55.85 41.06-83.84 61.5-.14 1.13-.28 2.27-.42 3.4 7.45 9.65 14.35 19.74 22.17 29.09-.34.39-.67.79-1 1.19-.79-1.92-1.97-3.62-3.25-5.23-6.3-8.03-12.33-16.27-18.67-24.27-1.61-.48-4.07-.67-4.05-2.89-.29-2.46 2.75-2.88 4.57-2.19 27.64-20.62 55.21-41.34 82.8-62.02zM2957.85 22.19c.6-1.1 1.1-2.34 2.09-3.23 1.68-.45 2.95.88 4.21 1.81 2.22-.56 4.45-1.25 6.79-1.49 1.73-.79 1.87 3.24-.07 2.77-7.96 2.21-16.08 3.71-24.08 5.68-3 .57-5.41 2.52-7.82 4.21-4.85 3.58-10.1 6.57-15 10.07-2.99 2.05-4.71 5.32-6.72 8.21-3.04 4.9-7.01 9.17-9.9 14.16-2.43 5.71-2.85 12.02-4.9 17.85-1.19 2.9-.87 6.72-3.64 8.73.13-3.61 1.17-7.08 2.11-10.54-1.07-1.28-2.57-2.53-1.96-4.39.89-.98 2.28-1.17 3.5-1.71 1.31-4.48 1.56-9.47 4.47-13.31 1.44-2.12 2.96-4.2 4.45-6.3-.51-1.5-1.41-3.12-.42-4.65 1.1-.95 2.58-.58 3.93-.51 2.55-3.3 4.3-7.41 7.96-9.7 2.75-1.9 5.57-3.71 8.26-5.72-.1-1.82.15-5.01 2.83-4.37.62.2 1.84.58 2.46.78 2.93-1.87 5.6-4.38 9.08-5.24 4.1-1.06 8.28-1.87 12.37-3.11zM2989.39 19.67c1.67-1.55 4.48.28 4.4 2.37.05 2.03-2.65 3.95-4.35 2.48-1.85-1.05-1.83-3.76-.05-4.85zM3311.1 18.99c3.2-1.96 6 3.45 2.76 5.04-3.14 1.95-5.88-3.37-2.76-5.04zM3686.17 19.14c1.19-.69 3.28-.82 4.06.65 1.71 2-.62 5.54-3.12 4.46-2.32-.46-2.62-3.71-.94-5.11zM4384.21 19.18c2.6-2.72 6.82 1.61 4.11 4.14-2.59 2.78-6.6-1.49-4.11-4.14zM5438.23 19.26c3.16-2.12 6.01 3.65 2.66 5.07-3.17 2.06-5.95-3.55-2.66-5.07zM6460.42 20.85c1.04-1.08 2.53-3.47 4.34-1.91.52.34 1.56 1.01 2.08 1.35 3.72-.25 7.48-.89 11.28-1.12 1.46-.57 2.58 1.36 1.65 2.51-5.21 1.25-10.68.82-15.8 2.3-7.29-.9-14.07 2.49-20.16 6-7.25 1.04-12.71 6.17-17.6 11.16-4.75 2.83-8.97 6.61-11.33 11.68-1.91 4.91-6.62 8.06-8.24 13.11-1.66 4.99-2.96 10.09-4.54 15.09-1.45 4.2-1.63 8.82-.28 13.07-1.39 4.35-.51 8.96-1.18 13.41-2.55-2.8-.95-7-1.44-10.4-1.19-1.12-2.88-2.18-2.34-4.06.63-.75 1.37-1.48 2.23-2.17-.66-6.61 2.03-12.74 3.68-18.98.72-2.61 1.32-5.28 2.35-7.82 1.22-3.07 4.46-5.53 3.52-9.19-.6-2.94 3.43-1.78 4.49-3.74 2.06-2.89 3.67-6.22 6.71-8.31 1.94-1.13 2.17-3.34 2.79-5.33.85-1.6 2.82-.8 4.28-.67 3.82-3.29 7.55-6.9 12.53-8.44.75-1.46 1.14-4.15 3.49-3.52.61.24 1.83.72 2.44.95 4.9-1.93 9.64-4.61 15.05-4.97zM6811.1 19.01c3.08-1.98 5.94 3.28 2.86 4.97-3.19 2.1-6.04-3.28-2.86-4.97zM6836.2 19.11c1.4-.86 3.78-.57 4.37 1.3.99 2.03-1.28 4.78-3.43 3.85-2.38-.42-2.68-3.75-.94-5.15zM4741.19 20.02c3.37-2.38 6.54 3.67 2.74 5.06-3.1 1.64-5.51-3.22-2.74-5.06zM5405.25 20.22c1.57-.98 3.99-.2 4.37 1.8 1.05 2.89-3.56 4.93-4.95 2.24-1.12-1.26-.54-3 .58-4.04zM6106.12 20c2.38-1.53 5.28 1.59 3.87 3.96-1.17 2.27-4.97 1.58-5.14-.91-.31-1.32.11-2.33 1.27-3.05zM2250.03 25.96c-2.11-1.84.13-5.7 2.75-4.72.91.7 1.73 1.54 2.61 2.33 20.51 3.31 41.04 6.58 61.56 9.85 2.31.65 4.66-1.55 6.86-.14.74 2.07.31 4.44 1.53 6.38 9.73 17.9 19.28 35.91 29.01 53.82 2.74.85 4.13 5.07.6 5.87-3.87.77-2.87-3.97-4.18-6.16-9.19-17.44-18.44-34.86-27.62-52.32-.94-2.08-2.96-3.24-4.62-4.64-21.21-3.62-42.42-7.26-63.65-10.71-1.49.86-3.49 2.24-4.85.44zM3652.24 21.26c2.5-2.62 6.66 1.52 4.11 4.04-2.47 2.84-6.61-1.41-4.11-4.04zM4352.17 21.01c3.27-2.19 6.34 3.65 2.75 5.04-3.07 1.61-5.49-3.21-2.75-5.04zM6146.26 21.57c2.53-2.53 6.38 2.08 3.71 4.31-2.71 2.97-7-2.1-3.71-4.31zM7504.98 22.83c10.98-.7 21.96-1.83 32.98-2.26 4.56 1.28 8.82 3.52 13.3 5.19.94-1.27 2.36-3.47 4.34-2.37 2.04.63 1.27 3.13 1.62 4.76 4.97 2.29 10.31 3.88 15.19 6.47 2.81 2.54 5.06 5.66 7.67 8.46 1.53-.56 3.45-1.51 4.94.02 1.24 1.62-.05 3.24-.72 4.75 3.49 4.06 7.11 8.03 10.67 12.07 2.75 2.87 2.89 7.11 4.1 10.74 1.39.38 3.63.41 4.02 2.35.24 1.77-1.45 2.74-2.38 3.86 1.46 5.98 3.16 11.9 4.69 17.86.76 2.71-.41 5.45-.71 8.14.6 1.17 2.6 2.21 1.96 3.81-.56 1.47-2.28 1.76-3.36 2.48-1.75 7.17-2.91 14.48-4.77 21.61-.59 1.41-3.56 1.12-2.81-.62 1.81-11.16 4.98-22.08 6.93-33.21-2.48-11.15-5.45-22.24-8.46-33.26-5.54-7.35-12.05-13.98-17.94-21.06-2.4-2.52-4.24-5.88-7.63-7.12-9.47-3.9-18.91-7.86-28.33-11.83-3.28-1.55-6.93-.59-10.31-.55-8.31.66-16.62 1.02-24.9 1.65-3.63-.05-6.42 2.38-9.37 4.02-7.69 4.67-15.67 8.87-23.18 13.77-4.39 6.03-8.11 12.53-12.3 18.68-2.52 3.44-4.14 7.65-7.56 10.29 2.86-6.35 7.21-11.91 10.84-17.86-.9-1.36-2.89-2.84-1.6-4.58.79-2.06 3.23-.97 4.85-.47 2-3.18 3.47-7.11 7.07-8.9 4.32-2.57 8.67-5.13 13.01-7.76-.57-1.62-1.34-3.59.35-4.88 1.84-1.24 3.58.56 4.83 1.88 4.19-2.21 7.91-6.13 12.97-6.13zM5049.13 21.99c3.16-2.17 6.16 3.43 2.81 5-3.1 1.72-5.7-3.25-2.81-5zM5097.15 22.11c2.6-2.69 6.84 1.57 4.13 4.12-2.61 2.91-6.61-1.49-4.13-4.12zM7148.26 22.24c3.14-1.93 5.86 3.73 2.59 5.08-3.14 1.89-5.8-3.54-2.59-5.08zM1601.78 26.89c-.97-2.44 2.33-4.92 4.35-3.19 1.59.83.75 3.03 1.03 4.46 15.19 19.56 30.42 39.12 45.83 58.52 1.33.51 3.15.68 3.7 2.31.59 2.03-1.68 2.97-2.96 3.93-9.24 20.15-18.06 40.49-27.23 60.67-1.17 2.2-1.24 4.71-1.78 7.09-2.31 1.02-4.8-.48-7.19.01-20.81 2.36-41.62 4.72-62.44 7.04-2.39.21-4.62 1.25-6.99 1.39-2.21-.13-2.48-4.47-.02-4.3 6.72.43 13.37-.87 20.06-1.45 16.6-1.77 33.21-3.47 49.81-5.29 2.36.01 4.52-1.52 5.38-3.73 9.16-20.13 18.3-40.27 27.49-60.39 1-1.81.44-3.9.43-5.85-15.11-19.62-30.12-39.32-45.37-58.83-1.43-.54-3.92-.38-4.1-2.39zM3353.42 23.4c3.24-1.67 5.55 3.9 2.31 5.26-3.38 2.05-5.94-4.04-2.31-5.26zM3703.41 23.41c3.27-1.72 5.58 3.99 2.25 5.29-3.37 1.91-5.82-4.08-2.25-5.29zM4400.34 23.22c1.9-2.08 5.61-.02 4.81 2.71-.55 3.42-6.13 2.63-5.64-.9.21-.46.62-1.36.83-1.81zM5454.09 24.01c1.84-1.39 4.79.67 4.19 2.94-.17 1.93-2.64 3.03-4.19 2.09-1.94-.98-1.94-4.06 0-5.03zM6506.5 24.45c3.5-1.15 5.04 4.64 1.51 5.61-3.58 1.21-5.19-4.9-1.51-5.61zM3291.2 25.04c1.57-.64 3.85.13 4.01 2.06.56 1.76-1.34 3.92-3.13 3.3-2.64-.34-3.04-4.11-.88-5.36zM4757.28 25.25c1.39-.94 3.77.03 4 1.8.84 2.25-2.16 4.73-4.11 3.28-2.05-.86-1.92-4.24.11-5.08zM5390.4 25.55c1.22-.97 3.54.02 3.86 1.58 1.24 2.51-2.58 5.27-4.35 2.94-1.66-1.13-1.24-3.68.49-4.52zM7206.37 25.52c1.06-1.29 3.65-.89 4.39.77 1.29 2.17-1.39 5.17-3.6 4.03-2.2-.43-2.46-3.58-.79-4.8zM8525.05 38.36c26.56-4.37 53.13-8.72 79.7-13.1 16.86 21.33 33.46 42.86 50.35 64.18-10.31 23.55-20.94 46.97-31.39 70.46-25.19 2.99-50.39 5.91-75.6 8.49-12.16-14.33-24.38-28.6-36.54-42.91-4.25-4.84-8.17-9.96-12.82-14.4-1.5-1.91 1.04-4.4 3.18-3.22 5.33 7.65 11.74 14.47 17.61 21.71 10.07 11.91 19.9 24.03 30.13 35.81 24.02-2.61 48.05-5.17 72.09-7.63 10.33-22.61 20.59-45.24 30.9-67.86-16.21-20.99-32.34-42.04-48.54-63.02-26.22 4.21-52.5 7.99-78.68 12.35-1.46 4.11-2.48 8.4-4.53 12.24.9-4.5 2.65-8.77 4.14-13.1zM837.13 27.08c1.99-1.27 4.88.49 4.41 2.86-3.54 5.32-5.89 11.27-8.71 16.98-9.69 20.29-19.39 40.59-29.05 60.9-1.15 1.58-.08 3.24 1.2 4.3 18.83 18.47 37.68 36.91 56.45 55.43 1.44 1.78 4.03 1.99 5.97.89 24.4-10.6 48.81-21.2 73.22-31.77.7-1.1 1.42-2.19 2.17-3.28-3.41-28.26-6.71-56.54-10.09-84.81-1.23-1.06-2.36-2.23-3.31-3.53-17.18-3.09-34.4-5.99-51.62-8.82 5.85.04 11.56 1.46 17.32 2.28 11.53 1.8 23.04 3.81 34.59 5.47 1.4-1.24 3.63-2.77 5.26-.9 1.67 1.76-.12 3.73-1.19 5.19 3.4 28.3 7.07 56.57 10.72 84.83.8.92 1.92 1.69 2.33 2.9-.22 1.45-1.65 2.11-2.61 3.02-.58-.28-1.74-.84-2.32-1.11-24.28 10.69-48.5 21.5-72.79 32.17-2.05.69-3.24 2.63-5.05 3.63-2.75-.04-2.88-3.55-4.64-5.03-18.46-17.89-37.01-35.69-55.46-53.6-1.75-1.89-4.74-2.52-5.75-5.05 3.81-4.62 5.7-10.34 8.3-15.65 9.39-20.23 18.75-40.47 28.15-60.69 1.02-2.13 1.35-4.53 2.5-6.61zM1185.55 33.58c1.4-2.21-.51-7.07 3.41-6.86 4.07 2.99 9.3 2.79 14.05 3.75 23.32 3.77 46.66 7.49 69.98 11.28 3.4.46 6.97 1.74 10.32.25 3.5 1.49 1.44 5.25 1.82 8.09 3.02 23.97 6.05 47.95 9.08 71.92.57 4.72.98 9.49 2.3 14.08.4 2.65-3.85 3.53-4.96 1.25-.11-8.5-1.66-16.9-2.53-25.35-2.43-20.69-4.98-41.37-7.37-62.07-.1-1.61-.69-3.7-2.66-3.74-29.24-5.12-58.54-9.85-87.76-15.07-3.09 1.47-4.05 4.86-5.42 7.7-10.96 23.09-22.03 46.12-32.95 69.23.22 1.21.45 2.42.68 3.64 13.72 13.53 27.55 26.94 41.26 40.49 2.77 2.71 5.36 5.64 8.53 7.93-.42.39-.83.78-1.22 1.18-3.92-5.15-9.14-9.11-13.6-13.76-11.97-11.46-23.81-23.06-35.78-34.52-1.25-.33-2.54-.48-3.65-1.11-.99-1.1-.47-2.57-.34-3.85l2.56-.6c11.36-24.64 22.85-49.23 34.25-73.86zM2587.18 27.04c3.25-2.13 6.37 3.56 2.82 4.99-3.02 1.59-5.4-3.09-2.82-4.99zM3637.2 27.04c3.27-2.16 6.36 3.66 2.74 5.02-3.03 1.5-5.32-3.15-2.74-5.02zM4337.15 27.06c2.12-1.41 5.13.89 4.32 3.3-.51 2.42-4.38 2.63-5.09.3-.85-1.27-.12-2.59.77-3.6zM6087.16 27.06c3.22-2.2 6.43 3.6 2.8 4.99-3.03 1.51-5.36-3.09-2.8-4.99zM6787.16 27.06c3.26-2.23 6.42 3.68 2.76 5.01-3.04 1.44-5.31-3.14-2.76-5.01zM6861.05 26.97c1.57-.57 3.69.12 4.06 2.02.6 2.19-2.12 4.38-4.01 3.27-2.4-.77-2.07-4.22-.05-5.29zM7837.15 27.06c3.24-2.21 6.42 3.64 2.79 5-3.04 1.49-5.33-3.11-2.79-5zM5035.33 28.31c3.2-1.01 4.94 4.48 1.6 5.44-3.35 1.32-5.28-4.64-1.6-5.44zM5113.21 28.29c1.34-.99 3.78.06 4.02 1.78.7 2.12-1.81 4.45-3.78 3.48-2.36-.65-2.46-4.36-.24-5.26zM5735.33 28.4c3.61-.63 4.26 5.68.61 5.64-3.36.29-4.12-5.2-.61-5.64zM6166.27 29.31c2.38-.5 4.41 2.53 2.82 4.5-1.38 2.53-5.66 1.04-5.15-1.76-.33-1.4 1.21-2.24 2.33-2.74zM3982.14 30.06c2.96-1.39 5.61 3.45 2.71 5.01-3.19 2.27-6.11-3.44-2.71-5.01zM4415.45 30.42c1.77-1.87 5.43-.03 4.67 2.59-.31 3.73-6.68 2.7-5.59-1.09.23-.37.69-1.12.92-1.5zM3017.2 31.05c3.41-2.32 6.53 3.59 2.73 5.03-3.12 1.67-5.54-3.2-2.73-5.03zM3718.41 31.5c3.36-2.07 5.98 4.02 2.26 5.24-3.25 1.59-5.5-3.84-2.26-5.24zM7916.97 35c-1.07-2.4 2.22-5.05 4.33-3.35 1.68.81.65 3.1.87 4.54 7.62 9 15.4 17.87 23.19 26.74 1.26.31 3.14.02 4.11 1.37 1.43 1.57-.58 3.24-1.23 4.61 1.98 11.32 3.84 22.66 5.99 33.95.95 1.07 3.05 1.99 2.45 3.81-.73 1.32-2.22 1.86-3.24 2.7-4.01 10.27-8.06 20.52-11.97 30.82.25 1.44 1.48 4.03-.69 4.47-4.19.39-6.95 3.68-10.08 6.02-6.13 4.89-12.39 9.6-18.39 14.61-.63 1.56-1.36 3.05-2.85 3.81-3.31-2.03-7.06-.56-10.49-.11-7.17 1.17-14.33 2.32-21.47 3.42-2.4.24-4.26 1.67-6.4 2.34-4.91-4.08-11.43-4.9-17.15-7.23-6.67-1.9-12.96-5.4-19.97-5.67-3.67-6.69-9.84-11.43-14.77-17.11-4.06-4.03-7.42-8.84-12.38-11.79.04-5.64-2.06-10.93-3.33-16.35-2.18-7.96-3.89-16.06-6.99-23.72 1.62-.43 3.81-1.49 4.99.52.3 6.72 2.62 13.08 4.13 19.58 1.39 5.16 2.4 10.44 4.07 15.53 1.9 5.25 6.36 8.78 9.95 12.85 4.12 4.53 8.35 8.97 12.51 13.49 5.7 6.1 14.31 7.3 21.75 10.28 5.94 1.77 11.58 4.91 17.9 5.29 3.68.62 7.33-.41 11.03-.93 7.01-1.11 14.06-2.11 21.11-3.25 1.6-.04 2.99-1.03 4.25-2.11.66-.06 1.96-.16 2.62-.21 8.55-6.76 17.26-13.33 25.79-20.15.07-2.02 1.37-3.38 3.18-4.23 4.23-10.24 8.13-20.62 12.4-30.86-.53-.91-.95-1.82-1.28-2.73.52-.9 1.15-1.81 1.88-2.71-2.04-11.3-3.71-22.67-5.78-33.96-1.16-1-2.19-1.98-3.15-3.01.26-.53.77-1.59 1.03-2.12-7.8-9.03-15.51-18.13-23.26-27.19-1.75-.15-4.24.15-4.66-1.96zM5468.21 32.12c1.64-1.38 4.68-.39 4.79 1.93.45 2.7-3.67 4.43-5.14 2.07-1.13-1.18-.62-2.9.35-4zM4772.42 33.45c3.84-.86 4.37 5.66.59 5.66-3.64.6-4.12-5.3-.59-5.66zM3371.3 34.34c2.52-2.35 6.45 1.49 4.04 4-2.43 3.25-7.26-1.37-4.04-4zM5376.19 34.22c2.93-2.46 6.56 2.32 3.6 4.58-2.86 1.79-5.87-2.23-3.6-4.58zM1524.08 36.04c2.92-1.2 5.53 3.21 2.81 5.01-3.22 2.2-6.13-3.31-2.81-5.01zM2674.3 36.35c3.43-2.59 6.58 3.73 2.65 4.99-2.99 1.42-5.55-3.22-2.65-4.99zM3274.14 36.02c2.9-1.15 5.44 3.28 2.73 5.05-3.28 2.15-6.14-3.42-2.73-5.05zM3624.1 36.04c2.92-1.17 5.46 3.19 2.81 5.01-3.25 2.22-6.19-3.33-2.81-5.01zM4324.12 35.98c1.97-1.32 4.73.73 4.23 3.02-.27 2.22-3.39 2.93-4.62 1.22-1.27-1.18-1-3.28.39-4.24zM6525.28 36.29c3.05-1.53 5.44 3.7 2.34 5.13-3.41 2.32-6.27-3.94-2.34-5.13zM7124.3 36.56c3.32-.41 4.05 5.39.64 5.55-3.55.58-4.33-5.4-.64-5.55zM5021.4 38.38c2.39-2.38 6.25 1.49 4 3.92-2.29 2.94-6.72-1.39-4-3.92zM5126.23 38.12c3.03-2.24 6.44 2.37 3.53 4.66-3.12 2.29-6.48-2.36-3.53-4.66zM6071.32 38.55c2.87-2.34 6.15 3.36 2.84 4.8-2.85 1.72-5.77-3.1-2.84-4.8zM5720.34 39.51c1.29-1.24 3.6-.07 4.02 1.54.94 1.95-1.48 4.5-3.36 3.35-2.15-.58-2.62-3.77-.66-4.89zM3969.33 40.44c1.22-1.19 3.37-.52 4.09 1 1.31 2.03-1.17 5.01-3.33 3.69-1.94-.6-2.39-3.48-.76-4.69zM4429.2 40.07c1.49-.63 3.79.07 3.99 1.94.69 2.33-2.3 4.51-4.27 3.14-2.05-.99-1.66-4.14.28-5.08zM117.4 42.31c2.04-1.55 4.33.7 6.57.49 30 .09 60 .07 90 .12 6.58-.09 13.19.37 19.73-.59 3.14 1.02 1.9 4.73-.5 5.81-3.55-1.48-7.44-1.03-11.18-1.1-33.65-.16-67.29-1.07-100.94-.99.79 33.96 1.87 67.91 2.94 101.86.37.37 1.1 1.1 1.46 1.47 33.47 1.35 66.94 2.73 100.41 4.02.86-.75 1.72-1.49 2.59-2.24.6-17.41 1.51-34.81 2.01-52.22.99-10 .79-20.03 1-30.06 1.01 14.71-.96 29.38-.69 44.1-.59 12.03-.81 24.07-1.2 36.11-.58 2.6 3.25 4.37 1.31 6.84-1.93 1.5-3.8-.12-5.26-1.39-33.23-1.23-66.47-2.21-99.7-3.25-1.55.85-3.24 2.13-4.84.58-1.21-2.31 1.3-4.48.81-6.88-1.46-32.65-2.41-65.32-4.06-97.96-.54-1.52-1.8-3.22-.46-4.72zM1981.42 42.59c1.99-1.58 5.21 1.14 4 3.34-.5 1.61-2.67 2.71-4.11 1.6-1.97-.99-1.88-4.02.11-4.94zM3731.39 42.61c1.99-1.61 5.23 1.11 4.03 3.32-.54 1.87-3.16 2.74-4.54 1.3-1.63-1.19-1.25-3.77.51-4.62zM5481.39 42.6c1.98-1.59 5.19 1.1 4.03 3.32-.53 1.59-2.65 2.69-4.06 1.65-2.02-.97-2-4.02.03-4.97zM6181.39 42.61c1.93-1.62 5.18 1.07 4.04 3.28-.5 1.9-3.28 2.82-4.58 1.29-1.62-1.18-1.23-3.74.54-4.57zM6767.41 42.33c2.4-2.61 6.49 1.66 3.91 4.02-2.44 2.54-6.34-1.58-3.91-4.02zM6879.99 46.01c-.94-2.36 2.23-4.99 4.32-3.38 1.69.72.86 2.95 1 4.37 3.49 5.3 7.12 10.51 10.86 15.66 1.33.59 4.19 1.07 3.57 3.22-1.26 3.44.35 6.83 1.31 10.12 1.01 3.49 1.93 7.03 3.12 10.5 1.02 1.1 3.65 2.5 2.09 4.29-.34.5-1 1.51-1.33 2.01.05 7.05-2.25 14.47.38 21.25-.44 1.96-2.82 2.83-3.31 4.82-2.02 5-3.98 10.02-5.82 15.07 1.18 2.56-.49 4.7-3.04 5.13-4.25 5.53-10.02 10.15-12.48 16.81-1.15.37-2.25.62-3.29.73-4.54 2.68-8.98 5.49-13.37 8.34-2.17 1.44-4.14 5.8-6.97 2.95-2.01-3.17 2.14-3.95 4.34-4.58 4.91-2.61 9.43-5.93 14.31-8.69.38-.87.85-1.74 1.41-2.61.59-.15 1.78-.47 2.37-.62 3.17-3.8 6.36-7.6 9.63-11.35 1.94-2 1.94-5.29 4.51-6.84 2.56-5.57 4.63-11.35 6.93-17.05-.18-.81-.54-2.44-.72-3.25l1.84-1.32c.25-5.56.54-11.12.9-16.67.24-2.56-1.98-4.71-.93-7.29-.24-5.36-2.73-10.39-3.79-15.63-.34-3.15-4.58-4.54-3.28-7.96-3.49-5.31-7.07-10.55-10.73-15.72-1.45-.59-3.29-.68-3.83-2.31zM7231.44 42.58c1.21-1.05 3.42-.17 3.94 1.35 1.23 2.2-1.96 5.16-4.03 3.63-2.06-.97-1.99-4.06.09-4.98zM8867.44 42.39c1.2-1.68 3.04-.17 4.62.33 29.62.27 59.26.1 88.89.2 7.57-.14 15.2.44 22.78-.58 3.19 1.21.78 5.1.97 7.59-1.76 33.03-3.39 66.09-4.99 99.13-.71 2.58 2.97 4.39 1.23 6.86-2.03 1.49-3.92-.07-5.28-1.37-32.56-1.26-65.14-2.08-97.7-3.27-2.45-.37-4.68 2.32-6.85.64-1.31-2.34 1.23-4.5.81-6.93-1.47-32.65-2.41-65.33-4.06-97.98-.55-1.41-2.03-3.34-.42-4.62m3.63 3.67c.78 33.33 1.87 66.65 2.86 99.97-.26 1.75.92 3.65 2.94 3.41 33.05 1.37 66.12 2.61 99.18 4.04 1.11-1.29 2.65-2.51 2.4-4.5.72-33.96 1.39-67.92 2.16-101.88-36.52-.1-73.03-1.13-109.54-1.04zM8516.24 44.22c2.89-1.03 5.07 3.87 2.09 5.15-3.27 1.81-5.75-4.06-2.09-5.15zM4783.22 45.18c1.95-1.53 5.3.27 4.58 2.78-.34 2.66-4.68 3.28-5.44.65-.81-1.14.03-2.56.86-3.43zM5365.08 44.96c2.71-2.1 6.11 2.41 3.42 4.47-2.64 2.38-6.22-2.4-3.42-4.47zM4313.21 47.35c3.11-2.37 6.26 3.64 2.7 4.82-2.86 1.4-5.23-3.06-2.7-4.82zM3612.33 48.38c2.84-2.45 6.41 2.32 3.5 4.51-2.8 1.65-5.79-2.24-3.5-4.51zM3388.88 54.6c-3.6.03-4.78-5.15-.98-5.91 3.18-.56 3.2 2.93 3.14 5.11 1.84 4.51 4.77 8.51 7.16 12.77.58.26 1.74.77 2.32 1.03 1.95 1.19.2 3.5.32 5.23.69 4.65 2.22 9.12 3.39 13.66.98.97 2.33 1.82 2.62 3.33-.44.69-1.33 2.07-1.77 2.76-.3 4.81-.42 9.63-.33 14.45.54.95 1.02 1.94 1.45 2.98-.85 2.13-3.1 3.47-3.38 5.89-1.1 4.33-3.32 8.55-2.76 13.14.44 1.87-1.69 2.31-2.82 3.09-2.65 3.88-5.16 7.85-7.47 11.93.93 4.03-3.67 3.9-5.69 6.07-3.4 3.3-7.49 6.07-9.68 10.39-1.41 2.08-5.18-.08-4.24-2.31.42-1.61 2.42-1.61 3.72-2.22 3.42-2.99 6.77-6.08 10.1-9.2.46-1.98 1.75-3.42 3.62-4.25 2.5-3.8 4.89-7.68 7.38-11.5.01-.72.03-2.16.04-2.87 3.8-3.02 3.79-8.35 5.52-12.55 1.25-2.77-.58-6.14 1.7-8.51.31-4.8.42-9.61.46-14.41-1.74-1.65-1.83-3.73-.67-5.73-1.23-4.55-1.95-9.26-3.61-13.67-1.62-1.54-3.05-3.3-2.1-5.69-2.36-4.41-4.82-8.77-7.44-13.01zM5011.09 49.99c1.5-1.14 4.02-.5 4.45 1.52.76 1.79-1.59 4.26-3.31 3.23-2.01-.66-2.56-3.26-1.14-4.75zM5139.8 55.69c-3.2.01-5.09-4.15-1.78-5.67 3.09-1.41 4.71 2.31 3.59 4.78 2.28 3.5 3.59 8.14 7.75 9.95 1.64.87.2 3.02.08 4.39.92 3.15 1.99 6.25 3.12 9.35 1.32 1.02 3.54 2.23 2.38 4.26-1.68 3.78-.09 7.89.28 11.78 2.23 1.64 2.34 4.43.03 6.07-.38 3.25-.71 6.5-.95 9.76 2.01 2.14 1.08 4.54-1.13 5.99-1.17 3.1-2.11 6.27-3.12 9.41.32.6.97 1.8 1.29 2.4-3.93 2.64-6.04 6.91-8.09 11-.33 1.48.24 3.66-1.61 4.17-3.68 1.68-5.72 5.31-8.42 8.1-.03.68-.08 2.06-.11 2.74-1.36.37-2.7.73-3.94 1.1-3.26 2.37-6.88 4.48-9 8-1.78 2.32-5.59-.66-3.99-3.06 4.47-1.77 8.91-4.21 11.87-8.17 1.02-1.65 2.98-2.25 4.41-3.57 1.83-1.81 3.42-3.88 5.15-5.85.14-1.99 1.14-3.63 3.12-4.32 1.71-2.76 3.34-5.58 4.87-8.47-.72-2.94 2.16-4.55 2.97-7.08.9-2.87 2.4-5.8 1.81-8.89-.56-1.44.62-2.45 1.45-3.48.44-3.28.88-6.57 1.08-9.88-1.63-1.77-1.33-3.82-.03-5.67-.23-3.3-.72-6.57-1.09-9.85-.65-.95-2.22-1.62-1.72-2.93 1.02-4.25-1.5-8.18-2.66-12.12-3.59-1.24-1.97-5.14-3.64-7.66-1.27-2.24-2.66-4.4-3.97-6.58zM3260.36 51.47c2.98-2.45 6.23 3.84 2.54 4.8-2.84 1.35-5.21-3.21-2.54-4.8zM3038.38 52.31c1.52-1.63 4.71-.68 4.85 1.65.22 1.74-1.45 3.43-3.15 3.14-2.37.12-3.43-3.3-1.7-4.79zM3960.18 52.08c3.32-1.29 5.43 4.54 1.77 5.29-3.11.85-4.76-4.08-1.77-5.29zM5710.49 52.5c3.06-.6 4.37 4.4 1.33 5.33-3.39 1.25-5.2-4.99-1.33-5.33zM4439.16 53.08c1.47-1.21 4-.68 4.65 1.27.92 2.45-2.66 5.04-4.54 3.14-1.54-1.07-1.41-3.19-.11-4.41zM6059.25 53.32c1.36-.98 3.5.22 3.84 1.79.68 1.73-1.27 4.08-3.03 3.24-2.42-.31-3.03-3.99-.81-5.03zM6539.25 53.2c2.91-2.53 6.73 2.28 3.56 4.49-2.97 2.18-6.31-2.22-3.56-4.49zM7809.28 54.41c2.93-.48 4.41 4.42 1.4 5.28-3.33 1.4-5.35-4.74-1.4-5.28zM8640.18 54.06c2.82-1.98 6.24 2.2 3.5 4.47-3 2.73-6.79-2.26-3.5-4.47zM5491.4 55.64c2.92-2.26 6.19 3.04 2.92 4.72-3.03 2.26-6.41-3.06-2.92-4.72zM1857.05 56.11c1.67-1.57 4.75-.39 4.74 1.97-.49 1.63-1.37 3.13-1.54 4.83-1.37 18.35-2.67 36.71-4.09 55.06-.33 2.9.9 5.89 3.06 7.83 12.62 12.36 25.25 24.7 37.84 37.1 2.56 2.54 6.27 4.18 9.94 3.69 17.65-1.23 35.33-2.14 52.99-3.36 2.52.34 4.31-3.38 6.7-1.69 1.49.88 1.49 3.1 0 3.98-1.62 1.43-3.2-.53-4.57-1.23-18.75 1.3-37.49 2.61-56.23 3.88-2.2-.14-3.76 2.16-5.9 1.84-1.42-.77-1.46-2.47-1.86-3.81-13.45-13.02-26.94-25.99-40.42-38.96-1.84-1.96-5.25-2.08-5.92-5.06.67-.67 1.36-1.33 2.07-2 1.04-19.77 2.54-39.52 3.66-59.29-.52-1.54-1.45-3.19-.47-4.78zM3741.22 56.35c2.47-2.37 6.52 1.4 4.05 3.9-2.43 3.16-7.16-1.33-4.05-3.9zM5357.47 57.39c2.05-.57 4.18 2.21 2.95 4.08-.99 1.89-4.05 1.62-4.66-.33-.79-1.43-.08-3.53 1.71-3.75zM2556.1 58.07c1.54-1 3.9-.36 4.38 1.54.93 2.22-2.27 4.71-4.01 2.81-1.47-1.03-1.48-3.05-.37-4.35zM4793.31 58.29c3.06-1.84 5.74 3.38 2.57 4.89-3.24 2.35-6.18-3.53-2.57-4.89zM6193.19 59.03c2.79-1.99 6.26 2.22 3.45 4.41-2.8 2.82-6.84-2.24-3.45-4.41zM7105.03 60.11c.92-1.89 3.67-1.37 4.57.41 1.09 1.97-1.41 3.44-1.91 5.19-1.85 5.02-2.97 10.26-4.63 15.33-3.22 10.45-.57 21.29.07 31.9.43.52 1.29 1.54 1.72 2.06-.12.62-.36 1.87-.48 2.5 2.52 5.16 5.03 10.34 7.48 15.55 1.4 3.38 4.17 5.88 6.01 9.03 4.57 4.85 9.48 9.39 14.31 14.02 3.34.44 4.81 4.02 8.07 4.86 6.53 2.37 12.39 7.13 19.6 7.17 1.62 1.15 1.27 4.01-.85 4.24-2.04.71-2.81-1.64-3.72-2.78-5.43-2.59-10.95-4.94-16.36-7.48-2.14-1.11-4.59-.96-6.77-1.37-.87-.97-1.13-2.26-1.43-3.4-4.73-4.68-9.49-9.32-14.34-13.83-1.35-1.37-4.37-1.12-4.44-3.35-.11-3.54-2.07-6.55-3.54-9.63-2.02-3.97-3.92-7.98-5.92-11.93-2.49-1.11-3.52-3.59-1.73-5.85-.41-4.89-.95-9.77-1.37-14.66-.4-2.91-.25-5.99-1.69-8.62-1.69-2.38 1.82-4.12 2.13-6.49 1.75-7.62 5.15-14.95 5.22-22.87zM4305.25 60.47c1.31-1.12 3.59.02 3.92 1.6.79 1.83-1.28 4.16-3.11 3.24-2.21-.41-2.87-3.73-.81-4.84zM3604.06 62.07c1.25-.82 3.49-.86 4.19.79 1.47 1.78-.79 4.91-2.92 3.89-1.97-.64-2.53-3.13-1.27-4.68zM6754.07 62.07c2.46-2.13 6.2 1.58 3.94 3.97-2.34 2.76-6.35-1.51-3.94-3.97zM5004.16 63.09c3.37-1.69 5.68 4.45 1.93 5.09-2.94.81-4.69-3.78-1.93-5.09zM3952.39 66.36c2.34-2.15 6.06 1.52 3.91 3.84-2.18 2.86-6.56-1.38-3.91-3.84zM4447.28 67.19c1.9-1.25 4.78.55 4.25 2.83-.38 2.22-3.51 3.19-4.92 1.47-1.38-1.15-.8-3.47.67-4.3zM7248.21 67.23c2.11-.78 4.51 2.06 3.13 4-.93 1.88-3.78 2.06-4.81.32-1.48-1.5-.07-3.82 1.68-4.32zM2202.16 67.99c1.92-.8 4.34.83 3.94 3-.06 2.15-3.12 2.89-4.39 1.34-1.33-1.18-1.04-3.42.45-4.34zM5702.13 68.02c3.03-1.5 5.62 3.27 2.71 4.95-3.06 1.4-5.61-3.23-2.71-4.95zM3251.42 69.48c2.51-2.37 6.11 2.23 3.42 4.34-2.69 1.82-6-2.28-3.42-4.34zM5498.3 70.33c1.13-.78 3.05-.69 3.92.66 1.63 1.96-.81 5.16-3.12 4.26-2.4-.31-2.83-3.73-.8-4.92zM6052.31 70.39c2.85-.42 4.22 4.51 1.22 5.21-3.41 1.16-5.14-4.88-1.22-5.21zM3749.05 71.01c3.64-1.69 5.79 4.42 1.92 5.24-3.34 1.2-4.93-3.81-1.92-5.24zM5350.42 76.62c-.4-1.5-1.44-4.03.65-4.74 2.18-1.34 3.59 1.29 4.27 3.04-.79.71-1.53 1.43-2.19 2.15-.64 3.22-1.27 6.43-1.72 9.68 1.09 2.76-.64 5.49-.47 8.31-.08 3.09-.31 6.39 1.51 9.09-.18.65-.56 1.95-.75 2.6.84 4.04 1.3 8.31 3.81 11.75-.01.61-.01 1.84-.01 2.45 1.38 3.8 2.77 7.73 5.74 10.64.99 3.91 3.42 7.17 5.97 10.24 2.87.83 3.12 4.07 5.1 5.92 1.55 1.67 3.26 3.21 4.99 4.77 1.97.21 3.68 1.2 4.17 3.32 2.38 1.79 4.89 3.43 7.48 5 2.28-.23 4.19.88 5.37 2.87 3.4 1.6 6.86 3.48 10.79 3.31 2.58-.54 3.27 4.14.71 4.3-2.22.76-3.17-2.15-4.88-2.92-3.16-1.38-6.44-3.65-9.99-2.71-.47-.2-1.42-.59-1.9-.79-.15-.58-.44-1.74-.59-2.32-2.64-1.69-5.24-3.41-7.87-5.02-1.24-.05-2.38-.23-3.42-.56-2.03-4.78-5.98-8.71-10.78-10.65-1.27-.49-.68-2.19-.96-3.2-2.21-3.58-4.48-7.25-8.14-9.48-.47-4.89-2.21-9.85-5.72-13.38-1.44-1.04-.47-2.67-.16-3.99-.81-3.64-1.17-7.51-3.22-10.71-1.59-1.74.4-3.66.38-5.58.09-2.76-.14-5.52-.33-8.27-.35-1.09-1.88-2.25-.95-3.38 2.26-3.49 2.47-7.74 3.11-11.74zM6549.43 72.59c2.94-2 5.9 3.19 2.73 4.74-3.09 2.23-6.32-3.21-2.73-4.74zM3600.35 76.08c.55-1.44.65-3.55 2.78-3.33 2.06 7.53-4.58 14.66-1.31 22.14-1.42 4.93-1.28 10.53 1.43 15-.32 5.04.83 10.57 4.55 14.23.31 5.18 3.12 9.83 6.99 13.18 1.8 4.81 5.08 9.04 9.7 11.45 2.29 3.62 5.3 7.03 9.51 8.42 3.43.74 4.78 4.55 8.07 5.69 2.92 2 6.92 1.15 9.62 3.55 1.54 1.1 3.08 2.08 4.73 3.16-2.52-.22-5.02-.69-7.5-.55-1.84.43-2.34-1.62-3.13-2.7-3.65-1.4-6.84-4.11-10.82-4.38-1.97.16-2.09-2.02-2.73-3.28-2.68-1.77-5.2-3.74-7.52-5.91-1.25-.16-2.43-.44-3.54-.83-.36-1.13-.63-2.26-.81-3.41-3.12-2.6-4.83-6.72-8.68-8.37-1.47-.63-.82-2.57-1.05-3.78-2.51-3.28-3.33-7.77-6.88-10.17-1.33-.81-.29-2.44-.17-3.59-1.9-4.18-1.92-9.25-5.49-12.53.32-.65.97-1.95 1.29-2.59-.65-3.25-.79-6.56-.89-9.85-1.73-1.73-2.14-4-.37-5.9.31-3.36.83-6.69 1.41-10.02-1.44-1.97-1.15-4.15.81-5.63zM4799.32 73.47c2.68-2.35 6.23 2.21 3.44 4.39-2.93 2.4-6.76-2.33-3.44-4.39zM2699.33 74.48c2.39-2.47 6.5 1.39 3.95 3.83-2.4 2.99-7.07-1.38-3.95-3.83zM4299.54 75.41c2.25-2.97 6.6 1.82 3.64 3.88-2.28 2.08-5.92-1.92-3.64-3.88zM5000.51 77.52c2.88-.38 4.16 4.42 1.17 5.19-3.41 1.08-5.04-5.01-1.17-5.19zM6201.35 77.38c2.18-1 4.89 2.2 3.1 4.12-1.15 1.73-4.08 1.73-4.83-.25-1.01-1.45.11-3.44 1.73-3.87zM7449.13 77.01c2.53-1.91 6 1.59 3.91 4.03-2.57 2.54-6.15-1.54-3.91-4.03zM3051.52 78.58c3.09-1.41 5.29 3.7 2.13 4.99-3.37 2.08-5.94-3.97-2.13-4.99zM3948.26 81.21c2.37-2.43 6.5 1.61 3.86 3.89-2.35 2.26-5.88-1.48-3.86-3.89zM4452.47 82.38c1.5-.61 3.75.87 3.56 2.57.21 2.75-4.42 4-5.37 1.24-.87-1.46.16-3.45 1.81-3.81zM5698.47 84.59c1.26-.89 3.32.03 3.71 1.53.87 1.89-1.22 4.14-3.08 3.18-2.16-.38-2.71-3.83-.63-4.71zM6748.46 84.58c1.22-.85 3.37.03 3.72 1.53.84 1.89-1.17 4.11-3.04 3.21-2.21-.39-2.77-3.76-.68-4.74zM5502.13 85.94c1.24-.93 3.73-.62 4.15 1.17 1.1 2.17-1.8 4.75-3.84 3.53-1.97-.76-2.23-3.73-.31-4.7zM3752.31 87.55c1.25-1.2 3.45-.51 4.16 1.05 1.04 1.96-1.24 4.51-3.3 3.74-2.38-.3-2.91-3.62-.86-4.79zM3248.35 88.39c2.54-1.45 5.46 3.25 2.53 4.61-2.89 2.04-5.9-3.41-2.53-4.61zM4802.24 89.16c1.16-.68 3.27-.92 4.09.53 1.58 1.61-.35 4.57-2.36 4.35-2.53.17-3.74-3.36-1.73-4.88zM6048.24 89.13c2.84-1.28 5.28 3.13 2.61 4.85-3.07 1.47-5.79-3.37-2.61-4.85zM4297.45 90.34c2.27-2.65 6.5 1.78 3.66 3.86-2.24 2.11-5.87-1.69-3.66-3.86zM4103.06 91.98c3.08-1.54 5.68 3.09 2.7 4.81-3.25 2.04-6.16-3.12-2.7-4.81zM4997.38 93.31c2.32-2.49 6.46 1.74 3.7 3.87-2.27 2.16-5.84-1.6-3.7-3.87zM6553.48 93.61c3.02-1.34 5.2 3.62 2.09 4.91-3.35 2.02-5.93-3.93-2.09-4.91zM5853.27 94.27c2.86-1.68 5.55 3.21 2.59 4.71-3.25 2.29-6.33-3.36-2.59-4.71zM3947.5 96.44c2.18-2.73 6.42 1.68 3.64 3.78-2.2 2.18-5.94-1.79-3.64-3.78zM7253.09 95.97c1.43-.74 4.04.08 4.02 2.04.52 2.41-3.06 4.15-4.61 2.41-1.63-1.18-1.11-3.6.59-4.45zM6203.14 97.01c3.11-1.46 5.65 3.18 2.62 4.89-3.3 1.85-6-3.2-2.62-4.89zM4453.38 98.29c3.36-1.67 5.45 4.46 1.6 5.06-3.28 1.19-4.93-4.16-1.6-5.06zM2548.32 99.46c2.75-1.7 5.62 3.21 2.61 4.57-2.8 1.64-5.53-3.03-2.61-4.57zM5503.45 101.35c3.22-1.17 5.07 4.33 1.51 5.08-3.46 1.54-5.19-4.4-1.51-5.08zM5698.32 101.44c2.25-1.94 5.71 2.14 3.3 4.03-2.32 2.56-6.31-2.18-3.3-4.03zM2899.21 102.16c2.91-.79 4.87 4.22 1.73 4.95-3.09 1.27-5.08-3.99-1.73-4.95zM3753.39 103.4c2.03-.67 4.38 2 2.98 3.84-.87 1.82-3.75 1.95-4.76.23-1.26-1.46.02-3.75 1.78-4.07zM4803.5 104.4c3.23-.72 4.38 4.57 1.06 5.2-3.61 1.23-5.02-4.84-1.06-5.2zM4298.38 105.37c2.29-2.45 6.4 1.59 3.74 3.78-2.24 2.13-5.84-1.51-3.74-3.78zM3052.36 107.37c1.64-.98 4.25.57 3.84 2.6.02 1.91-2.7 3.17-4.15 2.07-2-.84-1.76-4.08.31-4.67zM6048.77 107.64c1.34.29 3.48-.32 4.25 1.35 1.59 1.98-1.23 4.82-3.24 3.34-1.99-.79-1.2-3.15-1.01-4.69zM1499.07 108.03c2.47-1.6 5.65 1.45 3.93 3.94-2.51 2.41-6.29-1.45-3.93-3.94zM2002.21 108.11c3.01-1.48 5.53 3.14 2.57 4.79-3.27 1.94-6.08-3.28-2.57-4.79zM3249.1 108.01c2.46-1.55 5.57 1.46 3.92 3.95-2.51 2.45-6.36-1.46-3.92-3.95zM4101.32 108.36c2.08-2.49 6.49.66 4.33 3.32-2.1 2.98-6.98-.48-4.33-3.32zM4999.09 108.01c2.44-1.54 5.58 1.46 3.92 3.94-2.53 2.44-6.36-1.45-3.92-3.94zM6749.08 108.03c2.4-1.59 5.58 1.42 3.94 3.91-2.52 2.46-6.38-1.42-3.94-3.91zM7449.09 108.03c2.65-1.96 6.15 2.47 3.3 4.26-2.6 1.75-5.49-2.14-3.3-4.26zM3950.06 111.01c2.44-2.04 5.87 2.51 3.02 4.19-2.45 1.92-5.96-2.56-3.02-4.19zM5851.48 111.65c1.18-.79 3.51-.14 3.79 1.44 1.07 2.32-2.42 4.7-4.18 2.98-1.97-.92-1.49-3.71.39-4.42zM6400.07 111.99c2.42-1.62 5.46 1.49 3.88 3.93-2.53 2.35-6.44-1.48-3.88-3.93zM4450.24 114.27c1.12-.83 3.27-1.05 4.12.4 2.13 2.12-1.66 5.66-3.78 3.74-1.62-.86-1.52-2.98-.34-4.14zM4650.3 114.21c2-2.25 6.03.88 4.21 3.3-2.03 2.75-6.29-.68-4.21-3.3zM6551.41 114.46c2.01-.62 4.25 1.93 2.93 3.77-.86 1.84-3.9 1.93-4.78.12-1.18-1.45.1-3.67 1.85-3.89zM6200.31 116.27c1.67-1.03 4.42.6 3.87 2.71-.11 2.9-5.21 3.04-5.37.11-.27-1.31.24-2.25 1.5-2.82zM5499.36 117.4c1.39-1.58 4.8-.64 4.7 1.66.28 2.08-2.78 3.74-4.35 2.3-1.53-.74-1.55-2.9-.35-3.96zM5702.37 117.44c2.63-1.34 5.35 3.11 2.55 4.57-2.92 1.61-5.72-3.13-2.55-4.57zM2699.22 118.22c1.44-.87 3.89-.7 4.4 1.23 1.07 2.53-3.07 4.96-4.68 2.56-1.29-1.01-.72-2.8.28-3.79zM3749.32 119.37c2.93-1.84 5.68 3.04 2.59 4.65-3.16 1.79-5.92-3.2-2.59-4.65zM4301.61 119.78c1.39-.13 3.26-1.22 4.41.28 1.79 1.4.26 4.78-2.02 4.06-2.26-.08-2.15-2.75-2.39-4.34z"/>
    <path d="M474.85 120.49c.96-1.09 2.44.46 2.36 1.57-.55 1.67-2.57-.51-2.36-1.57zM4798.4 120.41c2-2.44 6.39.71 4.21 3.26-2.02 3.02-7.02-.53-4.21-3.26zM5004.2 122.11c2.6-1.24 5.3 3.02 2.58 4.55-2.82 1.88-5.8-3.22-2.58-4.55zM4097.29 123.24c2.17-2.37 6.56.98 4.16 3.41-2.16 2.83-6.77-.65-4.16-3.41zM7247.13 124.03c1.81-1.44 5.05.09 4.5 2.53-.45 2.34-3.96 2.92-5.06.85-1.02-1.03-.32-2.52.56-3.38zM3955.06 124.95c2.66-1.48 5.69 2.57 3.07 4.31-2.57 1.89-5.88-2.42-3.07-4.31zM6055.39 125.63c2.73-2.01 5.8 3.15 2.57 4.38-2.64 1.37-5.21-2.89-2.57-4.38zM3256.07 125.98c2.54-.93 5.16 2.96 2.61 4.53-2.79 2.13-5.88-2.99-2.61-4.53zM4657.33 127.45c1.82-.39 3.77 1.71 2.88 3.5-.22 1.49-2.19 1.62-3.25 1.14-2.22-.66-2.11-4.45.37-4.64zM2907.39 128.33c2.97-1.36 5.15 4.36 1.57 4.75-2.88.92-4.6-4.04-1.57-4.75zM4445.4 128.55c2.87-2.25 6.13 3.05 2.65 4.47-2.92 1.62-5.67-2.88-2.65-4.47zM5845.13 128.2c2.39-2.31 6.65 1.38 3.91 3.73-2.38 2.5-6.34-1.23-3.91-3.73zM6758.3 129.47c2.79-.98 4.62 4.14 1.59 4.7-3.07 1.34-5.12-4.19-1.59-4.7zM6408.41 130.45c2.56-1.16 5.08 2.91 2.51 4.57-2.98 1.56-5.85-3.27-2.51-4.57zM5494.18 131.1c1.44-.69 3.81.08 3.96 1.92.42 2.06-2.19 3.76-3.87 2.73-2.12-.65-2.01-3.82-.09-4.65zM2209.48 132.49c2.61-1.44 5.31 3.08 2.46 4.53-2.86 1.42-5.59-3.2-2.46-4.53zM5709.47 132.49c2.63-1.42 5.24 3.03 2.5 4.52-2.88 1.47-5.64-3.17-2.5-4.52zM3743.51 133.59c.99-.09 2.43.1 2.81 1.28 1.41 2.1-1.53 4.76-3.57 3.51-2.46-.86-1.81-4.69.76-4.79zM4309.06 133.05c2.45-1.57 5.52 1.4 3.9 3.91-2.6 2.16-6.22-1.43-3.9-3.91zM4793.52 133.58c1.95-.49 3.91 1.75 2.86 3.59-.8 1.89-3.84 2-4.78.22-1.15-1.42.1-3.77 1.92-3.81zM6193.48 133.59c3.26-.89 4.47 4.45 1.08 4.99-3.43 1.07-4.8-4.7-1.08-4.99zM6543.57 133.57c3.19-.79 4.35 4.47 1.02 5-3.47 1.13-4.86-4.79-1.02-5zM3042.15 134.05c1.5-.95 4.08-.61 4.44 1.45.8 2.79-3.65 4.44-4.97 1.91-.98-1.1-.29-2.43.53-3.36zM7592.14 134.03c1.67-1.09 4.38-.33 4.57 1.95.04 2.63-3.86 3.72-5.09 1.43-1.01-1.08-.35-2.45.52-3.38zM5011.32 135.37c2.17-1.32 5.21 2.39 2.95 4.02-2.1 3.55-6.58-2.69-2.95-4.02zM4091.34 136.32c1.85-1.1 4.66 1.43 3.47 3.45-.86 1.8-3.95 2.04-4.77.18-1.13-1.19-.22-3.27 1.3-3.63zM7462.02 135.98c2.43-.83 4.91 2.79 2.64 4.46-2.86 2.2-6.09-2.93-2.64-4.46zM2563.44 138.56c2.66-1.65 5.39 2.99 2.51 4.47-2.77 1.33-5.46-3.12-2.51-4.47zM3962.27 138.2c2.42-2.11 6.14 1.57 3.69 3.84-2.43 1.81-5.64-1.52-3.69-3.84zM4665.13 139.98c2.42-.68 4.71 2.78 2.54 4.48-2.89 2.26-6.18-3.11-2.54-4.48zM4436.41 143.05c.25-2.69 4.6-2.56 4.92.01.87 2.47-2.29 3.05-3.97 3.35-2.88 2.92-6.29 5.63-7.14 9.87-4.2.86-8.09 2.9-11 6.05-1.02 1.08-1.45 3.19-3.23 2.93-4.91.09-9.57 2.55-12.99 5.94-4.21-.8-8.32.32-12.32 1.38-.93.72-1.83 1.4-2.71 2.05-1.16-.4-2.25-.85-3.25-1.35-3.09-.04-6.13.04-9.15.21-1.9 1.66-4.17 1.52-5.84-.29-4.12-1.08-8.36-1.69-12.57-1.23-4.06-3.18-9.09-4.86-14.18-5.24-2.91-3.1-6.53-5.31-10.28-7.22-1.31-.46-3.33-.03-3.82-1.56-1.72-2.13 1.91-4.76 3.52-2.59 3.3 3.77 7.87 6.05 12.54 7.69 4.04 2.93 8.88 4.43 13.79 5.14 3.52 1.65 7.4 2.18 11.25 2.64 1.12-.36 2.36-.87 3.63-.31 4.37 1.39 9.07.87 13.46-.33 4.85.35 9.97-.42 14.17-3.08 4.11-.19 7.81-2.04 11.55-3.65.4-.84.86-1.67 1.37-2.51 1.12-.07 2.3-.14 3.54-.19 2.51-1.76 5.07-3.47 7.58-5.29.42-2.34 2.05-3.59 4.42-3.78 2.46-2.66 5.87-4.85 6.71-8.64zM6065.18 141.28c2.53-1.83 5.77 2.46 3.14 4.1-2.45 1.98-5.75-2.21-3.14-4.1zM2682.21 147.26c2.7-2.08 5.25-4.46 8.45-5.8-2.75 5-8.45 7.44-12.58 11.18.78.86 1.46 1.7 2.32 2.55-.93 1.11-1.57 2.94-3.3 2.82-1.27-.37-2.13-1.41-3.07-2.17-4.73 3.75-9.31 7.73-14.27 11.15-6.01 1.62-12.29 2.15-18.42 3.15-.36 1.28.48 3.76-1.4 4.01-2.32 1.1-3.51-1.3-4.02-3.09-4.95.7-9.84 1.95-14.82 2.16-6.94-1.96-13.68-4.6-20.51-6.89-.96.99-1.87 3.21-3.56 2.37-1.92-.41-2.12-2.62-1.96-4.2-3.05-1.11-6.18-1.99-9.18-3.17-1.31-.43-2.14-1.33-2.47-2.71 4.02.39 7.73 2.09 11.53 3.38 8.14 2.81 16.26 5.72 24.4 8.54 2.42.96 5.06.24 7.56-.11 10.05-1.63 20.14-3.08 30.2-4.67 1.7-.15 3-1.37 4.37-2.33 6.87-5.44 13.82-10.77 20.73-16.17zM3266.37 142.48c2.3-1.68 5.4 2.1 3.14 3.96-2.34 2.45-6.27-2.3-3.14-3.96zM5836.98 141.98c2.75-1.28 5.55 2.88 2.69 4.48-2.95 2.3-6.11-2.87-2.69-4.48zM5485.09 143.99c2.48-1.91 5.96 1.34 3.81 3.85-2.53 2.23-6.7-1.41-3.81-3.85zM4318.07 145.02c2.44-1.69 5.66 1.42 3.86 3.89-2.61 1.96-6.01-1.43-3.86-3.89zM5719.47 145.71c2.63-1.64 5.49 3.2 2.41 4.33-2.7 1.56-5.36-3.02-2.41-4.33zM3733.4 146.35c2.81-1.65 5.49 3.24 2.35 4.57-3.05 1.69-5.74-3.36-2.35-4.57zM4781.46 148.06c1.22-.99 2.6-3.14 4.52-2.03 2.2.67 1.91 4.21-.32 4.62-1.94.92-3.19-1.47-4.2-2.59zM6420.44 146.58c2.61-1.39 5.29 3.01 2.48 4.46-2.87 1.39-5.57-3.05-2.48-4.46zM5020.11 147.23c2.36-1.7 5.72 1.26 3.9 3.74-2.41 2.04-6.17-1.21-3.9-3.74zM7232.26 147.16c2.33-1.55 5.68 1.49 3.69 3.79-2.45 2.86-6.93-1.53-3.69-3.79zM4081.22 148.38c1.68-1.41 4.63.34 4.19 2.53-.39 1.96-3.27 2.9-4.53 1.28-1.43-1-1.02-2.99.34-3.81zM6179.45 151.85c-.28-3.26 3.86-4.8 5.53-1.86.8 3.28-3.16 3-5.06 3.95-3.33 2.21-6.36 4.82-9.46 7.27-.57 1.45-1.28 2.77-2.38 3.78-.97-.32-1.88-.62-2.71-.93-3.91 1.84-7.9 3.45-11.79 5.24-1.09 2.57-3.46 3.23-5.72 1.76-4.36.57-8.66 1.42-12.95 2.1-.73.74-1.4 1.48-1.99 2.22-1.31-.62-2.44-1.26-3.58-1.9-5.37-.3-10.83-1.49-16.04.11-1.14-.52-1.98-1.37-2.8-2.1-5.06-1.57-10.03-3.76-15.38-3.74-3.65-4.05-8.7-6.25-13.3-8.94-1.42-.43-3.82 0-4.05-1.89-1.26-2.1 2.27-4.3 3.73-2.29 3.42 3.91 8.34 5.92 12.72 8.57 2.75.04 4.66 2.29 7.24 3.07 8.94 3.14 18.32 4.66 27.79 5.08.79-.4 1.67-.8 2.64-1.19 3.98 1.58 8.18-.08 12.27-.54 2.13-.11 3.83-1.55 5.88-2.13 5.13-.18 9.55-3.16 14.25-4.98.95-2.19 3.06-2.69 5.25-3.2 3.48-2.19 6.62-4.94 9.91-7.46zM6771.19 148.33c2.26-1.88 5.75 1.32 3.83 3.65-2.33 2.18-6.14-1.21-3.83-3.65zM3972.36 149.51c1.74-2.31 5.93 1.23 3.72 3.39-2.02 2.47-6.28-1.19-3.72-3.39zM6530.57 149.59c1.97-.63 4.29 1.95 2.82 3.71-.84 1.58-3.07 1.38-4.25.58-1.31-1.46-.76-4.14 1.43-4.29zM2923.1 150.19c2.45-1.91 5.88 1.37 3.86 3.81-2.48 1.82-5.85-1.35-3.86-3.81zM4675.1 150.98c2.4-1.12 5.3 2.32 2.96 4.11-2.46 2.42-6.23-2.49-2.96-4.11zM2324.38 154.43c2.29-2.5 6.63 1.54 3.63 3.62-2.21 2.22-6.11-1.37-3.63-3.62zM3024.36 154.53c2.35-1.63 5.52 1.93 3.18 3.92-2.46 2.74-6.81-2.19-3.18-3.92zM5474.35 154.52c2.26-2.32 6.1 1.98 3.28 3.87-2.39 2.34-6.25-2.02-3.28-3.87zM5824.46 154.42c1.11-1.19 3.69-.88 4.31.87 1.1 1.78-1.54 4.11-3.27 3.25-1.95-.31-2.59-2.93-1.04-4.12zM3281.3 155.22c2.31-.49 4.47 2.77 2.26 4.32-2.8 2.59-6.31-3.4-2.26-4.32zM3721.51 156.68c1.93-1.25 4.88 1.15 3.57 3.24-.84 1.95-4.28 1.86-4.81-.27-1.04-1.01.3-2.47 1.24-2.97zM4772.18 156.03c2.67-1.51 5.64 2.46 2.97 4.23-2.7 2.2-6.23-2.49-2.97-4.23zM5032.43 156.48c2.56-1.19 5.12 2.91 2.43 4.47-2.9 1.5-5.75-3.21-2.43-4.47zM5730.63 156.82c1.44-.32 3.69-1.19 4.72.54 1.76 1.82-1.16 4.8-3.07 3.37-1.61-.66-1.36-2.58-1.65-3.91zM7571.52 156.68c1.65-.99 4.03.42 3.9 2.47-.39 2.51-4.42 3.01-5.14.56-1.02-1.09.16-2.54 1.24-3.03zM3984.31 158.54c2.2-2.51 6.2 2.34 3.02 3.91-2.31 1.6-5.41-2.14-3.02-3.91zM4069.08 158.13c2.01-1.81 5.88.52 4.29 3.05-1.68 3.21-6.98-.2-4.29-3.05zM7483.06 158.06c1.19-.9 3.51-.96 4.25.74 1.1 1.48-.5 3.9-2.28 3.36-2.08.12-3.08-2.54-1.97-4.1zM6436.14 159c2.44-1.16 5.37 2.39 2.91 4.19-2.61 2.08-6.12-2.55-2.91-4.19zM4686.51 160.46c1.67-2.72 6.3.77 4.01 3.02-1.84 2.45-6.13-.8-4.01-3.02zM8537.1 160.17c2.34-1.65 5.51 1.28 3.88 3.74-2.45 2.01-6.35-1.22-3.88-3.74zM6513.46 161.6c2.73-1.61 5.42 2.84 2.51 4.42-2.95 1.52-5.78-3-2.51-4.42zM6790.45 161.66c2.24-1.63 5.42 2.02 3.08 3.87-2.32 2.37-6.26-2.22-3.08-3.87zM1203.72 162.88c.38-.41.77-.81 1.19-1.2 2.03 2.62 4.43 4.92 6.93 7.1 1.84.05 5.03.51 4.26 3.16-.57 2.67-3.61 1.56-5.07.33.06-.71.18-2.11.24-2.81-2.44-2.29-4.74-4.76-7.55-6.58zM5462.23 162.23c2.52-1.38 5.29 2.86 2.5 4.33-2.86 2.19-6.09-3.13-2.5-4.33zM4760.21 163.31c3.08-.57 4.13 4.73.8 4.84-3.41.89-4.27-4.55-.8-4.84zM5810.24 163.24c1.95-1.98 6 .65 4.17 3.09-1.74 2.93-6.8-.38-4.17-3.09zM7210.2 163.11c1.87-.97 4.56.49 4.01 2.83-.7 3.31-6.5 1.48-4.99-1.64.25-.3.74-.89.98-1.19zM2947.25 164.23c2.28-.74 4.67 2.73 2.38 4.23-2.77 2.57-6.28-3.26-2.38-4.23zM3708.07 164c1.89-.6 3.89.94 3.84 2.94-.73 1.51-2.75 2.71-4.17 1.43-1.92-.9-1.32-3.49.33-4.37zM5045.05 164.01c2.41-2.06 5.98 2.6 2.85 3.97-2.36 1.85-5.71-2.43-2.85-3.97zM5746.32 164.49c2.35-1.84 5.67 2.15 3.1 3.94-2.36 2.11-5.98-2.23-3.1-3.94zM3297.03 165c2.35-1.74 5.74 1.37 3.76 3.74-2.48 2-6.04-1.34-3.76-3.74zM3355.16 165.42c3.11-.71 4.26 4.66.85 4.78-3.31.81-4.25-4.48-.85-4.78zM3997.42 165.42c1.88-2.09 5.78.71 4.05 3.07-1.81 2.81-6.46-.62-4.05-3.07zM4056.08 164.99c2.38-1.73 5.78 1.42 3.68 3.78-2.51 2.27-6.42-1.48-3.68-3.78zM4700.27 166.32c1.32-.97 3.56-.59 4.2 1.1.9 1.75-1.28 3.75-2.99 2.99-1.89-.34-2.54-2.77-1.21-4.09zM5103.13 166.1c2.53-1.83 5.96 1.45 3.75 3.87-2.64 1.91-6.05-1.42-3.75-3.87zM8602.39 166.35c2.76-.79 4.52 3.65 1.61 4.71-3.31 1.39-5.33-4.11-1.61-4.71zM3000.14 167.01c2.59-1.42 5.61 2.48 2.88 4.17-2.58 2.12-6.1-2.53-2.88-4.17zM5448.49 167.56c2.01-.79 4.61 2.02 2.86 3.75-.68 1.35-3.01 1.2-3.86.24-1.52-1.11-.9-3.78 1-3.99zM6454.26 167.43c2.38-2.22 5.96 2.51 2.96 3.97-2.35 1.75-5.62-2.27-2.96-3.97zM4745.44 168.34c2.52-1.19 5.12 2.97 2.33 4.4-2.99 1.93-5.92-3.39-2.33-4.4zM5059.38 168.59c2.27-1.57 5.35 1.94 3.13 3.85-2.32 2.51-6.4-2.2-3.13-3.85zM5795.37 168.37c2.75-1.67 5.53 3.23 2.36 4.39-2.75 1.59-5.53-3.12-2.36-4.39zM6495.21 168.33c1.87-.35 3.91 1.76 2.79 3.58-.91 1.89-4.03 1.58-4.65-.29-.97-1.38.46-2.98 1.86-3.29zM2262.2 169.13c2.62-1.6 5.67 2.53 2.97 4.12-2.47 1.86-5.86-2.33-2.97-4.12zM3662.2 169.12c2.61-1.56 5.65 2.51 2.98 4.13-2.53 1.86-5.84-2.32-2.98-4.13zM3693.08 169c2.39-1.9 5.81 2.58 2.81 4.03-2.54 1.92-5.98-2.53-2.81-4.03zM4012.19 169.13c2.6-1.61 5.67 2.53 2.99 4.11-2.52 1.86-5.85-2.3-2.99-4.11zM4042.12 169.02c2.47-1.35 5.56 2.38 2.93 4.09-2.52 2.3-6.19-2.43-2.93-4.09zM4715.49 169.61c2.61-1.43 5.24 2.93 2.44 4.4-2.89 1.36-5.66-3.05-2.44-4.4zM5089.47 169.52c2.55-1.25 5.18 2.92 2.39 4.44-3.01 1.57-5.81-3.2-2.39-4.44zM5762.15 169.15c2.58-1.67 5.71 2.48 3.04 4.1-2.52 1.83-5.85-2.25-3.04-4.1zM6812.18 169.14c2.59-1.63 5.68 2.53 2.96 4.12-2.49 1.82-5.82-2.32-2.96-4.12zM7512.18 169.13c2.56-1.57 5.66 2.45 3.01 4.1-2.48 1.91-5.91-2.28-3.01-4.1zM7543.09 168.99c2.4-1.87 5.76 2.62 2.77 4.06-2.62 1.97-5.95-2.61-2.77-4.06zM2973.38 170.38c2.57-1.48 5.41 3.05 2.4 4.3-2.67 1.83-5.74-3.17-2.4-4.3zM3315.5 170.4c1.78-2.54 6.25.74 3.99 3.07-1.87 2.46-6.28-.86-3.99-3.07zM3334.66 173.49c-1.42-1.52.34-4.15 2.32-3.6 2.32-.17 2.16 2.75 2.38 4.32-1.57.03-3.71.98-4.7-.72zM3678.32 170.34c2.31-.84 4.63 2.69 2.37 4.21-2.87 2.61-6.34-3.32-2.37-4.21zM4027.45 170.48c2.61-1.48 5.34 3.11 2.33 4.42-2.85 1.45-5.59-3.19-2.33-4.42zM4730.38 170.43c2.65-1.52 5.44 3.07 2.4 4.37-2.77 1.59-5.62-3.09-2.4-4.37zM5074.32 170.47c2.52-1.59 5.48 2.78 2.61 4.23-2.65 1.87-5.81-2.86-2.61-4.23zM5418.08 169.98c2.26-1.12 5.32 1.5 3.55 3.72-2.34 2.72-6.74-1.52-3.55-3.72zM5433.29 170.27c2.35-1.57 5.39 2.46 2.92 4.04-2.56 2.36-6.34-2.52-2.92-4.04zM5779.34 170.34c2.37-.94 4.76 2.75 2.4 4.28-2.93 2.36-6.24-3.35-2.4-4.28zM6474.37 170.54c2.21-1.63 5.37 2.08 3.11 3.86-2.47 2.51-6.45-2.2-3.11-3.86zM6835.14 170.18c2.36-1.42 5.27 1.23 3.81 3.71-2.46 2.45-6.73-1.35-3.81-3.71zM7184.23 170.14c2.32-1.3 5.29 2.34 2.9 4.05-2.61 2.49-6.43-2.55-2.9-4.05z"/>
  </g>
</svg>
