<svg width="9450" height="200" xmlns="http://www.w3.org/2000/svg">
  <g fill="#fff">
    <path d="M4061.94 51.24c.6.53.6.53 0 0zM4350.28 83.21c.49.6.49.6 0 0zM8515.96 93.18c.43.61.43.61 0 0z"/>
  </g>
  <g fill="#AFB3B6">
    <path d="M3266.9 25.05c3.17-8.71 13.8-13.92 22.53-10.35 9.2 4.32 16.29 12.42 26.04 15.72 1.73.7 2.85 2.29 4.28 3.48 2.29-1.81 4.93-.2 7.34.51 5.96 2.07 12 3.91 17.96 6 1.68.27 1.71 2.22 2.35 3.48 4.4 1.77 10.27-.12 13.57 4.05 1.57 1.27 2.57 3.71 4.87 3.81 8.77 1.03 17.74 2.49 25.6 6.75-.34 1.95-.74 3.89-1.21 5.8-9.51-.51-18.41-4.16-27.6-6.23-.41.49-1.23 1.45-1.65 1.93-1.77.59-3.5 1.22-5.16 1.93-5.27-.5-9.98-3.9-15.43-2.72-.31.53-.94 1.61-1.26 2.15-5.88-1.83-11.69-3.85-17.52-5.75-3.13-1.1-6.75-1.55-8.75-4.49-1.05.2-2.04.43-2.98.71-5.5-2.03-11.38-2.08-17.14-2.06-1.8 18.56-1.85 37.2-2.58 55.82 7.25 6.14 8.85 17.72 3.23 25.44-3.03 4.71-8.44 6.69-13.21 9.05-2.19 7.17-4.41 14.33-6.33 21.58.89-.01 2.67-.02 3.56-.02-.6 5.59 3.46 9.69 6.01 14.21 1.69 2.88 3.6 5.63 5.22 8.57.92 2.42 1.08 5.08 1.55 7.62 5.12.15 10.27-.25 15.41.2.22.47.67 1.4.9 1.86-24.51.33-49.03.05-73.54.14-12.8-.09-25.61.21-38.39-.15.23-.46.7-1.39.94-1.85 3.83-.43 7.72-.09 11.6-.2.58-2.92.38-6.15 2.13-8.71 3.47-5.58 6.87-11.22 10.4-16.78 0-1.54-.06-3.07.04-4.61-7.11-.17-14.04-4.35-16.75-11.03-4.03-8.57-.39-19.79 8.03-24.19 15.48-7.75 31.13-15.17 46.62-22.91 2.97-21.62 6.53-43.17 9.41-64.79-.95-4.57-2.07-9.5-.09-13.97m.95 7.94c1-3.37 1.81-7.21 4.94-9.32 3.31-2.67 7.83-2.32 11.83-2.02 5.34.79 9.21 6.03 9.1 11.31-.26 4.92-.8 9.82-.98 14.74 5.81.05 11.77-.09 17.28 2.12.42-.28 1.25-.86 1.66-1.15.36-5.19 2.48-9.92 4.67-14.55-.38-1.63-2.02-1.95-3.3-2.45-5.1-1.65-9.11-5.34-13.53-8.18-5.1-3.29-10-8.2-16.52-7.81-8.83-.01-16.25 8.58-15.15 17.31m2.46-1.52c-3.6 23.78-7.02 47.59-10.61 71.37 4.2-1.3 8.67-1.41 13-.61 3.39 2.55 7 4.98 9.25 8.72 2.83-24.27 4.57-48.68 7.13-72.98.48-3.71.14-7.43-.79-11.03 2.2 1.62 1.84 5.33 1.85 7.96-1.89 20.74-3.89 41.47-5.82 62.21-.66 4.9-.37 9.96-2.01 14.69 2 4.72 2.59 10.27.46 15.06.33.62.71 1.25 1.14 1.87 2.09-2.84 4.52-5.94 4.21-9.71-.37-5.02-.15-10.04.05-15.07.79-13.62.45-27.28 1.58-40.88.63-9.42 1.31-18.83 2.03-28.25.48-3.88-.98-8.31-4.57-10.23l-.42.2c-2.36-.21-4.31-2.1-6.74-1.58-4.8-.22-9.19 3.5-9.74 8.26m52.2 3.59c-1.37 1.76-3.53 2.15-5.58 2.25-1.54 3.08-2.64 6.36-3.17 9.76.49.33 1.47.99 1.96 1.33-.02.75-.05 2.26-.06 3.02 7.24 2.69 14.67 4.84 21.95 7.45-.03-2.02.08-4.04.22-6.06-3.36-2.49-7.2-4.08-11.15-5.28 1.14-1.5 3.01-1.68 4.78-2.09 1.78-2.39 4.2-4.31 7.29-4.62l.03-.49c-5.51-1.54-10.86-3.51-16.27-5.27m20.04 7.84c-3.83-.72-8.16.43-9.83 4.25 2.12 1.88 4.8 3 6.99 4.83.03 1.84-.29 3.67-.43 5.5 4.3-1.12 8.88-.2 12.88 1.63 3.06 1.64 6.18-.53 8.91-1.87-.55-.46-1.65-1.39-2.19-1.86 10.19 1.3 19.72 6.3 30.06 6.49l.2-1.23c-2.92-3.15-7.65-3.98-11.69-4.92-5.6-1.51-11.43-1.57-17.03-2.98-.27-2.57-1.7-5.3-4.57-5.41-4.49-.18-9.04-.92-12.85-3.41.78-.49 1.61-.99 2.47-1.5-1.05.07-2.02.23-2.92.48m-81 61.82c-8.12 3.79-16.2 7.69-24.27 11.55-8.65 4.24-17.58 7.96-25.79 13.03-6.39 4.05-9.22 12.79-6.37 19.81 2.4 6.82 9.78 11.64 17.03 10.49 3.58-.89 6.81-2.79 10.15-4.36 11.42-5.58 22.82-11.22 34.27-16.77 4.06-2.06 8.64-3.61 11.64-7.26 4.37-4.79 5.14-12.24 2.55-18.08-3-7.15-11.87-11.6-19.21-8.41m28.43 4.38c-.71 5.86 1.52 12.37-2.22 17.56-1.03 2.56-3.84 2.21-6.03 2.23-1.63 4.11-5.42 6.89-9.28 8.72-11.19 5.43-22.42 10.8-33.5 16.46-4.51 2.24-9.45 3.86-13.3 7.18 1.39.35 2.84.54 4.34.56 13.87-.02 27.74-.01 41.61-.01 2.51-8.39 4.9-16.82 7.51-25.19 3.6.55 6.77-1.89 9.46-3.98 6.79-5.73 7.46-17.03 1.41-23.53m-68.18 54.62c-.11 1.49-.18 2.98-.21 4.47-4.02 4.34-6.38 9.89-9.72 14.72-2.08 2.69-2.24 6.15-2.79 9.35 26.32.05 52.65.03 78.98.01-.33-3.17-.54-6.52-2.52-9.17-3.3-4.97-5.95-10.4-9.74-15.01-.15-1.47-.2-2.94-.25-4.4-17.92.06-35.83 0-53.75.03zM2883.41 31.05c.79-10 11.31-17.8 21.12-15.56 10.49 2.83 19.39 10.24 30.39 11.45.26.4.79 1.2 1.06 1.6.65.25 1.95.77 2.61 1.02.31-.35.94-1.05 1.26-1.41 8.5 1.37 17.06 2.46 25.56 3.92.52 3.27 4.09 2.63 6.56 2.87 2.94-.09 5.9-.55 8.87-.07 1.81 1.3 3.73 2.44 5.67 3.61 6.05 1.28 11.49-2.74 17.53-1.83 4.21-.12 8.38.61 12.16 2.59-.05 3.29-.58 6.53-.98 9.77-5.46 2.36-11.46 1.61-17.16.88-3.97-1.53-7.91-3.49-12.3-2.79-2.52 3.4-7.45 4.97-11.47 3.44-3.86-.56-9.13-1.71-11.39 2.42-7.35-1.03-14.67-2.22-22.01-3.24-1.71-.38-4.23-.15-4.43-2.45-1.14.12-2.25.23-3.31.32-.44.32-1.32.94-1.76 1.26-2.61-.41-5.2-.65-7.78-.87 3.76 18.08 7.86 36.08 11.7 54.14.29 3.02 3.55 4.16 5.11 6.46 6.27 7.51 4.99 19.9-2.75 25.91-2.01 1.78-4.63 2.62-6.74 4.18-2.62 7.58-4.93 15.28-7.12 23 .89-.02 2.68-.04 3.58-.06.19 2.77.19 5.7 2.11 7.94 3.94 7.31 10.5 13.72 10.68 22.49 5.11.13 10.24-.22 15.36.17.25.47.74 1.41.98 1.89-23.15.34-46.32.04-69.48.14-14.16-.1-28.33.21-42.48-.15.24-.46.71-1.38.94-1.84 3.83-.44 7.72-.1 11.6-.2.62-2.92.39-6.16 2.14-8.73 3.48-5.58 6.88-11.21 10.39-16.78-.01-1.64.02-3.27.12-4.91-8.38-1.01-15.46-8.29-16.02-16.72-.8-7.16 3.09-14.52 9.42-17.95 13.8-7.75 28.6-13.51 42.85-20.36-2.21-16.89-4.4-33.78-6.98-50.61-.47-2.66-.08-6.51-4.11-6.14.99-.6 2.01-1.19 3.08-1.77-.65-4.69-1.58-9.34-2.02-14.06-.31-6.01 4.88-11.7 10.97-11.66 5.37-.7 11.07 2.68 12.51 8.01 1.38 5.16 2.27 10.43 3.53 15.62 2.37.13 4.77.45 7.2.43 1.37-.65 2.93-1.04 4.53-1.03 1.18-4.66 2.14-9.43 2.07-14.26-1.8-.46-3.02-1.86-4.63-2.55-9.72-1.8-17.86-7.98-27.2-10.89-8.26-2.42-17.66 3.53-19.24 11.94-2 7.68 3.03 15.98 10.4 18.56-.87.44-1.7.88-2.49 1.32-6.53-3.56-11.37-10.83-10.21-18.46m19.81-5.79c-3.41 2.29-5.26 6.63-4.45 10.68 3.09 20.04 6.54 40.02 9.46 60.09-1.27 2.18-1.18 4.79-.81 7.2.22-1.42.66-4.27.88-5.7.8 3.21 1.34 6.49 1.95 9.75 3.55-1.71 7.05-3.58 10.8-4.87 4.07-1.37 8.47-.56 12.46.76-5.2-23.71-10.29-47.45-15.53-71.15-1.02-6.51-9.21-9.96-14.76-6.76m34.08 17.58c-.6 1.78 1.35 3.04 1.9 4.57 7.65 1.17 15.31 2.23 22.96 3.48.59-2.38 1.12-4.79 1.7-7.19-.52-.43-1.56-1.27-2.08-1.69-.12-2.21 2.79.02 4.04-.05-.33 2.07-.66 4.14-.98 6.21 3.74-.09 7.55-.37 11.25.55 2.68.79 5.04-1.28 7.5-2.08.03-2.42.1-4.84.2-7.27-1.93-.9-3.78-2-5.77-2.68-4.5.43-9.26.8-13.47-1.12-2.74-1.41-6.5-1.03-8.47 1.43-1.15 1.25-1.85 3.35-3.92 2.82 1.19-3.09 3.34-5.75 6.65-6.72-6.02-.91-12.03-1.83-18.03-2.76-3.18 3.4-2.47 8.29-3.48 12.5m56.84-2.65c-2.74.91-5.63.35-8.39.18-.15 1.54-.26 3.08-.33 4.62 3.86-.2 7.72.37 11.18 2.22 5.47 1.67 11.64 2.12 17.14.21-.26-1.11-.54-2.22-.74-3.32.82-1.12 1.95-3.48-.03-4.03-6.01-2.02-12.84-1.95-18.83.12m-86.09 64.09c-.58 1.18-.46 2.32.36 3.4 1.46.08.99-3.52-.36-3.4m13.17.06c-16.71 7.34-33.04 15.59-49.62 23.25-5.83 2.4-10.35 8.05-10.62 14.45-.87 8.65 6.27 17.18 14.96 17.73 5.09.42 9.56-2.4 14.03-4.39 14.17-6.76 28.37-13.45 42.55-20.18 6.4-2.98 10.48-10.25 9.39-17.28-.92-9.55-11.51-16.66-20.69-13.58m-50.21 20.69c-4.18 2.33-8.82 4.35-11.73 8.31-4.17 5.37-4.38 13.36-.54 18.97 1.92 3.17 5.13 5.25 8.46 6.75-2.35-2.45-4.99-4.76-6.35-7.94-4.09-8.16-.93-19 6.97-23.61 9.03-4.96 18.79-8.52 27.76-13.6-8.42 3.16-16.38 7.44-24.57 11.12m15.32 34.3c-2.38 1.2-4.97 1.78-7.51 2.39 14.23.19 28.47.01 42.71.09 2.31-7.46 4.63-14.92 6.91-22.4-14.06 6.6-28.06 13.31-42.11 19.92m-14.66 8.68c-3.72 4.04-5.94 9.15-9.02 13.65-2.43 3.03-3.13 6.84-3.57 10.59 26.32.07 52.65.03 78.98.02-.32-3.18-.54-6.52-2.52-9.18-3.33-4.95-5.9-10.43-9.79-14.98-.08-1.46-.13-2.92-.1-4.38-17.97-.01-35.94-.05-53.91.02-.02 1.42-.12 2.84-.07 4.26zM7413.96 21.45c3.16-2.35 5.84-5.82 10.02-6.52 5.59-1.27 10.77 2.59 13.77 7.02 4.92-1.52 10.18-.91 15.32-.88 3.32.79 4.6 4.69 4.94 7.78.95 24.23.97 48.49 1.86 72.73 3.28-.65 5.61 1.64 7.21 4.26 5.03 6.95 10.21 13.8 15.25 20.76 5.75 7.66 6.22 18.3 3.34 27.16-1.69 3.45-3.53 8.57-8.23 8.08-.63 5.2 3.1 9.05 5.51 13.24 1.6 2.71 3.31 5.38 5 8.09 1.66 2.62 1.61 5.88 2.22 8.86 5.16.23 10.41-.38 15.59.32l.69 1.77c-26.83.29-53.67.04-80.49.12-10.48-.09-20.95.2-31.4-.15.19-1.43.98-2.1 2.37-2.01 3.34-.11 6.74.01 10.18-.04.55-2.92.36-6.15 2.13-8.7 3.46-5.59 6.87-11.22 10.39-16.79-.06-1.63-.07-3.26.12-4.89 1.97-.01 4.03-.01 6.16.01-.28-3.7-.26-7.44-.79-11.11-4.62-8.64-13.74-15.18-14.86-25.47-.92-7.22-.24-15.34 4.72-21.08 2.03-3.59 6.64-2.18 10.09-2.47 2.58-10.71 4.95-21.48 7.48-32.21 1.4-7.33 1.12-14.85 2.21-22.23-2.92 1.8-6.13 3.74-9.66 3.26-4.76-.45-8.22-4.05-11.43-7.16-2.21-.04-4.39-.08-6.44-.18-3.78-3.9-10-3.47-13.54-7.62-1.57.98-3.03 2.09-4.63 2.78-3.21-.07-6.19-1.61-8.08-4.11-.59-3.18 1.27-5.55 4.08-6.79 1.01.88 2.09 1.77 3.25 2.66.66-.44 1.97-1.31 2.63-1.75-1.24-1.24-2.59-2.31-3.7-3.55-1.02-3.55 2.91-4.77 5.15-6.49 3.37.22 6.36 1.76 8.67 4.28 4.11-1.61 8.56-.7 12.9-.98m2.92.33c-2.02 2.19-5.38 2.46-7.07 4.92-3.48 4.11-2.28 11.27 2.67 13.65 4.6 2.06 7.27 7.36 12.63 8 4.9.59 9.06-3.12 11.32-7.16 1.1.03 2.31.08 3.62.13-1.02.78-2.17 1.54-3.02 2.28-.93 8.12-1.11 16.31-2.15 24.41-2.51 11.68-5.45 23.27-7.92 34.95 1.96 2.41 3.83 4.94 5.91 7.32 2.57-12.45 4.97-24.94 7.53-37.4 1.49-7.23 1.18-14.66 1.83-21.98.43-5.07.63-10.15.71-15.24h-.71c-.19.8-.58 2.39-.78 3.19-.04-4.89.95-10.13-1.42-14.66-1.33-.22-2.57-.4-3.72-.53-2.14-3.32-5.23-6.45-9.3-6.87-4.11-.45-7.49 2.28-10.13 4.99m-27.4.96c-1.03 1.29 1.02 1.97 1.69 2.94.57-.41 1.69-1.21 2.26-1.61.58.27 1.26.53 2.03.8.92-.7 1.92-1.41 3.01-2.11-1.61-1.38-3.61-2.04-5.49-2.6-1.29.84-2.48 1.63-3.5 2.58m12.3 1.96c-1.86 1.18-2.54 3.33-3.23 5.23.61.39 1.81 1.18 2.42 1.57.68-.11 2.05-.33 2.73-.44.58 1.06 1.26 2.12 2.02 3.19-.12-4.12 1.5-7.92 4.32-10.89-2.84.18-5.92-.41-8.26 1.34m40.52-1l1.92 1.15c-.95.58-1.81 1.16-2.59 1.72.95.04 2.84.12 3.79.16-.58.56-1.74 1.68-2.33 2.24.49-.28 1.46-.83 1.94-1.11.09 13.75-1.33 27.47-2.08 41.19-2.71 14.45-5.73 28.85-8.59 43.28 2.78 3.31 4.89 7.42 8.3 10.13 5.83.15 11.7.02 17.59-.06-.05-2.5-.04-5 .22-7.49.19 2.51.14 5.04.25 7.57 4.52.45 9.45-.97 13.79.79-8.84.43-17.8-.78-26.49.96-2.82-.23-6.7 1.18-8.32-1.78-4.08-5.35-8.21-10.65-12.26-16-1.26-2.01-3.27-3.18-5.57-3.23 5.68 8.8 12.7 16.72 18.28 25.59 3.7 9.89 3.59 21.55-1.09 31.11 12.01-.2 24.03 0 36.07-.09 2.88.04 6.02-1.48 7.2-4.3 1.55-4.32 1.79-9 1.79-13.56-.33-4.92-.5-10.4-3.82-14.37-4.72-6.32-9.41-12.65-14.05-19.02-1.54-2.35-3.68-4.23-6.34-5.06-.26 1.97-.29 3.96-.48 5.93-.08 3.92-.67 7.8-.98 11.7-1.65-27.35-1.21-54.8-2.27-82.18-.46-5.29 1.19-11.68-2.86-15.94-3.73.06-7.44-.16-11.02.67m-44.48 12.45c3.39 1.15 6.69 2.67 10.1 3.92-2.24-2.53-3.61-6.84-7.41-7.02-1.74-.21-3.13-1.38-3.8-2.86.32-1.86 1.07-3.63 1.77-5.41-4.16 2.23-5.27 9.05-.66 11.37m-14.76-3.13c.97 2.26 3.59 2.8 5.86 3.12 1.23-.87 2.56-1.72 3.97-2.55-.09-1.41-.08-2.82.03-4.23-1.72 1.06-3.31 2.1-4.89 3.15-1.18-1.03-2.37-1.94-3.39-2.94-.64 1.09-2.06 2.03-1.58 3.45m30.35 77.62c-2.49 8.33-2.23 18.45 3.78 25.28 4.85 6.5 9.64 13.06 14.48 19.59 1.29 1.66 2.78 3.9 5.27 3.69 3.04-4.04 3.52-9.36 3.86-14.26.04-6.32-.32-13.28-4.33-18.48-5.66-7.53-11.13-15.18-16.82-22.66-3.12 1.12-5.33 3.74-6.24 6.84m14.05 42.36c.15 2.92.32 5.84.56 8.77 2.28.01 4.61.03 7.04.14-3.29-2.29-5.25-5.82-7.6-8.91m-5.62 10.73c.89 4.36-2.85 6.99-4.59 10.46-3.27 5.79-8.11 11.05-8.17 18.06 26.32.07 52.65.03 78.98.02-.35-3.2-.57-6.56-2.55-9.22-3.31-4.96-5.95-10.37-9.72-14.97-.22-1.46-.23-2.93-.23-4.39-17.91.07-35.82-.01-53.72.04zM3641.67 16.5c5.09-1.69 10.74-.27 14.99 2.85 5.31 3.86 10.23 8.25 15.46 12.24 2.9 2.3 7.39 2.66 8.95 6.45.9-.34 1.84-.69 2.82-1.03 7.32 3.03 14.69 5.95 21.99 9.06 1.87.44 1.82 2.6 2.46 4.07 4.14 1.63 9.87.66 12.44 5.15 2.31 4.46 7.83 4.26 12.13 5.12 5.5 1.09 11.5 1.94 16.08 5.49-.41 1.79-.79 3.59-1.1 5.39-1.49-.1-2.94-.22-4.33-.36-.4.32-1.18.95-1.57 1.27-7.2-.95-14.41-2.74-20.56-6.7-3.42 2.14-7.83 3.81-11.65 1.74-2.95-1.66-6.26-2.89-9.66-2.32-.26.53-.78 1.61-1.04 2.15-6.23-1.82-12.03-4.77-18.06-7.07-2.77-1.28-6.42-1.78-7.57-5.02-.6.18-1.78.54-2.38.72-6.1-3.04-12.97-2.74-19.54-3.6-4.06 17.81-6.8 35.88-9.41 53.94.86 1.7 2.14 3.16 3.14 4.81 4.48 8 2.33 19.18-5.18 24.58-3.34 2.31-7.15 3.78-10.67 5.73-1.89 6.81-3.88 13.59-5.81 20.39 1.22.04 2.49.09 3.8.13.3 2.25-.11 4.75 1.38 6.67 3.02 4.93 6.08 9.84 9.14 14.77 1.7 2.63 1.67 5.91 2.26 8.92 5.12.15 10.29-.26 15.42.21.23.46.68 1.39.9 1.85-24.17.33-48.35.05-72.51.14-13.15-.09-26.29.2-39.42-.15.23-.46.7-1.38.93-1.84 3.83-.44 7.72-.1 11.6-.2.59-2.9.39-6.1 2.1-8.66 3.49-5.6 6.89-11.27 10.45-16.84-.04-1.56-.06-3.11.01-4.67-7.46.42-14.84-3.96-17.59-10.96-3.13-7.14-1.52-16.15 4.21-21.53 2.67-2.6 6.18-4.02 9.47-5.7 13.99-7.05 27.98-14.11 41.98-21.13 2.59-5.48 3.58-11.76 5.6-17.53 5.14-17.69 10.65-35.28 15.57-53.03.74-7.08 5.78-13.65 12.77-15.5m-8.95 9.52c4.22-2.47 9.31-2.72 14.04-1.75 5.33 1.54 8.77 7.47 7.7 12.88-.71 4.36-1.84 8.63-2.6 12.97 6.58.8 13.39.62 19.57 3.47.22-.23.67-.67.89-.89.33-5.59 2.57-10.93 6.46-14.99-9.6-4.26-16.52-12.48-25.33-17.94-7.15-4.39-16.85-.83-20.73 6.25m.69 2.37c-1.72 1.76-2.41 4.18-3.1 6.46-6.56 22.36-13.3 44.68-19.82 67.05 3.19-.18 6.48-.45 9.65.35 2.18.36 3.18 2.56 4.73 3.92 3.97 3.82 6.3 9.36 5.94 14.89-.13 2.32-1.33 4.74-.1 6.96l.83-1.8c.4.94.85 1.89 1.34 2.84-1.35-.39-2.57-.77-3.81-1.19-1.53 4.46-5.34 7.74-9.48 9.7-14.49 7.17-28.82 14.64-43.33 21.76.16.83.38 1.65.65 2.48 14.86-.04 29.72.03 44.58-.03 2.31-8.45 4.83-16.84 7.18-25.28 2.67 2.22 5.52-.82 8.07-1.89 8.59-4.77 10.73-17.29 4.64-24.89-1.68 6.31.1 13.67-4.68 18.9-.69.1-2.08.3-2.78.4 2.09-2.7 4.37-5.57 4.48-9.17.1-6.69 1.67-13.22 2.56-19.83 2-11.99 3.37-24.09 6.03-35.96 1.84-9.03 3.87-18.03 5.63-27.07.96-4.48-1.75-8.93-5.73-10.89 1.3 2.86 3.25 5.64 3.21 8.93-.13 3.44-1.21 6.74-1.96 10.06-5.66 23.11-11 46.31-16.81 69.38-.54-3.09.73-6.06 1.38-9.03 5.42-22.46 10.83-44.93 16.22-67.41 1.08-4.32-.69-9.07-4.26-11.68-3.73-1.21-8.43-.94-11.26 2.04m50.32 10.75c-1.23 2.05-3.49 2.3-5.61 2.15-1.86 2.83-3.16 5.99-3.8 9.31 1.97 1.08 1.72 3.29 1.88 5.23 6.9 2.88 13.84 5.67 20.75 8.55-.08-1.51-.16-3.02-.24-4.52-3.08-3.14-7.14-5.03-11.05-6.85 1.81-2 4.17-3.3 6.91-3.58 2.58-2.66 6.18-3.06 9.74-2.67-6.2-2.55-12.4-5.06-18.58-7.62m18.04 9.53c-4.11-1.63-8.2 1.55-9.43 5.36 2.02 1.67 4.39 2.98 6.2 4.93.11 1.3.21 2.61.32 3.92 5.49-1.24 10.14 2.13 15.18 3.44 1.48-.48 3.06-.94 4.67-1.34-.73-.84-1.39-1.68-1.99-2.51 2.59.39 5.33.88 7.69 2.22 4.75 3.26 10.59 4.17 16.12 5.37.34-.5 1.01-1.51 1.35-2.02 1.5.49 2.96.91 4.58 1.31.04-.68.1-2.05.13-2.74-7.99-4.37-17.5-3.88-25.94-6.94-.65-3.28-3.47-5.67-6.63-6.38-3.95.57-7.32-1.92-10.73-3.39.81-.55 1.67-1.08 2.59-1.59-.45-.35-.84-.7-1.18-1.06-.97.56-1.71 1.9-2.93 1.42m-12.26 3.36c.09 3.29 2.9-1.55 0 0m-79.25 52.3c-4.23 1.66-8.15 3.97-12.21 5.93-12.33 6.28-24.96 11.98-37.01 18.76-6.91 4.26-9.68 13.8-6.21 21.11 2.91 7.27 12.36 12.21 19.61 8.14 15.26-7.68 30.56-15.32 45.8-23.08 7.74-4.04 10.86-14.39 7.23-22.2-2.71-6.45-10.3-11.04-17.21-8.66m-38.48 59.41c-.12 1.47-.15 2.94-.16 4.41-4.04 4.37-6.42 9.95-9.78 14.82-2.06 2.67-2.2 6.11-2.76 9.29 26.32.05 52.65.02 78.98.01-.33-3.15-.54-6.48-2.49-9.12-3.31-4.99-5.97-10.43-9.78-15.06-.15-1.47-.19-2.94-.23-4.4-17.94.07-35.86-.02-53.78.05zM7070.06 40.07c-2.94-8.63-.03-20.42 9-24.12 5.39-2.15 10.92 1.23 14.14 5.51 1-.6 2.27-1.21 3.48-1.79.41.57 1.24 1.7 1.65 2.27 4.86-.06 9.77-.3 14.68.05 2.62 1.21 2.88 4.53 3.14 7.08.85 24.13 1.55 48.26 2.19 72.4 1.84.09 3.75.18 5.77.2 1.56 2.25 3.72 4.33 4.1 7.21 2.16 15.11-1.17 30.18-3.21 45.1-.31 3.02-2.45 5.28-4.1 7.63 2.1.02 4.25.03 6.5.04-.58 5.57 3.45 9.68 6.01 14.19 1.68 2.89 3.61 5.66 5.25 8.62.86 2.41 1.04 5.05 1.52 7.58 5.16.21 10.4-.38 15.58.31l.69 1.77c-26.49.3-52.98.04-79.46.12-10.82-.09-21.64.2-32.43-.15.23-.46.69-1.37.92-1.83 3.81-.46 7.71-.11 11.62-.21.56-2.91.37-6.15 2.13-8.71 3.46-5.58 6.87-11.21 10.4-16.78-.05-1.63-.06-3.27.11-4.89 1.19-.01 2.49-.01 3.89 0-2.25-2.42-4.63-5.09-4.65-8.57-.65-9.07-.6-18.25 1.05-27.22.49.82 1.08 1.63 1.74 2.45-1.27 6.16-1.1 12.46-1.04 18.71.06 3.46-.18 7.21 1.8 10.26-.69-11.76-.91-23.65 1-35.32.37-3.02.98-6.02 1.05-9.08.57-.14 1.7-.43 2.27-.57-1.3 8.84-3.09 17.68-2.82 26.67.14 6.89-.63 13.94.99 20.7 14.6.19 29.25.33 43.87-.07-1.18-12.88-1.22-25.92.87-38.71.74-5.7 1.74-11.38 2.33-17.11-1.42-.16-2.9-.31-4.11-.45-1.45 6.88-2.21 13.87-3.29 20.81-12.07-.07-24.21.78-36.15-.96 1.43-.39 2.51-.72 4.21-1.03-.24-6.27.57-12.53.35-18.79-1.8.16-3.52.36-5.12.59-.37 2.62-.96 5.23-1 7.88-.66-.65-1.22-1.29-1.7-1.93.11-.99.34-2.99.45-3.98-2.57 6.67-2.47 14.02-3.74 20.99-.7-.67-1.32-1.34-1.85-2 1.95-7.81.11-17.49 6.85-23.3 2.37-.04 4.78-.13 7.28-.17.32 1.17.72 2.35 1.2 3.53 2.36-12.69 5.7-25.19 8.25-37.86.67-7.81 1.17-15.65 1.5-23.49-3.67 2.04-5.78 6.35-10.13 7.15-7.06 1.79-13.3-4.38-15.03-10.73m5.08-18.89c-5.19 6.31-5.46 15.96-1.03 22.75 1.88 2.93 5.14 5.36 8.83 5.03 4.32.1 7.49-3.6 9.43-7.11.89-.12 1.89-.23 3-.34 2.39-5.29 2.48-11.09 2.73-16.79-1.8.17-3.56.54-5.18.28-1.99-2.57-3.64-5.77-6.87-6.91-3.84-1.82-8.39 0-10.91 3.09m24.53 2.76c-.24 13.52-1.62 26.99-2.19 40.5-3.19 18.03-7.71 35.8-10.93 53.83-1.82-4.05.37-8.33.81-12.43-.6.55-1.81 1.65-2.41 2.2-1.51 4.66-1.09 9.67-.94 14.49 9.61-.02 19.24-.04 28.88.01.23-1.56.54-3.12.96-4.68-2.53-.52-1.61-3.15-1.7-4.94-.27-16.3-.44-32.61-1.02-48.91-.09-13.38-.97-26.77-.24-40.14-3.78-.01-7.52-.04-11.22.07m13.33.68c-1.17 5.36-.66 10.86-.41 16.29.56 24.46.74 48.94 1.86 73.38.41-3.26.67-6.54 1.41-9.76.91-4.12.1-8.35.19-12.52-.38-18.02-1.17-36.01-1.53-54.03-.49-4.45.23-9.16-1.52-13.36m11.13 80.21c-1.14 5.01-1.6 10.12-2.36 15.18-2.2 12.6-2.14 25.51-1.12 38.23 2.43-2.05 2.41-5.38 2.95-8.28 1.13-9.97 3.54-19.84 3.21-29.93-.26-5.1.71-10.89-2.68-15.2m-52.35 58.9c-.18 1.48-.2 2.96-.17 4.44-3.77 3.94-5.91 9.06-8.96 13.5-2.44 3.04-3.16 6.84-3.57 10.59 26.32.05 52.65.03 78.98.01-.36-3.19-.56-6.54-2.54-9.2-3.33-4.97-5.95-10.43-9.79-15.02-.11-1.42-.12-2.84-.04-4.26-17.98-.16-35.95-.05-53.91-.06zM3985.93 29.98c2.96-9.59 15.06-15.17 24.1-10.34 7.26 4.26 13.08 10.56 20.03 15.31 2.88 1.69 6.51 2.57 8.04 5.92.7-.29 2.09-.87 2.78-1.16 7.3 3.16 14.67 6.17 21.99 9.31 2.04.42 2.01 2.6 2.4 4.26 3.5 1.89 7.85 1.1 11.18 3.47 1.81 1.73 2.96 4.42 5.64 5.07 4.62 1.93 9.79.15 14.52 1.71 3.61 1.2 7.86 1.83 9.95 5.47-.22 1.72-.43 3.45-.53 5.17-1.63 0-3.17-.01-4.68-.04-.6 1.02.02 3.15-1.41 3.38-4.8.69-9.45-.74-13.87-2.36-3.45-.63-4.26-5.02-7.78-5.47-3.26 1.38-6.91 2.94-10.33 1.28-3.34-1.62-6.73-3.49-10.55-2.89-.33.58-.98 1.73-1.3 2.3-6.13-2.23-12.02-5.01-18.04-7.44-2.98-1.31-6.6-2.06-7.92-5.42-3.36 1.49-6.43-1.13-9.65-1.66-4.14-.69-8.31-1.06-12.45-1.29-6.04 17.58-10.2 35.72-15.04 53.65 4.97 6.67 5.46 16.43.35 23.16-3.16 4.56-8.52 6.55-13.29 8.9-2.15 7.12-4.4 14.21-6.21 21.43.88-.03 2.63-.08 3.51-.11-.53 5.79 3.72 10.03 6.34 14.74 1.67 2.92 3.73 5.64 5.19 8.7.59 2.29.9 4.66 1.28 7 5.17.24 10.42-.39 15.58.33l.69 1.76c-26.83.3-53.67.04-80.5.12-10.47-.09-20.94.2-31.39-.15.24-.46.72-1.39.96-1.85 3.82-.42 7.71-.09 11.59-.2.57-2.93.38-6.16 2.14-8.72 3.47-5.58 6.85-11.21 10.39-16.76-.02-1.54-.07-3.07.04-4.6-7.39-.06-14.56-4.56-17.17-11.56-3.29-7.61-.75-17.22 5.9-22.18 3.55-2.58 7.74-4.1 11.63-6.15 13.51-6.49 26.8-13.46 40.44-19.68 7.93-20.07 15.68-40.21 23.61-60.29 1.81-3.81.26-8.22 1.84-12.12m1.04 4.15c1.52-2.16 2.65-4.77 5.02-6.22 3.18-2.25 7.29-2 11.02-1.7 5.95.7 10.25 6.91 9.24 12.76-.82 4.62-2.67 8.98-3.78 13.53 6.56.62 13.35.8 19.45 3.66.4-.35 1.19-1.04 1.59-1.39.65-4.72 2.59-9.16 5.41-12.99-.03-.56-.08-1.67-.11-2.22-10.44-3.87-17.02-13.78-26.86-18.61-9.25-3.85-20.05 3.49-20.98 13.18m4.17-3.01c-2.02 2.63-2.84 5.91-4.08 8.92-8.06 20.6-16.09 41.21-24.16 61.81 3-.09 6.13-.39 9.12.41 4.79 2.94 9.22 7.02 10.79 12.63 8.21-23.92 15.88-48.03 23.93-72 2.38-5.04 1.03-12.02-4.22-14.61-3.93-.92-8.68-.46-11.38 2.84m14.85-2.27c3.2 4.58 3.45 10.35 1.26 15.35-6.88 20.61-13.71 41.23-20.45 61.88-1.09 3.09-1.81 6.38-3.7 9.1.68 4.37.12 8.73-.98 12.97 2.79.88 4.29-2.75 5.32-4.77 3.06-14.94 7.48-29.58 11.14-44.4 3.51-13.11 7.94-25.97 11.62-39.04 1.33-4.12-.89-8.62-4.21-11.09m34.72 13.12c-1.13 2.06-3.44 2.23-5.46 2.36-1.58 2.86-2.85 5.87-3.78 8.98.43.42 1.28 1.24 1.71 1.66-.07 1.23-.09 2.46-.05 3.7 7.13 2.99 14.28 5.97 21.4 9.05-.03-.93-.09-2.78-.12-3.7-3.56-3.39-8.23-5.16-12.12-7.91 1.23-3.5 5.12-4.83 8.57-4.49 3.11-2.46 7.1-1.39 10.68-.75-6.79-3.3-13.86-6.01-20.83-8.9m21.23 9.27c.6.53.6.53 0 0m-12.48 6.78c2.6 2.36 7.39 3.67 6.97 7.98 4.02-.63 8.03.7 11.52 2.68 2.1 1.36 4.52 1 6.79.12.14-.56.41-1.67.55-2.23 3.6 1.04 7.35 2.17 9.51 5.52 4.18 2.55 9.35 3.78 14.31 3.53-.05-.85-.14-2.54-.18-3.39-4.26.15-8.38-.92-12.13-2.82 2.72-2.39 6.98-.85 10.19-.13 2.67.35 4.47 3.38 7.31 2.8 1.28-4-3.42-5.14-6.23-5.96-5.48-2.37-11.67-.19-17.11-2.51-2.91-.38-4.13-3.13-5.56-5.25-3.13-1.56-6.76-1.19-9.85-2.74-3.04-1.12-5.07-4.39-8.52-4.35-3.87 0-6.75 3.2-7.57 6.75m-4.81-2.71c.94.57 1.97 1.13 3.02 1.69.37-1.24.77-2.48 1.22-3.72-1.44.64-2.91 1.32-4.24 2.03m-83.2 49.28c-8.92 3.99-17.59 8.5-26.42 12.63-7.99 3.84-16.12 7.44-23.68 12.07-6.73 4.14-9.38 13.49-6.07 20.62 3.01 7.51 12.64 12.37 20.16 8.44 13.58-6.55 27.1-13.25 40.63-19.92 3.73-1.9 7.87-3.35 10.88-6.42 4.13-4.43 5.87-11.13 3.89-16.93-2.17-7.96-11.43-13.74-19.39-10.49m24.7 24.28c-1.59-.16-3.08-.28-4.55-.42-2.93 6.62-9.94 9.26-15.98 12.19-11.44 5.51-22.68 11.42-34.19 16.78-2.11.99-4.32 1.97-5.68 3.92 3.7.74 7.51.41 11.29.46 11.51 0 23.02-.01 34.54.01 2.57-8.4 4.77-16.91 7.58-25.24 3.56.8 6.76-1.78 9.44-3.83 6.14-5 7.23-14.26 3.61-21.07-2.5 5.62-1.34 12.62-6.06 17.2m-64.4 34.87c-.07 1.43-.1 2.86-.07 4.29-3.74 4-5.94 9.12-9.01 13.6-2.44 3.05-3.16 6.86-3.59 10.63 26.32.05 52.65.02 78.98.01-.33-3.16-.54-6.49-2.5-9.14-3.32-4.98-5.96-10.42-9.77-15.04-.16-1.47-.18-2.93-.23-4.39-17.94.06-35.88-.03-53.81.04zM4339.63 30.73c3.42-9.2 15.3-13.8 24.03-9.27 8.99 5.04 15.52 13.78 25.15 17.8 1.25.35 1.71 1.58 2.26 2.68 1.35 1.02 2.8 1.06 4.2-.11 8.05 3.25 16.18 6.43 24.04 10.13.04.78.1 2.35.14 3.14 4.48 2.86 11.11 1.22 14.36 6.09 1.57 2.35 4.38 3.24 7.07 3.73 4.05.23 8.2-1.76 12.14-.05 2.98 1.3 7.02 1.35 8.82 4.49 1.68 1.76 1.18 4.28 1.27 6.5-1.58.19-3.06.38-4.51.55-.08 1.55-.1 3.11-.18 4.66-5.63 2.72-11.96.06-17.29-2.16-2.18-2.48-3.67-5.92-7.33-6.39-3.36.99-7.01 2.67-10.39.93-3.3-1.83-6.87-3.5-10.72-3.27-.92 1.28-2 2.93-3.69 1.74-5.93-2.3-11.71-4.92-17.6-7.28-2.32-1.1-5.7-1.5-5.75-4.72-2.3-.53-4.72.49-6.84-.7-4.94-2.11-10.38-2.02-15.58-2.77-6.74 16.2-12.47 32.8-18.55 49.25-.83 2.46-2.48 5.1-.99 7.64 3.73 8.57-.5 19.46-8.91 23.44-1.52 1.03-3.99 1.23-4.46 3.22-2.22 7.21-4.59 14.38-6.54 21.66.9-.01 2.71-.03 3.61-.04-.38 7.04 5.34 12.05 8.32 17.94 2.82 3.6 4.14 7.95 4.48 12.48 5.11.14 10.26-.23 15.4.18.22.47.67 1.42.89 1.89-25.48.31-50.97.04-76.45.13-11.83-.09-23.66.2-35.46-.15l.92-1.84c3.83-.45 7.72-.1 11.61-.2.58-2.93.39-6.17 2.15-8.73 3.47-5.58 6.86-11.21 10.38-16.76-.02-1.62-.02-3.24.09-4.85-7.13-.72-13.59-5.77-15.69-12.65-2.81-7.76.54-17.11 7.52-21.47 9.3-5.42 19.25-9.59 29-14.13 7.71-3.48 15.26-7.29 22.98-10.78 8.78-18.97 17.57-37.93 26.48-56.84-1.86-4.81-2.68-10.29-.38-15.11m8.92-7.05c-6.79 3.53-10.27 12.43-7.16 19.52 2.26-4.21 3.39-9.26 7.03-12.59 5.91-5 16.74-3.12 19.51 4.49 2.66 6.8-2.58 13.06-4.1 19.48 5.92.52 11.99.9 17.53 3.31 1.03-.4 2.12-.78 3.27-1.15 1.18-4.38 3.01-8.55 5.18-12.53-.37-.73-1.13-2.19-1.5-2.92-9.61-3.84-16.16-12.37-24.87-17.64-4.55-2.56-10.38-2.53-14.89.03m1.35 8.14c-2.37 1.87-3.36 4.8-4.62 7.39-9.7 20.95-19.54 41.83-29.18 62.8 8.66-1.85 17.74 3.36 20.99 11.5 2.05-5.36 4.76-10.53 6.06-16.16.28.59.61 1.18 1 1.77-1.9 3.36-3.05 7.05-4.54 10.58-.98 2.49-2.69 5.08-1.45 7.79 2.72-6.79 5.02-13.75 7.64-20.59.76-2.55 2.37-4.95 2.07-7.72l-1.01 3.48c-.4-.58-.73-1.15-1-1.72.73-1.17 1.33-2.42 1.79-3.76.31.76.92 2.3 1.23 3.07-.26-1.42-.44-2.82-.72-4.21 5.22-12.86 10.25-25.8 15.47-38.66 1.15-3.02 2.75-6.11 2.29-9.46-.48-3.35-2.77-6.63-6.01-7.75-3.38-.69-7.28-.66-10.01 1.65m45.76 12.24c-1.07 1.9-3.06 2.44-5.03 2.61-1.55 2.91-2.82 5.95-3.8 9.09 1.32 1.51 1.72 3.37 1.44 5.35 7.2 3.01 14.36 6.13 21.64 8.96.02-1.02.09-2.05.25-3.07-3.21-2.26-6.27-4.81-9.95-6.22-1.76-.68-3.35-2-3.73-3.88.82-1.93 2.64-2.94 4.44-3.91.51.66 1.08 1.32 1.72 1.97-1.33.36-4.22.8-3.56 2.71 1.01.77 2.11 1.49 3.3 2.14.68-1.66 1.45-3.31 2.24-4.95l-1.02.82-1.76-2.64c2.23.25 4.79.66 7.07-.21 3.11-1.03 6.21.66 9.33 1.04-7.26-3.85-15.13-6.41-22.58-9.81m8.98 16.15c1.77 2.61 5 3.83 7.42 5.84.02.55.05 1.65.06 2.2 3.93-.21 8.24.6 11.41 3.14 1.14.33 2.35.65 3.62.98 1.72-.69 3.41-1.45 5.14-2.31 2.08.67 4.29 1.18 6.28 2.26 1.42 1.56 2.56 3.38 3.84 5.12 4.67 1.6 9.46 3.69 14.52 2.2-.4-1.15-.62-2.33-1.16-3.38-4.91.49-11.56-.08-13.55-5.37 4.88-1.4 9.97-1.15 14.58 1.12 1.12 1.37 2.21 3.26 4.33 2.04.59-4.4-4.11-5.96-7.45-6.83-5.4-2.64-11.4 1.5-16.77-1.27-4.11-.46-5.03-5.65-8.97-6.25-4.43-.34-8.72-1.97-12.05-4.9-4.32-3.09-10.75.29-11.25 5.41m40.41 12.15c3.45 1.52 7.24 2.85 10.99 1.38-3.53-1.36-7.27-2.14-10.99-1.38m-94.77 10.85c.49.6.49.6 0 0m-35.71 21.52c-13.64 6.02-27.05 12.51-40.54 18.83-4.48 2.19-9.2 4.1-13.03 7.35-6.23 5.42-7.25 15.69-2.14 22.19 4.19 5.79 12.57 8.52 19.17 5.34 16.16-7.54 32.23-15.3 48.35-22.94 7.98-3.39 12.16-13.33 8.81-21.37-2.87-8-12.68-12.75-20.62-9.4m14.52 31.35c-17.59 8.68-35.51 16.76-53.04 25.54 15.14.41 30.3.06 45.45.18 2.51-8.36 5.21-16.67 7.64-25.07 3.86-1.18 7.6-3.22 10.06-6.54 3.57-4.49 4.15-10.7 2.53-16.08-3.46 7.64-4.52 17.52-12.64 21.97m-57.3 27.65c-.13 1.47-.18 2.94-.18 4.42-4.02 4.37-6.41 9.93-9.75 14.79-2.07 2.68-2.23 6.12-2.78 9.32 26.32.05 52.65.02 78.99.01-.34-3.18-.56-6.52-2.53-9.18-3.31-4.97-5.96-10.4-9.75-15.01-.17-1.47-.19-2.93-.22-4.39-17.94.06-35.86-.01-53.78.04zM7775.22 24.24c5.3-2.11 10.75-5.7 16.74-4.39 3.8.52 6.79 3.24 9.42 5.89 3.15.1 6.41-.26 9.64.31 5.24 2.22 6.89 8.76 6.04 13.96-3.57 21.39-7.75 42.7-11.06 64.13 7.98 5.99 16.43 11.39 24.61 17.16 4.54 3.37 10.27 5.95 12.57 11.53 3.69 8.45 2.95 19.75-4.09 26.28-3.11 2.97-7.64 2.75-11.55 2.83-.79 4.91 2.71 8.57 5.01 12.49 1.74 2.92 3.56 5.81 5.39 8.72 1.64 2.62 1.63 5.89 2.23 8.87 4.57.1 9.19-.05 13.84.06 1.31-.15 2.13.52 2.48 2.03-24.5.32-49 .04-73.49.13-12.83-.09-25.64.2-38.43-.15.18-1.44.98-2.11 2.39-2 3.34-.12 6.71 0 10.15-.05.55-2.93.36-6.17 2.15-8.74 3.45-5.57 6.85-11.19 10.37-16.74-.06-1.64-.07-3.27.12-4.89 1.65-.02 3.47-.02 5.33-.02-.93-5.27-1.61-10.6-2.87-15.77-4.43-3.7-9.59-6.41-14.03-10.05-5.47-5.21-6.98-13.55-5.55-20.75.91-4.68 3.22-9.4 7.4-12.01 2.36-1.71 5.45-1.39 8.31-1.66 4.14-10.16 8.29-20.32 12.48-30.47 2.27-5.21 3.47-10.8 5.1-16.25-5.07-1.38-9.48-4.3-14.33-6.11-6.09-1.46-12.38-1.43-18.56-1.44-3.68.18-6.6-2.42-9.98-3.21-2.47-.02-4.88.47-7.18-.1-2.7-.43-4.18-3-5.97-4.68-2.78 1.66-5.35 3.59-7.89 5.48-2.95-.34-5.93-.15-8.67-.95-2.91-1.06-4.01-4.09-5.11-6.62 1.14-.88 2.44-1.8 3.85-2.56 1.88.07 3.25 1.83 4.78 2.92.42.05 1.26.16 1.68.21 1.92-1.41 3.87-2.87 5.63-4.59-1.1-.93-1.73-2.83-3.32-2.54-1.58.77-2.94 1.82-4.24 2.78-2.46-1.1-4.34-2.96-5.42-5.37 1.8-1.54 3.74-2.99 5.74-4.41 2.6.18 5.27.21 7.98.62 2.92.74 4.34 3.59 5.64 6.08 1.62-.36 3.01-1.37 4.58-2.18 2.8-1.26 6.16.65 8.98-.94 2.39-1.41 5.23-.88 7.97-.81 4.25.27 8.57-.15 12.88.42 3.36-.9 7.06-.74 10.26-2.45m-6.27 3.75c-4.38.31-8.23 4.64-7.94 9.03-.24 4.37 3.49 8.77 7.92 9.02 7.78.8 13.88 7.75 21.99 6.96 6.26-.72 10.05-6.55 12.23-11.93.38.73.85 1.47 1.43 2.2l-1.6-.29c.54 3.71-2.37 6.68-4.91 8.89-2.81 2.51-6.63 3.02-10.15 3.39-1.66 5.25-2.76 10.68-4.92 15.74-4.19 10.17-8.37 20.33-12.49 30.51 5.38 1.69 9.64 5.6 14.47 8.44 5.18-15.83 12.34-31.06 15.69-47.45 1.27-6.45 3.66-12.71 4.28-19.28.37-.16 1.12-.48 1.49-.64-3.79 14.47-6.26 29.36-11.84 43.29-3.29 8.56-6 17.35-9.56 25.77-4.9-1.66-8.55-5.7-13.24-7.74 7.7 6.1 16.15 11.23 24.15 16.98 4.7 3.57 10.79 6.11 13.3 11.87 3.99 8.84 2.73 20.49-4.75 27.14 7.49-.1 15.01-.04 22.54-.03 3.45.15 7.21-.38 9.98-2.75 7.86-6.69 7.97-20.52.4-27.47-3.34-2.52-6.68-5.13-10.54-6.7-1.91-2.46-4.75-3.85-7.15-5.64-4.87-3.37-9.77-6.68-14.59-10.07-1 5.73-2.88 11.44-1.51 17.32-1.9-1.57-2.09-3.5-1.8-5.58.52-10.17 3.1-20.09 4.64-30.13 2.63-14.99 5.24-29.99 7.93-44.97.73-4.16 1.59-8.8-.62-12.66-1.61-3.62-6.91-4.65-9.91-2.42-.43-.09-1.28-.28-1.71-.37.28.33.85 1 1.13 1.34l1.98-1.19c-1.72 2.62-.02 5.53.11 8.3l.48-.01c-.19-1.58-.28-3.16-.27-4.73l1.19.23c.33 3.49.39 7.01.15 10.51-1.03-1.59-1.09-3.53-1.18-5.32-.21 1.15-.65 3.46-.87 4.61-2.17-2.63-.65-6.15-1.9-9.07-2.28-5.53-6.59-11.28-13.1-11.49-7.57-.02-13.48 6.01-20.93 6.39m-55.33.49c.91.86 1.79 1.7 2.94 2.54 1-.85 2.08-1.69 3.26-2.53 1.25.11 2.6.21 4.05.32.69 1.41 1.48 2.82 2.33 4.22-1.43 3.17-4.63 4.8-7.25 6.75-1.27-.18-2.44-.37-3.5-.56-1.04-1.36-3.94-3.99-4.4-1.05 1.04 4.64 6.46 3.99 10.14 4.53 2.67-1.94 5.3-4.02 8.31-5.55 0-1.55.16-3.1.4-4.64-1.61-1.88-2.4-4.49-4.42-5.89-4-1.49-8.88-1.57-11.86 1.86m28.56 4.3c-.35 1.35-1.26 3.67.86 4 2.59 1.47 5.61.62 8.51.8 2.5.47 3.8 2.84 4.72 5.03-.98.79-1.86 1.6-2.65 2.41 3.02.09 6.08.15 9.21.44-5.1-4.52-4.78-12.7.19-17.18-5.07.18-10.09.01-15.08-.11-2.87-.36-5.11 2.1-5.76 4.61m-8.72-1.21c-2.87 1.88-2.81 6.1-.15 8.17 3 4.54 8.95.35 12.89 3.15 2.17 1.37 4.87 1.15 7.38.66 1.15-2.05-.33-3.62-2.24-4.07-3.93.9-7.7-.37-11.24-1.8-.49-2.72.18-5.4 1.05-7.97-2.76-.07-5.8-.45-7.69 1.86m29.12 73.17c-10.85 5.98-11.01 23.8-.77 30.46 9.87 6.8 19.77 13.6 29.64 20.43 2.81 1.87 5.83 4.44 9.5 4 3.37-1.26 5.58-4.56 7.03-7.75 3.35-8.27 1.88-19.64-6.13-24.7-10.49-7.14-20.89-14.41-31.35-21.57-2.28-1.88-5.41-2.47-7.92-.87m12.26 42.63c.59 4.85 1.56 9.64 2.43 14.46 6.91-.07 13.83.01 20.78-.07-4.45-.88-7.85-3.94-11.46-6.36-3.95-2.67-7.82-5.42-11.75-8.03m-3.06 16.37c-.2 1.47-.21 2.94-.17 4.41-3.76 3.95-5.9 9.06-8.95 13.5-2.45 3.04-3.16 6.84-3.58 10.6 26.32.07 52.65.03 78.98.02-.36-3.17-.56-6.51-2.52-9.17-3.31-4.98-5.98-10.4-9.75-15.03-.23-1.46-.24-2.92-.24-4.38-17.93.08-35.86-.02-53.77.05zM4692.08 29.96c4.51-7.94 15.53-11.15 23.55-6.67 9.16 5.36 15.94 14.36 26.1 18.08.17.48.52 1.43.69 1.9.87.76 1.95 1.52 2.92 2.32.33-.6.99-1.82 1.32-2.42 8.15 3.33 16.27 6.78 24.44 10.1-.08 1.14-.1 2.27-.05 3.41 4 2.41 8.93 2 12.97 4.24 2.46 3.1 5.79 5.99 10.02 5.83 4.42-.75 9-2.71 13.3-.23 5.15.68 9.53 5.06 8.88 10.5-1.75.42-3.55.82-5.2 1.2-2.52-5.07-8.91-6.1-13.8-4.2 2.52 4.12 8.16 4.54 12.39 3.17 1.83 1.95 2.79 4.39 2.68 7.1-2.47.65-4.93 1.21-7.32 1.82-3.48-1.27-7.09-2.12-10.41-3.68-1.68-1.86-2.88-4.07-4.19-6.15-1.53-.57-3.09-1.12-4.53-1.64-3.41.85-7.08 2.41-10.39.58-3.45-2.1-7.37-3.51-11.42-3.31-.3.6-.88 1.8-1.17 2.4-8.46-3.2-16.77-6.79-25.07-10.32.28-.88.62-1.75 1.01-2.62-1.91.03-3.83-.33-5.56.38-5.48-2.41-11.38-3.06-17.24-3.57-8.17 18.36-16.51 36.63-24.55 55.03.71 4.5 1.63 9.34-.36 13.67-1.66 4.65-5.51 8.03-9.65 10.43-2.52 8.11-5.11 16.2-7.54 24.34.87-.01 2.62-.02 3.49-.03-.54 5.78 3.72 10.02 6.33 14.73 1.67 2.92 3.72 5.64 5.2 8.7.56 2.29.88 4.65 1.27 6.99 5.11.15 10.27-.26 15.4.21.23.46.69 1.39.92 1.85-24.51.33-49.02.05-73.53.14-12.81-.1-25.62.21-38.42-.15.24-.46.71-1.39.95-1.85 3.82-.42 7.71-.09 11.59-.19.58-2.92.38-6.14 2.13-8.7 3.47-5.6 6.89-11.24 10.41-16.82-.03-1.6-.04-3.2.07-4.8.56-.02 1.66-.07 2.21-.09-8.39-1.01-15.54-8.27-16.12-16.74-.7-6.4 2.33-13.04 7.61-16.72 7.92-5.57 17.01-9 25.75-13.04 8.27-3.73 16.55-7.46 24.84-11.18 1.96-.62 2.57-2.78 3.57-4.4 8.46-16.5 17.1-32.9 25.55-49.41-4.14-5.84-4.96-14.03-1.04-20.19m4.45-2.36c-5.66 5.15-6.44 14.3-2.24 20.6 2.42-4.26 4.38-8.76 6.89-12.99 2.09-3.76 6.43-6.06 10.76-5.6 6.14.18 11.32 6.24 10.43 12.36-.8 5.12-3.89 9.49-5.57 14.32 5.22.51 10.57.81 15.48 2.94 1.39-.64 2.95-.49 4.55-.38 1.66-4.41 3.73-8.66 5.25-13.14-1.46-.76-2.35-2.05-3.31-3.23-8.98-4.29-15.51-12.19-23.95-17.3-5.81-3.32-13.5-2.13-18.29 2.42m10.71 4.6c-3.79 1.52-5.32 5.54-7.07 8.85-10.55 20.3-21.04 40.63-31.61 60.92 3.99-.26 8.23-.57 11.97 1.27 4.02 1.61 6.99 4.93 9.32 8.49 9.75-21.86 19.51-43.7 29.35-65.52 1.17-2.59 2.04-5.61.91-8.37-1.59-5.16-8.03-7.99-12.87-5.64m40.47 13.69c-.79 1.96-2.87 2.17-4.56 2.59-1.39 3.08-2.66 6.22-3.92 9.34 1.05 1.55 1.74 3.25 1.59 5.18 6.85 3.22 13.98 5.84 20.95 8.84.29-.8.63-1.61 1.03-2.42-3.09-2.05-5.9-4.57-9.35-5.95-2.13-.78-4.2-2.25-4.72-4.55-1.52-3.55 3.43-5.88 6.34-4.85 2.9 1.07 5.95.65 8.99.23.87-.27 1.19-1.87.09-2.05-5.7-1.58-10.91-4.41-16.44-6.36m18.68 9.37l1.64-.16c-.18-.44-.54-1.34-.72-1.79-1.34-.69-2.12 1.3-.92 1.95m-16.33 2.04c.87 1.96 2.24 3.57 4.15 4.69.7-1.93 1.47-3.83 2.34-5.72-2.33-.53-4.58-.36-6.49 1.03m6.28 4.95c2.48 2.24 5.27 4.13 8.09 5.97.12.35.37 1.06.49 1.41 3.78.56 7.68 1.33 10.95 3.51 2.78 1.66 6.09.28 8.81-.93 2.24.71 4.56 1.3 6.74 2.36 1.81 1.89 2.69 4.58 4.73 6.29 4.44 1.9 9.34 4.11 14.15 1.89-.44-1.1-.84-2.19-1.2-3.27-4.03 1.28-8.2.23-11.69-1.86-1.27-1.47-2.2-3.19-3.1-4.84 2.82-.83 5.67-1.67 8.67-1.91 2.32.56 4.59 1.44 6.91 2.2.5.91 1.05 1.83 1.65 2.75.91-.11 1.89-.21 2.94-.31-.71-1.87-1.66-3.63-2.7-5.29-3.05-.97-6-2.19-9.04-2.97-4.31.02-8.66 2.89-12.82.76-4.48-.53-5.9-5.57-10.01-6.71-5 .3-9.23-2.76-13.14-5.38-4.59-2.41-9.76 1.67-10.43 6.33m-88.82 42.44c-16.94 7.62-33.65 15.74-50.46 23.63-7.8 3.65-11.6 13.81-7.8 21.61 3.28 7.97 13.39 12.14 21.32 8.62 15.06-6.85 29.95-14.09 44.97-21.06 2.91-1.37 5.99-2.59 8.51-4.71 5.65-4.66 7.58-13.32 4.11-19.85-3.47-7.5-12.97-11.33-20.65-8.24m-27.47 51.5c-4.63 2.08-9.11 4.64-14.15 5.51 15.26.23 30.53.03 45.8.1 2.47-7.97 5.01-15.93 7.42-23.93-13.1 5.95-26.05 12.22-39.07 18.32m-18.26 7.54c-.13 1.48-.19 2.96-.19 4.45-4.03 4.35-6.39 9.91-9.73 14.75-2.09 2.68-2.24 6.13-2.79 9.33 26.32.05 52.65.03 78.99.01-.35-3.16-.55-6.49-2.51-9.13-3.32-4.99-5.97-10.43-9.77-15.06-.18-1.47-.2-2.93-.24-4.39-17.92.07-35.84-.01-53.76.04zM6747.72 25.75c3.48-4.41 9.74-6.67 15.14-4.52 3.61 1.59 6.65 4.23 10.06 6.27 4.68-.61 9.49-.56 14.26-.22 2.74 1.19 4.36 4.76 7.85 4.35 3.01-.44 6.06.2 8.41 2.33 4.99-1.66 9.87-3.75 15.08-4.85.78 1.87 2.1 3.69 2.08 5.81-2.52 2.6-6.67 1.42-9.08 3.96-1.71 1.46-3.94 1.99-5.89 2.76-1.16 3.39-3.95 5.55-7.22 6.61-1.78 2.6-4.25 4.65-7.37 5.2-2.53 16.16-4.93 32.34-7.3 48.52 7.39 6.98 9.08 18.78 5.44 28.07-2.41 7.31-9.43 11.42-14.3 16.94-1.59 1.16-1.63 3.17-1.76 4.91-.4 3.25-.85 6.49-1.14 9.75h5.42c-.45 6.8 5.03 11.63 7.91 17.28 2.9 3.83 4.61 8.29 4.87 13.12 5.16.21 10.4-.38 15.58.31l.69 1.77c-25.83.3-51.65.04-77.47.12-11.49-.09-22.96.2-34.41-.15.23-.46.7-1.38.93-1.84 3.81-.44 7.7-.1 11.61-.21.55-2.92.36-6.15 2.13-8.71 3.47-5.59 6.87-11.22 10.4-16.78-.07-1.54-.07-3.07.07-4.61-2.64-.14-5.59-.13-7.32-2.37-8.31-9.61-7.71-25.78 1.66-34.49 7.31-7.01 14.42-14.23 21.76-21.22 2.58-3.08 6.89-2.14 10.5-2.41 4.1-10.22 8.22-20.44 12.39-30.64 2.11-4.96 3.07-10.31 4.53-15.49-4.32 1.26-9.18.99-12.72-1.94-8.31-6.39-9.08-19.6-2.79-27.63m2.21 24.31c3.2 4.09 9.26 4.97 13.84 2.73 3.3-7.62 3.25-16.57 7.72-23.74-4.93-3.12-10.15-8.39-16.49-6.03-10.45 3.89-12.28 19.34-5.07 27.04m22.8-19.25c-1.6 1.72-2 4.09-2.58 6.24-2.57 9.86-5.16 19.71-7.73 29.56-5.9 16.19-13.32 31.82-18.81 48.14-.33-.41-.99-1.22-1.33-1.63-.55 3.08-.72 6.21-.4 9.33 3.26.04 6.57.04 9.92.02.05.25.15.76.2 1.01-8.34-.43-16.68.07-24.99-.2-2.15.28-5.02-.83-6.27 1.45.18-.75.54-2.26.72-3.01-3.25 2.72-6.31 5.64-9.09 8.79-2.65 3.9-2.83 8.84-2.92 13.39.33 4.81.61 10.56 4.72 13.83 2.39 2.16 5.76 2.19 8.86 2.13 9.98 0 19.98-.09 29.99.05-4.99-6.75-5.85-15.73-4.26-23.77.71-3.53 2.02-7.1 4.67-9.69 7.81-7.77 15.87-15.31 23.51-23.27-5.63 1.03-8.79 6.42-12.99 9.76-3.6 2.75-6.23 7.26-10.51 8.74-.48-1.56 1.06-2.4 2.03-3.38 3.82-3.5 7.54-7.13 11.38-10.65 3.99-21.25 7.77-42.54 11.71-63.8.95-4.97 1.33-10.17 3.76-14.72-3.18.49-7.4-1.3-9.59 1.68m11.37-1.85c-1.04 2.27-1.89 4.6-2.23 7.05-4.25 23.09-8.4 46.2-12.7 69.28 3.05-3.91 7.95-3.91 12.49-3.5 2.68-18.09 5.69-36.14 8.01-54.27.66-.09 1.32-.13 2.18-.18-.18 1-.55 3-.74 4 2.09-.55 3.81-1.93 5.34-3.5-1.54-.69-3.35-3.07-4.93-1.07-1.77-3.44-.19-7.31-.75-10.94-.46-3.4-2.77-7.28-6.67-6.87m20.4 6.86c.22 1.3.53 2.61.94 3.91 1.82-.77 3.99-1.53 5.06-3.46 2.31-.8 4.69-1.19 7.14-1.89 1.77-.06-.1-3.88-1.63-2.48-4 .87-7.69 2.64-11.51 3.92m-11.3-1.47c-.95 2.97-.21 6.27-.74 9.36 2.32.61 4.63 3.19 7.18 1.81 4.18-1.3 4.95-7.23 2.04-10.16-2.09-2.61-5.8-1.91-8.48-1.01m-55.51 71.36c-5.73 4.92-10.63 10.73-16.4 15.57.62.4 1.34.76 2.17 1.09 5.44.29 10.92.02 16.42.13-.14-3.34-.31-6.76.84-9.96.96-3.43 3.6-5.98 5.15-9.15-2.89.25-6.04.21-8.18 2.32m40.35-.69c-7.68 7.35-15.19 14.86-22.77 22.28-4.06 3.7-5.1 9.48-5.31 14.71-.17 6.31.92 13.45 6 17.79 4.13-1.45 6.91-4.97 10.02-7.9 4.86-4.78 9.77-9.53 14.64-14.33 2.79-2.73 5.96-5.45 7.09-9.38 2.11-6.93 1.84-15.35-2.83-21.22-1.64-1.78-4.72-4.36-6.84-1.95m-20.12 56.85c3.95-.13 7.94-.04 11.96-.1.48-3.73.95-7.46 1.31-11.21-4.48 3.72-7.89 8.85-13.27 11.31m-36.13 1.86c-.17 1.48-.22 2.96-.19 4.44-3.59 3.71-5.61 8.56-8.49 12.76-2.6 3.27-3.68 7.25-4.03 11.33 26.32.05 52.65.03 78.98.01-.35-3.19-.57-6.55-2.55-9.22-3.3-4.96-5.95-10.37-9.72-14.98-.21-1.46-.22-2.92-.23-4.38-17.93.07-35.86-.01-53.77.04zM5044.32 31.35c4.43-7.9 15.26-11.17 23.31-6.93 8.94 5.1 15.61 13.63 25.23 17.67 1.82 1.44 3.07 3.5 5.03 4.91l.56-2.76c7.76 2.78 15.29 6.2 22.98 9.21 1.65.36 2.28 1.42 1.9 3.18-7.7-3.64-15.82-6.3-23.47-10-.87 1.92-2.48 2.92-4.46 3.24-1.23 3.05-2.47 6.1-3.7 9.13.54 1.01 1.25 2.01 1.92 3.03-.36.43-1.07 1.3-1.42 1.73 7.85 3.64 16.1 6.4 23.94 10.11-.58 2.67-2.8.54-4.19.31-7.1-3.14-14.52-5.57-21.41-9.12.11-.48.32-1.43.43-1.9-.71-1.65-3.89-.62-5.42-.24-5.55-2.44-11.56-3.03-17.5-3.47-8.94 18.23-17.9 36.44-26.78 54.69 1.1 4.38 1.26 9.17-.69 13.34-1.68 4.32-5.35 7.35-9.14 9.74-2.48 8.16-5.12 16.26-7.53 24.43.87-.01 2.61-.02 3.49-.02.29 2.25-.12 4.77 1.37 6.7 3.04 4.96 6.12 9.9 9.19 14.86 1.68 2.61 1.6 5.87 2.21 8.84 5.11.16 10.26-.22 15.39.19.24.47.71 1.41.95 1.88-23.85.34-47.7.05-71.54.14-13.48-.1-26.95.21-40.4-.15.23-.46.71-1.39.94-1.85 3.82-.43 7.7-.09 11.59-.19.6-2.92.38-6.16 2.14-8.72 3.47-5.59 6.88-11.22 10.39-16.79-.02-1.61-.03-3.22.11-4.83.93.2 1.94.12 3.01-.24-7.25-.27-13.69-5.68-15.83-12.49-2.61-7.34.25-16.09 6.53-20.64 3.48-2.53 7.61-3.94 11.48-5.83 13.65-6.58 27.46-12.86 41.1-19.46 10.1-17.02 19.48-34.55 29.24-51.81-4-5.79-4.76-13.81-.95-19.89m5.18-3.03c-6.11 4.95-7.47 14.52-2.92 20.96 2.59-4.37 4.83-8.96 7.57-13.26 2.57-4.17 8.07-6.31 12.77-4.73 5.66 1.55 9.29 7.89 7.75 13.57-1.45 4.44-4.01 8.39-5.82 12.66 4.39.45 8.94.54 13.19 2.06 2.24 1.05 4.72.31 7.17.66 1.74-4.54 3.73-8.99 5.53-13.52-.61-.24-1.84-.72-2.45-.96-.18-.53-.54-1.57-.72-2.09-9.54-3.85-16.03-12.46-24.89-17.43-5.48-2.73-12.56-1.94-17.18 2.08m10.35 4.5c-3.43.96-4.69 4.28-5.93 7.2-11.54 20.69-23.2 41.31-34.7 62.01 3.93-.41 8.12-.58 11.78 1.31 3.99 1.61 6.83 4.98 9.25 8.44 10.02-20.8 20.27-41.5 30.39-62.26.96-2.64 3.99-4.43 3.55-7.53.04-6.89-8.08-12.49-14.34-9.17m-40.77 71.39c-17.24 7.45-34.03 15.94-51.1 23.76-7.85 3.37-12.22 13.19-8.84 21.16 2.95 8.48 13.55 13.27 21.78 9.42 15.82-7.2 31.45-14.82 47.24-22.12 3.31-1.47 6.62-3.39 8.77-6.44 3.82-5.05 4.29-12.38 1.14-17.88-3.56-6.6-11.83-9.94-18.99-7.9m-21.13 48.36c-7.32 3.14-14.18 7.68-22.09 9.13 15.27.22 30.56.04 45.85.1 2.46-7.95 4.96-15.89 7.41-23.85-10.43 4.81-20.77 9.79-31.17 14.62m-26.16 11.16c-.14 1.48-.19 2.95-.18 4.43-4.03 4.36-6.4 9.91-9.73 14.75-2.09 2.69-2.25 6.15-2.8 9.35 26.32.05 52.65.03 78.99.01-.35-3.18-.56-6.53-2.54-9.19-3.33-4.97-5.94-10.44-9.8-15.03-.08-1.42-.09-2.84-.03-4.26-17.98-.17-35.95-.05-53.91-.06zM5398.32 29.32c5.31-5.97 14.84-7.54 21.78-3.51 8.83 5.32 15.76 13.63 25.59 17.32.59 2.91 5.11 3.39 5.1 6.24-1.25.37-2.43.7-3.56 1.01-1.06 3.03-2.28 6-3.51 8.95.69 1.31 1.36 2.63 2.18 3.94-2.18-.04-4.21-.1-6.25-.14-3.05 1.02-5.77-1.12-8.63-1.65-3.8-.67-7.65-.7-11.39-1.32-9.39 17.98-18.8 35.97-28.01 54.04.15 3.91 1.07 7.99-.45 11.78-1.5 4.96-5.43 8.62-9.73 11.24-2.48 8.15-5.11 16.26-7.53 24.43.87-.01 2.61-.02 3.48-.02.3 2.24-.12 4.76 1.37 6.69 3.02 4.92 6.07 9.83 9.13 14.74 1.71 2.65 1.68 5.96 2.29 8.98 5.16.21 10.4-.38 15.57.31l.7 1.76c-23.16.31-46.32.05-69.47.13-14.15-.1-28.29.21-42.41-.15.22-.45.68-1.36.9-1.82 3.83-.49 7.74-.1 11.64-.23-.15-7.25 4.83-12.66 8.22-18.57 1.37-2.31 2.8-4.61 4.29-6.89-.03-1.64-.01-3.27.13-4.9 1.13.32 2.1.24 2.93-.26-8.27-.23-15.28-7.29-16.46-15.29-1.4-7.68 2.82-15.87 9.76-19.4 16.82-8.09 33.86-15.82 50.63-24.02 10.25-16.75 20.02-33.82 30.14-50.67l-.11-.47c-4.55-6.71-3.99-16.37 1.68-22.25m1.93.99c-5.26 4.95-6.11 13.67-2.1 19.64 2.76-4.48 5.18-9.19 8.17-13.55 2.84-4.13 8.68-5.81 13.31-3.82 5.22 1.99 8.49 8.28 6.68 13.67-1.55 4.24-4.06 8.03-5.92 12.12 4.57.5 9.32.33 13.75 1.92 2.25.98 4.72-.17 7.09.6 1.73-4.42 3.34-8.9 5.35-13.22-1.45-.79-2.96-1.56-3.14-3.33-9.32-3.74-15.93-11.8-24.47-16.82-5.95-3.32-14.06-2.19-18.72 2.79m7.11 6.67c-2.36 6.3-6.63 11.68-9.77 17.6-9.34 15.77-18.66 31.55-28 47.31 3.78-.2 7.84-.4 11.37 1.43 4.14 1.64 6.98 5.22 9.54 8.73 10.45-20.67 21.32-41.13 31.92-61.74.91-2.23 3.37-3.77 3.49-6.34.57-5.91-4.91-11.77-10.93-10.94-3.1-.12-5.64 1.85-7.62 3.95m-38.24 67.22c-17.23 7.43-34 15.92-51.06 23.73-7.89 3.36-12.32 13.2-8.92 21.2 3.01 8.7 14.02 13.41 22.32 9.19 16.35-7.54 32.6-15.32 48.92-22.96 7.93-3.48 12.08-13.56 8.52-21.54-2.98-7.59-11.99-11.86-19.78-9.62m-24.86 50.12c-6.05 2.67-11.81 6.28-18.39 7.4 15.27.19 30.54.02 45.83.08 2.48-7.95 4.96-15.89 7.42-23.86-11.65 5.42-23.24 10.93-34.86 16.38m-22.42 9.41c-.1 1.41-.21 2.81-.31 4.2-3.77 4.87-6.63 10.34-9.96 15.49-1.9 2.57-1.92 5.85-2.49 8.84 26.32.05 52.65.02 78.98.01-.34-3.17-.55-6.5-2.5-9.15-3.35-4.98-5.96-10.47-9.83-15.06-.09-1.43-.1-2.85-.04-4.28-17.95-.15-35.91-.04-53.85-.05zM5748.57 30.52c4.98-6.13 14.25-8.23 21.34-4.62 8.79 4.65 15.66 12.53 25.11 16.03 1.57.64 2.42 2.34 3.9 3.3.98 1.09 2.78 1.68 3.11 3.31-1.33.41-2.49.76-3.68 1.1-.97 3.11-2.27 6.1-3.12 9.22.45 1.38 1.28 2.64 1.96 3.97-4.12-.52-8.35.81-12.23-.75-4.77-1.55-9.87-1.01-14.74-1.5-9.48 18.11-19.29 36.04-28.74 54.15 2.54 8.82-2.05 18.33-10.04 22.5-2.48 8.15-5.12 16.26-7.53 24.43.87-.01 2.6-.04 3.46-.05.32 2.27-.1 4.81 1.42 6.76 3.02 4.92 6.07 9.83 9.13 14.75 1.69 2.64 1.65 5.92 2.26 8.92 3.89.04 7.82 0 11.77-.01 1.59.25 4.49-.69 4.51 2.09-31.82.3-63.64.03-95.45.13-5.51-.04-10.99.12-16.44-.16.19-1.42.97-2.09 2.34-2 3.36-.13 6.76 0 10.19-.04-.14-7.25 4.83-12.66 8.23-18.58 1.38-2.32 2.82-4.63 4.31-6.93-.05-1.63-.05-3.26.08-4.88.92-.02 1.94-.04 3.04-.06-7.85-.55-14.75-6.71-16.33-14.37-1.98-7.97 2.26-16.8 9.54-20.5 16.86-8.08 33.88-15.88 50.71-24.01 10.53-16.62 20.49-33.64 30.76-50.45-4.31-6.53-4.17-15.81 1.13-21.75m-1.63 7.46c-1.38 4.15-.15 8.53 1.57 12.38 3.94-4.82 5.99-11 10.43-15.43 5.62-5.23 15.94-2.4 18.04 5.04 2.43 6.88-3.26 12.76-5.83 18.66 4.9.3 9.96.01 14.73 1.58 2.15.73 4.48-.19 6.78.3 1.13-4.57 3.69-8.8 4.44-13.41-2.73-4.11-7.85-4.77-11.41-7.8-5.72-3.88-10.96-8.53-17.09-11.73-8.44-4.22-19.59 1.31-21.66 10.41m13.53-2.65c-2.21 1.36-2.71 4.07-4.04 6.08-12.2 20.18-24.49 40.3-36.64 60.49 8.36-1.51 16.65 3.03 20.73 10.32 9.38-17.8 18.89-35.52 28.35-53.27 2.32-4.1 4.03-8.59 7.19-12.18 2.56-5.89-2.33-12.28-8.08-13.68-2.58.59-5.42.55-7.51 2.24m-41.36 68.87c-17.07 7.35-33.67 15.79-50.58 23.5-6.38 2.66-10.99 9.33-10.48 16.32.2 8.32 7.55 15.65 15.88 15.83 4.34.37 8.25-1.87 12.09-3.61 12.07-5.68 24.14-11.38 36.22-17.05 3.92-1.98 8.2-3.41 11.75-6.11 6.19-4.81 8.04-14.24 4.06-21.01-3.56-6.58-11.8-9.87-18.94-7.87m-28.88 52.04c-4.66 2.13-9.22 4.73-14.34 5.41 15.26.33 30.54.07 45.82.14 2.46-7.95 4.96-15.89 7.41-23.84-12.99 6.05-25.94 12.17-38.89 18.29m-18.38 7.49c.87 4.38-2.86 7-4.62 10.49-3.26 5.78-8.09 11.04-8.15 18.04 26.32.05 52.65.03 78.98.01-.35-3.16-.54-6.49-2.5-9.14-3.34-4.99-5.96-10.47-9.82-15.07-.1-1.43-.12-2.86-.05-4.28-17.96-.14-35.9-.04-53.84-.05zM6427.22 28.24c4.21-3.63 10.46-5.16 15.73-2.96 3.94 1.31 7.2 4.03 10.99 5.76 2.52.72 5.36.02 7.89 1.18 2.17 1.04 3.44 3.25 5.23 4.86 7.43.47 14.63 2.6 21.97 3.89 2.08.13 3.68 1.52 5.04 3.07 2.89-.66 5.82-1.56 8.9-1.09 2.16.79 3.99 2.35 5.97 3.63 5.74-2.13 12.02-2.1 18.09-1.78 2.63.79 5.29 1.41 8.15 1.39-.03 1.99-.05 3.97.02 5.96-8.23 2.78-16.97.72-25.39 1.59-1.62 2.01-3.42 3.97-5.67 5.18-3.52 1.02-7.15.09-10.67.29-1.63 2.02-3.46 4.9-6.41 4.41-4.42-.69-8.74-1.78-13.08-2.59-3.58-.8-7.42-.98-10.4-3.23-3.98 7.36-6.25 15.53-9.53 23.2-3.43 8.91-7.07 17.73-10.32 26.7 5.72 8.21 5.07 20.74-2.52 27.58-4.24 3.32-9.29 5.38-13.66 8.44-2.16 5.75-2.93 11.95-4.61 17.85 1.38.02 2.94.09 4.5.12-.66 5.76 3.69 9.93 6.25 14.61 2.05 3.88 5.47 7.26 5.89 11.84.2 1.29.26 2.59.6 3.89 4.61.09 9.27-.07 13.94.06 1.28-.12 2.07.55 2.37 2.02-25.5.31-51 .04-76.49.13-11.82-.09-23.64.21-35.44-.15.2-1.42.97-2.09 2.32-2 3.37-.12 6.77 0 10.22-.04.57-2.92.38-6.15 2.14-8.72 3.47-5.59 6.88-11.23 10.41-16.81-.07-1.53-.09-3.07.02-4.6-4.55.09-9.52-.32-12.92-3.62-9.27-8.32-8.28-25.61 2.64-32.1 10.52-6.15 21.03-12.33 31.56-18.49 4.96-2.79 9.78-6.76 15.88-6.22 8.38-14.15 17.62-27.84 24.93-42.6-5.06-2.29-9-6.89-10.14-12.35-1.93-6.53.6-13.83 5.6-18.3m7.32-1.49c-8.2 1.8-13.25 11.33-10.95 19.23.97 4.96 4.57 9.11 9.19 11.12 3.33-6.35 6.47-12.81 9.74-19.19 1.33-3.35 4.26-5.65 7.76-6.5-4.72-2.74-10.06-6.48-15.74-4.66m14.39 16.38c-8.97 20.15-18.07 40.23-27.02 60.37 5.71-2.59 13.3-2.93 18.48 1.1.52.11 1.92 2.1 2.11.47 7.59-19.61 15.39-39.14 22.86-58.8 2.3-5.99-2.39-14.14-9.33-12.88-4.15 1.5-5.42 6.15-7.1 9.74m-3.73-6.12c-3.79 6.74-7 13.79-10.57 20.65-7.67 16.08-17.84 30.77-26.74 46.16-2.22 4.18-5.95 7.37-7.57 11.86.44.69.96 1.38 1.57 2.07 5.48-3.55 11.25-6.62 16.83-10.06-.58-.01-1.74-.05-2.32-.06 4.59-3.05 5.82-8.56 8.12-13.22 5.77-12.85 11.52-25.72 17.3-38.57 3.75-7.61 6.24-15.9 11.19-22.87-2.97.56-6.34 1.11-7.81 4.04m24.33 2.08c4.91 5.34 2.72 14.67-3.25 18.31 6.89 1.42 13.79 2.86 20.73 4.2 1.66.51 2.77-1.43 4.1-2.28-2.52-1.43-5.16-2.82-7.94-3.41.59-.57 1.26-1.15 2.01-1.72 2.2 1.12 4.5 2.24 6.8 3.37 2.57-.55 5.24-.52 7.95-.13 2.99.32 5.61-1.65 7.47-3.87.88-1.96.15-4.16-.45-6.1-1.67-.82-3.12-1.97-4.81-2.48-3.16-.47-6.07 1.36-9.14 1.07-2.74-.29-5.3-1.52-7.99-1.52 1.37-.37 2.61-.8 4.14-1.27-6.48-1.7-13.11-2.71-19.62-4.17m-1.56 1.36c.15 5.42-2.36 10.27-4.15 15.23 6.51-1.06 8.73-10.95 4.15-15.23m41.45 8.07c.04 1.04.17 2.09.39 3.13 7.68-.37 15.42.61 23.1-.67.11-.75.34-2.24.46-2.99-2.35-.01-4.96 1.33-6.61-.87-5.7-.95-11.83-.38-17.34 1.4m-114.83 60.17c-6.2 3.62-12.36 7.28-18.56 10.84-1.53.98-3.63 1.59-3.84 3.63-3.2.09-5.74 2.03-8.35 3.52-2.34 1.36-4.76 2.66-6.5 4.72-4.92 5.53-5.7 14.18-2.08 20.59 2.23 4.34 6.72 7.58 11.69 7.77 6.4.26 12.83-.07 19.27.16-10.44-7.58-11.02-25.39-.25-32.91 4.78-2.82 9.43-6 14.59-8.18-.83-.58-1.62-1.17-2.28-1.74.47-5.53 4.82-9.09 7.57-13.5-4.27.45-7.69 3.08-11.26 5.1m34.5-4.53c-11.04 5.72-21.53 12.5-32.35 18.64-3.9 2.45-8.19 4.3-11.65 7.32-8.26 8.13-6.44 25.01 4.98 29.28 4.54 1.19 8.51-2.24 12.32-4.23 9.66-5.68 19.34-11.35 29.02-17.02 2.97-1.83 6.3-3.29 8.76-5.91 6.4-6.64 6.14-18.44-.54-24.79-2.76-2.58-6.79-4.54-10.54-3.29m-21.76 51.15c-4.33 2.45-8.46 5.44-13.38 6.5 8.94-.02 17.89-.01 26.85-.01 1.43-5.57 2.66-11.2 4.11-16.78-5.89 3.41-11.74 6.85-17.58 10.29m-40.08 18.89c-3.27 5.79-8.12 11.04-8.17 18.06 26.32.05 52.65.03 78.98.01-.34-3.18-.56-6.52-2.52-9.18-3.34-4.94-5.89-10.43-9.78-14.94-.13-1.48-.22-2.95-.12-4.42-17.95-.01-35.89-.05-53.82.02.73 4.28-2.77 7.01-4.57 10.45zM6089.43 38.38c1.98-8.13 10.26-14.19 18.65-13.38 5.85.48 10.46 4.49 15.33 7.4 4.25 2.49 8.1 5.84 12.92 7.3 1.89.64 3.86 1.28 5.25 2.92 1.36 1.95 3.37-1 5.21 0 7.35 2.07 14.7 4.18 22.05 6.35 1.67.23 1.55 2.42 2.34 3.62 3.12.89 6.37 1.21 9.67 1.07 4.1-.14 6.11 4.51 10.19 4.73 4.39 1.53 8.01-2.13 11.84-3.7 3.57.61 7.2.94 10.8 1.77 1.95 1.23 3.52 3.07 4.97 4.92 1.02 3.1-2.66 3.93-4.63 5.04-3.4-4.76-10.2-5.45-14.74-1.97 1.82 1.9 3.56 4.53 6.59 4.4 2.81.91 5.47-.47 8.01-1.71 1 1.06 2.17 2.11 3.34 3.15.2 2.06-.53 3.73-2.54 4.37-4.41 3.3-9.85.89-14.67.19-2.88-1.55-4.44-4.76-7.18-6.45-1.72-.39-3.43-.54-4.99-.76-1.99 1.04-4.07 1.77-6.01 2.69-5.12-.1-9.75-2.85-14.91-2.29-.99 1.08-1.97 2.15-2.85 3.21-8.27-2.48-16.62-4.69-24.84-7.26-.77-.98-1.19-2.16-2.2-2.79-1.07.3-2.06.63-2.94 1.01-4.04-1.12-8.19-1.76-12.33-1.57-9.02 17.09-18.13 34.15-26.78 51.41 1.71 5.75 2.19 12.31-1.13 17.61-2.79 5.2-8.33 7.79-13.48 10-2.37 7.28-4.68 14.6-6.51 22.04.88-.03 2.65-.07 3.53-.1-.56 5.5 3.32 9.58 5.88 14.01 1.49 2.52 3.09 4.99 4.65 7.5 1.68 2.64 1.66 5.93 2.26 8.93 4.6.07 9.22-.07 13.88.04 1.31-.14 2.12.53 2.43 2.03-29.83.32-59.65.04-89.47.13-7.5-.06-15 .17-22.46-.15.2-1.41.96-2.08 2.31-2 3.37-.13 6.78 0 10.23-.04.6-2.94.37-6.21 2.18-8.78 3.45-5.56 6.83-11.18 10.35-16.71-.05-1.54-.05-3.07.08-4.6-6.94-.41-13.64-4.46-16.37-10.97-4.19-8.65-.36-20.06 8.24-24.39 15.4-7.67 30.99-14.98 46.46-22.55 2.48-1.55 6.25-1.44 7.68-4.41 9.45-14.69 19.5-29 28.38-44.05-4.2-4.57-6.38-11.11-4.67-17.21m3.91-3.94c-4.01 6-2.71 14.34 2.02 19.57 3.75-5.84 7.03-12.03 11.18-17.62 3.33-4.08 8.98-3.81 13.77-3.55-3.02-1.91-5.96-4.04-9.33-5.2-6.57-2.07-14.11.97-17.64 6.8m16.57 3.62c-.89-.58-2.02-1.03-2.57.1-4.47 7.22-9.01 14.41-13.32 21.73.61-.39 1.81-1.17 2.42-1.55 3.01-6.68 7.61-12.5 10.74-19.13.27.63.61 1.26 1.03 1.9-2.17 2.66-3.75 5.7-5.5 8.61-10.63 17.65-20.9 35.54-31.73 53.06 8.16-3.01 17.77.07 22.63 7.3 10.28-19.88 20.69-39.69 31.09-59.52 1.82-3.11 2.9-7.08 1.17-10.47-2.52-6.01-12.33-7.84-15.96-2.03m16.14-1.65c1.75 3.17 3.37 6.9 2.16 10.56-1.37 4.18-3.79 7.92-5.86 11.75 3.82-.32 7.64.34 11.41 1.23 1.32-.67 2.76-.83 4.36-.57 2.39-4.16 3.88-8.92 3.85-13.76-2.07-1.08-3.42-3.24-5.72-3.77-3.81-1.03-7.05-3.23-10.2-5.44m19.03 7.84c-1.29 2.82-1.55 5.93-2.32 8.88-.82 3.07-2.66 5.86-2.66 9.11 6.34 1.83 12.7 3.63 19.05 5.51 1.94.48 4.31 1.86 5.97-.18-3.52-2.29-7.17-4.44-11.18-5.62-4.76-1.23-5.78-8.25-2.07-11.19 3.38.62 6.75 1.36 10.27 1.43-3.73 1.04-5.93 4.58-5.54 8.36 3.23 1.56 6.2 3.68 9.55 5.11 4.62.63 9.38.89 13.84 2.54 1.75-.77 3.58-1.28 5.53-1.78.3-2.39.63-4.77 1.08-7.15-2.24-1.15-3.99-3.61-6.63-3.52-4.84.25-9.67-.93-13.87-3.26.47-.42 1.4-1.25 1.86-1.66-7.63-2.21-15.26-4.41-22.88-6.58m6.98 8.7c-.71 2.69-.39 5.72 2.19 7.32.34-2.27.98-4.49 1.85-6.64-1.39-.25-2.82-.47-4.04-.68m42.93 7.9c-2.72-.1-5.31-.7-7.94-.94-.34 1.81-.63 3.61-.77 5.42 2.6.45 5.33.54 7.93 1.42 2.29 1.72 3.97 4.13 6.22 5.97 3.14 1.09 6.52 1.18 9.83 1.87 1.69-.88 3.45-1.78 5.23-2.7-.73-.78-1.4-1.55-1.99-2.31-2.61 1.7-5.66 1.97-8.55 1.2-4.07-.26-6.22-4.07-8.64-6.77 2.41-1.4 4.86-2.91 7.56-3.9 3.79.14 8.15.43 10.58 3.86.79-.48 1.65-.96 2.58-1.45-1.39-1.43-2.6-3.1-4.24-4.15-2.24-.52-4.49-.8-6.68-1.15-4.22-1.22-7.39 2.51-11.12 3.63M6093 59.68c.42 1.7-1.01 2.95-1.62 4.35-9.14 14.47-18.78 28.62-28.07 42.98 2.21-1.2 5.21-1.75 6.4-4.3 8.32-13.92 16.46-27.96 24.95-41.78-.64-.41-1.19-.83-1.66-1.25m-20.41 45.05c-16.25 7.66-32.36 15.63-48.52 23.46-7.63 3.52-11.32 13.25-8.18 20.99 2.02 5.51 7.19 9.85 13.07 10.55 4.93.49 9.26-2.28 13.58-4.25 13.45-6.49 26.84-13.11 40.34-19.54 3.25-1.5 6.31-3.69 8.25-6.81 3.81-5.77 3.42-13.89-.94-19.26-3.95-5.27-11.45-7.78-17.6-5.14m-47.02 17.37c1.04.26 3.12.78 4.15 1.05 7.45-3.16 14.61-6.99 21.94-10.45 3.91-2.09 8.97-3.26 10.72-7.89-12.41 5.46-24.62 11.38-36.81 17.29m-14.11 7.41c-6.84 4.51-9.25 14.29-5.27 21.45 3 6.22 10.02 9.3 16.72 9.02-3.79-2.5-7.34-5.73-8.75-10.15-2.83-6.81-.77-15.05 4.46-20.13 2.95-2.91 7.01-4.11 10.46-6.35-6.7-1.11-12.24 2.95-17.62 6.16m34.66 26.7c-4.64 2.15-9.15 4.83-14.28 5.47 13.22.26 26.45.05 39.69.12 2.07-6.98 4.15-13.96 6.25-20.94-10.61 5.02-21.12 10.24-31.66 15.35m-24.28 7.52c.89 4.38-2.86 7-4.6 10.49-3.27 5.77-8.09 11.02-8.17 18.02 26.33.1 52.66.03 78.99.03-.34-3.19-.56-6.54-2.54-9.2-3.33-4.97-5.94-10.43-9.78-15.01-.1-1.42-.12-2.85-.05-4.27-17.95-.17-35.91-.05-53.85-.06zM2596.36 30.34c3.9-3 8.86-3.6 13.61-4.08 3.19.55 4.91 3.68 6.12 6.42-2.1 1.16-4.4 3.48-6.77 1.61 1.43 1.34 2.35 3.08 3.31 4.79-4.42 3.8-10.14 4.9-15.76 5.45-1.98-1.21-3.96-2.63-6.35-2.58-1.52 1.73-3.14 3.36-4.69 5.03-3.36 1-6.85 1.15-10.3 1.23-1.16 1.57-2.17 3.87-4.43 3.83-5.73.57-11.49.76-17.21 1.2 8.97 16.09 17.94 32.2 27.04 48.23 3.63.06 7.4.88 10.17 3.42 8.92 7.58 8.82 23.26-.22 30.71-4.23 3.06-9.07 5.11-13.38 8.01-1.85 5.91-2.93 12.04-4.52 18.01 1.45.01 2.94.03 4.45.05-.61 5.98 3.99 10.28 6.6 15.17 1.98 3.69 5.21 6.93 5.55 11.31.21 1.29.35 2.59.6 3.88 5.13.16 10.29-.24 15.42.21.23.47.67 1.4.89 1.87-30.51.31-61.02.04-91.53.13-6.81-.05-13.61.16-20.4-.15.24-.46.72-1.39.96-1.85 3.83-.42 7.71-.09 11.59-.2.58-2.91.39-6.14 2.13-8.7 3.48-5.59 6.87-11.23 10.4-16.79-.05-1.55.01-3.1.04-4.65-4.09.05-8.48-.15-11.85-2.71-10.41-7.61-10.02-25.76 1.01-32.63 11.64-6.92 23.67-13.29 35.14-20.46-3.85-11.08-7.11-22.43-12.12-33.07-1.8-4.08-3.65-8.14-5.35-12.25-4.27 1.11-8.68 3.24-13.11 1.74-9.15-2.2-14.79-12.56-12.5-21.53 1.61-7.74 8.9-14.19 17-13.7 4.37.51 8.51 2.13 12.78 3.21 11.72 4 24.22 1.39 36.29 1.16 4.98 3.73 10.6-.44 15.94-.58 4.05 3.11 9.57 2.24 13.45-.74m7.66-1.15c-5.4.74-9.06 5.98-14.7 5.96.4 1.54.72 3.09 1.07 4.64 2.62-.32 4.75 1.3 6.84 2.65 4.48-.54 9.12-1.18 12.84-3.98-.69-.96-1.4-1.92-2.05-2.87-2.48 1.6-5.24 2.73-8.17 2.99-1.25.33-3.87.48-3.71-1.4 3.68-2.97 8.08-5.04 12.89-5.28 1.58.92 3.43 1.27 4.67-.45-1.23-1.14-2.42-2.25-3.67-3.3-2.02.4-4.02.72-6.01 1.04m-99.85 8.64c-4.12 7.83-.5 18.67 7.74 22.08 4.51 2.14 9.5.56 13.81-1.28-2.37-5.81-6.83-12.08-3.93-18.53 1.47-4.92 6.63-7.14 11.45-6.7-4.25-1.27-8.51-2.5-12.78-3.63-6.47-1.85-13.59 2.07-16.29 8.06m71.9-3.06c-3.31 1.06-6.72-.01-10.05-.04-3.34.21-4.87 3.43-6.96 5.5.05-2.75 2.16-4.65 3.97-6.45-4.64.57-9.32.47-13.94.95 2.73 4.18 3.86 9.35 2.19 14.19.34.6 1.02 1.81 1.36 2.42 6.32-.8 12.78-.34 19.06-1.56 2.63-1.74 2.17-5.39 2.46-8.14-2.05-.38-4.13-.98-6.18-.74-1.73-.05-4.18 1.3-4.78-1.04 4.05-1.39 8.44-1.17 12.42.42.34 1.84.27 3.73.31 5.6 2.78-.16 5.72.37 8.41-.7 2.26-1.59 5.1-4.05 3.87-7.18-.09-2.38-2.38-3.23-4.15-4.1-2.58-1.51-5.45.14-7.99.87m-34.28-.82c3.39 3.68 5.57 8.19 8.23 12.38.03-2.52.29-5.23-.86-7.57-1.24-2.95-4.73-3.68-7.37-4.81m-8.43 2.3c-4.47 3.32-5.04 10.09-2.63 14.81 5.49 10.6 10.73 21.33 15.88 32.11 4.49 9.57 9.97 18.72 13.8 28.58-1.08-1.05-1.89-2.23-2.49-3.55-9.45-19.24-19.09-38.38-28.55-57.6-2.69-5.23-.93-11.42 2.73-15.69-2.26.6-4.85.74-6.5 2.54-2.89 3.03-3.62 7.76-2.03 11.59 4.55 10.86 9.6 21.5 14.13 32.37 4.08 11.92 8.28 23.81 12.25 35.77-.46 0-1.38.01-1.84.01-1.15-2.71-1.84-5.59-3.01-8.27-7.93 4.28-15.74 8.81-23.44 13.48 5.84.6 11.94-.81 17.66.76-3.88.31-7.78-.07-11.62.44-3.38-.25-7.13-1.07-10.11.97-4.51 2.67-9.86 4.82-12.39 9.74-5.18 8.68-1.33 22.13 8.86 24.98 6.96 1.19 14.09.2 21.14.63-1.1-1-2.19-1.97-3.17-3.01-7.94-8.47-6.6-24.19 3.57-30.33 10.55-6.19 21.27-12.1 31.77-18.38.08-.56.25-1.68.33-2.24 3.38-2.01 6.88-4.1 10.93-4.39-11.53-20.5-22.97-41.04-34.5-61.54-1.73-3.91-7.03-6.24-10.77-3.78m45.02 68.1c-13.98 7.52-27.58 15.76-41.41 23.57-10.95 6.13-10.92 24.62.15 30.61 3.25 2.21 7.37.86 10.46-1 13.11-7.5 26.2-15.05 39.31-22.57 8.2-4.81 10.38-16.59 5.35-24.42-2.8-4.47-8.51-8.2-13.86-6.19m-22.66 51.52c-4.1 2.25-8.01 5.15-12.76 5.77 9.27.34 18.56.07 27.86.17 1.49-5.63 2.75-11.31 4.17-16.95-6.48 3.58-12.85 7.34-19.27 11.01m-38.46 18.32c-3.27 5.78-8.11 11.05-8.18 18.07 26.33.05 52.65.02 78.98.01-.32-3.18-.54-6.53-2.52-9.18-3.34-4.96-5.9-10.44-9.8-14.99-.07-1.46-.11-2.92-.09-4.37-17.95-.01-35.89-.05-53.83.02.76 4.28-2.75 7-4.56 10.44zM8144.39 33.53c5.21-1.53 10.3-3.59 15.66-4.74 5.78-1.15 11.44 1.74 15.45 5.78 3.41 1.83 6.88 4.36 7.69 8.45 1.61 5.39-1.59 10.42-3.93 15.02-8.49 16.79-17.31 33.42-25.48 50.36 10.72 5.48 21.3 11.21 32.01 16.73 3.24 1.6 6.44 3.69 8.47 6.82 5.63 8.05 4.18 20.41-3.74 26.45-3.61 3.05-8.5 3.53-12.98 3.58-.8 4.9 2.74 8.55 5.02 12.47 1.73 2.93 3.58 5.82 5.4 8.74 1.64 2.62 1.6 5.88 2.23 8.85 5.15.23 10.4-.42 15.58.34l.68 1.74c-26.81.29-53.61.04-80.41.12-10.51-.09-21.01.2-31.48-.15.18-1.43.97-2.1 2.36-2.01 3.34-.11 6.73.01 10.18-.03.55-2.92.37-6.15 2.14-8.71 3.46-5.59 6.86-11.23 10.4-16.8-.08-1.61-.1-3.22.08-4.83 1.51-.01 2.9-.11 4.64-.1-1.58-6.45-3.35-12.85-4.86-19.31-4.06-2.31-8.39-4.08-12.21-6.69-7.7-5.6-9.71-17.13-4.98-25.26 2.59-4.69 7.4-8.28 12.87-8.68 2.92.19 3.81-3.1 5.49-4.92 8.49-12.42 18.13-24.09 25.6-37.19-4.79-2.32-10.2-1.86-15.1-3.47-4.74.39-9.36-1.04-14.01-.52-4.4.45-8.85-.13-12.86-1.83-4.35-1.88-9.08 1.05-13.39-.75-1.97-1.07-3.68-2.5-5.28-3.95-5.34-.92-7.44 6.39-12.58 5.79-3.07-.17-6.19.22-9.04-.76-2.3-1.25-3.85-3.43-5.59-5.22 1.31-1.25 2.63-2.61 4.4-3.42 1.84.32 3.26 1.79 4.7 3.03 1.22.06 2.6.11 4.08.16 1.83-1.45 3.7-2.94 5.5-4.56-1.35-1.35-2.62-2.68-3.87-4-1.55.01-3.01.02-4.36.02-1.35 1.04-2.76 2.06-3.93 3.09-2.27-1.05-4.11-2.6-5.7-4.38 1.76-1.82 3.75-3.44 5.82-5.04 3.29.09 6.63.01 10.02.3 4.2.39 5.44 6.51 9.91 6.04 3.37.38 5.48-3.42 8.91-3.13 2.84-.03 5.62 1.15 8.59.89 2.96-3.21 7.8-1.82 11.7-1.62 5 .81 10.72-2.14 15.28 1 4.37-3.33 10.04-1.66 14.92-3.7m13.83-2.24c-8.03 2.18-15.73 6.05-24.19 5.89-1.37.78-2.64 1.52-3.9 2.21-2.21 3.87-2.61 8.9-.29 12.81 2.73 3.07 6.94 3.01 10.77 3.51 6.14 1.65 12.02 4.21 18.18 5.97 6.34 1.96 13.61-1.46 16.65-7.29 4-6.86 2-16.59-4.58-21.11-3.66-2.56-8.45-3.32-12.64-1.99m-96.28 7.56c1.22 1.68 2.93 2.29 4.57.51 2.04-1.96 4.88-1.39 7.57-1.29 1.92 2.23 5.44 4.02 4.62 7.53-2.23 1.74-4.42 3.49-6.59 5.19-1.82-.1-3.51-.13-5.09-.43-1.79-1.12-3.42-2.68-5.6-2.44.54 1.88 1.83 3.53 3.66 4.45 3.18.59 6.5.32 9.83.41 2.28-1.94 4.65-3.82 7.08-5.68.9-.01 2.69-.03 3.58-.04-.03-1.68-.03-3.36.19-5.03l-3.88.08c-2.8-2.29-4.84-6.5-8.92-6.15-4.05-.49-8.26-.47-11.02 2.89m43.06-.77c-1.71 2.83-2.17 6.13-1.84 9.38 3.02.98 6.61.61 9.46 2.37-3.64 1.7-7.39-.2-10.93-.93-.68-2.96-.44-5.97.2-8.91-2.38-.06-4.67-.52-6.86-.87-2.76-.59-4.79 1.57-6.99 2.61-.74 2.24-.96 4.61-.01 6.83 1.39.86 2.67 1.84 4.11 2.86 3.3.61 6.57-.92 9.97-.31 3 .27 5.69 2.62 8.88 1.79 2.67-.29 3.8-3.91 6.75-3.43-1.11 1.67-2.3 3.14-3.69 4.46 4.79-.88 9.65-.17 14.53.12-2.98-4.83-2.21-10.67-.59-15.81-3.02-.46-6.01-.41-8.92-.05-4.72.51-9.41-.74-14.07-.11m72.75-.2c1.88 5.73 2.46 12.6-.94 17.9-1.62 3.07-4.76 4.78-6.94 7.28-5.02 8.33-9.21 17.13-14.61 25.21-5.19 7.88-10.14 15.9-15.37 23.72 2.5 1.29 5.11 2.53 7.42 4.31 10.94-21.68 22.13-43.26 33.05-64.96 2.49-4.44 1.05-10.13-2.61-13.46m-29.33 22.3c-8.63 14.42-19.14 27.59-28.71 41.36 2.48.61 5.55.76 7.48 2.84 3.27 3.62 8.24 4.85 12.27 7.5 3.88-7.6 9.07-14.47 13.55-21.74 5.88-8.65 10.54-18.02 15.82-27.04-7.02 2.67-13.88-.7-20.41-2.92m-35.92 44.51c-4.75 1.94-8.36 6.34-9.45 11.31-1.79 7.16 1.33 15.36 7.94 18.93 14.64 7.68 29.24 15.44 43.93 23.04 4.33 2.38 10.28 2.73 14.09-.91 6.93-5.97 8.28-17.32 2.65-24.6-2.79-3.87-7.41-5.51-11.38-7.73-12.27-6.39-24.47-12.91-36.75-19.26-3.35-2-7.52-2.36-11.03-.78m37.7 10.93c-.52.17-1.56.5-2.08.66 4.85 2.47 9.53 5.45 14.65 7.43 2.49-2.82 6.95.01 10.07-1.86-.2-1.37-2.01-1.32-2.73-2-5.98-3-11.83-6.21-17.73-9.29-.99 1.59-1.91 3.23-2.18 5.06m23.87 6.88c-2.89 2.23-7.04-.5-9.9 1.63-.25 1.39 1.66 1.33 2.6 2.03 4.41 2.09 7.84 6.12 9.31 10.81 2.89 8.37-.62 18.27-8.17 22.9 6.87-.38 14.8 1.43 20.64-3.36 8.39-6.38 8.3-20.67-.31-26.81-4.46-2.9-9.28-5.32-14.17-7.2m-52.14 20.93c1.35 6.15 3.12 12.2 4.55 18.35 10.89-.02 21.8.15 32.71-.1-4.06-.69-7.63-2.66-11.15-4.58-8.73-4.52-17.38-9.19-26.11-13.67m-.09 20.3c.88 4.38-2.88 7-4.61 10.5-3.27 5.77-8.1 11.02-8.15 18.03 26.32.05 52.65.02 78.98.01-.36-3.19-.57-6.54-2.53-9.2-3.32-4.97-5.97-10.38-9.74-15-.23-1.46-.24-2.92-.23-4.38-17.92.07-35.82-.01-53.72.04z"/>
    <path d="M7805.18 30.36c3.16.18-1.56 3.07 0 0zM2201.67 40.82c3.28-3.5 6.6-7.25 11.51-8.35 1.36.93 2.72 1.86 4.12 2.79 1.24 2.86-.58 5.01-2.6 6.81-.93-.39-1.82-.77-2.7-1.15-.48.38-1.44 1.14-1.93 1.52.9.89 1.92 1.68 2.69 2.75.85 1.59-.76 2.84-1.67 3.89-2.71 3.42-7.36 3.85-10.61 6.54 7.46 15.27 14.72 30.66 22.31 45.87 3.42.5 7.47-.87 10.46 1.31 6.16 6.79 7.24 16.9 5.02 25.52-2.35 8.54-9.89 13.9-14.98 20.71-1.01 4.13-1.12 8.42-1.44 12.64 1.82-.02 3.66-.04 5.54-.05-.55 5.5 3.35 9.57 5.89 14.01 1.76 3 3.77 5.85 5.42 8.92.89 2.39 1.01 4.98 1.48 7.48 5.11.15 10.24-.21 15.36.18.24.47.74 1.41.99 1.89-22.51.34-45.02.04-67.53.14-14.81-.1-29.63.21-44.43-.15.23-.46.71-1.39.95-1.85 3.83-.42 7.71-.09 11.59-.2.59-2.91.39-6.13 2.12-8.68 3.48-5.59 6.87-11.24 10.4-16.8-.01-1.57 0-3.13.07-4.69-1.79-.23-3.92 0-5.2-1.48-6.4-6.59-7.51-16.76-5.21-25.33 1.87-6.86 7.57-11.5 11.92-16.79 5.12-5.56 9.77-11.56 15.29-16.74-.97-5.16-1.06-10.52-2.87-15.5-2.13-6.21-4.1-12.48-6.26-18.68-3.74 3.5-7.81 7.87-13.35 7.79-7.56-.07-13.24-7.2-14.2-14.24-1.33-7.6 1.67-16.61 8.9-20.18 4.2-2.37 9.3-1.05 13.35 1.01 5.77 3.43 11.98-1.73 18.08.03 3.7-1.38 7.69-2.96 11.52-.94m1.34 1.58c.5.99 1.02 1.98 1.57 2.97 2.15-2.08 4.04-4.51 6.55-6.21 1.99-.02 4.12.17 5.05-2.06-1.08-.76-2.15-1.55-3.26-2.2-4.4.7-6.89 4.7-9.91 7.5m-51.33 16.58c.26 6.61 5.12 13.99 12.28 14.1 5.49.05 9.11-4.73 12.91-8-2.46-6.5-2.64-14.92 2.99-19.86-6.74 1.29-12.16-5.52-18.85-3.26-6.83 2.35-10.05 10.25-9.33 17.02m39.61-15.37c-2.25.31-4.58.36-6.46 1.71 2.67.17 5.37-.03 8.07.26 2.27.89 4.51 1.94 6.92 2.52.36 1.69.74 3.38 1.14 5.08 3.51-2.85 2.67-8.93-1.36-10.88-2.83-1.42-5.64.52-8.31 1.31m17.44.64c-1.18.87-2.39 1.66-3.65 2.32-.05 1.47-.08 2.93-.07 4.4 2.47-1.02 4.33-2.96 6.1-4.91-.84-.61-1.61-1.21-2.38-1.81m-29.65 4.73c-2.82 4.71-2.24 10.56-.43 15.54 2.7 8.48 5.78 16.86 8.28 25.41 1.84 10.79 3.25 21.66 4.94 32.48 3.72.09 7.44.07 11.18.13 2.48-2.69 5-5.36 7.49-8.06-7.14-16.18-14.13-32.42-21.22-48.61-2.66-5.88-2.45-12.88.18-18.72-3.41.59-8.05-1.42-10.42 1.83m11.83 15.89c7.03 16.04 13.97 32.12 21.01 48.15 3.1-3.31 6.11-6.73 9.25-10.03-8.37-17.38-16.82-34.72-25.2-52.08-.74-1.96-2.39-3.25-4.15-4.19-3.25 5.41-3.41 12.42-.91 18.15m30.52 40.61c-5.8 6.3-11.65 12.56-17.43 18.88-3.04-.2-5.98-1.27-9.03-1.09-7.85.22-15.69-.04-23.52.05 5.22-1.9 11.12-.35 16.62-.83.58-6 .36-12.07-1.31-17.9-7.83 8.28-15.33 16.88-22.73 25.53-3.39 7.21-3.21 15.76-1.23 23.35.8 3.7 4.35 6.42 8.14 6.34 11.65.13 23.3-.1 34.96.11-3.06-4.7-4.36-10.32-4.29-15.88-.11-6.33.72-13.3 5.1-18.22 6.67-7.51 13.36-15 19.94-22.59-1.93.31-4.02.53-5.22 2.25m-12.86 21.05c-4.26 4.33-4.97 10.71-5.2 16.48.21 5.85.75 12.48 5.29 16.75 3.56-1.66 5.84-4.93 8.44-7.74 5.31-6.03 10.64-12.03 15.97-18.05 4.62-5.5 4.82-13.37 3.6-20.12-.85-4.16-3.24-8.81-7.67-9.91-7.25 7.08-13.49 15.19-20.43 22.59m1.9 35.47c3.04-.25 6.12-.22 9.2-.2.28-3.38.7-6.73 1.12-10.09-3.51 3.36-6.21 7.6-10.32 10.29m-38.81 6.04c-4 4.43-6.43 9.98-9.79 14.87-2.07 2.69-2.22 6.14-2.79 9.34 26.32.08 52.65.02 78.98.02-.31-3.19-.55-6.55-2.54-9.21-3.29-4.96-5.94-10.36-9.72-14.97-.13-1.47-.18-2.94-.24-4.4-17.94.08-35.88-.05-53.81.07-.04 1.42-.1 2.85-.09 4.28zM8503.06 46.26c10.44.38 19.86-5.02 30.04-6.46 10.15-1.25 19.96 8.04 19.32 18.26.08 9.16-7.9 16.67-16.71 17.61-11.09 11.77-21.84 23.87-32.75 35.8 10.31 4.8 20.81 9.23 30.84 14.66 5.19 2.44 9.33 7.24 10.51 12.93 2.85 10.73-5.82 22.21-16.82 22.77-.75 5.18 3.02 9 5.41 13.17 1.62 2.75 3.36 5.47 5.08 8.22 1.62 2.61 1.58 5.86 2.2 8.82 5.15.23 10.41-.42 15.59.34l.68 1.73c-26.48.31-52.97.05-79.45.13-10.83-.09-21.65.2-32.44-.15.24-.47.72-1.39.96-1.86 3.79-.41 7.67-.08 11.58-.18.55-2.91.36-6.14 2.13-8.7 3.46-5.59 6.87-11.23 10.4-16.8-.07-1.63-.08-3.26.12-4.88 1.33-.01 2.75-.02 4.29-.03-2.42-7.53-4.34-15.24-6.99-22.67-4.04-2.12-8.42-4.08-10.95-8.04-6.08-8.06-3.8-20.74 4.69-26.2 2.87-2.38 6.79-2.41 10.12-3.75 11.7-10.79 23.57-21.42 35.08-32.43-2.72.07-4.99-1.22-7.28-2.24-2.76.76-5.63 1.03-8.26.11-6.39-1.96-13.12 1.35-19.44-.79-3.9-1.38-8.04-1.16-11.96-.45-3.04.55-5.36-1.45-7.79-2.7-.3-.41-.9-1.25-1.21-1.67-1.77-.01-3.42-.01-4.96-.02-1.77 1.37-3.42 2.76-5.07 4.11-2.92 3.07-7.45 1.47-11.09 1.8-3.79.56-6.03-3.01-8.65-4.97 1.38-1.47 2.83-3.02 4.78-3.94 1.51.75 2.81 1.97 4.23 3.07 1.82.04 3.72.07 5.74.09 1.7-1.45 3.42-2.94 5.06-4.57-1.74-1.44-3.31-3.02-5.12-4.21-2-.54-3.98-.26-5.83-.32-1.44 1.11-2.88 2.22-4.28 3.12-1.98-.82-3.34-2.4-4.73-3.8 2.14-1.73 4.07-4.04 6.74-5.09 3.62-.25 7.32-.01 11.06.02 2.33 1.95 4.74 3.86 7.06 5.92 2.03-.08 4.46.55 6.44-.68 2.13-.91 3.98-2.82 6.57-2.64 2.64-.16 5.23 1.09 8.02.71 2.72-.03 5.33-1.17 8.09-1.63 3.94-.4 7.76 1.78 11.79.9 3.9-.77 8.18-1.99 12 .11 1.68-.7 3.55-1.39 5.16-2.53m18.91-1.57c-5.33 1.32-10.47 3.69-16.01 3.5-2.38-.22-4.05 1.71-6.13 2.2-1.11 4.63-1.18 9.51 0 14.13 1.35.15 2.83.74 3.91 1.91 10.58-.14 20 5.71 30.37 7.04 9.18.47 17.42-8.28 16.32-17.45-.72-6.99-6.49-13.12-13.45-14.08-5.22-.79-10.12 1.52-15.01 2.75m-94.97 3.4c-1.38 1.07-2.72 2.15-3.93 3.22.43.36 1.27 1.07 1.7 1.42 3.19-3.74 9.6-4.28 13.25-.86 1.7 1.57 4.59 3.02 3.71 5.86-1.79 2.21-4.27 3.67-6.41 5.4-3.8.1-7.77.1-10.3-3.09-.47.41-1.39 1.25-1.85 1.67 3.39 4.37 9.05 2.71 13.86 3.01 1.91-1.59 3.83-3.26 5.9-4.79 1.87-1.88 4.72-.97 7.21-1.2-.07-1.51 0-3.03.2-4.54-2.12-.04-4.13-.07-6.05-.13-2.42-2-4.66-4.23-7.27-5.84-3.39-.27-6.74-.09-10.02-.13m44.95 2.2c-.83 3.29-.96 6.69-.69 10.06 1.41.36 3.21.67 3.92 2.34-1.93-.05-3.74-.26-5.48-.51-.41-3.67-.38-7.37.05-11.04-3.29.15-6.55.67-9.68-.13-3-.95-5.38 1.49-7.91 2.47-.12 2.3-.13 4.6.01 6.9 1.47.78 2.99 1.58 4.51 2.56 5.11.02 10.45-1.15 15.43.89 3.71 2.02 7.1-1.45 10.64-2.34-.41.63-1.22 1.87-1.63 2.5 5.51-1.5 10.91 1.93 16.4.48-.29-4.51-.79-9.06.21-13.55-5.47-3.09-11.27 1.03-16.89-.28-2.96-.68-6-.59-8.89-.35m35.75 19.48c-11.41 10.72-22.9 21.34-34.52 31.81 5.93 1.57 11.28 4.73 16.88 7.25 3.68 1.46 7.55 5.52 10.49-.5-.76 1.23-2.28 3.7-3.04 4.93 2.43-.98 3.92-3.26 5.71-5.12 4.33-4.8 8.78-9.5 12.99-14.43-2.16 1.12-3.57 2.94-5.12 4.55l-.75-.66c7.55-6.95 13.95-15.07 21.5-22.03-6.15-2.45-12.61-3.93-18.84-6.02-1.84-.42-4.07-1.68-5.3.22m8.26 23.41c.43.61.43.61 0 0m-55.75 15.03c-5.7 5.26-6.78 14.55-2.42 20.96 2.26 3.81 6.3 5.94 10.26 7.67 14.7 6.93 29.33 14.01 44.04 20.93 5.22 2.6 12.4 3.36 16.98-.98.38.85.8 1.68 1.43 2.51 3.49-1.5 6.88-3.62 9.04-6.9 5.12-7.31 2.83-18.56-4.86-23.15-4.2-2.44-8.32-5.36-13.12-6.27 3.06 3.28 8.1 3.85 11.02 7.47 7.51 7.46 6.27 20.63-1.63 27.35-.54-.59-.97-1.17-1.28-1.75 7.26-4.36 8.23-15.41 3.58-22.08-2.57-4.09-7.11-6.06-11.26-8.02-14.55-6.83-29.02-13.82-43.54-20.68-5.93-2.98-13.6-1.77-18.24 2.94m40.34 4.7c2.01 2.71 5.63 3.34 8.51 4.96 4.15 1.72 7.97 4.57 12.58 5.15-2.46-2.35-5.79-3.27-8.7-4.72-4.16-1.8-8.1-4.07-12.39-5.39m-30.86 27.06c2.09 7.3 4.33 14.56 6.53 21.84 14.01-.11 28.03.19 42.05-.17-5.48-.62-10.18-3.58-15.06-5.76-11.17-5.33-22.32-10.69-33.52-15.91m2.1 23.76c-.21 1.48-.24 2.96-.19 4.45-3.9 4.14-6.15 9.47-9.34 14.1-2.29 2.86-2.71 6.5-3.18 9.97 26.32.07 52.65.03 78.98.02-.37-3.17-.55-6.51-2.51-9.16-3.34-4.99-5.98-10.45-9.81-15.06-.14-1.43-.15-2.86-.06-4.29-17.97-.1-35.93-.03-53.89-.03zM2997.9 42.94c4.03-1.43 8.87-1.61 12.78.32.62 2.12-2.43 1.68-3.65 1.92-3.13-.21-7.05.71-9.13-2.24zM5800.59 45.79c.37-1.3 1.15-1.72 2.35-1.26 8.01 2.72 15.99 5.62 23.96 8.55-.4.9-.75 1.81-1.03 2.71 3.06 1.87 6.47 3.14 10.12 3.4 3.85.34 5.85 3.88 8.35 6.38 1.13.36 2.34.72 3.62 1.09 2.89-1.18 5.8-2.35 8.78-3.45 3.04 1.04 6.18 1.93 9.26 3.03 3.15 1.02 3.96 4.77 5.76 7.22-1.66.93-3.36 1.75-4.99 2.55-1.74-1.25-2.99-2.94-4.05-4.71-3.76-2.02-7.56-.46-10.92 1.49 1.45 3.53 3.76 6.65 7.93 6.94 1.43-.67 3.03-1.34 4.6-2.01 1.72 1.56 3.05 3.5 4.24 5.53-2.43 1.2-4.83 2.65-7.48 3.02-2.94-.68-5.76-1.69-8.55-2.64-3.86-1.08-4.91-5.43-6.9-8.38-1.29-.42-2.43-.85-3.58-1.26-2.33.87-4.7 1.41-6.99 2.1-2.32-.66-4.77-1.07-6.54-2.73-2.75-.95-5.59-1.61-8.43-1.51-3.95-2.87-8-5.68-12.53-7.49-2.24-.82-3.72-3.07-3.8-5.38-.49-3.97 4.41-6.83 7.88-5.45 4.48 1.57 9.27 1.61 13.98 2.26-.96-1.96-3.1-2-4.72-2.79-6.81-2.34-13.56-4.81-20.32-7.21m5.24 12.24c-.63 2.91 2.2 4.47 4.41 5.52.34-2.68 1.06-5.33 2.78-7.51-2.51-1.33-6.34-1.18-7.19 1.99m7.36 6.78c3.16 2.44 6.63 5.04 10.81 5.27 3.89.38 7.11 2.76 10.83 3.84 1.61-.58 3.4-1 5.23-1.31l-.97-1.68c2.52.84 5.08 1.67 7.7 2.46 1.69 2.55 2.9 5.5 5.07 7.75 2.95 1.35 6.18 2.08 9.28 3.21 1.47-.58 2.99-1.16 4.52-1.9-.38-.61-1.13-1.84-1.51-2.45-1.51.63-2.96 1.26-4.36 1.88-2.44-1.01-5.78-.95-7.12-3.51-1.24-2.2-3.89-4.85-1.74-7.34 2.16-1.44 4.79-2.13 7.21-3.22 2.47.98 5.83 1.02 7.24 3.72.73 1.67 1.89 2.39 3.74 1.44-.9-1.49-1.72-3.02-2.78-4.32-3.09-1.42-6.42-2.16-9.55-3.3-2.98 1.14-5.93 2.31-8.84 3.49-2.18-.7-4.28-1.39-6.37-2.08-.99-1.54-1.96-3.04-2.87-4.57-4.51-1.35-9.56-1.46-13.34-4.54-2.2-1.96-5.54-3.18-8.26-1.78-3.4 1.26-5.67 5.65-3.92 8.94zM5449.8 46.58c.33-.38.99-1.16 1.33-1.54 7.26 2.5 14.31 5.64 21.53 8.32 1.08.71 4.02 1.02 2.61 3.05-8.63-2.87-16.95-6.67-25.47-9.83zM6477.42 46.18c2.02-.74 4.2-.7 6.42-1.08-1.62 1.4-3.69 2.63-4.05 4.86-1.02 2.47 1.91 4.35 4.21 4.11-.92.59-1.75 1.18-2.5 1.77-3.59-1.61-5.18-6.04-4.08-9.66zM1818.94 54.05c2.97-2.19 3.22-6.2 5.63-8.87 2.43.99 4.94 2.25 7.67 1.53 5.28-1.02 10.07 2.64 12.51 7.05 4.37-.85 8.77-1.51 13.25-1.23 2.29.26 5.49-.81 6.97 1.6 1.5 2.67 1.29 5.9 1.47 8.86-.23 12.85-1.24 25.67-1.66 38.51 1.72.08 3.47.16 5.23.18 2.29 2.78 4.34 5.84 4.71 9.55 1.86 10.56 5.49 20.94 5.2 31.78-.03 6.37.18 13.62-4.87 18.35 3.34-.23 2.4 3.29 2.89 5.42 3.34 6.03 7.32 11.71 10.73 17.71.9 2.4 1.06 5.03 1.52 7.55 5.13.15 10.29-.25 15.42.2.22.47.66 1.4.87 1.87-25.15.32-50.32.04-75.47.13-12.15-.09-24.3.2-36.44-.15.23-.46.69-1.38.93-1.84 3.84-.44 7.73-.09 11.61-.21.59-2.93.39-6.18 2.15-8.74 3.47-5.58 6.88-11.2 10.37-16.77 0-1.61.04-3.22.11-4.83 2.27-.05 4.55-.08 6.86-.2-1.63-3.12-3.68-6.1-4.01-9.71-1.81-10.26-5.36-20.31-5.07-30.84.01-4.06-.03-8.17.77-12.17.48-2.91 2.78-4.96 4.56-7.15 2.43-.03 4.88-.11 7.35-.11.37.77.77 1.55 1.19 2.32 3.68-8.71 7.82-17.23 11.6-25.9-2.87 2.2-6.07 4.67-9.91 4.25-6.43-.32-10.96-6.3-12.29-12.17-.34-2.88-3.56-4.02-4.28-6.71-1.16-3.21-.13-7.02 2.43-9.26m6.17-6.41c-.69 1.46-1.33 2.92-1.86 4.42 1.57-1.04 2.98-2.3 4.37-3.58-.86-.27-1.7-.55-2.51-.84m-2.5 10.82c-2.17 4-.46 8.56.61 12.63 1.51 5.03 6.19 10.02 11.89 8.94 4.1-.49 6.39-4.25 8.74-7.19 1.48-.23 2.96-.08 4.51-.09.47-4 .48-8.04.41-12.07.6-.06 1.79-.17 2.38-.22-.58-.01-1.75-.03-2.34-.04-.18-1.69-.33-3.37-.52-5.06-1.77.42-4.3 1.68-5.26-.61-2.13-3.45-5.59-6.61-9.94-6.14-5.36.37-8.5 5.43-10.48 9.85m-3.19 6.57c-.12-4.12 1.57-7.81 3.42-11.37-4.52 1.82-5.97 7.35-3.42 11.37m32.2-10.31c1.12 8.71.5 17.51-1.35 26.07-3.41-.73-.21-4.9-.59-7.04-1.45.45-2.89.88-4.32 1.27-.52 2.71-1.13 5.41-2.35 7.89-3.71 8.1-7.23 16.29-11.19 24.27 1.37 4.58 1.24 9.78 3.87 13.87 2.92-9.11 6.98-17.82 10.45-26.73.51-4.61 1.57-9.13 2.21-13.72.45.06 1.36.16 1.81.21-1.02 5.36-1.65 10.82-3.25 16.05-2.45 5.63-4.55 11.42-7.1 17-.5 1.55-1.02 3.08-1.45 4.64l-.79-.22c-.17 1.42-.27 2.85-.43 4.28 7.84-.1 15.68-.02 23.53-.05.91-13.8 1.43-27.63 2.23-41.45.14-8.76 1.73-17.58.26-26.31-3.86-.13-7.71-.12-11.54-.03m-26.55 48.91c1.58 8.77 3.89 17.4 5.32 26.19 1.01 9.95.94 20.05-.39 29.97 13.34.11 26.68.03 40.02.05 1.76.12 4.48-.31 4.41-2.63.78-7.35.79-14.77.46-22.16-.18-7.49-2.48-14.69-3.84-22.02-.78-2.89-.92-6-2.15-8.75-1.4-.51-2.89-.71-4.3-.98-1.69 6.29-.16 12.64-.28 19.01 1.7.16 3.59.11 5.18.95-4.57-.43-8.93 1.24-13.47 1.01-7.43-.06-14.86.01-22.27-.04-1.75-6.9-3-13.91-4.81-20.79-1.32.06-2.61.12-3.88.19m-2.68 1.71c-2.19 1.93-2.42 5.02-2.6 7.73-.36 7.33-.53 14.81 1.32 21.97 1.58 6.83 2.72 13.78 4.56 20.54.25 1.28 2.99 4.7 2.83 1.55.91-11.98 1.32-24.27-1.68-36.01-1.33-5.46-2.05-11.09-3.75-16.46l-.68.68m40 2.5c-.3 5-.66 10.02-.57 15.04l1.7-.83c.49-4.75.02-9.59-1.13-14.21m-40.55 55.89c-.05 1.41-.16 2.82-.32 4.23-3.77 4.85-6.61 10.32-9.95 15.45-1.89 2.57-1.89 5.85-2.49 8.85 26.32.05 52.65.02 78.99.01-.32-3.16-.54-6.5-2.51-9.15-3.31-4.98-5.96-10.41-9.76-15.03-.12-1.47-.18-2.94-.25-4.4-17.9.07-35.81-.01-53.71.04zM1497.34 56.38c5.12-2.5 10.54-6.59 16.54-4.91 3.78.45 6.26 3.52 9.11 5.69 4.21.66 8.87-.93 12.82 1.05 5.69 4.51 5.94 13.75 1.85 19.43-7.28 10.51-14.68 20.94-21.94 31.47 6.7 5.7 13.54 11.24 20.28 16.89 4.99 4.06 6.55 10.83 6.82 16.96-.16 6.01-1.58 12.61-6.14 16.86-2.49 2.3-6.04 1.93-9.14 2.12-.43 3.54 1.03 6.64 3.09 9.41 3.69 6.66 9.5 12.62 9.55 20.69 5.12.15 10.27-.23 15.39.18.23.47.7 1.41.93 1.88-25.52.33-51.05.05-76.57.14-11.79-.09-23.59.21-35.37-.15.24-.47.72-1.39.96-1.85 3.84-.42 7.72-.09 11.59-.2.59-2.91.39-6.14 2.12-8.69 3.48-5.6 6.9-11.23 10.4-16.81.01-1.62.04-3.24.11-4.86 1.91-.03 3.84-.05 5.79-.06-.93-4.84-1.18-9.86-2.48-14.6-4.24-4.12-9.29-7.34-13.43-11.56-5.42-6.93-6.61-16.88-3.22-24.97 1.33-3.34 3.27-6.85 6.73-8.38 3.61-.99 7.46-.68 11.11 0 7.91-6.66 15.59-13.61 23.33-20.47-2.65-1.65-5.85-1.43-8.66-2.55-5.95-2.69-12.92 1.21-18.61-2.42-3.98.62-8.31-.24-10.83-3.61-1.43 1.61-2.89 3.18-4.37 4.71-3.42-.45-7.03-.2-10.25-1.52-1.11-1.55-1.81-3.34-2.59-5.05.98-1.11 2-2.21 3.02-3.31 2.12.56 4.65.81 5.66 3.12 1.12-1.33 2.48-2.52 3.25-4.12-.29-1.4-.93-2.66-1.47-3.95-.92.93-1.81 1.86-2.7 2.78-2.99-.18-5.36-1.6-6.21-4.54 1.4-1.58 2.82-3.17 4.25-4.75 3.41.25 6.96.09 10.24 1.28 1.13 1.24 1.73 2.88 2.56 4.35 1.58-.78 3.15-1.86 5.02-1.84 7.2-.02 14.39-.65 21.59-.7 3.06-1.79 6.83-1.3 9.87-3.14m10.2-2.64c-5.43 1.64-9.82 6.02-15.65 6.38-2.83.22-4.81 2.62-6.1 4.92-2.95 5.2 1.2 12.82 7.21 13 5.45.63 9.63 4.77 14.86 6.14 3.9 1.29 8.5.02 11.3-2.99 3.15-3.45 7.22-7.02 6.7-12.21.55-5.1-3.36-8.69-6.43-12.13-2.96-3.14-7.79-4.63-11.89-3.11m-61.55 8.22c.79.41 2.36 1.25 3.15 1.66 1.37-.97 2.6-3.67 4.63-2.64 1.02 1.53 1.91 3.19 2.45 4.96.24 3.35-2.92 5.47-5.11 7.47-2.29-.54-4.09-5.12-6.58-1.98.56 1.1 1.13 2.21 1.73 3.31 2.65.45 5.33.79 8.03 1.03 1.46-1.59 2.93-3.19 4.4-4.8-.33-2.32-.15-4.66.94-6.78-.88-1.64-1.51-3.48-2.78-4.85-2.58-.62-5.23-.63-7.84-.84-1.03 1.14-2.04 2.3-3.02 3.46m81.08-2.81l.34 2.21-2.52-1.96-.06 1.39 1.3.02c.07.45.2 1.34.26 1.79l.42.58c.36.89.49 1.89.41 3.01.47-1.35 1.01-2.72 1.72-3.97.4 4.98 1.25 10.45-1.63 14.93.15-1.31.43-3.93.58-5.24-1.51 4.4-4.63 7.88-7.88 11.08-1.69 1.53-3.67 2.83-5.95 3.15-5.05 1.5-10-1.24-14.32-3.57-8.02 7.01-16.11 13.94-23.91 21.19 4.86 4.21 10.67 7.47 14.76 12.48-.58-.09-1.73-.28-2.31-.38-5.97-3.81-10.61-9.75-17.27-12.36 8.98 8.25 18.75 15.6 27.95 23.59 3.22 3.1 4.67 7.59 5.24 11.92.99 7.3-.43 15.28-5.5 20.87 9.79-.11 19.58.02 29.38-.05 4.11.12 7.94-2.33 9.95-5.86 3.44-5.95 3.6-13.59.91-19.85-2.02-4.72-6.74-7.21-10.28-10.62-10.34-.37-20.69-.12-31.03-.12 2.14-1.76 5.82.29 7.29-2.35 10.25-14.75 20.57-29.45 30.86-44.18 3.45-4.49 3.64-11.34.12-15.83-2.12-2.7-5.9-1.51-8.83-1.87m-65.75 12.44c1.27 3.05 4.81 3.17 7.63 3.28-4.23-1.46-3.52-6.7-2.9-10.12 1.6 2.3 1.42 5.2 2.05 7.82 2.59.81 5.27 1.07 7.93.29 3.66-.68 5.29 4.47 9.1 3.22-1.07-2.6-2.63-5.25-2.16-8.17.25-2.55 1.76-4.68 2.99-6.84-3.03.53-6.01 1.12-9 1.75-3.44-1.38-8.27-1.18-9.3 3.22-.71-1.35-1.26-2.8-.08-4.11-4.85-.39-9.36 5.39-6.26 9.66m11.35 4.07c2.12.91 4.37.94 6.57.2-.72-.34-2.15-1.02-2.87-1.37-1.24.39-2.52.77-3.7 1.17m-11.66 31.37c-6.85 8.21-5.97 22.58 3.04 28.93 8.47 6.94 16.84 13.98 25.29 20.94 1.69 1.48 3.8 2.28 5.9 3.06 5.88-3.83 7.65-11.33 7.44-17.93-.32-5.31-1.78-11.12-6.13-14.59-9.16-7.48-18.13-15.18-27.35-22.58-2.65-2.43-6.19.15-8.19 2.17m45.24 15.43c6.95.03 13.91.05 20.87-.01-4.31-3.78-8.74-7.39-13.17-11.01-2.66 3.61-5.21 7.3-7.7 11.02m-30.55 26.46c.53 4.28 1.29 8.53 1.85 12.81 5.18.16 10.37-.01 15.56.13-6.8-2.73-11.52-8.77-17.41-12.94m-3.92 14.82c-.08 1.47-.13 2.95-.17 4.43-4.01 4.34-6.38 9.89-9.72 14.72-2.09 2.69-2.24 6.16-2.81 9.37 26.33.05 52.65.02 78.98.01-.31-3.17-.54-6.51-2.52-9.17-3.3-4.97-5.95-10.4-9.75-15.02-.11-1.46-.16-2.92-.23-4.39-17.93.07-35.85-.02-53.78.05zM8891.77 51.63c5.58-1.93 12.11-1.98 17.22 1.39 8.88 5.24 11.04 18.52 4.37 26.35-4.97 6.48-14.1 8.1-21.5 5.35-12.34 9.27-24.38 18.91-36.71 28.17 10.22 5.03 21.04 8.95 30.64 15.19 5.92 4.09 8.95 11.87 7.39 18.9-1.4 7.59-8.07 13.69-15.69 14.62-.03 1.65.07 3.3.21 4.95 3.37 5.56 6.8 11.09 10.25 16.62 1.64 2.62 1.61 5.89 2.23 8.87 3.57.03 7.18.02 10.86-.01 1.91.22 5.07-.83 5.45 2.08-24.5.32-49.01.04-73.51.13-12.82-.09-25.63.2-38.41-.15.23-.46.69-1.37.92-1.83 3.8-.46 7.69-.11 11.61-.21.55-2.92.36-6.17 2.15-8.73 3.45-5.58 6.85-11.2 10.38-16.76-.07-1.63-.09-3.26.11-4.88 1.3-.02 2.7-.03 4.21-.04-2.55-7.78-4.72-15.67-7.39-23.39-4.59-2.53-9.28-5.64-11.17-10.77-4.24-9.01.51-20.75 9.74-24.42 3.65-2.17 8.55-.26 11.89-3.26 10.95-7.53 21.93-15.03 32.96-22.46.21.24.61.72.81.95l-.37-2.13c-2.76 2.41-6.41.33-9.39-.24-5.54-1.93-10.96 3.04-16.4.62-5.09-2.09-10.41-.27-15.58-.44-2.06-1.32-4.04-2.67-6.04-3.92-1.77-.16-3.45-.09-4.99-.08-3.44 2.37-6.36 6.67-10.99 6-3.24-.28-7.03.87-9.54-1.59-1.55-1.32-3.7-2.36-3.94-4.53 1.2-1.28 2.71-2.33 4.25-3.4 2.56 3.09 6.31 3.56 10.17 3.15 1.73-1.43 3.5-2.87 5.28-4.38-2.5-1.88-4.79-4.82-8.24-4.1-3.01-.62-5.03 1.72-7.11 3.29-1.67-1.36-3.93-2.35-4.42-4.57 1.81-1.86 3.84-3.72 6.27-4.89 3.58-.12 7.26-.32 10.92.16 2.53 1.73 4.83 3.81 7.3 5.74 2.27-.17 4.93.44 7.12-.9 2.4-1.29 4.82-3.04 7.83-2.42 3.97.88 8.23.84 12.19-.51 5.31-2.22 10.43 2.77 15.87 1.28 3.59-1 7.29-2.52 11.08-.93 1.62-.65 3.58-1.11 4.97-2.47 8.58.24 16.53-3.35 24.74-5.4m3.72 1.17c-5.71 1.39-11.29 3.16-16.89 4.74-4.47 1.63-9.46.74-13.49 3.43-.12 4.83-.02 9.66-.23 14.49.55.05 1.66.15 2.22.21.44.31 1.32.94 1.77 1.26 9.68.59 18.56 5.03 28.03 6.85 6.51 1.14 13.51-2.27 16.55-8.19 2.89-5.43 2.3-12.6-1.65-17.35-3.77-4.77-10.47-7.06-16.31-5.44m-105.47 6.28c-1.47 1.13-2.82 2.26-4.11 3.41.5.38 1.5 1.14 2.01 1.51 2.79-3.36 7.32-3 11.28-2.34 2.04 1.33 3.87 3 5.87 4.52 0 .65-.01 1.94-.02 2.58-2.21 1.63-4.34 3.31-6.41 5-2.6-.01-5.14-.02-7.58-.05-1.24-.9-2.39-1.79-3.45-2.68-.41.41-1.22 1.24-1.63 1.65 1.24 1.05 2.59 2.12 3.97 3.19 3.31.03 6.67.03 10.09.02 2.37-1.93 4.84-3.8 7.26-5.77 2.59-.05 5.25-.06 7.99-.12-.15-1.65-.16-3.3-.06-4.95-2.56 0-5.04.12-7.43-.09-3.04-1.37-5.3-3.93-7.88-5.87-3.36 0-6.66-.01-9.9-.01m55.54 3.23c-2.91-.58-7.18-1.6-9.09 1.01-.18 3.26.17 6.52.03 9.78-.45-3.82.61-8.04-1.62-11.43-4.67.86-9.39.7-13.98.02-1.7.95-3.41 1.7-4.92 2.7-.68 2.26-.79 5.09.31 7.23 2.01 1.11 4.14 2.79 6.7 2.27 5-.9 10.15-.19 15.01 1.35 4.96-.77 10.08-2.92 15.12-.86 3.27 1.38 6.97.84 10.01-1.09-.07-3.51-.07-7.01-.03-10.52-1.61-.87-3.36-1.92-5.07-2.03-4.17.63-8.26 3-12.47 1.57m8.89 21.23c-8.89 6-17.72 12.08-26.56 18.13 8.87 1.97 16.6 7.18 25.03 10.48 12.18-9.44 24.44-18.78 36.57-28.3-7.47-2.02-14.8-5.41-22.67-4.82-.4-.55-1.19-1.66-1.59-2.21-4.01 1.58-7.26 4.4-10.78 6.72m-33.27 20.79c-5.01 1.64-9.04 5.69-10.65 10.67-2.6 7.67 1.25 16.56 8.36 20.28 16.05 7.56 32.11 15.14 48.15 22.75 6.74 3.68 15.89 1.57 20.6-4.47 4.66-5.49 4.83-14.15.62-19.93-2.47-3.6-6.47-5.67-10.26-7.48-14.84-7.04-29.67-14.07-44.63-20.82-3.8-1.78-8.25-2.21-12.19-1m-14.89 17.74c.56 5.46 4.16 9.99 8.62 12.97-4.79-4.65-8.21-11.38-6.66-18.16.66-4.58 3.56-8.33 6.68-11.61-5.57 3.61-9.67 9.99-8.64 16.8m12.15 14.8c2.48 8.34 5.06 16.65 7.74 24.94 15.29-.04 30.59.02 45.91-.03-8.11-3.5-16.39-6.62-24.07-10.95-9.85-4.69-19.71-9.35-29.58-13.96m3.4 26.86c.87 4.35-2.84 6.97-4.57 10.44-3.28 5.79-8.14 11.06-8.19 18.09 26.32.05 52.65.02 78.98.01-.37-3.19-.57-6.54-2.54-9.21-3.33-4.97-5.95-10.42-9.78-15-.14-1.43-.16-2.85-.05-4.28-17.96-.14-35.91-.04-53.85-.05zM1157.04 61.71c9.85-.42 18.28-6.86 28.04-7.66 6.98-.03 11.44 5.7 16.93 9 4.37 3.85 4.98 10.99 1.8 15.77-1.8 2.54-4.44 4.27-6.8 6.23-11.36 9.18-22.75 18.33-34.08 27.55 8.69 4.71 17.42 9.35 26.08 14.13 10.71 6.43 11.66 23.56 2.07 31.41-3.65 3.36-8.82 3.85-13.54 3.82.09 1.61.04 3.23.37 4.82 3.4 6 7.33 11.7 10.76 17.7.91 2.41 1.06 5.04 1.52 7.56 5.15.16 10.34-.28 15.48.23.2.46.59 1.39.79 1.85-27.14.29-54.29.04-81.44.12-10.15-.09-20.31.2-30.46-.15.24-.46.71-1.39.95-1.85 3.84-.42 7.73-.09 11.59-.19.61-2.92.41-6.15 2.14-8.71 3.47-5.59 6.88-11.22 10.39-16.79.01-1.62.04-3.24.1-4.86 1.52-.03 3.07-.05 4.63-.07-1.56-6.36-3.23-12.69-4.86-19.03-5.71-3.53-12.95-5.5-16.63-11.54-5.6-8.51-3.55-21.45 5.17-27.07 4.15-2.86 9.44-2.71 14.23-2.1 10.63-6.54 21.3-13.02 31.84-19.71-3.51.59-6.97.07-10.35-.87-4.26.27-8.5 1.26-12.77 1.57-2.75-.16-5.12-2.14-7.93-1.78-3.01.25-6.04 1.19-9.03.35-2.18-1.08-4.09-2.62-5.8-4.31-4.8-.06-6.24 6.9-11.22 6.13-3.26.03-6.52-.01-9.77-.1-1.66-1.66-3.35-3.29-4.91-5.04 1.81-1.73 3.66-3.84 6.46-3.36 1.71 1.65 3.55 3.83 6.24 2.91 1.83-1.25 3.55-2.8 4.72-4.7-1.95-2.28-4.17-5.13-7.55-4.63-1.77 1.52-3.53 3.89-6.18 3.11-1.46-.94-2.6-2.23-3.81-3.43 1.84-1.73 3.42-3.95 5.73-5.05 3.92-.26 7.87-.06 11.8-.04 2.09 2.05 4.24 4.03 6.37 6.05 2.94.24 5.12-1.76 7.46-3.19 2.65-1.13 5.61-.44 8.35.04 3.16.48 6-1.32 9.05-1.77 2.79-.29 5.31 2.2 8.1 1.13 3.89-1.11 7.98-2.3 11.98-.82 1.93-1 3.69-2.6 5.99-2.66m10.52-.25c-5.02 2.72-11.76.75-15.76 5.41-2.06 3.91-1.45 8.8.48 12.67 2.89 1.86 6.13 2.66 9.57 2.43 7.23 1.22 14 4.37 21.2 5.76 6.51.9 12.92-3.43 15.37-9.37 3.54-7.78-.37-18.19-8.53-21.13-7.66-3.24-15.08 2.31-22.33 4.23m32.55 2.29c1.69 5.37 1.7 11.11.01 16.48 4.78-4.28 4.87-12.23-.01-16.48m-113.17 6.27c1.43-1.13 2.85-2.28 4.25-3.46 1.61-.02 3.23-.05 4.86-.07 1.96 2.36 6.11 4 5.55 7.55-1.42 2.3-3.75 3.85-5.65 5.73-1.55 0-3.09.01-4.61.01-1.81-1.76-4.12-4.28-6.35-1.53 1.51 1.19 2.78 3.24 4.97 3.03 2.98.03 6 .21 8.97-.21 3-2.06 5-6.14 9.1-6.01.03-1.4.06-2.8.12-4.2l-3-.04c-2.05-1.85-3.9-3.92-6.11-5.58-3.35-.68-6.85-.37-10.23-.23-2.17.74-5.03 3.19-1.87 5.01m49.13-2.37c-3.25-.81-6.54-.89-9.81-.28-1.08 3.36-2.9 10.34 2.28 10.82-.04.63-.12 1.88-.17 2.51 3.68.64 7.07-.87 10.12-2.74l.13 2.03c4.02-1.55 8.08-.16 12.04.86-2.33-4.61-2.53-9.97-.92-14.85-4.7-1.16-9.08 1.49-13.67 1.65m-21.48-.3c-1.46 1.21-3.06 2.23-4.39 3.57-.27 1.68-.27 3.4-.01 5.08 1.25 1.56 3.02 2.65 4.78 3.59 3.12.49 6.19-.58 9.31-.67-1.06-3.55-1.09-7.27-.4-10.89-3.12-.09-6.16-1.02-9.29-.68m40.59 16.73c-10.14 6.03-20.1 12.39-30.18 18.52 1.84 1.24 3.14 3.03 4.77 4.51 5.7 3.25 11.58 6.21 17.31 9.43.1-.4.29-1.19.38-1.59 2.48-.66 4.27-2.6 6.36-3.99 9.88-6.89 19.94-13.56 29.22-21.27-9.33-1.57-18.22-7.31-27.86-5.61m19.14 13.14c-8.68 6.99-18.46 12.52-26.99 19.69 6.63 3.12 13.01 6.77 19.4 10.35 11.2 7.28 10.47 25.71-.78 32.64 7.68-.7 16.78 1.95 23.13-3.72 8.42-6.91 7.49-21.83-1.96-27.39-3.95-2.13-7.74-4.91-12.23-5.73-1.32-2.15-3.8-2.96-5.87-4.15-2.8-1.42-5.49-3.07-8.31-4.44-2.86 1.3-4.68 4.81-8.11 4.6 2.13-3.07 5.44-4.96 8.22-7.38 9.16-7.54 18.59-14.76 27.6-22.48-5.89-.01-9.55 5.09-14.1 8.01m-61.13 7.09c-7.13 2.44-11.53 10.25-10.59 17.61.48 5.38 3.58 10.53 8.38 13.12 12.95 7.06 25.95 14.04 38.91 21.08 3.94 2.21 8.43 4.6 13.08 3.37 9.56-4.1 12.79-17.31 7.35-25.86-2.44-4.32-7.14-6.38-11.3-8.62-12.33-6.62-24.59-13.36-36.94-19.94-2.71-1.52-5.97-1.76-8.89-.76m8.75 39.52c1.51 5.99 3.12 11.95 4.55 17.96 10.52-.02 21.03.11 31.54-.09-2.3-.48-4.65-.9-6.7-2.08-9.85-5.18-19.52-10.66-29.39-15.79m-.09 19.9c.9 4.38-2.86 7.01-4.62 10.5-3.25 5.78-8.09 11.03-8.15 18.03 26.33.05 52.65.02 78.98.01-.3-3.18-.54-6.52-2.52-9.17-3.3-4.97-5.95-10.39-9.74-15.01-.11-1.47-.18-2.94-.25-4.4-17.9.07-35.81-.01-53.7.04zM5100.61 56.91c1.85-1.26 3.85-3.02 6.35-2.45 2.76.77 5.48 1.7 8.48 1.4-2.92 1.46-6.38 3.49-6.39 7.17-.67 1.47 1.07 2.18 1.94 3 2.12 1.55 4.37 2.97 6.47 4.63 4.94.45 9.2 2.99 13.72 4.81 1.82-.6 3.91-.87 5.59-2.07 2.36.78 4.73 1.64 7.13 2.52 1.39 2.38 2.58 4.93 4.34 7.11 4.3 1.96 9.18 4.18 13.81 1.78-.49-.98-.93-1.96-1.33-2.93-1.61.31-3.2.66-4.7 1.01-2.25-.81-4.47-1.59-6.66-2.33-1.02-1.83-2.47-3.52-2.82-5.59 1.27-3.18 5.83-2.46 8.56-3.84 3.36 1.14 7.25 1.89 9.05 5.38.52-.02 1.57-.07 2.1-.1-.87-1.76-1.76-3.48-2.62-5.2-2.86-1.13-5.68-2.34-8.62-3.08-3.47-.19-6.59 1.89-9.98 2.12-3.23-.79-6.82-1.66-8.61-4.72-2-3.51-6.45-2.47-9.56-4.01-3.05-.98-5.61-2.9-7.73-5.19 4.02.27 7.08 3.39 11.04 4 2.21.23 4.39.98 6.51 1.89 1.57 2.09 3.14 4.58 5.92 5.23 4.13 1.92 8.15-1.69 12.34-1.53 3.31.91 6.5 2.28 9.79 3.4 1.53 2.61 3.38 5.2 3.57 8.35-1.8.49-3.53.98-5.23 1.48-.88-1.31-1.66-2.62-2.41-3.94-1.93-.66-3.81-1.32-5.65-2-2.16.65-4.32 1.25-6.41 1.89.56 1.19 1.19 2.39 1.88 3.59 3.37 1.7 6.96 2.45 10.62.92 2.07 1.45 2.6 4.24 3.28 6.56-2.49.76-4.91 1.67-7.43 2.04-3.38-.87-6.67-2.05-9.84-3.39-2.12-2.03-3.14-4.94-4.67-7.39-2.74-1.31-5.67-1.5-8.47-.49-2.93 1.07-5.95-.07-8.37-1.65-2.9-1.82-6.38-2.32-9.69-2.31-.37-2.31-2.84-3.05-4.39-4.36-2.38-1.83-5.03-3.19-7.7-4.42-2.82-1.27-3.24-4.58-3.21-7.29m1.97 1.99c.14 2.33 2.14 3.55 3.95 4.65.63-2.3 1.61-4.51 2.9-6.54-2.37-.82-6.13-1.24-6.85 1.89zM5452.63 57.99c1.22-3.1 5.22-4.46 8.25-3.06 2.63.99 5.42 1.39 8.31 1.41-4.57.15-8.96 3.92-8.1 8.77 3.13 3.02 6.99 5.83 11.47 6.43 3.82.53 6.9 3.01 10.54 4.2 1.77-.77 4.32-.52 5.5-2.43 2.36.94 4.76 1.82 7.2 2.73 1.42 2.55 2.46 5.42 4.52 7.57 2.78 1.31 5.8 2.13 8.72 3.24 1.54-.55 3.07-1.1 4.72-1.64-.43-.67-1.29-1.99-1.72-2.65-1.49.46-2.79.93-4.12 1.41-2.71-1.2-6.47-1.22-7.76-4.25-.77-1.22-1.51-2.48-2.1-3.72.31-.68.92-2.05 1.23-2.74 2.51-.89 5.01-1.99 7.71-2.49 3.52.67 6.92 2.16 8.73 5.46l1.85-.14c-1.23-1.9-1.72-4.65-4.04-5.49-2.53-1.04-5.1-1.99-7.7-2.64-3.15.56-6.09 1.86-9.05 2.87-2.18-.71-4.3-1.44-6.41-2.12-1.05-1.5-2.1-2.98-2.98-4.53-5.52-1.57-11.56-2.5-15.68-6.89.71-.06 2.14-.18 2.85-.24 2.93 2.4 6.62 3.59 10.38 4.03 5.09.76 6.42 7.26 11.81 7.64 3.75-.94 7.66-4.04 11.62-2.19 2.42.9 4.96 1.65 7.37 2.77 2.06 2.14 3.17 5.02 4.52 7.65-1.8.67-3.64 1.3-5.34 1.93-1.63-1.99-2.67-4.84-5.49-5.29-3.22-1.55-6.46.47-9.32 1.77.63 1.48 1.53 2.97 2.3 4.45 1.76.7 3.59 1.36 5.46 2 1.65-.58 3.29-1.1 5.08-1.61 1.23 1.94 2.41 3.94 3.55 5.99-2.46 1.06-5.01 1.93-7.46 2.79-3.39-1.31-6.92-2.21-10.15-3.78-2.09-2.3-3.23-5.23-4.85-7.82-1.46-.43-2.72-.85-4.03-1.28-3.25.93-6.76 2.35-10 .75-2.73-1.35-5.31-3.07-8.34-3.52-1.18-.03-3.02-.81-3.46.68-.25.4-.75 1.19-.99 1.59-8.16-3.1-16.34-6.19-24.32-9.65-.07-.52-.22-1.54-.29-2.06 7.68 2.82 15.22 6.06 22.89 8.95.32 0 .96-.01 1.28-.01.91-1.5-1.43-1.82-2.12-2.64-2.7-1.75-5.24-3.75-8.25-4.86-2.99-1.01-4.44-4.4-3.79-7.34m1.76.96c-.2 2.72 2.07 4.27 4.21 5.4.52-2.62 1.56-5.11 3.11-7.31-2.57-.96-6.22-1.14-7.32 1.91zM818.04 63.77c10.43-.4 19.7-6.03 29.9-7.59 9.92-1.02 19.51 7.75 19.22 17.75.41 9.71-9.07 19.31-18.86 17.5 2.25-1.92 5.35-1.87 7.92-3.15 5.63-2.73 9.48-8.99 8.87-15.31-.26-8.91-9.47-16.3-18.22-14.57-9.12 1.85-17.56 6.46-26.89 7.26-1.36-.04-2.5.68-3.48 1.51-.59.07-1.76.22-2.35.29-.46 4.7-.6 9.48.28 14.14 2.64 1.53 5.48 2.57 8.59 2.34 9.07 1.15 17.58 5.25 26.73 6.01-.67.63-1.32 1.26-1.97 1.89-.93-.15-2.81-.47-3.75-.62-11.7 7.71-23.52 15.23-35.13 23.07 9.26 4.26 18.68 8.24 27.46 13.45 6.21 4.05 9.45 12.05 7.8 19.28-1.43 7.98-8.68 14.09-16.67 14.78.12 1.66.09 3.34.42 4.98 3.4 6 7.33 11.7 10.75 17.69.93 2.4 1.07 5.04 1.53 7.57 5.18.21 10.43-.4 15.57.32l.69 1.76c-26.8.3-53.61.04-80.41.12-10.49-.09-20.99.2-31.47-.15.23-.46.7-1.39.94-1.85 3.84-.43 7.73-.09 11.6-.2.6-2.91.4-6.15 2.13-8.71 3.48-5.59 6.89-11.22 10.39-16.8.01-1.62.05-3.24.11-4.85 1.44-.02 2.89-.03 4.36-.04-2.39-7.7-4.62-15.45-7.2-23.09-6.86-2.32-12.77-8.06-13.79-15.42-1.82-9.6 5.27-19.79 14.94-21.26 2.92-.66 6.23.5 8.84-1.33 9.77-5.58 19.74-10.81 29.43-16.52-3.12-1.3-6.84-.8-9.57-3 5.27-1.98 10.49 3.11 15.53.19-.2-4.24-.58-8.49-.35-12.74-3.51-.73-7.05-.43-10.35.96-5.09 2.16-10.36-1.76-15.43.62-.76 3.27-.25 6.67-.07 9.98.73.29 2.2.86 2.93 1.15-1.06.59-2.11 1.17-3.16 1.74 2.07-.11 4.22-.06 6.17-.89.97-.24 2.91-.71 3.87-.94.65.64 1.31 1.27 1.98 1.9-3.31.55-6.52 1.83-9.88 1.89-2.69-.51-5.22-1.78-8-1.72-2.75-.35-5.34.91-8.05.9-2.51.04-4.47-1.68-6.64-2.64l-1.12-1.4c-1.95.02-3.9.05-5.84.08-2.41 1.96-4.56 4.29-7.25 5.86-3.66.24-7.34.3-10.99.01-2.24-1.26-4.1-3.07-5.96-4.82 1.54-1.45 3.05-2.98 4.86-4.11 1.44.79 2.72 1.86 4.01 2.88 2.02.02 4.06.11 6.09-.1 1.83-1.03 3.29-2.59 4.91-3.92-1.8-1.56-3.57-3.18-5.61-4.4-1.97-.32-3.98-.12-5.96-.14-1.44 1.12-2.88 2.24-4.33 3.33-1.34-1.23-3.29-2.04-4.1-3.71.8-1.44 2.24-2.39 3.44-3.49 3.45-3.77 9.03-1.9 13.53-2.25 2.9 1.5 5.23 3.89 7.89 5.78 4.06.54 7.75-1.08 10.92-3.48 3.76-.46 7.46.8 11.23.36 2.78-.05 5.18-1.8 7.96-1.88 2.44.23 4.58 1.61 7 2 4.92.7 9.28-3.27 14.21-1.8 2.93.67 5.13-2 7.85-2.45m-80.89 8.11c2.25.2 3.52-2.61 5.81-2.41 2.02-.1 4.05-.08 6.09-.11 2.32 2.31 7.22 3.69 6.59 7.64-1.65 1.87-3.7 3.31-5.6 4.9-2.45.09-4.89.16-7.32.19-1.84-1.29-3.83-3.33-5.9-1.08 1.34 1.03 2.61 2.24 4.17 2.98 3.28.29 6.57.05 9.85-.1 2.34-2.04 4.71-4.06 7.14-6 2.04-.01 4.1-.02 6.16-.02-.02-1.6.01-3.2.01-4.8-2.05-.1-4.19.26-6.17-.32-1.8-1.03-3.33-2.46-4.95-3.72-3.14-3.2-8.05-1.53-12-1.63-1.52 1.14-4.19 2.23-3.88 4.48m33.61-2.1c-1.51.89-3.06 1.7-4.62 2.48-.07 2.35-.05 4.71.06 7.06 1.63.76 3.23 1.59 4.75 2.57 4.45-.54 8.91-1.07 13.4-.37-.49-3.92-.54-7.87-.44-11.81-3.4.09-6.96 1.02-10.23-.28-.99.11-1.96.23-2.92.35m6.43 32.87c8.65 3.98 17.24 8.11 25.83 12.22 12.85-8.03 25.63-16.16 38.31-24.46-7.92-2.02-15.76-5.25-24.09-4.68-.31-.34-.93-1.03-1.24-1.37-1.31-.33-2.59-.69-3.86-1.1-11.66 6.44-23.28 12.96-34.95 19.39m-10.8 1.86c-7.5 2.47-12.45 10.87-10.8 18.62.91 5.47 4.84 10.15 9.86 12.38 15.63 7.36 31.2 14.87 46.84 22.23 3.64 1.83 7.82 2.58 11.85 1.82 5.84-1.55 10.73-6.44 11.9-12.43 2.11-8-2.88-16.66-10.46-19.62-15.64-7.38-31.22-14.87-46.86-22.22-3.79-1.91-8.34-2.13-12.33-.78m40.09 10.92c-.09.24-.27.74-.35.98 5.2 2.14 10.06 5.07 15.38 6.95-.84-1.18-1.95-2.07-3.28-2.59-3.93-1.75-7.82-3.59-11.75-5.34m14.86 7.59c2.95 2.43 6.83 3.34 9.79 5.77 6.2 4.81 8.66 13.85 5.65 21.13-1.36 4.08-4.7 6.93-7.81 9.69 6.37-1.67 11.92-6.86 12.91-13.53 1.27-6.65-2.01-13.78-7.87-17.15-4.07-2.24-7.95-5.25-12.67-5.91m-51.73 16.79c2.08 7.38 4.51 14.65 6.68 22 14.25-.13 28.51.22 42.75-.19-2.35-.42-4.76-.67-6.93-1.71-14.21-6.61-28.28-13.51-42.5-20.1m2.18 23.92c-.06 1.48-.14 2.96-.19 4.44-3.89 4.17-6.15 9.52-9.37 14.17-2.25 2.84-2.63 6.47-3.15 9.92 26.33.05 52.66.03 78.98.01-.3-3.18-.54-6.52-2.52-9.17-3.3-4.98-5.95-10.4-9.75-15.02-.1-1.47-.16-2.93-.23-4.39-17.92.06-35.84-.01-53.77.04zM9242.18 60.22c5.93-1.58 12.08-4.52 18.36-2.62 8.81 2.33 14.91 11.97 12.83 20.93-1.46 6.95-7.33 12.72-14.31 13.92-4.73 1.03-9.31-.78-13.75-1.95-11.91 7.74-23.88 15.38-35.56 23.45 9.21 4.55 18.73 8.55 27.7 13.63 8.5 5.3 10.93 17.79 5.26 26-3.25 5.22-9.24 7.95-15.17 8.39-.8 4.96 2.8 8.63 5.1 12.61 1.7 2.89 3.53 5.74 5.34 8.63 1.61 2.6 1.57 5.84 2.18 8.8 4.62.13 9.28-.06 13.98.09 1.27-.13 2.04.54 2.31 2.02-26.48.29-52.97.04-79.44.12-10.83-.09-21.65.2-32.44-.15l.92-1.84c3.8-.44 7.7-.09 11.62-.21.52-2.89.35-6.09 2.09-8.64 3.47-5.6 6.89-11.26 10.43-16.85-.08-1.62-.1-3.25.11-4.87 1.33-.02 2.78-.03 4.34-.03-2.16-7.39-4.43-14.74-6.62-22.1-5.54-2.32-11.32-5.38-13.87-11.12-4.68-8.89-.57-21.05 8.64-25.14 3.72-2.11 8.11-1.53 12.26-1.78 7.64-4.01 15.09-8.43 22.69-12.59 3.73-2.23 7.81-3.98 11.26-6.75-5.51-1.14-10.55 3.6-15.89 1.38-5.08-2.18-10.4-.32-15.57-.44-3.1-1.91-6.07-5.01-10-3.94-3.01 1.43-5.18 4.09-8.04 5.65-3.68.44-7.4.4-10.98.03-2.61-1.47-4.67-3.66-6.54-5.87 1.41-1.23 2.95-2.42 4.56-3.59 1.23 1.03 2.55 2.05 3.96 3.08 1.87-.01 3.83-.01 5.91-.02 1.8-1.37 3.62-2.76 5.5-4.19-1.38-1.29-2.77-2.5-4.12-3.67-3.91-.45-7.59.31-10.32 3.16-1.94-1.35-3.71-2.93-5.07-4.75 1.97-1.72 4.09-3.36 6.27-4.97 3.59-.02 7.24-.02 10.94 0 2.31 1.92 4.65 3.87 7.03 5.83 2.74 0 5.82.29 8.27-1.52 2.13-1.6 4.83-2.15 7.57-1.57 3.66.75 7.6.52 11.22-.78 5.23-2.22 10.16 3.53 15.41 1.42 3.34-1.28 6.92-2.06 10.58-1.15 2.53-1 4.89-2.78 7.86-2.58 5.26.07 10.14-2.16 15.19-3.46m-17.26 5.61c-.83.72-1.56 1.43-2.17 2.15.95 4.47 1.05 9.15-.03 13.6.54.77 1.23 1.54 2.02 2.31 10.53-.25 19.98 5.46 30.28 6.84 8.67.69 16.8-7.04 16.72-15.71.22-8.05-6.68-15.44-14.66-15.95-11.07.26-21 7.15-32.16 6.76m-80.32 3.4c.58.45 1.73 1.35 2.3 1.81 3.02-3.04 7.23-2.45 11.2-2.37 1.61 1.41 3.3 2.84 5.05 4.24-.04.69-.12 2.08-.16 2.77-2.95 1.77-5.33 5.22-9.05 4.8-2.19-.1-4.63.43-6.23-1.16-1.13-1.08-2.58-1.4-3.66-.26 1.31 1.27 2.81 2.53 4.32 3.79 3.19.02 6.43.19 9.74-.04 2.28-1.13 4.1-3.04 6.26-4.51 2.29-1.97 5.66-1.2 8.54-1 1.51 1.19 3.03 2.44 4.71 3.62 3.4.08 6.84-.74 10.37-.36 3.62-.03 6.87 2.32 10.67 1.42-1.34-.64-2.57-1.24-3.68-1.81 4.78 2.03 9.77-1.48 14.52.65 3.81 1.68 8.25 1.25 11.92-.74.28-3.46.27-6.94.06-10.4-2.35-1.08-4.96-2.26-7.47-1.7-2.79.44-5.3 1.82-8.01 2.07-2.95-.48-5.85-1.11-8.7-1.35l.2-1.41c-3.31.23-6.34 1.91-9.58 1.89-3.37.3-6.64-.48-9.88-.46-3.52 3.34-8.3 3.48-12.79 3.11-2.42-1.89-4.53-4.21-7.18-5.64-3.11-.2-6.17-.21-9.15.02-1.66.79-2.99 1.98-4.32 3.02m67.89 14.58c-10.19 5.89-20.31 11.88-30.38 17.92 8.87 2.53 16.78 7.56 25.19 11.32 11.82-7.92 23.76-15.66 35.63-23.52-6.28-1.73-12.47-4.2-19.07-3.72-.32-.36-.95-1.09-1.27-1.46-3.29-1.39-6.76-.71-10.1-.54m-57.73 32.71c-2.43 9.12 4.72 19.34 14.09 20.23 2.29 8.41 4.99 16.7 7.45 25.07 10.56-.05 21.15-.01 31.75-.02 4.68-.19 9.49.51 14.18-.54-6.23-3.92-13.37-6-19.66-9.73-10.18-4.94-20.35-9.87-30.53-14.74-3.6-1.72-6.16-4.8-8.3-8-2.33-.19-3.38-2.43-4.17-4.23-2.34-5.06-1.33-11.43 2.51-15.5 2.36-2.76 6.04-3.63 9.12-5.46-7.69-.35-15 5.39-16.44 12.92m19.66-12.02c-4.11 1.47-7.49 4.68-9.21 8.63-3.98 8.1 0 18.74 8.18 22.46 14.6 7.08 29.21 14.14 43.86 21.15 3.03 1.46 6.14 3.47 9.75 3.07 6.69-.03 13.05-4.61 15.25-10.95 2.8-7.48-.59-16.64-7.71-20.33-14.79-8.13-30.41-14.6-45.55-22.01-4.43-2.37-9.75-3.92-14.57-2.02m-12.23 20.98c-1.16-6.13.18-12.42 3.83-17.5-5.56 3.78-7.89 11.79-3.83 17.5m9.59 38.26c-.24 1.47-.21 2.94-.17 4.41-3.9 4.16-6.16 9.5-9.35 14.14-2.29 2.85-2.71 6.49-3.18 9.96 26.32.07 52.65.03 78.98.02-.37-3.19-.57-6.54-2.54-9.2-3.33-4.97-5.95-10.43-9.78-15.02-.14-1.43-.16-2.85-.05-4.27-17.98-.13-35.96-.06-53.91-.04zM132.98 63.87c7.06-1.75 13.87-4.46 21-5.91 10.1-1.89 20.41 6.89 20.35 17.12.54 8.85-6.66 17.23-15.42 18.22-4.5.66-8.91-.88-13.11-2.3-11.93 7.49-23.81 15.08-35.42 23.06 8.97 4.58 18.29 8.49 27.1 13.38 7.63 4.74 10.77 15.37 6.87 23.49-2.77 6.65-9.69 10.76-16.77 11.03.21 1.88-.3 4.02.79 5.69 3.13 5.18 6.36 10.29 9.54 15.45 1.73 2.63 1.69 5.91 2.25 8.92 5.16.2 10.34-.25 15.48.24.21.46.62 1.39.83 1.85-29.15.31-58.31.05-87.47.13-8.15-.07-16.3.18-24.44-.15.24-.46.71-1.38.94-1.84 3.85-.44 7.74-.1 11.61-.2.62-2.93.4-6.17 2.14-8.74 3.48-5.57 6.87-11.2 10.38-16.75.01-1.63.07-3.26.11-4.88 1.44-.02 2.89-.03 4.33-.03-2.14-7.35-4.31-14.7-6.59-22.01-4.81-2.17-10.06-4.42-12.89-9.15-5.31-7.71-3.57-19.3 3.91-24.99 4.26-3.64 10.13-4.46 15.53-3.71 11.33-6.08 22.5-12.46 33.86-18.49-1.01-.8-2-1.63-2.99-2.46 3.64-.27 7.26.91 10.33 2.81-6.12 1.89-11.27 5.87-16.69 9.13-1.53.88-1.34-1.02-1.03-1.89-3.22 1.67-6.09 3.93-9.36 5.51-3.13 1.84-6.67 3.16-9.31 5.73.77-.37 2.33-1.11 3.1-1.48.6.43 1.19.87 1.78 1.3 8.39 2.93 15.99 7.68 24.18 11.05 2.9-1.42 5.42-3.48 8.13-5.19 8.91-6.06 18.08-11.72 27.11-17.59-4.97-1.43-9.84-3.63-15.11-3.5-2.77.36-4.89-1.64-7.4-2.36-1.7-.28-3.57.16-5.05-.94 2.33-.94 4.72-1.72 7.06-2.62.28-3.42.24-6.85.12-10.27-1.88-.77-3.74-1.8-5.83-1.84-3.46-.26-6.56 1.63-9.92 2.06-3.19-.56-6.37-1.14-9.6-1.43l.6-1.5c-2.98.76-5.83 2.17-8.97 2.19-3.33.5-6.53-.82-9.85-.6-3.3 3.39-8.24 4.11-12.63 2.92-2.36-1.59-4.42-3.57-6.59-5.41-4.77.01-10.25-1.05-13.75 3.06.55.53 1.67 1.58 2.23 2.11 1.19-.84 2.38-1.69 3.56-2.55 2.59.02 5.23-.26 7.8.2 1.84 1.22 3.43 2.75 5.07 4.22-.61 3.64-4.38 5.02-6.9 7.18-2.33.01-4.67.11-7.01-.07-1.66-.64-2.99-2.28-4.93-1.97.2 2.25 2.61 3.18 4.01 4.65 3.23 0 6.46.01 9.69 0 2.57-2 5.16-3.98 7.8-5.88 2.34.01 4.68 0 7.02-.04.21.42.63 1.28.84 1.7 2.28 1.2 4.61 3.06 7.34 2.08 5.76-1.79 11.23 1.44 16.92 1.31l-.21-1.47c2.33.03 4.79-.05 6.77 1.41-3.11.62-6.09 1.79-9.22 2.25-2.72-.3-5.15-1.84-7.92-1.88-3.67-.64-7.26 1.54-10.89.36-3.05-1.34-5.61-4.52-9.27-3.61-3.47.86-5.58 4.38-8.87 5.69-3.57.26-7.15.06-10.73.08-2.28-1.9-4.66-3.75-6.31-6.25 1.41-1.1 2.79-2.26 4.34-3.17 1.41.63 2.52 1.74 3.69 2.71 1.99.05 3.98.16 5.97-.02 2.21-.96 3.92-2.74 5.81-4.19-1.44-1.16-2.71-2.65-4.46-3.33-1.82-.13-3.65-.08-5.47-.07-1.3.96-2.56 1.98-3.96 2.81-2.27-.33-3.86-2.51-5.23-4.21 1.41-2.26 3.91-3.78 6.21-5.06 3.62-.26 7.26-.07 10.89-.02 2.2 1.93 4.48 3.78 6.7 5.68 3.17.23 6.41.02 9.01-2.01 3.75-2.81 8.4-.1 12.55-.68 2.78.02 5.21-1.52 7.93-1.8 3.44.37 6.54 2.13 9.96 2.58 3.66-.72 7.16-2.63 11-1.97 1.96.43 3.79-.39 5.51-1.23 2.89-1.69 6.39-.84 9.52-1.65m-7.38 2.67c-.39.53-1.17 1.59-1.57 2.11.61 4.45 1.75 9.45-.55 13.6.72.83 1.48 1.64 2.28 2.4 10.54-.17 19.98 5.52 30.29 6.85 5.77.21 11.37-3.12 14.27-8.06 3.76-6.45 2.19-15.44-3.77-20.01-4.2-3.67-10.26-4.5-15.47-2.76-8.44 2.16-16.6 6.1-25.48 5.87m-70.93 49.51C52 125.32 59.2 136 68.87 136.72c2.32 8.4 5 16.7 7.4 25.08 13.56.01 27.12-.03 40.69.03 1.78.03 3.57-.13 5.3-.6-5.8-3.61-12.25-5.96-18.26-9.18-10.63-5.21-21.35-10.25-31.96-15.52-5.43-2.83-9.17-8.57-9.62-14.68-.69-5.26 1.59-10.26 4.49-14.49-3.94 2.48-7.25 6.65-6.93 11.54-.23 3.88 2.48 6.93 4.03 10.24l-1.82-.61c-5.32-4.75-5.34-13.78-.71-19.03 2.44-3.1 6.4-4.1 9.71-5.92-7.59-.38-14.77 5.11-16.52 12.47m20.66-11.73c-8.23 2.59-13.27 12.39-10.51 20.57 1.2 4.33 4.21 8.14 8.17 10.27 8.87 4.45 17.9 8.59 26.76 13.07 7.91 3.39 15.35 7.79 23.33 11.02 10.32 3.16 21.43-6.55 20.31-17.15-.33-6.19-4.41-11.67-9.93-14.31-15.05-8-30.74-14.7-46.06-22.15-3.66-1.95-8.08-2.6-12.07-1.32m-3.55 59.41c-.05 1.47-.1 2.93-.16 4.4-4.01 4.38-6.4 9.94-9.76 14.8-2.06 2.68-2.2 6.13-2.78 9.33 26.33.05 52.65.02 78.98.01-.29-3.17-.54-6.51-2.52-9.17-3.29-4.97-5.95-10.4-9.75-15.03l-.24-4.38c-17.92.07-35.85-.02-53.77.04zM475.02 64.38c10.09-.33 19.14-5.65 29.06-6.98 9.86-1.05 19.39 7.71 19.1 17.62.42 8.63-6.6 16.71-15.08 17.88-4.2.82-8.29-.72-12.31-1.68-1.45.22-2.57 1.34-3.82 2.01-11.03 7.03-22.16 13.9-33.04 21.18 9.4 4.27 18.99 8.25 27.78 13.72 7.95 5.44 10.07 17.36 4.64 25.28-3.03 4.77-8.31 7.72-13.87 8.36.12 1.65.12 3.32.42 4.96 3.37 6.02 7.32 11.71 10.74 17.7.96 2.41 1.09 5.06 1.54 7.6 5.14.17 10.31-.25 15.45.22.21.46.63 1.4.85 1.86-25.5.31-51.01.04-76.51.13-11.8-.09-23.61.2-35.4-.15.23-.46.7-1.38.93-1.84 3.85-.44 7.74-.1 11.61-.2.62-2.91.4-6.14 2.12-8.69 3.47-5.59 6.88-11.23 10.39-16.79.02-1.64.07-3.27.13-4.91h4.33c-2.31-7.76-4.66-15.52-7.19-23.21-5.31-1.99-10.27-5.67-12.35-11.11-3.59-7.97-.41-18.14 6.96-22.78 3.93-2.74 8.86-3.31 13.52-2.87 11.09-6.12 22.35-11.96 33.26-18.4-3.63-1.06-7.2-.01-10.57 1.34-3.94 1.73-7.69-1.26-11.65-1.14-3.41-.49-6.71 1.25-10.11.51-1.7-.72-3.28-1.69-4.92-2.5-.22-.33-.66-1.01-.89-1.34-1.7 0-3.4.01-5.09.01-3.53 2.25-6.38 6.71-11.07 5.99-2.66 0-5.32-.02-7.97-.02-2.27-1.71-4.53-3.51-6.17-5.86 1.38-1.16 2.74-2.37 4.29-3.34 1.62.47 2.79 1.85 4.15 2.79 1.24.02 2.49.03 3.73.02 3.29.45 5.38-2.61 7.82-4.26-1.56-1.28-3-2.79-4.86-3.61-1.96-.18-3.92-.09-5.88-.09-1.4 1.07-2.81 2.13-4.21 3.2-1.88-1.29-3.65-2.77-4.87-4.73 2.04-1.68 3.96-3.61 6.34-4.83 3.53-.26 7.11-.28 10.66-.07 3.6 1.42 5.71 6.14 10.01 5.65 3.19.42 5.91-1.48 8.4-3.18 3.89-.67 7.72.89 11.61.25 3.37-.07 6.51-2.59 9.9-1.32 3.46.81 7.02 3.09 10.63 1.64 3-1.12 6.13-2.14 9.39-1.59 2.97.37 5.18-2.34 8.07-2.43m-.72 2.09c-.91.76-1.86 1.46-2.78 2.18.37 4.51.8 9.05.1 13.55.97.79 1.96 1.57 2.91 2.4 6.74-.35 13.01 2.32 19.41 3.96 4.58 1.23 9.22 3.1 14.04 2.31 7.46-1.15 13.6-8.29 13.17-15.91.27-8.85-8.38-16.5-17.1-15.53-10.1 1.57-19.39 6.98-29.75 7.04m-81.52 4.04c.63.66 1.27 1.3 1.91 1.95 2.95-3.26 7.3-2.81 11.29-2.71 1.89 1.52 3.9 2.91 5.58 4.67.66 3.78-4.35 5.03-6.48 7.35-2.38 0-4.75.12-7.12-.07-1.72-.49-4.3-4.07-5.01-.75 3.06 4.33 8.62 3.2 13.18 3.06 3.16-1.08 5.26-4.05 8.16-5.65 2.41-.4 4.87-.2 7.3-.2 1.11 1.94 3.36 2.61 5.11 3.82 4.93-.24 10.03-1.17 14.85.44 1.91.68 3.94.81 5.97.52-1.47-.74-3.03-1.21-4.57-1.73 2.98.5 6.07.93 9.01-.08 3.78-1.24 7.39 1.07 11.06 1.6 2.46.05 4.74-1.02 6.99-1.88.13-3.44.13-6.89-.03-10.33-.59-.34-1.78-1.03-2.37-1.38-5.13-1.94-9.69 2.92-14.76 1.47-2.55-.64-5.18-.86-7.8-.81.18-.46.54-1.37.71-1.82-6.06 2.47-12.58 2.62-19 1.81-1.67 1.19-3.48 2.13-5.23 3.18-2.54.08-5.09.1-7.63.12-2.47-1.92-4.91-3.89-7.36-5.84-3.21 0-6.43.03-9.65.03-1.37 1.07-2.74 2.16-4.11 3.23m67.52 14.72c-9.84 5.43-19.54 11.12-29.39 16.54 8.76 3.48 17.05 8.02 25.74 11.66 12.03-7.83 24.09-15.61 36.33-23.1-6.32-2-12.72-4.09-19.43-3.97-3.83-2.93-8.94-2.58-13.25-1.13m-53.67 40.87c1.82 5.64 7.27 8.44 12.01 11.24 2.81 8.07 5.09 16.32 7.67 24.47 15.17-.11 30.35.16 45.52-.14-16.61-7.95-33.28-15.79-49.89-23.72-1.26-.36-2.05-1.45-1.53-2.7 15.7 7.9 31.73 15.13 47.57 22.76 7.17 3.99 17.01 1.14 21.32-5.74 3.95-5.81 3.51-14.21-1.04-19.57-2.94-3.58-7.31-5.45-11.34-7.48-14.05-6.7-28.13-13.31-42.3-19.75-3.25-1.6-6.98-2.21-10.56-1.56-7.79 1.41-13.73 9.19-13.1 17.08.08 6.03 4.09 11.31 9.04 14.43-.45.1-1.35.31-1.8.41-6.84-3.4-9.74-11.62-9.26-18.85.6-5.68 5.12-9.63 9.23-13.06-9.39 2.29-15.28 13.14-11.54 22.18m15.22 37.63c.89 4.37-2.84 7-4.61 10.49-3.25 5.77-8.09 11.03-8.16 18.04 26.33.05 52.66.03 78.98.01-.3-3.18-.54-6.53-2.53-9.19-3.31-4.98-5.94-10.43-9.8-15.03-.02-1.42-.03-2.84-.03-4.25-17.95-.18-35.9-.05-53.85-.07zM1527.44 61.62c.27.19.27.19 0 0zM5793.53 63.74c4.2.43 8.01 2.46 12.03 3.73 4.84 1.79 9.79 3.3 14.58 5.32-.36 2.73-2.81.7-4.2.53-5.72-2.04-11.41-4.14-17.13-6.11-2-.82-4.63-1.07-5.28-3.47z"/>
    <path d="M1129.31 79.72c-.13-1.48 3.46-1.62 3.51-.12-1.15.64-2.32.67-3.51.12zM85.2 98.6c3.66-1.52 6.78-4.18 10.57-5.36.05.45.14 1.36.19 1.81-4.42.38-7.66 4.08-11.63 5.74.21-.55.65-1.64.87-2.19zM4344.84 93.45c.31 0 .92.01 1.23.01-.24.83-.72 2.47-.96 3.29-1.84.64-.91-2.56-.27-3.3zM1491.26 116.24c.56.57.56.57 0 0z"/>
  </g>
</svg>
