<svg width="8400" height="200" viewBox="0 0 8400 200" xmlns="http://www.w3.org/2000/svg">
  <g fill="#0d56bd">
    <path d="M88.15 26.19c2.92-.37 5.88-.15 8.82-.19h162.02c5.8-.15 11.3 4.35 12.28 10.07.45 2.95.22 5.94.26 8.91-.01 38.68 0 77.35-.01 116.03.44 6.81-5.56 13.16-12.4 12.99-56.06.01-112.12-.02-168.17.01-6.61.41-12.86-5.27-12.93-11.91-.06-41.02.02-82.04-.03-123.06-.38-6.04 4.2-11.82 10.16-12.85m-5.98 7.82c-1.77 3.18-1 6.97-1.16 10.44 62.48.06 124.96.02 187.44.01-.09-3.75.69-7.97-1.6-11.25-1.89-2.9-5.4-4.43-8.81-4.2-55.7 0-111.4-.03-167.11.01-3.55-.16-7.1 1.82-8.76 4.99M81 47.54c.01 37.82-.01 75.64.02 113.46-.39 5.4 4.5 10.34 9.91 9.98 56.02.02 112.04.05 168.06-.01 5.28.15 9.87-4.75 9.48-10-.02-37.81.07-75.63-.04-113.45-62.48.02-124.95-.02-187.43.02zM438.08 26.21c16.29-.49 32.62-.07 48.92-.21h121.98c6.92-.23 13.01 6.17 12.55 13.07 0 40.66 0 81.31-.01 121.97.42 6.82-5.6 13.14-12.44 12.96-56.36-.01-112.73.03-169.09-.02-6.31-.04-11.94-5.66-11.97-11.97-.06-40.99.01-81.98-.03-122.97-.38-6.01 4.17-11.78 10.09-12.83m-5.91 7.81c-1.77 3.18-1 6.97-1.16 10.44 62.48.02 124.96.03 187.45 0-.11-3.55.61-7.44-1.25-10.67-1.79-3.22-5.51-5.04-9.15-4.78-55.68 0-111.37-.03-167.05.01-3.59-.17-7.19 1.8-8.84 5M431 47.55c.01 37.82-.02 75.63.02 113.45-.39 5.43 4.54 10.36 9.96 9.98 56.02.01 112.04.05 168.05-.01 5.27.14 9.84-4.79 9.44-10.03 0-37.8.02-75.59 0-113.39-62.49-.05-124.98-.04-187.47 0zM788.1 26.21c12.95-.49 25.94-.06 38.91-.21h132.08c6.85-.17 12.86 6.16 12.43 12.99.01 40.68.01 81.37 0 122.05.42 6.81-5.6 13.14-12.43 12.96-54.37.01-108.74-.01-163.1 0-3.62-.08-7.48.5-10.84-1.17-4.46-2.05-7.41-6.89-7.16-11.8.02-38.99.01-77.99.01-116.99.05-3.01-.31-6.09.47-9.05 1.24-4.42 5.11-7.95 9.63-8.78m-5.93 7.8c-1.77 3.18-1 6.96-1.17 10.42 62.49.09 124.98.04 187.46.03-.11-3.77.69-8.01-1.64-11.29-1.9-2.89-5.42-4.4-8.82-4.17-55.66.01-111.32-.02-166.97.02-3.59-.18-7.2 1.79-8.86 4.99m-1.16 13.53c-.01 37.84-.03 75.68.01 113.52-.36 5.41 4.57 10.31 9.99 9.92 56 .01 112.01.06 168.01-.01 5.26.14 9.83-4.76 9.45-10-.02-37.82.06-75.63-.04-113.45-62.48.02-124.95-.02-187.42.02zM1136.45 26.64c3.06-1 6.35-.57 9.54-.64 54.36.01 108.73-.01 163.09 0 6.88-.18 12.9 6.21 12.45 13.06-.03 40.97.05 81.94-.05 122.91-.01 6.5-5.95 12.2-12.42 12.03-56.02.01-112.04-.02-168.06.01-6.63.44-12.93-5.25-12.98-11.93-.06-41.04.02-82.09-.03-123.13-.29-5.4 3.34-10.62 8.46-12.31m-4.29 7.39c-1.76 3.18-1 6.96-1.14 10.43 62.48.02 124.96.04 187.44-.01-.11-3.75.68-7.97-1.62-11.24-1.89-2.9-5.41-4.43-8.81-4.2-55.68 0-111.36-.03-167.03.01-3.59-.17-7.19 1.81-8.84 5.01M1131 47.55c.01 37.84-.02 75.68.02 113.52-.27 4.6 3.24 9.02 7.79 9.75 2.38.29 4.8.15 7.21.18 54.33-.02 108.65.04 162.98-.03 5.25.15 9.83-4.72 9.47-9.95 0-37.82.02-75.64-.01-113.46-62.49-.07-124.97-.04-187.46-.01zM1486.52 26.62c3.07-.98 6.34-.55 9.52-.62 54.32.01 108.64 0 162.97 0 5.77-.15 11.25 4.33 12.25 10.02.45 2.97.22 5.99.27 8.98-.01 38.68 0 77.37-.01 116.05.22 5.07-2.92 10.04-7.62 11.97-3.11 1.43-6.61.9-9.9.99-54.35-.02-108.69-.02-163.03 0-6.65.43-12.92-5.3-12.95-11.98-.06-41.01.01-82.03-.03-123.04-.31-5.44 3.36-10.71 8.53-12.37m-4.37 7.42c-1.75 3.18-.99 6.95-1.14 10.42 62.48.03 124.96.02 187.44 0-.1-3.56.61-7.45-1.24-10.69-1.82-3.22-5.57-5.04-9.21-4.76-55.68 0-111.37-.02-167.05.01-3.58-.16-7.15 1.83-8.8 5.02m-1.14 13.5c-.01 37.83-.02 75.66.01 113.48-.39 5.43 4.56 10.35 9.99 9.96 56.01.01 112.02.05 168.03-.02 5.23.14 9.78-4.72 9.43-9.93-.02-37.84.06-75.68-.04-113.51-62.47.02-124.95-.02-187.42.02zM1836.45 26.64c3.07-1.01 6.37-.57 9.56-.64 53.99 0 107.97.02 161.96-.02 7.64-.77 14.48 6.39 13.57 13.98-.06 40.66.05 81.31-.06 121.96.03 6.97-6.67 12.76-13.52 12.1-56.02-.06-112.03.02-168.03-.04-6.27-.08-11.85-5.64-11.91-11.9-.06-41.05.01-82.1-.03-123.15-.28-5.39 3.35-10.61 8.46-12.29m-4.31 7.43c-1.74 3.17-.99 6.93-1.14 10.38 62.49.05 124.97.03 187.46.01-.11-3.76.68-7.99-1.63-11.27-1.89-2.89-5.4-4.41-8.79-4.19-55.7.01-111.39-.02-167.08.02-3.6-.16-7.18 1.84-8.82 5.05M1831 47.55c.01 37.81-.02 75.63.01 113.45-.43 5.9 5.28 10.81 11.04 10 55.66-.03 111.31.04 166.97-.04 5.27.15 9.84-4.78 9.45-10.02-.01-37.8.04-75.61-.02-113.41-62.48 0-124.97-.03-187.45.02zM2186.53 26.62c5.69-1.29 11.64-.33 17.45-.62h155.05c5.8-.14 11.3 4.4 12.25 10.14.42 2.92.19 5.88.25 8.82 0 37.03-.01 74.05 0 111.08-.06 2.99.23 6.06-.51 8.99-1.45 5.19-6.61 9.1-12.01 8.97-56.02.01-112.04-.02-168.06.01-5.99.34-11.73-4.21-12.75-10.11-.41-2.95-.18-5.93-.2-8.89-.01-38.68.02-77.36-.01-116.04-.31-5.43 3.37-10.7 8.54-12.35m-4.41 7.49c-1.71 3.16-.97 6.9-1.12 10.33 62.49.07 124.97.04 187.46.02-.12-3.53.59-7.38-1.21-10.6-1.79-3.28-5.58-5.13-9.25-4.86-55.67.01-111.34-.02-167 .02-3.63-.17-7.25 1.85-8.88 5.09M2181 47.56c.01 37.79-.01 75.59.01 113.39-.41 5.42 4.5 10.4 9.94 10.03 55.01.05 110.02 0 165.03.03 2.58-.02 5.4.17 7.72-1.29 3.08-1.71 4.9-5.21 4.77-8.71 0-37.82.02-75.65-.01-113.47-62.49-.02-124.98-.04-187.46.02zM2536.5 26.62c3.07-.98 6.36-.55 9.57-.62 54.33.01 108.66 0 162.99 0 6.51-.17 12.46 5.6 12.43 12.14.1 39.6-.01 79.21.05 118.82-.06 2.96.21 6.02-.77 8.86-1.74 4.78-6.6 8.28-11.71 8.18h-162.08c-2.7-.02-5.38.12-8.03-.09-5.9-.57-10.88-5.94-10.93-11.87-.06-41 .01-82-.03-122.99-.33-5.45 3.32-10.75 8.51-12.43m-3.24 5.78c-2.99 3.3-2.16 7.98-2.26 12.04 62.49.06 124.98.06 187.47 0-.13-3.77.67-8.02-1.67-11.29-1.91-2.88-5.42-4.37-8.8-4.15-55.01-.01-110.02.01-165.03-.01-3.54-.26-7.42.5-9.71 3.41M2531 47.56c.01 37.82-.02 75.64.02 113.46-.39 5.41 4.53 10.34 9.95 9.96 55.71.04 111.42.01 167.13.01 5.55.56 10.78-4.37 10.37-9.99 0-37.82.03-75.64-.01-113.46-62.49-.01-124.98-.06-187.46.02zM2886.49 26.63c3.08-1 6.38-.56 9.59-.63 51.98.01 103.95 0 155.93 0 3.14.06 6.33-.22 9.5.22 5.86 1.11 10.34 6.81 10.02 12.8 0 40.66 0 81.33-.01 121.99.43 6.86-5.65 13.22-12.52 12.99-56.01.01-112.02-.02-168.02.01-4.96.25-9.85-2.75-11.86-7.26-1.64-3.34-1.05-7.15-1.12-10.73 0-38.99.01-77.99-.01-116.98-.33-5.44 3.32-10.74 8.5-12.41m-4.31 7.37c-1.79 3.18-1.03 6.97-1.17 10.45 62.48.04 124.97.06 187.46-.01-.1-3.14.38-6.41-.67-9.44-1.48-3.87-5.65-6.32-9.73-5.99-55.69 0-111.38-.02-167.07.01-3.59-.17-7.17 1.79-8.82 4.98M2881 47.55c.01 37.8-.02 75.61.02 113.42-.41 5.44 4.53 10.4 9.98 10.01 56.04.01 112.07.06 168.1-.02 5.23.11 9.74-4.79 9.37-9.99-.01-37.81.04-75.63-.03-113.44-62.48 0-124.96-.03-187.44.02zM3236.45 26.64c3.08-1.01 6.39-.57 9.6-.64 52.65 0 105.3.01 157.95-.01 3.28.09 6.78-.44 9.9 1 4.72 1.92 7.86 6.94 7.62 12.04.01 40.68.01 81.37 0 122.06.2 5.06-2.94 10.01-7.62 11.93-3.09 1.42-6.57.9-9.82.99-54.39-.02-108.78-.02-163.17 0-4.91.23-9.74-2.74-11.76-7.2-1.67-3.37-1.09-7.22-1.15-10.84 0-39 .01-78-.01-117-.31-5.4 3.33-10.65 8.46-12.33m-3.17 5.74c-3.01 3.29-2.2 8-2.28 12.06 62.49.07 124.97.04 187.46.02-.11-3.38.5-6.97-.96-10.14-1.69-3.51-5.6-5.6-9.42-5.31-55.36-.02-110.71 0-166.06-.01-3.25-.22-6.66.8-8.74 3.38M3231 47.54c0 36.82.01 73.64-.01 110.45.02 2.67-.26 5.54 1.15 7.94 1.63 3.21 5.22 5.22 8.84 5.05 56.02.02 112.05.05 168.07-.02 5.21.13 9.76-4.72 9.42-9.91.01-37.83.01-75.66 0-113.48-62.49-.09-124.98-.04-187.47-.03zM3586.51 26.62c3.03-.98 6.3-.55 9.48-.62 54.37.01 108.74-.01 163.11 0 5.75-.1 11.19 4.39 12.17 10.06.43 2.96.19 5.96.26 8.94-.01 36.66-.01 73.33 0 109.99-.06 2.97.16 5.96-.26 8.92-.97 5.71-6.46 10.24-12.25 10.09-56.01.01-112.01-.02-168.01.01-4.97.26-9.86-2.72-11.88-7.25-1.66-3.34-1.06-7.17-1.13-10.75 0-39 .01-77.99-.01-116.99-.33-5.44 3.34-10.74 8.52-12.4m-3.21 5.73c-3.03 3.29-2.22 8.01-2.31 12.08 62.5.08 124.99.08 187.49 0-.16-3.53.56-7.39-1.25-10.61-1.81-3.26-5.57-5.08-9.21-4.82-55-.01-110 .02-165-.01-3.54-.25-7.41.46-9.72 3.36m-2.3 15.2c.01 37.81-.03 75.61.02 113.42-.32 4.64 3.22 9.15 7.84 9.85 2.68.31 5.41.14 8.16.18 52.66 0 105.32-.01 157.98 0 2.88-.06 6.08.35 8.7-1.28 3.09-1.72 4.9-5.24 4.77-8.75-.01-37.81.03-75.62-.02-113.43-62.48-.01-124.97-.04-187.45.01zM3936.5 26.62c3.04-.97 6.33-.55 9.52-.62 54.35.01 108.69-.01 163.04 0 5.37-.11 10.51 3.79 11.95 8.97.75 2.94.45 6.01.52 9.02-.02 38.99 0 77.99-.01 116.98.45 6.86-5.62 13.25-12.49 13.03-56.01.01-112.03-.02-168.04.01-4.94.25-9.82-2.71-11.84-7.2-1.67-3.33-1.09-7.15-1.16-10.74.01-39.02.02-78.03 0-117.05-.33-5.44 3.33-10.72 8.51-12.4m-3.19 5.72c-3.04 3.29-2.24 8.03-2.3 12.11 62.48.03 124.97.06 187.45-.01 0-4.36.69-9.62-2.96-12.83-3.31-3.36-8.29-2.52-12.5-2.61-53.33-.01-106.66.02-159.98-.01-3.54-.25-7.4.46-9.71 3.35M3931 47.55c.01 37.82-.03 75.65.02 113.48-.39 5.42 4.55 10.34 9.98 9.95 55.68.03 111.36.01 167.05.01 3.39.23 6.89-1.31 8.8-4.2 2.02-2.84 1.56-6.51 1.64-9.8-.05-36.49.02-72.97-.04-109.45-62.48-.02-124.97-.04-187.45.01zM4286.5 26.62c3.05-.98 6.32-.55 9.53-.62 54.32.01 108.64 0 162.97 0 6.87-.23 12.95 6.14 12.52 13.01.01 38.99-.01 77.98.01 116.97-.08 3 .22 6.07-.5 9.01-1.44 5.23-6.64 9.16-12.07 9.01-54.32 0-108.64-.01-162.96 0-3.64-.1-7.48.52-10.82-1.16-4.5-2.04-7.45-6.89-7.19-11.81.02-40.66.02-81.33 0-122-.33-5.44 3.33-10.74 8.51-12.41m-3.98 6.79c-2.2 3.26-1.39 7.35-1.52 11.03 62.49.07 124.97.04 187.46.02 0-4.39.7-9.66-2.99-12.87-3.04-3.1-7.61-2.6-11.51-2.59-54.32.02-108.65-.02-162.97.02-3.37-.15-6.71 1.54-8.47 4.39M4281 47.55c.01 37.83-.02 75.65.02 113.48-.39 5.43 4.56 10.35 10 9.95 55.68.04 111.36.01 167.05.02 3.38.22 6.88-1.33 8.78-4.22 2.03-2.84 1.56-6.52 1.64-9.82-.04-36.47-.01-72.93-.02-109.4-62.49-.07-124.98-.05-187.47-.01zM4636.45 26.64c3.06-1.01 6.37-.56 9.59-.64 54.32.01 108.65 0 162.98 0 5.42-.13 10.6 3.82 12.02 9.05.7 2.91.41 5.95.49 8.92-.02 39.01 0 78.02-.01 117.03.43 6.84-5.61 13.2-12.46 13-54.34.01-108.68-.01-163.02 0-3.67-.1-7.53.53-10.88-1.17-4.5-2.04-7.44-6.91-7.17-11.83.02-40.67.02-81.33 0-122-.32-5.41 3.31-10.68 8.46-12.36m-4.25 7.31c-1.83 3.2-1.06 7.02-1.19 10.51 62.48.02 124.96.03 187.45-.01-.13-3.76.66-7.99-1.64-11.27-1.92-2.9-5.45-4.41-8.84-4.17-55.68 0-111.36-.02-167.04.01-3.56-.15-7.09 1.8-8.74 4.93m-1.2 13.59c0 37.83-.02 75.66.02 113.5-.38 5.41 4.54 10.32 9.97 9.94 56.02.02 112.05.05 168.07-.02 5.23.13 9.76-4.75 9.41-9.96.01-37.81 0-75.63.01-113.44-62.5-.08-124.99-.03-187.48-.02zM4986.5 26.63c3.02-.99 6.29-.56 9.48-.64 54.36.02 108.73 0 163.09.01 5.75-.12 11.2 4.37 12.19 10.05.46 3.31.17 6.67.27 10 0 36.67-.02 73.33 0 110-.09 3.27.29 6.66-.77 9.81-1.76 4.78-6.64 8.26-11.75 8.14-56.03.01-112.06-.02-168.09.01-7.03.44-13.4-5.95-12.93-12.96.04-41.06-.04-82.11.04-123.17.07-5.04 3.69-9.69 8.47-11.25m-3.22 5.75c-3.02 3.29-2.21 8-2.28 12.07 62.48.05 124.96.02 187.45.02-.11-3.77.67-8.02-1.63-11.3-1.92-2.89-5.45-4.4-8.82-4.17-55.35 0-110.7.01-166.05 0-3.24-.22-6.61.82-8.67 3.38M4981 47.55c0 35.48-.01 70.96 0 106.44.02 3.06-.19 6.13.18 9.18.71 4.59 5.18 8.1 9.82 7.82 55.99 0 111.99.04 167.99-.02 5.23.15 9.81-4.71 9.48-9.93.01-37.83.01-75.66 0-113.49-62.49-.04-124.98-.04-187.47 0zM5336.51 26.62c3.01-.98 6.26-.55 9.45-.62 52.68 0 105.37.01 158.06-.01 3.27.09 6.82-.44 9.95 1.02 4.67 1.95 7.77 6.93 7.55 11.99.01 38.32 0 76.64.01 114.97-.1 3.29.18 6.62-.25 9.9-.96 5.73-6.46 10.27-12.25 10.13-56.01.01-112.03-.02-168.04.01-6.66.43-12.94-5.28-12.97-11.96-.06-41.01.01-82.02-.03-123.03-.33-5.44 3.33-10.74 8.52-12.4m-4.33 7.37c-1.81 3.18-1.05 6.98-1.18 10.45 62.48.06 124.97.04 187.45.02-.11-3.36.49-6.93-.92-10.08-1.68-3.54-5.62-5.66-9.46-5.37-55.7 0-111.41-.03-167.11.01-3.58-.16-7.14 1.8-8.78 4.97M5331 47.56v106.41c.02 3.07-.2 6.15.18 9.21.71 4.56 5.15 8.07 9.78 7.8 55.7.04 111.4.01 167.11.01 3.36.23 6.84-1.3 8.76-4.17 2.03-2.83 1.57-6.52 1.66-9.82-.04-36.48.01-72.96-.02-109.45-62.5-.04-124.98-.06-187.47.01zM5686.45 26.64c4.71-1.26 9.69-.4 14.55-.64h158.06c6.83-.2 12.87 6.14 12.46 12.97.01 38.99-.01 77.98.01 116.96-.1 3.49.35 7.16-.98 10.47-1.93 4.5-6.62 7.71-11.52 7.6-56.01.01-112.03-.02-168.03.01-6.66.43-12.93-5.26-12.98-11.94-.06-41.03.01-82.06-.03-123.1-.32-5.4 3.32-10.65 8.46-12.33m-3.94 6.79c-2.19 3.26-1.4 7.34-1.5 11.02 62.48.04 124.97.04 187.45 0-.14-3.76.66-7.99-1.63-11.27-1.93-2.88-5.43-4.4-8.8-4.17-55.67 0-111.35-.03-167.02.01-3.39-.16-6.75 1.54-8.5 4.41M5681 47.54v109.37c.04 3.03-.44 6.32 1.16 9.07 1.63 3.17 5.18 5.16 8.78 5 56.02.02 112.05.05 168.08-.01 5.23.14 9.79-4.73 9.45-9.95 0-37.82.02-75.64-.01-113.46-62.49-.07-124.97-.03-187.46-.02zM6036.46 26.64c5.71-1.34 11.69-.33 17.55-.64h155.05c6.82-.19 12.86 6.12 12.46 12.94.01 40.68 0 81.36 0 122.05.43 6.85-5.63 13.23-12.49 13.01-56.02.01-112.03-.02-168.05.01-4.93.25-9.8-2.7-11.81-7.18-1.71-3.37-1.12-7.24-1.18-10.86.01-38.99.02-77.98 0-116.97-.33-5.41 3.31-10.68 8.47-12.36m-2.66 5.18c-3.53 3.24-2.79 8.34-2.8 12.62 62.48.07 124.96.03 187.44.02-.1-3.75.67-7.98-1.6-11.26-1.92-2.89-5.42-4.42-8.79-4.19-54.35-.02-108.7 0-163.04-.01-3.91-.09-8.38-.31-11.21 2.82m-2.8 15.74c.01 37.79-.02 75.58.02 113.37-.44 5.46 4.5 10.44 9.98 10.05 56.03.02 112.06.05 168.09-.02 5.21.11 9.72-4.76 9.38-9.96-.01-37.82.03-75.64-.02-113.45-62.48-.03-124.97-.06-187.45.01zM6386.49 26.63c3.34-1.06 6.95-.52 10.47-.63h162c6.88-.25 12.98 6.12 12.56 12.99.01 40.66.01 81.32 0 121.97.45 6.9-5.67 13.3-12.57 13.04-54.32 0-108.65-.01-162.97 0-3.64-.1-7.46.52-10.78-1.16-4.5-2.02-7.47-6.86-7.21-11.77.03-41.01-.02-82.03.03-123.05.02-5.09 3.65-9.81 8.47-11.39m-5.13 9.37c-.65 2.78-.34 5.65-.35 8.46 62.49 0 124.98.07 187.47-.03-.17-3.54.54-7.4-1.25-10.62-1.83-3.25-5.59-5.07-9.21-4.8-55.68-.01-111.36-.02-167.03.01-4.35-.25-8.56 2.78-9.63 6.98m-.35 11.54c-.01 37.81-.03 75.61.01 113.42-.43 5.43 4.49 10.4 9.95 10.02 56.04.01 112.1.06 168.15-.02 5.21.1 9.71-4.8 9.35-10-.01-37.81.03-75.61-.02-113.42-62.48-.03-124.96-.02-187.44 0zM6737.23 26.41c3.82-.81 7.79-.27 11.73-.41h160.05c6.83-.22 12.9 6.09 12.51 12.93.02 40.03-.03 80.07.03 120.1 1.25 7.86-5.43 15.8-13.52 14.99-55.69-.04-111.37-.02-167.06-.01-4.94.25-9.79-2.71-11.81-7.18-1.56-3.04-1.18-6.54-1.17-9.82.02-39.34.01-78.67 0-118-.36-5.7 3.7-11.2 9.24-12.6m-5.07 7.62c-1.79 3.18-1.04 6.96-1.16 10.42 62.49.04 124.98.05 187.47 0-.16-3.76.64-7.98-1.63-11.25-1.92-2.89-5.42-4.42-8.78-4.19-55.67 0-111.33-.02-166.99.01-3.64-.19-7.27 1.79-8.91 5.01M6731 47.55c.01 37.82-.02 75.64.02 113.46-.4 5.43 4.53 10.36 9.97 9.97 55.66.04 111.32.01 166.98.02 5.19.53 10.39-3.72 10.45-9.05.11-38.13.03-76.27.04-114.4-62.49-.04-124.97-.04-187.46 0zM7087.27 26.39c9.83-.91 19.81-.13 29.73-.39h141.98c4.66-.11 9.19 2.77 11.26 6.96 1.7 3.4 1.18 7.34 1.29 11.02-.02 39.01 0 78.01-.01 117.02.19 4.85-2.62 9.61-6.96 11.73-3.61 1.88-7.78 1.14-11.6 1.27-53.98 0-107.96-.02-161.93.01-4.96.27-9.84-2.69-11.86-7.18-1.72-3.38-1.13-7.27-1.17-10.91 0-37.29 0-74.58-.01-111.86.05-3.64-.55-7.53 1.18-10.91 1.5-3.3 4.56-5.82 8.1-6.76m-5.1 7.61c-1.8 3.19-1.06 6.97-1.17 10.44 62.48.07 124.97.03 187.45.02-.13-3.76.66-7.98-1.61-11.27-1.94-2.9-5.47-4.42-8.85-4.18-55.68 0-111.37-.02-167.05.01-3.6-.15-7.14 1.82-8.77 4.98M7081 47.56c0 37.83-.01 75.66.02 113.49-.39 5.41 4.55 10.32 9.99 9.93 54 .04 108 .01 162 .02 3.75-.17 8.04.71 11.36-1.7 3.04-2 4.32-5.76 4.12-9.3-.05-37.48 0-74.96-.02-112.44-62.49-.06-124.98-.06-187.47 0zM7437.28 26.39c10.17-.91 20.48-.13 30.74-.39 47.35.04 94.71-.07 142.06.05 6.48.35 11.83 6.52 11.45 13-.01 40.65 0 81.31-.01 121.97.21 5.09-2.94 10.08-7.63 12.01-3.13 1.42-6.65.89-9.9.98-54.65-.04-109.31.02-163.96-.03-5.64-.04-10.78-4.45-11.79-9.94-.54-3.32-.21-6.68-.24-10.02-.01-36.68 0-73.37 0-110.06.03-3.6-.54-7.44 1.16-10.79 1.5-3.31 4.56-5.84 8.12-6.78m-5.08 7.57c-1.84 3.19-1.09 7.01-1.19 10.49 62.47.06 124.93 0 187.41.03.89-5.99-.46-14.08-7.58-15.28-12.28-.46-24.59-.07-36.86-.2-44.32.02-88.64-.02-132.96.02-3.6-.17-7.18 1.77-8.82 4.94m-1.2 13.59c-.01 36.81.01 73.61 0 110.41-.21 3.57-.06 7.61 2.79 10.21 3.1 3.43 8 2.82 12.22 2.83h156.94c3.76-.18 8.05.72 11.39-1.69 3.06-1.99 4.34-5.77 4.15-9.32-.07-37.49.04-74.97-.05-112.46-62.48.01-124.96-.04-187.44.02zM7786.48 26.63c3.35-1.06 6.96-.52 10.5-.63h162.08c6.85-.19 12.89 6.18 12.46 13.03 0 40.67.01 81.34 0 122.01.41 6.86-5.69 13.2-12.54 12.96-54.36.01-108.72-.01-163.07.01-3.64-.1-7.42.5-10.72-1.17-4.52-2.03-7.48-6.89-7.2-11.82.01-40.67.02-81.34 0-122.01-.33-5.43 3.31-10.71 8.49-12.38m-4.31 7.37c-1.81 3.19-1.07 6.98-1.16 10.46 62.48.01 124.98.06 187.47-.03-.18-3.76.63-8-1.67-11.27-1.93-2.88-5.44-4.38-8.8-4.16-55.69.01-111.38-.02-167.07.02-3.6-.16-7.14 1.82-8.77 4.98M7781 47.56v109.49c-.04 3.4-.43 7.21 1.88 10.06 2.22 3.26 6.35 4.22 10.14 3.9 53.67-.03 107.34 0 161.01-.01 3.42-.09 7.32.53 10.34-1.7 3-1.98 4.3-5.7 4.12-9.21-.06-37.51.03-75.03-.04-112.55-62.49-.02-124.97-.05-187.45.02zM8136.49 26.63c3.34-1.06 6.96-.52 10.49-.63 54.03.01 108.06 0 162.1 0 6.85-.18 12.88 6.2 12.44 13.04 0 40.67.01 81.33 0 121.99.4 6.84-5.65 13.18-12.48 12.97-54.36 0-108.72-.01-163.07 0-3.88-.06-8.02.53-11.45-1.49-4.16-2.2-6.8-6.83-6.53-11.51.01-40.65.02-81.31 0-121.97-.35-5.43 3.31-10.73 8.5-12.4m-4 6.82c-2.18 3.25-1.39 7.33-1.49 10.99 62.49.06 124.97.05 187.46.01-.15-3.75.64-7.95-1.6-11.23-1.93-2.9-5.44-4.44-8.81-4.22-55.69.01-111.38-.01-167.07.02-3.4-.14-6.75 1.56-8.49 4.43m-1.49 14.1c.01 37.82-.02 75.64.02 113.46-.41 5.43 4.54 10.37 10 9.98 56.01 0 112.02.05 168.03-.03 5.25.13 9.79-4.79 9.42-10.03-.01-37.8.03-75.59-.02-113.39-62.49-.02-124.97-.04-187.45.01z"/>
    <path d="M234.04 33.25c2.84-1.35 6.34 1.77 5.34 4.73-.52 2.78-4.34 4.06-6.42 2.13-2.43-1.76-1.71-5.91 1.08-6.86zM245.08 33.21c2.87-1.25 6.3 1.84 5.3 4.82-.57 2.73-4.29 3.98-6.38 2.12-2.5-1.78-1.74-5.94 1.08-6.94zM256.14 33.2c2.84-1.22 6.25 1.88 5.23 4.82-.54 2.73-4.33 4.03-6.38 2.1-2.52-1.75-1.7-6 1.15-6.92zM584.09 33.22c2.83-1.25 6.24 1.78 5.3 4.73-.5 2.77-4.29 4.09-6.39 2.2-2.49-1.78-1.75-5.96 1.09-6.93zM595.12 33.21c2.85-1.23 6.2 1.82 5.28 4.77-.57 2.79-4.38 4.07-6.46 2.11-2.45-1.79-1.64-5.96 1.18-6.88zM606.03 33.25c2.84-1.33 6.33 1.75 5.36 4.72-.52 2.78-4.38 4.1-6.44 2.12-2.44-1.75-1.67-5.87 1.08-6.84zM934.02 33.25c2.86-1.36 6.38 1.79 5.35 4.77-.56 2.77-4.35 4-6.42 2.09-2.41-1.78-1.7-5.87 1.07-6.86zM945.11 33.21c2.84-1.23 6.17 1.79 5.31 4.73-.56 2.8-4.37 4.13-6.47 2.16-2.45-1.79-1.67-5.96 1.16-6.89zM956.11 33.21c2.85-1.24 6.24 1.83 5.27 4.79-.54 2.73-4.31 4.05-6.37 2.13-2.54-1.74-1.74-5.97 1.1-6.92zM1284.05 33.24c2.84-1.33 6.33 1.8 5.33 4.76-.55 2.79-4.41 4.05-6.46 2.07-2.4-1.78-1.64-5.88 1.13-6.83zM1295.15 33.2c2.84-1.22 6.25 1.9 5.21 4.84-.56 2.75-4.34 3.98-6.4 2.08-2.47-1.8-1.68-6.01 1.19-6.92zM1306.02 33.23c2.85-1.3 6.35 1.77 5.36 4.75-.52 2.76-4.31 4.05-6.38 2.16-2.49-1.76-1.75-5.88 1.02-6.91zM1634.12 33.19c2.84-1.19 6.23 1.85 5.26 4.79-.51 2.74-4.3 4.07-6.37 2.16-2.55-1.77-1.74-5.98 1.11-6.95zM1645.1 33.22c2.85-1.26 6.25 1.82 5.29 4.78-.57 2.77-4.39 4.05-6.46 2.09-2.44-1.8-1.65-5.94 1.17-6.87zM1656.07 33.22c2.86-1.26 6.28 1.81 5.31 4.79-.57 2.76-4.35 4.02-6.42 2.1-2.46-1.8-1.68-5.9 1.11-6.89zM1984.11 33.2c2.85-1.21 6.19 1.81 5.29 4.77-.57 2.78-4.34 4.07-6.44 2.15-2.47-1.81-1.69-5.96 1.15-6.92zM1995.12 33.21c2.85-1.25 6.24 1.86 5.26 4.82-.6 2.77-4.4 4.01-6.45 2.05-2.44-1.81-1.64-5.93 1.19-6.87zM2006.06 33.22c2.86-1.27 6.29 1.81 5.33 4.79-.59 2.76-4.36 4.02-6.43 2.1-2.46-1.79-1.69-5.89 1.1-6.89zM2334.14 33.18c2.85-1.16 6.19 1.86 5.25 4.82-.57 2.75-4.34 4.04-6.4 2.12-2.54-1.77-1.7-5.99 1.15-6.94zM2345.08 33.22c2.84-1.27 6.27 1.82 5.3 4.77-.55 2.76-4.3 4.03-6.39 2.15-2.5-1.77-1.74-5.95 1.09-6.92zM2356.12 33.21c2.87-1.24 6.26 1.89 5.25 4.86-.63 2.71-4.35 3.96-6.4 2.04-2.49-1.78-1.7-5.97 1.15-6.9zM2684.06 33.21c2.88-1.25 6.29 1.83 5.32 4.82-.65 3.02-4.95 4.06-6.87 1.67-1.99-1.99-.99-5.53 1.55-6.49zM2695 33.27c2.83-1.39 6.34 1.72 5.39 4.71-.55 2.76-4.35 4.07-6.41 2.14-2.45-1.75-1.76-5.86 1.02-6.85zM2706.06 33.24c2.84-1.33 6.31 1.82 5.32 4.78-.58 2.76-4.38 4.02-6.42 2.08-2.46-1.76-1.71-5.92 1.1-6.86zM3034.08 33.21c2.88-1.26 6.3 1.87 5.29 4.86-.63 2.71-4.33 3.94-6.38 2.07-2.51-1.79-1.74-5.94 1.09-6.93zM3045.04 33.24c2.85-1.32 6.3 1.78 5.35 4.76-.59 2.77-4.37 4.04-6.43 2.11-2.46-1.77-1.71-5.89 1.08-6.87zM3056.18 33.18c2.83-1.16 6.16 1.9 5.2 4.82-.56 2.77-4.4 4.05-6.44 2.09-2.5-1.82-1.63-6 1.24-6.91zM3384.1 33.21c2.83-1.23 6.19 1.79 5.31 4.75-.57 2.76-4.32 4.08-6.4 2.19-2.53-1.77-1.77-5.98 1.09-6.94zM3395.13 33.2c2.82-1.2 6.16 1.81 5.27 4.74-.52 2.77-4.33 4.11-6.39 2.2-2.56-1.75-1.75-6.01 1.12-6.94zM3406.06 33.23c2.83-1.29 6.25 1.76 5.34 4.73-.56 2.78-4.34 4.08-6.42 2.16-2.49-1.76-1.74-5.92 1.08-6.89zM3734.09 33.2c2.85-1.22 6.26 1.84 5.28 4.81-.55 2.73-4.28 4-6.35 2.15-2.55-1.77-1.78-5.96 1.07-6.96zM3745.11 33.21c2.83-1.25 6.25 1.86 5.26 4.8-.57 2.79-4.41 4.02-6.45 2.08-2.43-1.82-1.65-5.95 1.19-6.88zM3756.07 33.22c2.84-1.25 6.23 1.77 5.33 4.75-.56 2.78-4.39 4.1-6.44 2.12-2.51-1.76-1.68-5.89 1.11-6.87zM4084.02 33.24c2.83-1.33 6.32 1.76 5.36 4.74-.54 2.77-4.34 4.06-6.4 2.15-2.49-1.77-1.75-5.87 1.04-6.89zM4095.06 33.23c2.85-1.29 6.26 1.8 5.34 4.77-.6 2.75-4.37 4.04-6.42 2.12-2.5-1.76-1.74-5.92 1.08-6.89zM4106.07 33.21c2.84-1.24 6.25 1.8 5.32 4.77-.55 2.75-4.31 4.05-6.38 2.17-2.54-1.76-1.78-5.95 1.06-6.94zM4434.06 33.24c2.81-1.31 6.28 1.78 5.32 4.73-.54 2.77-4.33 4.07-6.38 2.17-2.52-1.74-1.78-5.94 1.06-6.9zM4445.15 33.2c2.83-1.2 6.15 1.85 5.24 4.79-.58 2.77-4.38 4.06-6.43 2.12-2.51-1.8-1.69-6.01 1.19-6.91zM4456.13 33.2c2.81-1.21 6.18 1.83 5.25 4.75-.51 2.81-4.38 4.1-6.43 2.16-2.49-1.81-1.68-5.98 1.18-6.91zM4784.13 33.18c2.86-1.19 6.25 1.94 5.22 4.89-.59 2.73-4.42 3.96-6.41 2.01-2.51-1.8-1.64-5.94 1.19-6.9zM4795.06 33.25c2.83-1.35 6.32 1.83 5.31 4.79-.6 2.77-4.44 4-6.46 2.03-2.43-1.77-1.65-5.9 1.15-6.82zM4806.12 33.21c2.84-1.25 6.25 1.88 5.24 4.83-.58 2.72-4.3 3.96-6.35 2.12-2.54-1.77-1.79-6.02 1.11-6.95zM5134.06 33.22c2.86-1.27 6.26 1.8 5.33 4.79-.62 2.77-4.41 4.03-6.45 2.08-2.48-1.79-1.68-5.88 1.12-6.87zM5145.07 33.24c2.79-1.31 6.22 1.75 5.33 4.7-.54 2.78-4.34 4.11-6.4 2.2-2.53-1.75-1.78-5.96 1.07-6.9zM5156.12 33.21c2.81-1.22 6.12 1.78 5.3 4.72-.57 2.78-4.34 4.12-6.42 2.21-2.55-1.76-1.76-6 1.12-6.93zM5484.04 33.25c2.84-1.35 6.32 1.8 5.34 4.78-.62 2.77-4.41 3.99-6.45 2.06-2.44-1.78-1.7-5.88 1.11-6.84zM5495.11 33.21c2.82-1.25 6.21 1.84 5.28 4.79-.59 2.78-4.43 4.05-6.45 2.08-2.5-1.78-1.67-5.94 1.17-6.87zM5506.08 33.24c2.79-1.3 6.17 1.73 5.34 4.69-.56 2.78-4.35 4.12-6.42 2.21-2.53-1.75-1.79-5.96 1.08-6.9zM5834.1 33.2c2.85-1.24 6.26 1.88 5.27 4.86-.62 2.71-4.37 3.96-6.38 2.07-2.55-1.79-1.74-5.94 1.11-6.93zM5845.11 33.22c2.81-1.26 6.19 1.81 5.28 4.76-.58 2.79-4.42 4.07-6.45 2.11-2.49-1.78-1.68-5.95 1.17-6.87zM5856.12 33.21c2.81-1.25 6.2 1.85 5.26 4.78-.57 2.76-4.33 4.03-6.38 2.16-2.55-1.78-1.78-6 1.12-6.94zM6184.08 33.22c2.82-1.27 6.23 1.79 5.31 4.76-.57 2.79-4.42 4.06-6.45 2.12-2.47-1.81-1.7-5.91 1.14-6.88zM6195.12 33.19c2.84-1.18 6.16 1.84 5.28 4.81-.62 2.76-4.4 4.05-6.44 2.11-2.53-1.8-1.69-5.96 1.16-6.92zM6206.05 33.21c2.85-1.25 6.29 1.82 5.33 4.82-.6 2.74-4.4 4-6.41 2.08-2.53-1.78-1.71-5.86 1.08-6.9zM6534.11 33.2c2.83-1.22 6.22 1.86 5.26 4.81-.57 2.77-4.4 4.02-6.41 2.09-2.52-1.79-1.7-5.95 1.15-6.9zM6545.11 33.19c2.82-1.19 6.18 1.83 5.28 4.78-.56 2.77-4.36 4.07-6.4 2.17-2.55-1.8-1.75-5.96 1.12-6.95zM6556.1 33.23c2.79-1.29 6.21 1.8 5.29 4.73-.55 2.79-4.38 4.07-6.42 2.16-2.51-1.77-1.75-5.97 1.13-6.89zM6884.08 33.22c2.81-1.27 6.24 1.81 5.3 4.76-.56 2.74-4.32 4.06-6.35 2.18-2.59-1.75-1.83-5.97 1.05-6.94zM6895.1 33.2c2.84-1.24 6.25 1.89 5.27 4.85-.62 2.71-4.33 3.96-6.35 2.11-2.58-1.78-1.8-5.96 1.08-6.96zM6906.08 33.23c2.79-1.28 6.2 1.77 5.32 4.72-.55 2.77-4.34 4.09-6.39 2.2-2.55-1.76-1.81-5.96 1.07-6.92zM7234.1 33.22c2.82-1.27 6.2 1.83 5.3 4.79-.64 2.74-4.37 4.01-6.41 2.13-2.54-1.77-1.78-5.98 1.11-6.92zM7245.09 33.22c2.84-1.26 6.21 1.82 5.31 4.8-.66 2.73-4.37 4-6.41 2.12-2.55-1.78-1.77-5.96 1.1-6.92zM7256.08 33.23c2.83-1.3 6.24 1.83 5.31 4.8-.64 2.75-4.4 3.99-6.44 2.08-2.5-1.78-1.72-5.94 1.13-6.88zM7584.1 33.22c2.79-1.25 6.17 1.78 5.3 4.72-.56 2.8-4.4 4.12-6.44 2.17-2.52-1.78-1.72-5.95 1.14-6.89zM7595.11 33.22c2.81-1.26 6.23 1.85 5.26 4.79-.56 2.74-4.4 4.04-6.39 2.1-2.56-1.75-1.75-5.97 1.13-6.89zM7606.04 33.23c2.06-.91 4.82.49 5.33 2.77 1.08 3.23-3.08 6.42-5.88 4.48-2.98-1.51-2.55-6.17.55-7.25zM7934.08 33.22c2.83-1.27 6.2 1.81 5.32 4.78-.62 2.75-4.4 4.04-6.43 2.11-2.54-1.77-1.74-5.93 1.11-6.89zM7945.05 33.23c2.84-1.31 6.29 1.83 5.33 4.81-.64 2.77-4.45 3.99-6.46 2.05-2.46-1.81-1.69-5.88 1.13-6.86zM7956.07 33.24c2.79-1.31 6.2 1.76 5.33 4.72-.58 2.78-4.39 4.08-6.42 2.16-2.53-1.76-1.77-5.93 1.09-6.88zM8284.08 33.21c2.82-1.25 6.26 1.84 5.29 4.81-.59 2.77-4.48 4.04-6.46 2.04-2.49-1.8-1.64-5.87 1.17-6.85zM8295.06 33.23c2.83-1.31 6.3 1.85 5.3 4.82-.61 2.73-4.36 3.95-6.37 2.09-2.53-1.77-1.79-5.94 1.07-6.91zM8306.12 33.21c2.81-1.24 6.21 1.87 5.25 4.81-.59 2.74-4.38 4-6.38 2.11-2.56-1.77-1.77-5.99 1.13-6.92zM1840.74 84.71c3.15-.28 5.87 1.62 8.75 2.6 7.12 2.99 14.48 5.45 21.45 8.79-.95 2.93-4.83 3.45-7.1 5.18 2.88 3.39 6.42 6.17 9.24 9.63-1.02 2.44-3.56 3.88-5.21 5.87-3.76-2.51-6.23-6.46-9.9-9.04-2.08 2.05-2.75 5.14-5.01 7.07-3.56-6.4-5.58-13.54-8.51-20.24-1.29-3.27-2.76-6.47-3.71-9.86m3.76 3.18c2.6 7.57 5.85 14.91 8.75 22.37 1.43-2.05 2.68-4.22 3.95-6.39 4.01 2.7 6.91 6.69 10.53 9.86.41-.98 3-2.09 1.73-3.3-2.99-3.2-6.29-6.08-9.15-9.39 2.04-1.65 4.35-2.91 6.57-4.31-7.5-2.86-14.9-5.97-22.38-8.84zM4050.1 88.06c1.58-.04 3.19-.06 4.88-.09.01 10.52-.04 21.04.03 31.56-2.16.1-4.86.37-4.49-2.62-2.17 1.73-4.65 3.49-7.56 3.13-4.38.01-7.66-3.97-8.11-8.08-.7-4.69-.49-10.41 3.4-13.75 3.51-2.9 8.77-1.95 12 .98-.14-3.71-.1-7.42-.15-11.13m-7.89 13.09c-3.43 2.76-3.18 8.04-1.95 11.86 1.33 4.12 8.14 3.99 9.51-.05.79-2.89.76-6.04.07-8.96-.8-3.2-4.96-4.41-7.63-2.85zM4400.15 88h4.84c-.01 10.5-.06 21 .03 31.5-2.14.19-4.84.36-4.52-2.59-2.18 1.76-4.69 3.53-7.62 3.13-4.35-.04-7.58-4-8.03-8.07-.71-4.72-.48-10.46 3.43-13.79 3.53-2.86 8.8-1.93 11.98 1.07-.16-3.75-.13-7.5-.11-11.25m-7.93 13.14c-3.45 2.77-3.2 8.08-1.95 11.9 1.36 4.08 8.11 3.94 9.49-.06.8-2.91.77-6.08.08-9.01-.84-3.18-4.96-4.37-7.62-2.83zM4750.11 88.05c1.56-.03 3.19-.05 4.89-.06-.03 10.51-.04 21.03 0 31.54-2.15.09-4.86.38-4.45-2.6-2.21 1.67-4.65 3.47-7.55 3.11-4.41.03-7.7-3.96-8.15-8.09-.74-4.88-.45-10.99 3.93-14.14 3.58-2.45 8.35-1.34 11.49 1.36-.17-3.7-.14-7.41-.16-11.12m-7.88 13.08c-3.45 2.77-3.21 8.05-1.97 11.88 1.31 4.07 8.02 4 9.47.05.84-2.91.79-6.09.12-9.04-.81-3.2-4.94-4.43-7.62-2.89zM5100.13 88.03c1.55-.02 3.17-.03 4.86-.04-.01 10.51-.04 21.02.02 31.53-2.16.19-4.84.3-4.51-2.63-2.16 1.79-4.69 3.52-7.6 3.15-4.38-.02-7.62-4.01-8.05-8.11-.7-4.69-.48-10.37 3.38-13.71 3.51-2.9 8.82-1.99 12.02 1.01-.15-3.73-.11-7.47-.12-11.2m-7.92 13.14c-3.44 2.71-3.18 8-1.97 11.79 1.29 4.16 8.14 4.06 9.53 0 .79-3.09.84-6.5-.15-9.55-1.12-2.82-4.97-3.69-7.41-2.24zM5450.12 88.04c1.55-.03 3.16-.05 4.86-.06 0 10.52-.02 21.04.01 31.56-2.12.14-4.82.3-4.45-2.61-2.21 1.68-4.66 3.48-7.56 3.11-4.42.02-7.71-4-8.14-8.13-.7-4.69-.46-10.37 3.41-13.7 3.51-2.89 8.77-1.96 11.99.99-.14-3.72-.1-7.44-.12-11.16m-7.97 13.15c-3.36 2.8-3.13 8.01-1.89 11.81 1.31 4.12 8.12 4 9.5-.02.8-2.92.76-6.1.07-9.03-.86-3.19-5.05-4.36-7.68-2.76zM5800.15 88h4.84c-.02 10.51-.04 21.02.01 31.53-2.15.12-4.85.34-4.49-2.61-2.19 1.72-4.65 3.49-7.55 3.12-4.37.01-7.64-3.93-8.1-8.02-.72-4.7-.52-10.41 3.35-13.78 3.51-2.93 8.81-1.99 12.06.97-.18-3.73-.15-7.47-.12-11.21m-7.94 13.16c-3.44 2.73-3.18 8.01-1.97 11.81 1.28 4.12 8.05 4.06 9.49.08.84-2.94.79-6.15.09-9.11-.85-3.16-4.99-4.35-7.61-2.78zM6150.14 88.01c1.54-.01 3.15-.01 4.85-.01-.02 10.51-.04 21.02.02 31.54-2.2.08-4.88.35-4.54-2.66-3.46 3.8-10.21 4.51-13.49.18-3.3-4.77-3.22-11.61-.61-16.66 2.75-5.02 10.04-4.97 13.89-1.2-.17-3.73-.14-7.46-.12-11.19m-7.89 13.12c-3.49 2.74-3.23 8.1-1.98 11.92 1.36 4.08 8.13 3.93 9.5-.09.77-2.9.75-6.05.07-8.96-.81-3.18-4.95-4.4-7.59-2.87zM6500.15 88h4.84c-.02 10.52-.04 21.03.01 31.55-2.15.07-4.88.35-4.46-2.63-3.42 3.43-9.53 4.52-13.04.72-3.83-4.48-3.68-11.41-1.49-16.59 2.43-5.52 10.23-5.88 14.22-1.84-.12-3.74-.12-7.47-.08-11.21m-7.96 13.17c-3.43 2.77-3.18 8.07-1.91 11.89 1.34 4.05 8.06 3.92 9.46-.04.81-2.9.77-6.06.11-8.99-.81-3.22-5-4.46-7.66-2.86zM6850.15 88c1.53 0 3.12-.01 4.83 0 .01 10.5-.06 21 .04 31.51-2.17.12-4.91.4-4.47-2.59-3.44 3.46-9.62 4.52-13.12.66-3.76-4.52-3.61-11.41-1.4-16.58 2.46-5.49 10.29-5.84 14.24-1.73-.19-3.76-.16-7.51-.12-11.27m-8.02 13.21c-2.4 1.74-2.75 5-2.66 7.72.07 2.39.57 5.32 2.95 6.56 2.48 1.23 6.31.4 7.33-2.48.8-2.94.77-6.13.07-9.09-.88-3.18-5.08-4.35-7.69-2.71zM7200.13 88.04c1.52-.03 3.13-.05 4.85-.06.01 10.52-.05 21.03.03 31.54-2.17.08-4.91.43-4.46-2.59-3.46 3.45-9.66 4.51-13.15.62-3.71-4.5-3.58-11.33-1.4-16.48 2.41-5.55 10.28-5.92 14.27-1.82-.19-3.74-.15-7.48-.14-11.21m-7.94 13.13c-3.42 2.76-3.17 8.03-1.93 11.83 1.31 4.11 8.1 4 9.5-.01.79-2.91.74-6.06.09-8.99-.83-3.21-5.02-4.42-7.66-2.83zM7550.12 88.04c1.52-.03 3.14-.05 4.86-.06 0 10.52-.03 21.04.02 31.56-2.17.04-4.9.4-4.44-2.61-3.47 3.44-9.66 4.52-13.15.62-3.74-4.52-3.6-11.4-1.37-16.57 2.46-5.47 10.26-5.8 14.22-1.73-.18-3.74-.14-7.47-.14-11.21m-7.91 13.12c-3.45 2.73-3.19 8.02-1.97 11.81 1.29 4.13 8.08 4.05 9.51.04.79-2.92.76-6.1.08-9.04-.83-3.18-5-4.39-7.62-2.81zM2193.05 89.62c.61-.06 1.84-.18 2.46-.24.02 10.08.03 20.15 0 30.23-.62-.06-1.85-.19-2.47-.25-.08-9.92-.08-19.83.01-29.74zM2568.99 89.39c.62.07 1.86.19 2.47.25.16 9.97 0 19.95.08 29.92-.63-.04-1.87-.12-2.5-.16-.12-10 .01-20-.05-30.01zM2929.22 90.1c1.48-.07 3-.12 4.56-.15-3.45 9.88-7.36 19.6-10.84 29.47-1.56.05-3.09.11-4.57.15 3.39-9.9 7.41-19.58 10.85-29.47zM2937.49 89.41c.61.05 1.85.15 2.46.2.08 9.92.08 19.85.01 29.77l-2.48.2c-.01-10.06-.03-20.12.01-30.17zM3279.21 90.11c1.47-.07 2.99-.13 4.56-.17-3.43 9.9-7.35 19.63-10.85 29.5-1.56.05-3.08.09-4.56.13 3.41-9.9 7.42-19.57 10.85-29.46zM3308.53 89.64c.62-.06 1.86-.19 2.48-.25-.07 9.99.06 19.98-.05 29.97-.62.07-1.84.21-2.45.28-.04-10-.12-20 .02-30zM3629.22 90.1c1.47-.07 2.98-.12 4.54-.17-3.4 9.9-7.35 19.61-10.82 29.48-1.56.06-3.09.12-4.57.17 3.39-9.91 7.41-19.59 10.85-29.48zM3681.98 93.98c.1-2.09-.97-5.47 2.51-4.63.01 10.01.13 20.03-.05 30.03-.61.05-1.84.15-2.46.19.02-8.53.02-17.06 0-25.59zM3979.2 90.12c1.47-.08 2.99-.14 4.57-.19-3.41 9.9-7.36 19.61-10.83 29.49-1.58.05-3.11.1-4.6.14 3.45-9.88 7.43-19.56 10.86-29.44zM4060.04 89.62c.62-.06 1.86-.17 2.48-.22 0 10.07.01 20.14-.01 30.21-.62-.06-1.85-.18-2.47-.24-.08-9.91-.08-19.84 0-29.75zM4329.24 90.09c1.45-.07 2.96-.11 4.53-.15-3.41 9.89-7.37 19.57-10.79 29.44-1.59.08-3.13.14-4.62.2 3.42-9.9 7.4-19.61 10.88-29.49zM4433.5 89.38c.62.06 1.84.19 2.45.25.07 9.92.08 19.84 0 29.75-.61.06-1.84.17-2.45.23-.05-10.08-.06-20.16 0-30.23zM4679.25 90.09c1.43-.07 2.92-.13 4.46-.17-3.29 9.94-7.33 19.63-10.78 29.51-1.58.05-3.1.09-4.56.13 3.42-9.89 7.38-19.6 10.88-29.47zM4808.04 89.6c.63-.04 1.88-.11 2.5-.14-.04 10.04-.01 20.08-.02 30.12l-2.48-.2c-.08-9.93-.08-19.86 0-29.78zM5029.23 90.1c1.44-.07 2.94-.13 4.52-.17-3.38 9.92-7.35 19.63-10.83 29.51-1.58.04-3.1.09-4.56.12 3.42-9.89 7.4-19.58 10.87-29.46zM5157.98 89.44c.61.03 1.83.1 2.45.14.17 9.93.13 19.87.02 29.8-.62.05-1.85.15-2.46.2.01-10.04.02-20.09-.01-30.14zM5379.21 90.1c1.46-.06 2.99-.11 4.58-.15-3.47 9.88-7.37 19.59-10.84 29.46-1.59.06-3.12.12-4.57.16 3.37-9.9 7.4-19.57 10.83-29.47zM5508.05 89.63c.6-.07 1.82-.22 2.43-.29.04 10.01.11 20.02-.02 30.03-.62.06-1.85.17-2.47.23.05-9.99-.09-19.98.06-29.97zM5729.22 90.1c1.45-.07 2.96-.12 4.56-.16-3.44 9.89-7.37 19.61-10.84 29.48-1.59.05-3.12.1-4.57.14 3.4-9.89 7.4-19.58 10.85-29.46zM5857.98 94.02c.08-2.12-1.01-5.57 2.54-4.62v30.19c-.62-.05-1.85-.14-2.47-.19-.16-8.46 0-16.92-.07-25.38zM6079.24 90.1c1.4-.08 2.88-.15 4.45-.2-3.23 9.96-7.33 19.63-10.76 29.52-1.59.06-3.1.12-4.54.17 3.35-9.93 7.38-19.61 10.85-29.49zM6429.25 90.1c1.39-.08 2.87-.15 4.44-.2-3.23 9.96-7.34 19.62-10.75 29.52-1.6.06-3.12.11-4.57.15 3.4-9.9 7.38-19.6 10.88-29.47zM6779.24 90.09c1.42-.07 2.92-.12 4.52-.15-3.4 9.9-7.36 19.61-10.83 29.49-1.6.05-3.13.09-4.57.13 3.42-9.89 7.39-19.59 10.88-29.47zM6908.05 89.61c.61-.05 1.85-.15 2.47-.21.01 10.06-.02 20.11.01 30.16l-2.48-.16c-.1-9.93-.1-19.86 0-29.79zM7129.27 90.07c1.37-.07 2.83-.12 4.39-.17-3.16 9.97-7.33 19.61-10.71 29.5-1.6.07-3.11.13-4.54.19 3.32-9.94 7.35-19.63 10.86-29.52zM7257.99 89.39c2.05-.33 2.9.54 2.55 2.63-.06 9.2 0 18.4-.04 27.6-.61-.07-1.84-.19-2.46-.26-.13-9.99-.01-19.98-.05-29.97zM7479.25 90.08c1.41-.06 2.92-.1 4.52-.13-3.44 9.89-7.36 19.6-10.83 29.48-1.62.05-3.15.1-4.59.14 3.44-9.9 7.39-19.61 10.9-29.49zM7559.99 89.39c3.3-.84 2.4 2.48 2.55 4.65-.07 8.52 0 17.05-.03 25.58-3.54.89-2.47-2.49-2.53-4.58.02-8.55 0-17.1.01-25.65zM7829.22 90.1c1.42-.07 2.94-.12 4.56-.16-3.42 9.88-7.4 19.56-10.79 29.43-1.65.09-3.2.15-4.66.19 3.47-9.87 7.41-19.58 10.89-29.46zM4785.39 94.06c6.24 2.88 12.35 6.06 18.53 9.11 1.8.49 1.88 3.24.04 3.73-6.21 2.68-12.33 5.54-18.59 8.04-.06-1.27-.06-2.54 0-3.8 4.82-2.28 9.88-4.03 14.74-6.32-4.92-2.36-9.95-4.49-14.76-7.02-.05-1.25-.03-2.49.04-3.74zM5135.41 94.03c6.2 2.97 12.37 6.06 18.53 9.17 1.78.37 1.88 3.31.04 3.68-6.2 2.72-12.36 5.53-18.61 8.07-.07-1.26-.07-2.52-.02-3.78 4.63-2.51 10.05-3.62 14.43-6.54-4.82-2.27-9.72-4.36-14.43-6.81-.04-1.27-.02-2.53.06-3.79zM5485.38 94.06c6.43 3.01 12.8 6.2 19.13 9.47 1.4.59.87 3.05-.52 3.36-6.2 2.7-12.36 5.5-18.59 8.07-.09-1.26-.11-2.51-.07-3.77 4.77-2.45 10.02-3.88 14.73-6.52-4.99-2.13-9.9-4.41-14.7-6.85-.06-1.26-.05-2.51.02-3.76zM5835.39 94.04c5.73 2.65 11.33 5.62 17.06 8.36.92.72 2.86.96 2.9 2.54.27 1.7-1.74 1.92-2.71 2.58-5.8 2.4-11.45 5.13-17.26 7.42-.08-1.27-.09-2.53-.02-3.8 4.76-2.38 9.96-3.81 14.61-6.47-4.92-2.18-9.81-4.42-14.6-6.82-.06-1.27-.06-2.54.02-3.81zM6185.41 94.04c6.21 2.95 12.35 6.07 18.52 9.14 1.73.5 1.91 3.25.06 3.7-6.21 2.71-12.36 5.52-18.61 8.08-.08-1.27-.09-2.54-.02-3.81 4.75-2.4 9.97-3.8 14.61-6.49-4.95-2.18-9.86-4.39-14.63-6.87-.05-1.25-.03-2.5.07-3.75zM6535.4 94.06c6.26 2.91 12.41 6.09 18.62 9.16 1.68.54 1.71 3.14.01 3.65-6.24 2.68-12.37 5.57-18.66 8.05-.09-1.23-.1-2.47-.05-3.7 4.7-2.53 10.01-3.8 14.62-6.57-4.93-2.21-9.88-4.36-14.62-6.9-.05-1.23-.02-2.46.08-3.69zM6885.38 94.07c6.64 3.15 13.3 6.33 19.77 9.86 1.18 2.91-2.36 3.28-4.12 4.28-5.27 2.19-10.38 4.69-15.66 6.72-.09-1.26-.09-2.52-.01-3.78 4.72-2.44 9.99-3.73 14.56-6.52-4.93-2.16-9.82-4.37-14.57-6.82-.07-1.25-.06-2.5.03-3.74zM7235.38 94.06c6.23 2.88 12.33 6.05 18.52 9.09 1.73.5 1.91 3.17.13 3.72-6.23 2.69-12.38 5.55-18.65 8.07-.1-1.25-.11-2.5-.04-3.75 4.72-2.46 9.98-3.82 14.62-6.53-4.94-2.19-9.86-4.38-14.62-6.87-.07-1.25-.06-2.49.04-3.73zM7570.74 93.76c3.62-.31 6.78 2.07 10.19 3.13 6.56 2.86 13.58 4.91 19.88 8.29-.71 2.84-5.01 3.32-6.98 5.4 3.09 3.09 6.52 5.94 9.23 9.42-1.34 2.15-3.55 5-5.96 5.36-3.26-2.81-6.04-6.09-9.19-8.97-1.46 2.18-2.6 4.53-4.04 6.66-1.75 1.12-2.23-1.27-2.61-2.31-3.42-9.03-7.39-17.86-10.52-26.98m3.84 3.14c2.41 7.6 5.8 14.86 8.65 22.32 1.79-1.73 2.19-5.22 4.65-6.05 3.48 2.89 6.36 6.46 9.8 9.46.59-.52 1.78-1.57 2.37-2.1-2.68-4-6.8-6.75-9.74-10.52 2.02-1.6 4.33-2.85 6.53-4.34-7.5-2.76-14.84-5.9-22.26-8.77zM2546.31 103.43c6.32-3.08 12.49-6.53 19-9.2-.02.94-.08 2.81-.11 3.75-4.78 2.19-9.48 4.55-14.31 6.6 4.27 2.9 9.53 4.14 14.23 6.32.05.99.16 2.97.22 3.96-6.81-2.48-13.27-5.8-19.97-8.51.16-.96-.37-2.53.94-2.92zM2895.5 103.77c6.65-3.09 13.04-6.76 19.83-9.58-.05.96-.14 2.89-.19 3.85-4.77 2.12-9.41 4.51-14.22 6.52 3.81 2.85 8.81 3.76 13.07 5.91 1.99.45.91 3.05 1.35 4.44-6.76-2.6-13.28-5.77-19.93-8.58-.02-.85.01-1.71.09-2.56zM3249.8 101.66c5.19-2.43 10.16-5.35 15.52-7.44-.03.94-.09 2.82-.13 3.77-4.77 2.18-9.46 4.54-14.28 6.58 4.22 2.95 9.55 4.11 14.22 6.36.06.96.18 2.87.24 3.83-6.88-2.27-13.28-5.75-20-8.41-.76-2.96 2.4-3.62 4.43-4.69zM3599.74 101.69c5.19-2.48 10.24-5.28 15.55-7.55-.02.96-.07 2.88-.09 3.84-4.79 2.19-9.48 4.55-14.3 6.6 4.26 2.91 9.54 4.13 14.24 6.34.05.99.15 2.95.19 3.93-6.81-2.47-13.27-5.79-19.97-8.5-.75-2.93 2.36-3.61 4.38-4.66zM3950.32 101.4c5-2.37 9.83-5.13 14.98-7.21-.02.94-.07 2.84-.1 3.78-4.79 2.22-9.52 4.54-14.34 6.65 4.32 2.82 9.53 4.11 14.24 6.27.06.99.18 2.97.25 3.96-6.83-2.46-13.29-5.79-20-8.51-.73-3.19 2.86-3.72 4.97-4.94zM4299.75 101.69c5.18-2.48 10.22-5.29 15.54-7.54-.02.96-.05 2.86-.07 3.81-4.79 2.23-9.54 4.55-14.36 6.66 4.34 2.81 9.52 4.12 14.25 6.27.05 1 .16 3.01.21 4.01-6.78-2.59-13.29-5.81-19.98-8.57-.68-2.92 2.36-3.59 4.41-4.64zM4649.75 101.69c5.19-2.47 10.21-5.33 15.56-7.51-.03.96-.1 2.87-.14 3.83-4.8 2.18-9.52 4.51-14.32 6.63 4.35 2.77 9.53 4.11 14.25 6.25.06.99.19 2.96.25 3.95-6.85-2.45-13.32-5.79-20.03-8.53-.64-2.9 2.4-3.58 4.43-4.62zM4999.74 101.69c5.19-2.49 10.25-5.27 15.55-7.56-.02.97-.08 2.91-.11 3.88-4.8 2.17-9.51 4.52-14.31 6.61 3.93 2.7 8.81 3.74 13.12 5.85 1.96.41.83 2.99 1.4 4.35-6.88-2.39-13.36-5.78-20.09-8.52-.59-2.9 2.4-3.57 4.44-4.61zM5349.75 101.68c5.19-2.46 10.21-5.31 15.55-7.5-.02.95-.07 2.85-.1 3.8-4.81 2.2-9.54 4.56-14.37 6.64 3.96 2.67 8.82 3.74 13.14 5.84 1.99.4.82 3 1.43 4.37-6.89-2.41-13.39-5.77-20.1-8.55-.6-2.87 2.45-3.56 4.45-4.6zM5696.33 103.43c6.29-3.13 12.5-6.47 18.98-9.26-.03.96-.09 2.87-.13 3.82-4.79 2.19-9.48 4.54-14.29 6.6 4.26 2.89 9.53 4.12 14.23 6.32.06.99.16 2.96.22 3.94-6.83-2.48-13.3-5.79-20-8.52.11-.96-.32-2.5.99-2.9zM6046.31 103.43c6.31-3.1 12.51-6.49 19.01-9.25-.04.96-.12 2.89-.16 3.85-4 1.76-7.87 3.74-11.84 5.46-.8.54-2.57.51-2 1.75 4.16 1.83 8.45 3.41 12.67 5.23 1.99.39.74 3 1.4 4.37-6.87-2.42-13.36-5.78-20.07-8.54.16-.94-.31-2.49.99-2.87zM6396.31 103.43c6.3-3.12 12.52-6.45 18.99-9.28-.03.97-.09 2.89-.12 3.86-4.69 2.17-9.35 4.34-14 6.51-.03 1.28 1.63 1.2 2.6 1.78 3.38 1.37 6.78 2.73 10.19 4.16 1.93.47.88 3.02 1.39 4.41-6.83-2.5-13.32-5.8-20.02-8.54.13-.95-.35-2.52.97-2.9zM6746.29 103.45c6.31-3.12 12.52-6.5 19.02-9.26l-.12 3.8c-4.81 2.21-9.55 4.52-14.35 6.66 4.28 2.81 9.48 3.89 14.04 6.28.13.96.4 2.89.53 3.86-6.9-2.3-13.33-5.76-20.06-8.45.13-.96-.4-2.52.94-2.89zM7096.29 103.44c6.31-3.13 12.54-6.46 19.02-9.29-.04.98-.12 2.92-.17 3.89-4.8 2.12-9.46 4.51-14.25 6.55 4.28 2.89 9.54 4.12 14.25 6.34.05.97.15 2.92.21 3.89-6.85-2.4-13.29-5.78-19.99-8.48.08-.96-.38-2.48.93-2.9zM7445.5 103.93c6.5-3.42 13.07-6.78 19.81-9.77-.04.96-.1 2.88-.13 3.85-4.7 2.17-9.37 4.35-14.02 6.51.06 1.29 1.53 1.2 2.59 1.77 3.78 1.47 7.51 3.13 11.35 4.6.06.99.18 2.97.25 3.97-5.64-1.98-10.94-4.72-16.43-6.96-1.77-.86-4.72-1.4-3.42-3.97zM7795.5 103.77c6.62-3.13 13.07-6.67 19.8-9.65-.04.98-.11 2.94-.14 3.92-4.82 2.14-9.51 4.5-14.3 6.59 4.25 2.86 9.51 3.92 14.09 6.32.1.98.32 2.93.42 3.91-6.82-2.47-13.29-5.76-19.96-8.52-.07-.86-.04-1.71.09-2.57zM1491.75 96.68c3.33-.16 6.21 1.81 9.28 2.85 6.93 2.91 14.1 5.3 20.88 8.55-.85 2.94-4.8 3.46-7.06 5.18 2.83 3.45 6.45 6.17 9.22 9.67-1.03 2.44-3.56 3.88-5.24 5.87-3.68-2.76-6.55-6.39-9.95-9.45-1.52 2.54-2.84 5.23-4.8 7.47-2.3-3.02-3.1-6.81-4.63-10.21-2.52-6.67-5.56-13.14-7.7-19.93m3.87 3.22c2.34 7.62 5.8 14.87 8.61 22.33 1.8-1.73 2.27-5.23 4.6-6.04 3.59 2.8 6.4 6.48 9.87 9.44.6-.54 1.78-1.61 2.38-2.15-2.77-3.92-6.78-6.73-9.77-10.47 2.06-1.61 4.37-2.88 6.57-4.32-7.48-2.79-14.83-5.88-22.26-8.79zM3291.33 98.23c3.84-2.47 8.97-2.22 13.03-.31-.63 1.26-1.21 2.51-1.8 3.75-2.43-.87-5.11-1.77-7.56-.59-2.71 1.58-3.16 5.06-3.02 7.9 0 2.54.84 5.57 3.44 6.63 2.76 1 5.84.01 8.39-1.26-.13 1.48-.16 2.96-.11 4.44-4.08 1.62-9.09 1.99-12.8-.63-3.11-2.36-3.96-6.55-3.89-10.23.08-3.59 1.13-7.61 4.32-9.7zM3641.95 97.84c3.76-1.98 8.46-1.77 12.28.03-.46 1.21-.88 2.42-1.26 3.63-2.81-.55-6.03-1.86-8.58-.01-2.49 2.05-2.59 5.62-2.34 8.56.13 2.44 1.4 5.1 3.96 5.78 2.55.53 5.37-.09 7.56-1.59.17 1.42.21 3 .14 4.51-4.05 1.69-9.08 2.01-12.79-.58-3.13-2.35-3.98-6.53-3.91-10.22.05-3.83 1.33-8.16 4.94-10.11zM3664.14 97.28c4.25-1.62 9.83-.98 12.73 2.86 3.05 4.14 3.09 10.09 1.04 14.68-3.4 7.12-15.27 6.95-18.51-.22-2.71-5.76-1.77-14.59 4.74-17.32m1.18 4.18c-3 2.7-2.7 7.47-1.71 11.04 1.14 4.26 7.8 4.79 9.74.9 1.35-3.1 1.3-6.83.16-9.99-1.31-3.09-5.64-3.75-8.19-1.95zM3990.7 98.7c3.59-2.86 8.73-2.68 12.9-1.23 1.09 1.29-.66 2.92-1.03 4.21-2.85-1.18-6.94-2.14-9.08.73-2.09 3.28-2.08 7.85-.32 11.27 2.32 3.66 7.3 2.31 10.57.76-.07 1.44-.08 2.89-.03 4.33-3.91 1.58-8.64 1.96-12.33-.29-3.16-1.98-4.26-5.93-4.36-9.44-.1-3.69.65-7.87 3.68-10.34zM4014.14 97.28c4.24-1.62 9.8-.98 12.71 2.83 3.06 4.13 3.1 10.09 1.08 14.68-3.37 7.11-15.18 7.01-18.49-.1-2.77-5.77-1.84-14.66 4.7-17.41m1.25 4.13c-3.09 2.69-2.78 7.56-1.76 11.15 1.19 4.21 7.78 4.7 9.72.84 1.36-3.13 1.31-6.91.12-10.09-1.36-2.99-5.55-3.61-8.08-1.9zM4341.33 98.23c3.79-2.44 8.87-2.23 12.9-.36-.46 1.2-.88 2.41-1.26 3.61-3.06-.66-7.18-2.1-9.45.89-2.14 3.31-2.13 7.97-.29 11.4 2.34 3.51 7.29 2.3 10.45.59-.06 1.46-.04 2.93.07 4.39-4.08 1.68-9.13 2.03-12.85-.6-3.09-2.33-3.95-6.46-3.89-10.11.06-3.62 1.09-7.69 4.32-9.81zM4364.17 97.27c4.21-1.59 9.73-.98 12.64 2.79 3.12 4.15 3.15 10.17 1.09 14.78-3.42 7.09-15.24 6.93-18.5-.22-2.72-5.77-1.77-14.63 4.77-17.35m1.16 4.18c-3.01 2.71-2.72 7.49-1.72 11.07 1.16 4.22 7.74 4.77 9.72.93 1.37-3.13 1.33-6.91.16-10.09-1.34-3.05-5.61-3.67-8.16-1.91zM4413.2 100.39c3.57-5.29 12.81-5.37 16.16.21 1.71 2.62 1.46 5.86 1.65 8.85-4.98.11-9.95.18-14.89-.06-.18 2.44.67 5.24 3.04 6.38 3.44 1.63 7.29.22 10.74-.77-.1 1.27-.16 2.54-.16 3.81-5.12 1.57-11.63 2.31-15.72-1.85-3.98-4.43-3.92-11.67-.82-16.57m2.67 5.56c3.45.06 6.94.05 10.45.04-.04-2.99-1.96-6.48-5.39-6-3.2.06-4.54 3.32-5.06 5.96zM4691.33 98.23c3.8-2.47 8.83-2.15 12.91-.42-.48 1.23-.91 2.47-1.28 3.71-3.05-.74-7.16-2.11-9.43.83-2.15 3.32-2.15 7.98-.3 11.43 2.37 3.54 7.23 2.17 10.49.69-.08 1.42-.05 2.83.03 4.25-3.89 1.66-8.62 2-12.32-.2-3.2-1.98-4.31-5.95-4.41-9.48-.13-3.93.8-8.48 4.31-10.81zM4714.19 97.26c4.22-1.59 9.74-.95 12.65 2.84 3.08 4.15 3.12 10.15 1.06 14.75-3.41 7.05-15.15 6.92-18.45-.15-2.79-5.78-1.84-14.72 4.74-17.44m1.18 4.16c-3.06 2.69-2.76 7.52-1.75 11.11 1.16 4.21 7.72 4.75 9.7.92 1.39-3.12 1.33-6.91.17-10.09-1.34-3.03-5.57-3.67-8.12-1.94zM4764.68 98.75c4.15-3.58 11.71-3.08 14.68 1.84 1.71 2.61 1.46 5.86 1.66 8.85-5 .15-9.99.14-14.96-.02-.06 2.45.74 5.28 3.18 6.38 3.42 1.57 7.22.19 10.65-.8-.1 1.26-.14 2.52-.13 3.78-5.47 1.82-12.89 2.35-16.63-2.9-3.28-5.09-2.94-12.84 1.55-17.13m1.19 7.2c3.46.05 6.95.05 10.47.03-.08-3-2.01-6.5-5.45-5.99-3.18.1-4.51 3.33-5.02 5.96zM5041.35 98.22c3.83-2.45 8.95-2.21 13-.3-.65 1.25-1.22 2.5-1.77 3.75-2.45-.85-5.13-1.79-7.56-.59-2.45 1.35-3.09 4.41-3.05 6.97-.13 2.79.52 6.3 3.41 7.55 2.71 1 5.82.14 8.27-1.35-.05 1.49.03 2.98.12 4.47-4.09 1.74-9.17 2.05-12.9-.58-3.09-2.36-3.94-6.52-3.86-10.19.07-3.61 1.12-7.65 4.34-9.73zM5064.18 97.26c4.23-1.59 9.78-.96 12.68 2.87 3.05 4.13 3.08 10.08 1.07 14.66-3.4 7.17-15.35 6.99-18.56-.24-2.68-5.77-1.72-14.59 4.81-17.29m1.19 4.16c-3.05 2.69-2.76 7.49-1.77 11.07 1.13 4.24 7.74 4.81 9.73.96 1.37-3.12 1.32-6.9.17-10.08-1.34-3.04-5.58-3.68-8.13-1.95zM5112.77 101.06c3.21-5.87 13-6.29 16.55-.53 1.74 2.61 1.49 5.87 1.72 8.87-5 .23-9.99.18-14.94 0-.14 2.44.68 5.24 3.07 6.37 3.44 1.63 7.29.21 10.76-.75-.13 1.26-.2 2.53-.21 3.8-4.94 1.48-11.04 2.26-15.21-1.39-4.36-4.12-4.42-11.32-1.74-16.37m3.09 4.88c3.46.07 6.94.07 10.47.04-.08-2.95-1.92-6.42-5.32-5.99-3.24 0-4.62 3.29-5.15 5.95zM5391.32 98.24c3.84-2.53 8.89-2.11 13.03-.42-.64 1.3-1.21 2.58-1.78 3.85-2.99-1.33-7.61-2.12-9.45 1.31-1.69 3.47-1.79 8.15.53 11.37 2.65 2.87 6.98 1.49 10.08.09-.09 1.44-.09 2.88-.01 4.33-3.93 1.59-8.69 1.97-12.38-.31-3.15-2.01-4.23-5.96-4.32-9.47-.12-3.91.81-8.44 4.3-10.75zM5414.11 97.29c4.47-1.75 10.45-.87 13.19 3.45 2.57 4.14 2.58 9.74.59 14.12-3.43 7.07-15.22 6.9-18.47-.23-2.74-5.75-1.81-14.59 4.69-17.34m1.23 4.15c-3.03 2.72-2.75 7.55-1.7 11.14 1.2 4.19 7.77 4.68 9.71.83 1.34-3.09 1.28-6.82.18-9.97-1.31-3.1-5.62-3.78-8.19-2zM5464.72 98.71c4.17-3.54 11.71-3.02 14.65 1.9 1.7 2.61 1.44 5.85 1.65 8.83-4.99.12-9.96.18-14.9-.05-.19 2.43.65 5.22 3.03 6.37 3.42 1.64 7.28.24 10.74-.76-.1 1.26-.14 2.52-.12 3.78-5.5 1.83-12.95 2.35-16.68-2.94-3.24-5.12-2.9-12.87 1.63-17.13m1.15 7.24c3.44.05 6.92.05 10.43.04-.02-2.97-1.91-6.45-5.32-6-3.23.02-4.59 3.31-5.11 5.96zM5741.38 98.19c3.8-2.46 8.75-2.04 12.84-.44-.47 1.24-.87 2.48-1.22 3.73-3.09-.65-7.22-2.11-9.49.9-2.12 3.28-2.11 7.88-.34 11.31 2.32 3.64 7.29 2.29 10.57.75-.11 1.45-.11 2.9-.04 4.35-3.91 1.55-8.6 1.94-12.28-.28-3.19-1.97-4.3-5.92-4.4-9.44-.14-3.96.8-8.56 4.36-10.88zM5764.23 97.24c4.45-1.69 10.36-.78 13.08 3.5 2.56 4.14 2.56 9.73.59 14.1-3.42 7.09-15.23 6.93-18.48-.2-2.76-5.79-1.79-14.71 4.81-17.4m1.07 4.23c-2.99 2.73-2.7 7.51-1.68 11.08 1.18 4.22 7.79 4.72 9.74.84 1.32-3.11 1.28-6.85.14-10.01-1.35-3.07-5.66-3.71-8.2-1.91zM5812.47 101.59c2.82-6.1 12.47-7 16.46-1.63 2.11 2.69 1.92 6.26 2.08 9.49-5.01.13-10.01.12-14.97-.01-.03 2.42.73 5.21 3.13 6.33 3.43 1.62 7.26.23 10.72-.77-.13 1.27-.17 2.55-.15 3.82-4.77 1.41-10.48 2.21-14.69-.94-4.76-3.81-4.99-11.1-2.58-16.29m3.38 4.34c3.44.08 6.92.07 10.44.07.01-3.01-1.94-6.49-5.36-6.01-3.21.06-4.51 3.32-5.08 5.94zM6090.22 99.12c3.76-3.45 9.64-3.23 14.11-1.26-.65 1.27-1.18 2.54-1.69 3.8-2.67-.92-5.87-1.98-8.3-.12-2.46 2.07-2.56 5.62-2.28 8.56.11 2.41 1.39 5.01 3.9 5.72 2.6.64 5.32-.33 7.77-1.35-.11 1.42-.08 2.84 0 4.27-5.17 2.36-12.98 1.91-15.48-3.98-2-4.99-1.9-11.55 1.97-15.64zM6114.2 97.25c4.22-1.58 9.76-.93 12.66 2.87 3.05 4.14 3.08 10.11 1.05 14.69-3.39 7.11-15.22 6.97-18.49-.17-2.76-5.77-1.8-14.69 4.78-17.39m1.15 4.18c-3.04 2.71-2.75 7.53-1.73 11.12 1.18 4.24 7.85 4.72 9.76.8 1.3-3.11 1.26-6.84.11-9.98-1.35-3.05-5.59-3.68-8.14-1.94zM6162.2 102.16c2.49-6.53 12.56-7.77 16.71-2.23 2.13 2.69 1.92 6.27 2.11 9.51-5.11.25-10.21-.1-15.26.2.48 2.26 1 5.04 3.4 6.13 3.43 1.63 7.28.21 10.75-.75-.12 1.25-.18 2.51-.16 3.77-4.76 1.47-10.5 2.23-14.71-.92-4.62-3.66-4.9-10.6-2.84-15.71m3.65 3.77c3.45.08 6.94.08 10.46.06-.03-3-1.96-6.49-5.4-6-3.2.07-4.5 3.32-5.06 5.94zM6440.2 99.14c3.72-3.43 9.62-3.31 14.04-1.26-.5 1.2-.92 2.41-1.28 3.62-2.65-.51-5.43-1.65-7.95-.41-2.44 1.34-3.08 4.36-3.04 6.89-.15 2.81.48 6.34 3.39 7.61 2.72 1.09 5.75-.05 8.39-1.11-.13 1.42-.12 2.85-.03 4.28-5 2.18-12.31 2-15.15-3.35-2.41-5.07-2.34-11.99 1.63-16.27zM6464.1 97.29c4.23-1.63 9.84-1.01 12.76 2.83 3.06 4.16 3.09 10.16 1.02 14.75-3.44 7.07-15.24 6.89-18.48-.26-2.71-5.75-1.78-14.55 4.7-17.32m1.19 4.18c-2.97 2.73-2.69 7.47-1.69 11.03 1.15 4.25 7.78 4.79 9.75.9 1.3-2.92 1.2-6.38.4-9.42-1.04-3.48-5.73-4.48-8.46-2.51zM6512.5 101.54c2.85-6.06 12.46-6.93 16.44-1.57 2.1 2.69 1.9 6.26 2.07 9.49-5.01.1-9.99.14-14.94-.04-.1 2.42.7 5.21 3.08 6.34 3.42 1.64 7.29.22 10.76-.75-.13 1.26-.18 2.51-.15 3.77-4.76 1.49-10.49 2.23-14.71-.89-4.77-3.83-5-11.16-2.55-16.35m3.37 4.41c3.44.05 6.93.06 10.46.03-.08-2.98-1.98-6.46-5.39-5.99-3.22.06-4.56 3.32-5.07 5.96zM6788.77 100.95c3.1-5.19 10.38-5.38 15.45-3.16-.49 1.24-.9 2.47-1.23 3.72-2.67-.51-5.44-1.66-7.97-.42-2.76 1.53-3.19 5.07-3.04 7.9-.02 2.53.82 5.54 3.41 6.61 2.73 1.02 5.83.02 8.4-1.24-.17 1.46-.19 2.93-.08 4.41-4.82 2.04-11.64 2.06-14.77-2.74-2.63-4.51-2.61-10.49-.17-15.08zM6814.12 97.29c4.24-1.64 9.86-.99 12.77 2.88 3.02 4.14 3.05 10.09 1.01 14.66-3.41 7.11-15.25 6.94-18.5-.22-2.72-5.75-1.78-14.57 4.72-17.32m1.23 4.14c-3.05 2.7-2.76 7.51-1.73 11.09 1.15 4.24 7.77 4.76 9.73.88 1.29-2.9 1.2-6.35.41-9.38-1-3.49-5.67-4.52-8.41-2.59zM6862.2 102.17c2.48-6.53 12.51-7.77 16.69-2.27 2.14 2.68 1.94 6.28 2.14 9.52-5 .18-9.98.18-14.92-.02-.18 2.43.66 5.21 3.04 6.36 3.42 1.64 7.28.23 10.75-.75-.13 1.26-.18 2.52-.15 3.79-4.77 1.45-10.49 2.22-14.7-.92-4.63-3.65-4.91-10.6-2.85-15.71m3.69 3.8c3.44.03 6.91.03 10.44.01-.07-3-2.01-6.5-5.45-5.98-3.18.1-4.53 3.33-4.99 5.97zM7138.76 100.96c3.1-5.19 10.42-5.43 15.47-3.13-.49 1.21-.9 2.42-1.23 3.63-2.69-.42-5.47-1.64-8-.36-2.46 1.33-3.07 4.39-3.03 6.93-.15 2.78.48 6.27 3.35 7.54 2.74 1.09 5.9.05 8.47-1.23-.03 1.46-.15 2.93-.07 4.4-4.82 2.11-11.71 2.07-14.82-2.76-2.59-4.52-2.56-10.44-.14-15.02zM7164.12 97.29c4.22-1.63 9.8-1 12.72 2.82 3.07 4.13 3.11 10.1 1.08 14.7-3.4 7.13-15.28 6.97-18.52-.21-2.72-5.75-1.78-14.57 4.72-17.31m1.24 4.14c-4.51 4.1-3.15 16.04 4.71 14.47 4.66-1.19 4.63-7.15 3.94-10.98-.48-3.97-5.59-5.71-8.65-3.49zM7214.19 99.21c4.02-4.08 12.06-3.73 15.16 1.37 1.71 2.62 1.45 5.87 1.67 8.86-5.02.14-10.01.14-14.96-.02-.07 2.42.7 5.23 3.11 6.35 3.41 1.63 7.26.22 10.73-.76-.14 1.25-.18 2.51-.14 3.77-5.49 1.82-12.91 2.35-16.64-2.91-3.19-4.92-2.91-12.24 1.07-16.66m1.67 6.73c3.45.07 6.94.07 10.48.03-.1-2.96-1.97-6.45-5.39-5.98-3.23.05-4.56 3.32-5.09 5.95zM7488.74 100.99c3.12-5.25 10.54-5.48 15.61-3.1-.69 1.27-1.24 2.53-1.79 3.78-3.02-1.35-7.65-2.12-9.47 1.35-1.66 3.48-1.77 8.13.57 11.34 2.63 2.86 6.95 1.46 10.08.1-.14 1.44-.13 2.88-.04 4.32-4.84 2.02-11.68 2.05-14.79-2.79-2.59-4.5-2.57-10.42-.17-15zM7514.17 97.27c4.01-1.5 9.23-1.06 12.25 2.34 3.39 3.89 3.48 9.82 1.83 14.49-1.94 5.16-8.34 7.05-13.23 5.41-9.1-3.07-9.58-18.46-.85-22.24m1.15 4.18c-3.01 2.73-2.73 7.51-1.7 11.08 1.15 4.21 7.7 4.75 9.7.93 1.37-3.11 1.31-6.89.18-10.08-1.35-3.06-5.65-3.7-8.18-1.93zM1152.2 104.18c1.31-.43 2.58.44 3.82.82 8.5 3.55 17.19 6.68 25.63 10.38.32 3.26-5.08 3.19-6.53 5.67 2.65 3.31 6.09 5.89 8.82 9.14-.6 2.65-3.5 4.48-5.65 6.07-3.09-3.01-5.88-6.42-9.27-9.07-2.48 1.34-2.37 6.77-5.62 6.49-3.72-8.44-6.84-17.13-10.39-25.64-.36-1.25-1.34-2.53-.81-3.86m3.21 3.23c3.03 7.45 5.5 15.24 9.24 22.35 1.14-2.27 2.09-4.76 4.14-6.4 3.24 3.24 6.56 6.4 9.66 9.79.77-.98 3.53-2.04 1.85-3.41-2.96-3-6.01-5.92-8.93-8.95 1.63-2.06 4.15-3 6.42-4.18-7.17-3.65-14.91-6.19-22.38-9.2zM7901.25 105.92c-1.19-1.97.96-2.25 2.37-1.45 8.96 3.67 18.09 7.03 26.99 10.9.45 3.26-5.14 3.17-6.35 5.62 2.43 3.47 6.02 6.19 9.01 9.32-1.66 2.12-3.49 5.07-6.08 5.62-2.76-2.31-5.09-5.04-7.61-7.53-.64-.61-2.05-1.96-2.4-.48-1.47 1.97-2.04 4.79-4.16 6.09-2.07-1.89-2.43-4.99-3.59-7.42-2.71-6.9-5.59-13.74-8.18-20.67m3.18 1.49c2.96 7.48 5.52 15.21 9.19 22.37 1.32-1.91 1.78-5.44 4.29-6.07 3.38 2.85 6.4 6.15 9.45 9.41.99-.75 1.93-1.67 2.77-2.73-3.44-3.02-6.54-6.37-9.75-9.57 1.58-2.19 4.34-2.87 6.4-4.6-7.49-2.88-14.86-6.02-22.35-8.81zM8226.97 112.93c6.33 1.38 12.1 4.61 18.24 6.75 3.83 1.87 8.36 2.66 11.82 5.27-1.65 2.48-4.97 3.23-7.23 4.99 3.01 3.11 6.24 6.03 9.16 9.28-.06 1.72-2.02 2.66-2.91 3.93-1.01.57-1.72 2.24-2.89 1.74-3.27-2.84-6.14-6.1-9.23-9.07-2.01 2.06-2.45 6.74-5.5 6.92-3.26-7.25-5.94-14.75-8.95-22.09-1.05-2.52-2.33-4.98-2.51-7.72m3.42 3.45c3.04 7.46 5.5 15.25 9.25 22.38 1.12-2.24 2.02-4.81 4.18-6.38 3.31 3.21 6.44 6.65 9.92 9.75.7-.79 1.5-1.58 2.39-2.36-2.31-2.67-4.93-5-7.34-7.48-.77-1.02-2.57-1.77-1.99-3.22 1.74-1.47 3.87-2.41 5.99-3.46-7.2-3.66-14.95-6.18-22.4-9.23zM815.91 114.89c1.7-.88 3.43.53 5.08.99 8.25 3.55 16.85 6.35 24.93 10.26-.94 2.89-4.81 3.42-7.07 5.13 2.83 3.45 6.49 6.15 9.21 9.69-1.04 2.41-3.54 3.85-5.21 5.83-3.71-2.72-6.55-6.39-9.98-9.43-1.7 2.21-2.39 5.58-4.81 6.99l-.8-.39c-3.85-9.65-8.11-19.21-11.35-29.07m3.63 3.02c2.73 7.52 5.47 15.15 9.04 22.31 1.22-2.22 2.19-4.69 4.18-6.37 3.37 3.25 6.54 6.72 10.05 9.84.75-.89 1.53-1.77 2.32-2.64-3.28-3.36-6.79-6.5-9.82-10.08 2.12-1.57 4.42-2.87 6.62-4.33-7.56-2.64-14.89-5.92-22.39-8.73zM145.74 119.71c1.38-.12 2.69.1 3.95.66 7.79 3.14 15.59 6.26 23.4 9.33.91.6 2.93.69 2.78 2.17-1.91 2.02-4.69 2.97-7.04 4.41 2.89 3.4 6.46 6.17 9.25 9.65-1.05 2.44-3.55 3.89-5.25 5.87-3.67-2.76-6.55-6.38-9.94-9.45-1.72 2.24-2.42 5.62-4.88 7.04l-.77-.52c-3.96-9.65-8.02-19.31-11.5-29.16m3.8 3.18c2.5 7.57 5.84 14.85 8.67 22.31 1.56-1.95 2.71-4.19 3.99-6.33 3.99 2.66 6.85 6.65 10.47 9.77.6-.54 1.81-1.63 2.41-2.17-2.78-3.9-6.77-6.73-9.77-10.45 2.08-1.62 4.39-2.87 6.54-4.38-7.52-2.7-14.85-5.89-22.31-8.75zM486.49 119.47c1.33.17 2.63.49 3.9.97 7.82 3.17 15.66 6.29 23.51 9.38 1.16.39 2.1 1.08 2.84 2.08-2.36 1.62-4.85 3.04-7.39 4.34 2.94 3.48 6.42 6.43 9.47 9.82-1.72 2.12-3.67 4.03-5.77 5.76-3.4-3.03-6.3-6.58-9.84-9.44-1.17 2.12-2.16 4.36-3.63 6.29-1.03 2.13-2.51-.73-2.73-1.72-3.11-7.84-6.2-15.68-9.37-23.49-.52-1.28-.84-2.62-.99-3.99m3.38 3.4c2.8 7.47 5.93 14.82 8.78 22.28 2.08-1.53 2.23-5.62 4.95-5.86 3.34 2.94 6.3 6.29 9.52 9.36l2.54-2.54c-3.1-3.21-6.43-6.19-9.39-9.51.28-2.74 4.34-2.85 5.88-4.95-7.46-2.85-14.81-5.97-22.28-8.78z"/>
  </g>
</svg>
