<svg version="1" xmlns="http://www.w3.org/2000/svg" width="800" height="800" viewBox="0 0 600.000000 600.000000"><path d="M281.5 66.7C175.6 75.9 89.4 155.3 71.6 260c-12.6 73.8 11.8 150.3 65 203.4 36.9 36.9 83.9 59.8 136.9 66.7 12 1.5 42.6 1.5 55 0 86.6-10.8 158.3-66.5 190-147.5 18.9-48.3 20.4-106.4 4-156.2-11.9-36.2-31.7-67.8-59.1-94.4-38.7-37.5-86.5-59.7-140.3-65-9.6-.9-32.4-1.1-41.6-.3zm-38.9 128.7c18 4.9 37.1 14.7 50.3 25.6 3.6 3 7.4 6.1 8.3 6.8 1.5 1.2 2.7.5 10-5.4 14.3-11.7 24.6-17.4 41.1-22.9 25-8.3 48.4-6.7 69.9 4.7 8 4.2 19.4 15.5 23.5 23.3 13.2 25.2 11.4 55.8-4.7 80.2-7 10.7-23.5 27-36.8 36.3-23.1 16.2-66.4 37.2-91.9 44.5-8.9 2.6-9.3 2.6-15.2 1.1-12-3.1-27.2-12.4-51.2-31.7-18.7-15-33.3-29.2-38.8-37.8-12.1-18.9-10.4-42.6 4.1-55.6 12.7-11.5 29.2-10.9 47.6 1.7 3.4 2.3 28 22.3 43 34.9 2.1 1.8 2.2 2.7 2.2 13.8 0 10.1-.2 12-1.7 12.5-1.9.8-12.1-6.8-36.8-27.4-22.7-18.9-30-23.1-36.4-20.9-7.3 2.6-10.2 16.4-5.3 25.7 3.2 6.1 12.9 16 29.5 30.1 23.3 19.9 43.3 33.1 50.1 33.1 7.1 0 35-10.9 56.5-22.1 39.8-20.6 63.7-43.4 70.6-67.4 2.4-8 1.6-24.6-1.4-32.6-4.9-12.9-14.4-21.8-28.5-26.7-6.5-2.2-8.2-2.4-19.6-2-10.6.4-13.9 1-21.9 3.7-19.1 6.5-35.4 17-48.3 31.2-3.9 4.3-7.5 7.9-8 7.9-.4 0-1.8-1.2-3-2.8-5.4-6.6-18.9-19.1-25.3-23.3-24.2-15.9-51.7-23.1-70-18.4-14 3.7-26.5 14.4-33.4 28.7-19.4 40.4 2.3 90.7 58.6 135.5 19.5 15.6 45.9 31.7 62.5 38.2 9.8 3.9 13.8 3.9 28.3-.4 37.7-11 84.3-36.9 119.8-66.4 6.7-5.6 11.3-8.8 12.3-8.4 2.1.8 2.6 4.1 2.2 15.3-.3 9.7-.4 10.1-3.3 12.5-25.7 21.4-54.1 38.9-86.5 53.4-26.3 11.8-49.8 19.1-61.3 19.1-18.5 0-63.1-24.9-97.2-54.2-34.9-30.1-56.8-63.4-62.9-95.8-1.8-9.5-2.1-26.9-.5-35.6 4.8-27.3 21-49 44.2-59.3 5.4-2.5 8.4-3.4 17.2-5.5 1.1-.3 8.1-.3 15.5-.1 10.5.3 15.5.9 22.6 2.9z"/></svg>