<?xml version="1.0" encoding="utf-8"?>
<!-- Generator: Adobe Illustrator 21.1.0, SVG Export Plug-In . SVG Version: 6.00 Build 0)  -->
<svg version="1.1" id="Ebene_1" xmlns="http://www.w3.org/2000/svg" xmlns:xlink="http://www.w3.org/1999/xlink" x="0px" y="0px"
	 viewBox="0 0 283.5 283.5" style="enable-background:new 0 0 283.5 283.5;" xml:space="preserve">
<style type="text/css">
	.st0{fill:none;}
	.st1{fill:#D7D5E9;}
	.st2{fill:#C8C5E0;}
	.st3{fill:#B2AED3;}
	.st4{fill:#9B98C5;}
	.st5{fill:#8A87BA;}
	.st6{fill:#6161A2;}
	.st7{fill:#4C4F96;}
	.st8{fill:#706EAA;}
	.st9{fill:#7472AD;}
	.st10{fill:#6363A3;}
	.st11{fill:#7B78B1;}
	.st12{fill:#A29FC9;}
	.st13{fill:#918DBE;}
	.st14{fill:#B8B5D7;}
	.st15{fill:#A6A3CC;}
	.st16{fill:#CCC9E3;}
	.st17{fill:#BDBADA;}
	.st18{fill:#4A4E94;}
	.st19{fill:#3D428C;}
	.st20{fill:#5B5B9E;}
	.st21{fill:#40468F;}
	.st22{fill:#333B87;}
	.st23{fill:#4E5197;}
	.st24{fill-rule:evenodd;clip-rule:evenodd;}
	.st25{fill:url(#SVGID_1_);}
</style>
<g>
	<polygon class="st0" points="0,0 283.5,0 283.5,283.5 0,283.5 0,0 	"/>
	<polygon class="st1" points="165.1,201.7 170.3,234.3 202.9,246.9 197.4,213.4 165.1,201.7 	"/>
	<polygon class="st2" points="137.5,204.4 120.5,232.8 137.4,263.4 154.7,234.2 137.5,204.4 	"/>
	<polygon class="st3" points="114.2,189.9 83.4,202.2 78.2,236.7 109.7,224.1 114.2,189.9 	"/>
	<polygon class="st4" points="105,163.4 73.5,153.6 47.6,177.1 80.1,187.2 105,163.4 	"/>
	<polygon class="st5" points="114.1,138.4 96,110.7 61.1,112.4 79.8,140.9 114.1,138.4 	"/>
	<polygon class="st6" points="78,119.8 79.6,86.3 109.7,70.4 108,104.3 78,119.8 	"/>
	<polygon class="st7" points="78,119.8 107.2,139 137.3,122.5 108,104.3 78,119.8 	"/>
	<polygon class="st8" points="137.3,122.5 139,89.5 109.7,70.4 108,104.3 137.3,122.5 	"/>
	<polygon class="st9" points="65.3,171 46.6,143.1 61.1,112.4 79.8,140.9 65.3,171 	"/>
	<polygon class="st10" points="65.3,171 100.4,168.1 114.1,138.4 79.8,140.9 65.3,171 	"/>
	<polygon class="st5" points="87.6,220.2 55.5,210.2 47.6,177.1 80.1,187.2 87.6,220.2 	"/>
	<polygon class="st11" points="87.6,220.2 113.4,196.7 105,163.4 80.1,187.2 87.6,220.2 	"/>
	<polygon class="st12" points="136.3,245 105.2,257.5 78.2,236.7 109.7,224.1 136.3,245 	"/>
	<polygon class="st13" points="136.3,245 141,210.5 114.2,189.9 109.7,224.1 136.3,245 	"/>
	<polygon class="st14" points="188.6,234.6 171.4,263.5 137.4,263.4 154.7,234.2 188.6,234.6 	"/>
	<polygon class="st15" points="188.6,234.6 171.7,204 137.5,204.4 154.7,234.2 188.6,234.6 	"/>
	<polygon class="st16" points="223.7,192 229,225.1 202.9,246.9 197.4,213.4 223.7,192 	"/>
	<polygon class="st17" points="223.7,192 190.9,179.5 165.1,201.7 197.4,213.4 223.7,192 	"/>
	<polygon class="st18" points="121.6,85.7 142.9,61.2 175.5,67.6 153.8,92.9 121.6,85.7 	"/>
	<polygon class="st19" points="121.6,85.7 132.1,119.4 164.8,125.6 153.8,92.9 121.6,85.7 	"/>
	<polygon class="st20" points="164.8,125.6 186.3,100.6 175.5,67.6 153.8,92.9 164.8,125.6 	"/>
	<polygon class="st21" points="175,86.6 207.4,80.9 229.4,106.8 196.4,112.8 175,86.6 	"/>
	<polygon class="st22" points="175,86.6 162.9,119.7 184.9,145.6 196.4,112.8 175,86.6 	"/>
	<polygon class="st23" points="184.9,145.6 217.6,139.7 229.4,106.8 196.4,112.8 184.9,145.6 	"/>
	<path d="M44.9,37.5c-3.9,2-6.3,3.1-9.8,3.1c-5.6,0-9.6-3.6-9.6-8.7c0-5.1,4-8.7,9.8-8.7c3.3,0,6.4,1.2,9.3,2.9v-6.4
		c-2.7-1.7-6-2.5-9.8-2.5c-10.4,0-16.3,7.1-16.3,14.7c0,7.4,5.2,14.5,15.8,14.5c4,0,6.9-0.8,10.6-2.8V37.5L44.9,37.5z"/>
	<path class="st24" d="M80.2,32c0-6.9-5.3-14.6-15.5-14.6c-10.2,0-15.5,7.7-15.5,14.6c0,7.3,5.6,14.6,15.5,14.6
		C74.5,46.6,80.2,39.3,80.2,32L80.2,32z M73.3,32c0,5.2-3.4,8.7-8.5,8.7c-5.2,0-8.6-3.5-8.6-8.7c0-5.2,3.4-8.7,8.6-8.7
		C69.9,23.3,73.3,26.7,73.3,32L73.3,32z"/>
	<polygon points="99.8,28.3 91.1,17.7 85.3,17.7 85.3,46.2 92,46.2 92,28.4 99.3,37.4 100.3,37.4 107.7,28.4 107.7,46.2 114.4,46.2 
		114.4,17.7 108.5,17.7 99.8,28.3 	"/>
	<path class="st24" d="M121.8,17.7v28.5h6.7V34.8h5.4c6.2,0,8.9-4.6,8.9-8.6c0-3.9-2.8-8.4-9-8.4H121.8L121.8,17.7z M128.6,22.9h2.4
		c3.7,0,5,0.9,5,3.3c0,2.1-1.1,3.3-4.2,3.3h-3.1V22.9L128.6,22.9z"/>
	<path class="st24" d="M160.2,17.7h-7.8l-10.9,28.5h7.1l2-5.6h12.1l2.2,5.6h7.3L160.2,17.7L160.2,17.7z M160.7,35.6h-8.3l4-11.1
		L160.7,35.6L160.7,35.6z"/>
	<polygon points="190.1,28.3 181.4,17.7 175.5,17.7 175.5,46.2 182.2,46.2 182.2,28.4 189.5,37.4 190.6,37.4 197.9,28.4 197.9,46.2 
		204.6,46.2 204.6,17.7 198.8,17.7 190.1,28.3 	"/>
	<polygon points="231.8,41 218.6,41 218.6,34.1 230.9,34.1 230.9,28.9 218.6,28.9 218.6,22.9 231.5,22.9 231.5,17.7 211.8,17.7 
		211.8,46.2 231.8,46.2 231.8,41 	"/>
	<path class="st24" d="M238.1,17.7v28.5h11.2c10.8,0,15.7-6,15.7-14.2c0-7.8-5.1-14.3-15-14.3H238.1L238.1,17.7z M244.8,22.9h4.3
		c6.4,0,8.9,4.1,8.9,9c0,4.2-2,9-8.8,9h-4.4V22.9L244.8,22.9z"/>
</g>
<g>
	<path d="M272.8,25.4c-2.6,0-4.7-2.1-4.7-4.7c0-2.6,2.1-4.7,4.7-4.7c2.6,0,4.7,2.1,4.7,4.7C277.6,23.3,275.4,25.4,272.8,25.4z
		 M272.8,17.3c-1.9,0-3.4,1.4-3.4,3.4c0,2,1.4,3.4,3.4,3.4c1.9,0,3.4-1.4,3.4-3.4C276.2,18.7,274.8,17.3,272.8,17.3z M273.5,23.2
		l-0.7-1.8h-0.4v1.8H271v-4.9h2.2c1.1,0,1.7,0.8,1.7,1.6c0,0.7-0.4,1.1-0.8,1.3l0.9,2.1H273.5z M273.1,19.4h-0.7v1h0.7
		c0.3,0,0.5-0.2,0.5-0.5C273.6,19.6,273.4,19.4,273.1,19.4z"/>
</g>
<radialGradient id="SVGID_1_" cx="210.5658" cy="158.6695" r="52.2292" gradientUnits="userSpaceOnUse">
	<stop  offset="2.040816e-02" style="stop-color:#FEFEFF"/>
	<stop  offset="0.4865" style="stop-color:#FFE7A2"/>
	<stop  offset="0.9342" style="stop-color:#FFD32E"/>
</radialGradient>
<circle class="st25" cx="199.3" cy="168" r="30.4"/>
<polygon class="st22" points="175,86.6 162.9,119.7 184.9,145.6 196.4,112.8 175,86.6 "/>
<polygon class="st23" points="184.9,145.6 217.6,139.7 229.4,106.8 196.4,112.8 184.9,145.6 "/>
</svg>
