<?xml version="1.0" encoding="utf-8"?>
<!-- Generator: Adobe Illustrator 20.1.0, SVG Export Plug-In . SVG Version: 6.00 Build 0)  -->
<svg version="1.1" id="Ebene_1" xmlns="http://www.w3.org/2000/svg"  x="0px" y="0px"
	 viewBox="-400 -200 4892 4652" xml:space="preserve">
<style type="text/css">
	.st0{fill:#ffffff;}
</style>
<g>
	<path class="st0" d="M2028.6,1358.2h33.6h227.9h217.5c0-95.7,0-167.7,0-167.7s-10.8-57.6-79.2-57.6c-31.4,0-55.2,0-71.7,0v89.4
		h-294.4h-33.6h-330.4v-89.4c-16.6,0-40.4,0-71.7,0c-68.4,0-79.2,57.6-79.2,57.6s0,72,0,167.7h217.5H2028.6z"/>
	<path class="st0" d="M1826.9,1663.7c0,113.4,91.9,205.3,205.3,205.3s205.3-91.9,205.3-205.3c0-113.4-91.9-205.3-205.3-205.3
		S1826.9,1550.3,1826.9,1663.7z M2201.4,1663.7c0,93.3-75.9,169.3-169.3,169.3c-93.3,0-169.3-75.9-169.3-169.3
		c0-93.3,75.9-169.3,169.3-169.3C2125.5,1494.4,2201.4,1570.3,2201.4,1663.7z"/>
	<path class="st0" d="M2019.9,1574.2L2019.9,1574.2c-6.9,0-12.6,5.7-12.6,12.6v90c0,0,0,0,0,0c0,0.8,0.1,1.7,0.3,2.5
		c0,0.1,0,0.1,0.1,0.2c0.5,2.3,1.6,4.4,3.4,6.2l63.6,63.6c4.9,4.9,12.9,4.9,17.8,0c4.9-4.9,4.9-12.9,0-17.8l-59.9-59.9v-84.8
		C2032.6,1579.9,2026.9,1574.2,2019.9,1574.2z"/>
	<path class="st0" d="M1430,3147.1c0.1,0.6,0.8,3.4,0.8,3.4c4.7,15.8,19.4,27.4,36.7,27.4c0,0,0.1,0,0.1,0c0.2,0,0.3,0,0.5,0
		c5.6,0,10.9-1.3,15.7-3.6c0,0,3.8-1.9,5.3-2.9l239.2-134.9c16,43.1,33.3,84.8,52.1,124.8c6.3,12.8,19.3,21.6,34.5,21.6c0,0,0,0,0,0
		h45.2c-9.7,24.4-15.1,51.3-15.1,79.5c0,111.7,187.2,484.7,187.2,484.7s187.2-372.9,187.2-484.7c0-28.3-5.4-55.1-15.1-79.5l33.9,0
		c15.2,0,28.3-8.8,34.5-21.6c18.7-40,36.1-81.7,52.1-124.8l239.2,135c1.6,1,5.3,2.9,5.3,2.9c4.9,2.3,10.3,3.6,16.2,3.6
		c0,0,0.1,0,0.1,0c17.4,0,32-11.6,36.7-27.4c0,0,0.7-2.9,0.8-3.5c18.4-74.1,28.4-153.1,28.4-235c0-230.1-78.5-436.8-203.3-579.2
		l0.2,0l7.2-393.3c0,0,59.2-32.4,59.2-122.5c0-53.4,0-264.1,0-426.5h-185.1v435.2c0,45.7,37.1,105.1,37.5,105.5l4.2,4.6l0,6.3v388.5
		h-1.8c-0.1,117.4-9.9,237.5-29,349.7c-18.6,109.2-46.1,214.5-81.7,313.1c-13.9,38.8-29.1,76.2-45.5,112.6l-373.8,0
		c-16.4-36.3-31.5-73.9-45.5-112.6c-35.6-98.6-63.1-203.9-81.6-313.1c-19.2-112.3-28.9-232.3-29-349.7h-0.4v-388.6l0-6.3l4.2-4.6
		c0.4-0.4,37.5-59.8,37.5-105.5v-435.2h-185.1c0,162.5,0,373.1,0,426.5c0,90,59.2,122.5,59.2,122.5l7.2,391.9
		c-125.5,142.4-204.5,349.7-204.5,580.6C1401.6,2994,1411.6,3073,1430,3147.1z M2401.7,1462.6h41v354.5c0,40.3-18.8,56.8-23.4,60.2
		c-9-17.7-17.6-39.9-17.6-51.5V1462.6z M2443.1,2452.5c36.1,54.2,65.5,114.9,87.5,181.1c29.2,88.1,44.1,181.8,44.1,278.5
		c0,57.3-5.2,113.7-15.6,168.4l-208.6-117.7C2400.7,2806.7,2433.1,2634.2,2443.1,2452.5z M1946.9,3183l170.5,0
		c15.6,21.6,25.1,49.3,25.1,79.5c0,9-4.2,63.3-86.9,252.9c-7.8,18-15.8,35.7-23.4,52.6c-7.6-16.7-15.4-34.2-23.2-52
		c-83-190.1-87.1-244.5-87.2-253.5C1921.8,3233.1,1930.7,3205.4,1946.9,3183z M1611.7,1462.6h41v363.2c0,11.6-8.7,33.8-17.6,51.5
		c-4.6-3.4-23.4-19.8-23.4-60.2V1462.6z M1522.5,2633.6c22-66.1,51.3-126.9,87.4-181.1c10,181.7,42.4,354.2,92.7,510.2L1494,3080.5
		c-10.3-54.8-15.6-111.1-15.6-168.4C1478.4,2815.3,1493.2,2721.6,1522.5,2633.6z"/>
	<path class="st0" d="M2615.9,3935.7c-21.7,0-43.3,3.3-64.3,9.8c-29.7-59.3-91.1-99.5-160.1-99.5c-62.4,0-117.3,31.5-149.3,80.3
		c-56.9-51.2-131.1-80.3-209.7-80.3c-78.6,0-152.8,29.1-209.7,80.3c-32-48.8-86.9-80.3-149.3-80.3c-68.9,0-130.4,40.2-160.1,99.5
		c-21-6.5-42.6-9.8-64.3-9.8c-123.7,0-224.4,100.7-224.4,224.4c0,24.8,20.1,44.9,44.9,44.9s44.9-20.1,44.9-44.9
		c0-74.2,60.4-134.6,134.6-134.6c23.8,0,46.9,6.6,68.7,19.6c12.9,7.7,28.8,8.4,42.4,1.9c13.6-6.5,23-19.3,25.1-34.2
		c6.2-43.9,44.2-77.1,88.3-77.1c46.4,0,84.5,35.1,88.7,81.7c1.7,19.1,15.3,34.9,33.8,39.5c18.6,4.6,38-3,48.5-19.1
		c41.6-63.9,112-102.1,188-102.1c76,0,146.3,38.2,188,102.1c10.5,16.1,29.9,23.7,48.5,19.1c18.5-4.6,32.1-20.5,33.8-39.5
		c4.2-46.5,42.4-81.7,88.7-81.7c44.1,0,82,33.2,88.3,77.1c2.1,14.9,11.5,27.7,25.1,34.2c13.6,6.5,29.5,5.8,42.4-1.9
		c21.8-13,44.9-19.6,68.7-19.6c74.2,0,134.6,60.4,134.6,134.6c0,24.8,20.1,44.9,44.9,44.9c24.8,0,44.9-20.1,44.9-44.9
		C2840.3,4036.4,2739.6,3935.7,2615.9,3935.7z"/>
	<path class="st0" d="M1733.2,913.1v219.7l-0.3,60.6h130.7V957.2c0-22.3,18.2-40.5,40.5-40.5h0c22.3,0,40.5,18.2,40.5,40.5v236.2
		h42.1V957.2c0-22.3,18.2-40.5,40.5-40.5s40.5,18.2,40.5,40.5v236.2h42.3V957.2c0-22.3,18.2-40.5,40.5-40.5h0
		c22.3,0,40.5,18.2,40.5,40.5v236.2h136.7v-60.6c-0.2,0-0.3-219.7-0.3-219.7s51.3-7.2,51.3-61.2c0-46.8-33.1-61.2-51.3-64.2V787
		h-7.2c-14.4,0-39.6,0-39.6,0V632.2c0,0-21.6-128.5-98.4-205.3c-76.8-76.8-114.1-144.1-114.1-144.1l-10.8-82.8c0,0,48-12.9,48-64.8
		c0-40.2-21.8-77.5-73.2-79.2v-0.1c-0.6,0-1.2,0-1.8,0c-0.6,0-1.2,0-1.8,0V56c-51.4,1.7-73.2,38.9-73.2,79.2c0,51.9,48,64.8,48,64.8
		l-10.8,82.8c0,0-37.2,67.2-114.1,144.1c-76.8,76.8-98.4,205.3-98.4,205.3V787c0,0-24.8,0-39.2,0c-0.1,0-0.3,0-0.4,0
		c-14.4,0-58.5,10.8-58.5,64.8S1733.2,913.1,1733.2,913.1z M1862.9,639.8c6.5-31.8,29.9-110.1,74.2-154.4c41-41,72.1-80,93.3-109.4
		c21.2,29.5,52.3,68.4,93.3,109.4c44,44,67.2,121.2,74.2,154.5V787h-334.9V639.8z"/>
</g>
</svg>
