<svg id="Layer_1" data-name="Layer 1" xmlns="http://www.w3.org/2000/svg" viewBox="0 0 399.48 90.11"><title>ecovent</title><path d="M26.91,44.39V83.88a6.28,6.28,0,0,0,2.83,4.9l34.2,19.74a6.25,6.25,0,0,0,5.65,0l34.2-19.74a6.28,6.28,0,0,0,2.83-4.9V44.39a6.26,6.26,0,0,0-2.83-4.9L69.58,19.76a6.25,6.25,0,0,0-5.65,0L48.68,28.51v-2a1.09,1.09,0,0,0-1.09-1.09H41.21a1.09,1.09,0,0,0-1.09,1.09v7l-10.39,6A6.27,6.27,0,0,0,26.91,44.39Zm6.19,0.46,33.59-19.4,33.58,19.4V83.64L66.69,103,33.1,83.64V44.86Z" transform="translate(-26.91 -19.08)" style="fill:#31312f"/><path d="M66.62,84.05a1.65,1.65,0,0,1-.81-0.21l-15.9-9.1a1.63,1.63,0,0,1-.82-1.42V54.88a1.63,1.63,0,0,1,.81-1.41l15.9-9.25a1.64,1.64,0,0,1,1.63,0l15.9,9.1a1.63,1.63,0,0,1,0,2.83l-16,9.18a1.63,1.63,0,1,1-1.62-2.83l13.56-7.76L66.63,47.51,52.36,55.82V72.37l14.26,8.16L81.7,71.75a1.63,1.63,0,1,1,1.64,2.82l-15.9,9.26A1.62,1.62,0,0,1,66.62,84.05Z" transform="translate(-26.91 -19.08)" style="fill:#31312f"/><path d="M141.27,78.18a14.63,14.63,0,0,0,11.15-5l3.28,2.94a18.26,18.26,0,0,1-14.57,6.64c-9.71,0-17.65-7.45-17.65-18.47,0-10.26,7.18-18.47,17-18.47,10.47,0,16.49,8.35,16.49,18.74,0,0.48,0,1-.07,1.85h-28C129.57,73.87,135,78.18,141.27,78.18Zm10.33-16c-0.62-6.43-4.31-11.9-11.29-11.9-6.09,0-10.74,5.06-11.49,11.9H151.6Z" transform="translate(-26.91 -19.08)" style="fill:#31312f"/><path d="M170.81,64.43V64.3A18.42,18.42,0,0,1,203.1,52.12l-3.49,3.7c-2.81-2.94-6-5.34-10.74-5.34-7.19,0-12.66,6.09-12.66,13.68V64.3c0,7.66,5.61,13.75,13,13.75,4.51,0,8-2.26,10.81-5.27l3.35,3.14c-3.56,4-7.8,6.84-14.43,6.84A18.16,18.16,0,0,1,170.81,64.43Z" transform="translate(-26.91 -19.08)" style="fill:#31312f"/><path d="M215.67,64.43V64.3a18.43,18.43,0,0,1,36.87-.14V64.3A18.36,18.36,0,0,1,234,82.76,18.12,18.12,0,0,1,215.67,64.43Zm31.46,0V64.3c0-7.59-5.68-13.82-13.13-13.82-7.66,0-12.93,6.22-12.93,13.68V64.3c0,7.59,5.61,13.75,13.06,13.75C241.8,78,247.14,71.89,247.14,64.43Z" transform="translate(-26.91 -19.08)" style="fill:#31312f"/><path d="M263.34,46.58h5.81l11.9,29.34,12-29.34h5.68L283.31,82.22h-4.65Z" transform="translate(-26.91 -19.08)" style="fill:#31312f"/><path d="M327.36,78.18a14.62,14.62,0,0,0,11.15-5l3.29,2.94a18.26,18.26,0,0,1-14.57,6.64c-9.71,0-17.65-7.45-17.65-18.47,0-10.26,7.18-18.47,17-18.47C337,45.82,343,54.17,343,64.57c0,0.48,0,1-.07,1.85h-28C315.66,73.87,321.13,78.18,327.36,78.18Zm10.33-16c-0.62-6.43-4.31-11.9-11.29-11.9-6.09,0-10.74,5.06-11.49,11.9h22.78Z" transform="translate(-26.91 -19.08)" style="fill:#31312f"/><path d="M359.09,46.58h5.27v6.16a13.39,13.39,0,0,1,12.11-6.91C385,45.82,390,51.57,390,60v22h-5.27V61.28c0-6.57-3.56-10.67-9.78-10.67s-10.61,4.45-10.61,11.08V81.94h-5.27V46.58Z" transform="translate(-26.91 -19.08)" style="fill:#31312f"/><path d="M409.9,72.57V51.23H405V46.58h4.93V35.91h5.27V46.58h11.22v4.65H415.17V71.89c0,4.31,2.39,5.88,5.95,5.88a11.07,11.07,0,0,0,5.13-1.23v4.51a13.24,13.24,0,0,1-6.36,1.51C414.21,82.56,409.9,79.75,409.9,72.57Z" transform="translate(-26.91 -19.08)" style="fill:#31312f"/></svg>