<?xml version="1.0" encoding="utf-8"?>
<!-- Generator: Adobe Illustrator 18.0.0, SVG Export Plug-In . SVG Version: 6.00 Build 0)  -->
<!DOCTYPE svg PUBLIC "-//W3C//DTD SVG 1.1//EN" "http://www.w3.org/Graphics/SVG/1.1/DTD/svg11.dtd">
<svg version="1.1" id="Layer_1" xmlns="http://www.w3.org/2000/svg" xmlns:xlink="http://www.w3.org/1999/xlink" x="0px" y="0px"
	 viewBox="0 0 680 320" enable-background="new 0 0 680 320" xml:space="preserve">
<g>
	<g>
		<path fill="#2F2F2F" d="M150.4,127.4c-0.1,0.6-0.3,1.1-1.1,1.1c-0.2,0-0.3,0-0.7-0.1c-1.1-0.2-3.1-0.5-5-0.5s-3.1,0.2-4,0.9
			c-0.7,0.7-1.1,1.8-1.1,3.4v4.7h10.2c0.7,0,1.4,0.5,1.4,1.3v7.9c0,0.7-0.6,1.2-1.4,1.2h-10.2v32.9c0,0.7-0.6,1.3-1.5,1.3h-12
			c-0.9,0-1.5-0.5-1.5-1.3v-33.2h-6.5c-0.8,0-1.5-0.4-1.5-1.2V138c0-0.7,0.6-1.3,1.5-1.3h6.6v-5.3c0-9.2,4.8-13.9,15-13.9
			c6.6,0,10.4,1.1,11.7,1.5c0.9,0.2,1.1,1.1,0.9,1.5L150.4,127.4z"/>
		<path fill="#2F2F2F" d="M174.8,145.5c-6.6,0-6.9,3.9-6.9,13.7c0,9.7,0.3,13.6,6.9,13.6c6.7,0,6.9-3.9,6.9-13.6
			C181.8,149.4,181.5,145.5,174.8,145.5 M174.8,182.5c-19.5,0-22-10.2-22-23.4s2.4-23.5,22-23.5c19.5,0,22.1,10.2,22.1,23.5
			S194.4,182.5,174.8,182.5"/>
		<path fill="#2F2F2F" d="M227.4,146.6c-4.8,0-8.9,0.5-9.7,0.7v32.8c0,0.7-0.5,1.3-1.4,1.3h-12c-0.7,0-1.4-0.5-1.4-1.3v-37.5
			c0-3.1,2.7-4,7.8-5.1c4-0.9,9.8-1.5,15-1.5h1.5c0.7,0,1.2,0.2,1.5,0.5c0.2,0.2,0.4,0.7,0.4,1.4v6.9
			C229.1,145.6,229.1,146.6,227.4,146.6"/>
		<path fill="#2F2F2F" d="M302.2,181.4h-12c-0.8,0-1.4-0.5-1.4-1.3v-28.8c0-4.5-2.3-5.9-5.6-5.9c-2.7,0-5.9,0.6-6.7,0.7v34.1
			c0,0.7-0.6,1.3-1.5,1.3h-12c-0.9,0-1.4-0.5-1.4-1.3v-28.8c0-4.5-2-5.9-5.3-5.9c-2.7,0-6.3,0.6-7.1,0.7v34.1c0,0.7-0.5,1.3-1.4,1.3
			h-12c-0.9,0-1.4-0.5-1.4-1.3v-37.5c0-3.1,2.7-4,7.8-5.2c4.1-0.9,10.6-1.7,15.9-1.7c5.3,0,9,1.3,11.4,2.8c1.6-0.6,8.8-2.8,16-2.8
			c10.8,0,17.9,2.4,17.9,13.4v31C303.6,180.9,303.1,181.4,302.2,181.4"/>
		<path fill="#2F2F2F" d="M327.5,180.4c0,0.6-0.3,0.7-0.7,0.9c-0.9,0.4-3,1.1-6,1.1c-5.1,0-8.5-2.4-8.5-8.7v-53.6
			c0-0.7,0.4-1.1,1.1-1.3l4.6-1.2c0.6-0.2,1.1,0.3,1.1,1.1v54.7c0,3.1,2.1,3.5,3.8,3.5c1.2,0,2.4-0.2,3-0.3l0.3-0.1
			c0.2,0,0.6,0.1,0.7,0.6l0.6,2.9C327.5,180.2,327.5,180.3,327.5,180.4"/>
		<path fill="#2F2F2F" d="M361.1,157.9l-16.6,2.8c-3.7,0.7-7.3,1.3-7.3,7.5c0,8.5,6.9,9.1,12.6,9.1c3.7,0,7.8-0.5,11.3-1.7
			L361.1,157.9L361.1,157.9z M360.8,181.2c-2.4,0.6-6.6,1.3-11,1.3c-7.3,0-19.4-0.2-19.4-14c0-11.3,6-12,14.7-13.3l16-2.7v-4
			c0-2.7-0.1-4.9-3.1-6c-1.6-0.7-4-1.1-7.8-1.1c-6.6,0-12.1,1.6-15.7,2.4c-0.9,0.2-1.2,0.1-1.4-0.6l-0.7-3.8
			c-0.2-0.7,0.6-1.1,0.9-1.2c2.7-1.1,10-2.7,17.7-2.7c6,0,10,0.9,12.4,2.2c4.4,2.3,4.4,6.3,4.4,10.2v24.3
			C367.8,178.5,366.7,179.8,360.8,181.2"/>
		<path fill="#2F2F2F" d="M395.4,141.3c-4.7,0-11.3,1.6-12.9,2v32.3c0.9,0.3,5.4,1.5,11.9,1.5c9.8,0,13.1-4.6,13.1-18
			C407.6,145.5,405.2,141.3,395.4,141.3 M382.1,138c2.3-0.7,9-2.4,14.3-2.4c14.1,0,18,7.2,18,23.3c0,16.6-4.5,23.5-19.9,23.5
			c-6,0-11.5-1.1-14.3-2c-4.2-1.5-4.4-3.6-4.4-6.7v-54c0-0.7,0.3-0.9,1.1-1.1l4.6-1.2c0.7-0.2,1.1,0.5,1.1,1.1v14.8"/>
		<path fill="#2F2F2F" d="M434.8,182.5c-7.5,0-13.9-2.3-15-2.7c-0.4-0.2-0.9-0.4-0.6-1.4l0.7-3.3c0.2-0.6,0.4-1.1,1.4-0.7
			c0.2,0.1,6.5,2.4,13.7,2.4c7.2,0,11.4-2.3,11.4-7.5c0-7-5.4-6.8-12-7.8c-4.1-0.7-14.8-1.5-14.8-12.6c0-10.9,9.8-13.3,17.2-13.3
			c7.3,0,13,1.5,13.9,1.8c0.6,0.2,0.9,0.5,0.7,1.1l-0.6,3.8c-0.1,0.5-0.3,0.7-0.9,0.7c-1.2-0.2-7.5-1.6-12.4-1.6
			c-6.2,0-11.3,1.7-11.3,7c0,5.7,5.7,6.5,11,7.1c7.6,1.1,15.9,1.6,15.9,13.2C453.2,179.8,444.6,182.5,434.8,182.5"/>
		<path fill="#2F2F2F" d="M505.2,152.2c-0.1-0.1-0.1-0.1-0.2-0.2c-3.6,2.5-7.3,5-11.1,7.6c0.9,1.5,2,2.8,2.9,4.2
			C499.7,159.9,502.4,156,505.2,152.2 M474,126.6c8.9,2.7,17.5,5.2,26.2,7.8c-0.1-0.2-0.2-0.3-0.3-0.4c-6-3.6-12-7.2-17.9-10.8
			c-0.7-0.4-1.4-0.4-2.1,0c-1.4,0.8-2.8,1.6-4.2,2.4C475.1,125.9,474.7,126.2,474,126.6 M501.3,178c2.7-8.1,5.4-16,8.1-24
			c-0.2,0.1-0.4,0.2-0.6,0.5c-2.6,3.6-5.2,7.3-7.8,10.8c-0.3,0.5-0.7,0.9-1.1,1.5c-1.6,2-4.8,2-6.3-0.2c-1.1-1.5-2-3-3.1-4.6
			c-1.6,1.1-3.1,2.1-4.7,3.3C491,169.5,496.1,173.7,501.3,178 M511.9,142.2c-12.4-3.6-24.6-7.3-36.8-10.8c0,0.1-0.1,0.1-0.1,0.2
			c5.5,8.2,11,16.3,16.6,24.6C498.4,151.5,505,146.9,511.9,142.2 M558.2,131.5c0-0.1-0.1-0.1-0.1-0.2c-12.3,3.6-24.6,7.3-37.2,10.9
			c7.1,4.8,14,9.5,21,14.2C547.4,148,552.8,139.8,558.2,131.5 M564,128.9c-0.9,3.3-3.3,5.8-5,8.6c-4.4,6.9-9,13.7-13.5,20.7
			c-0.1,0.2-0.2,0.3-0.2,0.6c1.5,1.1,3,2,4.4,3.1c0.7,0.5,1.2,1.1,1.5,1.7c0.9,1.6,0.3,3.6-1.1,4.8c-5.2,4.3-10.4,8.5-15.5,12.9
			c-2.7,2.4-5.9,1.1-6.9-1.8c-3.6-10.9-7.5-21.9-11.1-32.8c-0.1-0.2-0.2-0.3-0.3-0.7c-0.2,0.8-0.5,1.4-0.7,2
			c-3.5,10.2-7,20.6-10.5,30.9c-0.2,0.3-0.2,0.7-0.3,1.1c-0.9,2.6-4,3.5-6.2,1.7c-2.1-1.7-4.2-3.5-6.3-5.3c-3.1-2.6-6.2-5.2-9.4-7.8
			c-2.5-2.1-2.4-4.9,0.3-6.8c1.5-1.1,3.1-2.1,4.7-3.3c-0.7-0.9-1.2-1.8-1.8-2.7c-5.4-8-10.8-16-16.2-23.9c-2-2.8-1.2-7.5,2.2-9.3
			c1.8-0.9,3.6-2.1,5.5-3.1c2.1-1.1,4.3-1.1,6.4,0.1c10.5,6.3,21,12.6,31.5,18.9c0.7,0.4,1.1,0.4,1.7,0
			c10.4-6.3,20.8-12.6,31.4-18.9c2.3-1.4,4.5-1.4,6.8-0.1c1.7,0.9,3.5,2,5.3,2.9c1.8,0.9,2.7,2.6,3.3,4.4c0.1,0.2,0.1,0.4,0.2,0.6
			v1.5H564V128.9z"/>
	</g>
</g>
</svg>
