<?xml version="1.0" encoding="utf-8"?>
<!-- Generator: Adobe Illustrator 16.0.1, SVG Export Plug-In . SVG Version: 6.00 Build 0)  -->
<!DOCTYPE svg PUBLIC "-//W3C//DTD SVG 1.1//EN" "http://www.w3.org/Graphics/SVG/1.1/DTD/svg11.dtd">
<svg version="1.1" id="Layer_1" xmlns="http://www.w3.org/2000/svg" xmlns:xlink="http://www.w3.org/1999/xlink" x="0px" y="0px"
	 width="110.333px" height="93.667px" viewBox="0 0 110.333 93.667" enable-background="new 0 0 110.333 93.667"
	 xml:space="preserve">
<g>
	<path fill="#535353" d="M77.417,80.096l-2.245-0.18c-0.756-0.046-0.756-0.339-0.756-0.499c0-0.202,0.088-0.354,0.258-0.449
		l0.024-0.014l0.026,0.014c0.512,0.244,1.117,0.368,1.798,0.368c2.205,0,3.806-1.55,3.806-3.685c0-0.491-0.096-0.952-0.283-1.371
		l-0.035-0.075h0.926c0.225,0,0.406-0.191,0.406-0.426v-1.167c0-0.234-0.182-0.426-0.406-0.426l-3.113-0.006
		c-0.399-0.129-0.836-0.193-1.3-0.193c-2.255,0-3.891,1.539-3.891,3.664c0,0.781,0.228,1.505,0.656,2.09l0.032,0.042l-0.043,0.033
		c-0.58,0.432-0.9,1.052-0.9,1.754c0,0.637,0.222,1.184,0.639,1.583l0.051,0.053l-0.064,0.036c-1.213,0.682-1.365,1.687-1.365,2.405
		c0,2.109,1.77,3.423,4.78,3.423c3.116,0,4.815-1.407,4.815-3.664C81.233,81.422,80.106,80.306,77.417,80.096z M76.502,74.029
		c1.07,0,1.684,0.59,1.684,1.623c0,1.029-0.631,1.645-1.684,1.645c-1.068,0-1.707-0.615-1.707-1.645
		C74.795,74.619,75.418,74.029,76.502,74.029z M76.401,82.054c1.613,0,2.539,0.545,2.539,1.495s-0.949,1.519-2.539,1.519
		c-1.607,0-2.57-0.568-2.57-1.519S74.768,82.054,76.401,82.054z"/>
	<path fill="#535353" d="M24.035,68.146h-2.711c-0.164,0-0.309,0.11-0.363,0.273l-3.163,9.295L14.9,68.423
		c-0.053-0.166-0.201-0.277-0.365-0.277h-2.909c-0.213,0-0.385,0.183-0.385,0.41v12.629c0,0.226,0.172,0.409,0.385,0.409h1.594
		c0.213,0,0.385-0.184,0.385-0.409v-8.908l2.999,9.046c0.055,0.164,0.203,0.271,0.364,0.271h1.561c0.164,0,0.307-0.107,0.363-0.269
		l3.148-9.19v9.05c0,0.226,0.173,0.409,0.386,0.409h1.61c0.213,0,0.387-0.184,0.387-0.409V68.556
		C24.422,68.329,24.249,68.146,24.035,68.146z"/>
	<path fill="#535353" d="M33.831,79.091l0.069-4.206c0-0.449-0.027-0.938-0.345-1.536c-0.589-1.116-2.183-1.511-3.477-1.511
		c-0.65,0-2.256,0.102-3.146,1.084c-0.463,0.547-0.603,1.111-0.67,1.581c-0.015,0.107-0.025,0.206-0.036,0.301
		c-0.014,0.115,0.023,0.232,0.102,0.32c0.076,0.089,0.188,0.139,0.305,0.139h1.646c0.216,0,0.397-0.171,0.408-0.39
		c0.024-0.513,0.204-1.099,1.357-1.099c0.424,0,0.979,0.129,1.206,0.426c0.18,0.22,0.214,0.509,0.219,1.245
		c-0.269-0.016-0.486-0.021-0.775-0.021c-1.401,0-2.492,0.21-3.251,0.631c-1.517,0.881-1.743,2.211-1.743,2.926
		c0,1.792,1.408,2.997,3.505,2.997c0.411,0,1.483,0,2.398-0.897c0.021,0.108,0.046,0.214,0.077,0.32
		c0.049,0.176,0.21,0.298,0.393,0.298h1.486c0.005,0,0.008,0,0.008,0c0.275-0.002,0.422-0.18,0.422-0.411
		c0-0.062-0.013-0.12-0.039-0.177C33.852,80.311,33.831,79.304,33.831,79.091z M31.121,79.105c-0.332,0.505-0.847,0.758-1.53,0.758
		c-1.308,0-1.41-0.848-1.41-1.111c0-0.912,0.928-1.372,2.756-1.372c0.208,0,0.371,0.003,0.523,0.016
		C31.429,78.334,31.38,78.681,31.121,79.105z"/>
	<path fill="#535353" d="M40.42,72.032c-0.3-0.022-0.695-0.039-1.222,0.039c-0.377,0.051-1.085,0.219-1.659,0.728L37.533,72.5
		c-0.004-0.224-0.188-0.4-0.41-0.4h-1.567c-0.18,0-0.422,0.177-0.422,0.5c0,0.658,0.006,1.163,0.006,1.691v6.996
		c0,0.229,0.184,0.411,0.409,0.411h1.662c0.226,0,0.408-0.183,0.408-0.411v-4.669c0-1.616,0.558-2.249,1.987-2.249
		c0.17,0,0.85,0.064,0.982,0.019c0.13-0.045,0.215-0.174,0.215-0.376v-1.57C40.803,72.221,40.635,72.044,40.42,72.032z"/>
	<path fill="#535353" d="M71.822,72.032c-0.3-0.022-0.696-0.039-1.222,0.039c-0.377,0.051-1.085,0.219-1.658,0.728L68.934,72.5
		c-0.004-0.224-0.188-0.4-0.409-0.4h-1.568c-0.179,0-0.421,0.177-0.421,0.5c0,0.658,0.006,1.163,0.006,1.691v6.996
		c0,0.229,0.184,0.411,0.408,0.411h1.662c0.228,0,0.409-0.183,0.409-0.411v-4.669c0-1.616,0.558-2.249,1.987-2.249
		c0.169,0,0.85,0.064,0.982,0.019c0.127-0.045,0.215-0.174,0.215-0.376v-1.57C72.206,72.221,72.036,72.044,71.822,72.032z"/>
	<path fill="#535353" d="M45.986,76.243l3.454-3.471c0.117-0.116,0.152-0.293,0.087-0.443c-0.062-0.155-0.211-0.255-0.378-0.255
		h-2.15c-0.115,0-0.225,0.048-0.301,0.135l-2.578,2.808v-6.468c0-0.225-0.183-0.41-0.409-0.41h-1.628
		c-0.226,0-0.409,0.186-0.409,0.41v12.716c0,0.226,0.183,0.411,0.409,0.411h1.628c0.226,0,0.409-0.186,0.409-0.411v-3.501
		l2.778,3.744c0.076,0.105,0.199,0.168,0.328,0.168h2.153c0.156,0,0.298-0.09,0.367-0.232c0.07-0.137,0.05-0.306-0.044-0.431
		L45.986,76.243z"/>
	<path fill="#535353" d="M56.297,73.674v-1.19c0-0.225-0.186-0.41-0.411-0.41H54.25v-0.973c0-0.611,0-0.865,0.919-0.865
		c0.323,0,0.664,0.018,0.935,0.034c0.117,0.009,0.227-0.034,0.308-0.111c0.083-0.077,0.131-0.186,0.131-0.298v-1.312
		c0-0.203-0.149-0.375-0.351-0.405c-0.363-0.056-0.905-0.129-1.408-0.129c-1.481,0-2.203,0.624-2.545,1.15
		c-0.37,0.563-0.436,1.098-0.436,2.322v0.587H50.48c-0.225,0-0.409,0.186-0.409,0.41v1.19c0,0.226,0.184,0.408,0.409,0.408h1.322
		v7.182c0,0.226,0.185,0.411,0.41,0.411h1.626c0.228,0,0.411-0.186,0.411-0.411v-7.182h1.636
		C56.112,74.083,56.297,73.9,56.297,73.674z"/>
	<path fill="#535353" d="M61.12,71.846c-3.592,0-4.869,2.652-4.869,5.133c0,3.079,1.812,4.993,4.729,4.993
		c2.947,0,4.853-2.011,4.853-5.114C65.832,74.434,64.596,71.846,61.12,71.846z M61.014,79.927c-2.067,0-2.23-2.337-2.23-3.053
		c0-2.856,1.945-2.999,2.336-2.999c1.363,0,2.145,1.066,2.145,2.929C63.264,79.702,61.542,79.927,61.014,79.927z"/>
	<path fill="#535353" d="M88.93,72.965c-0.699-0.72-1.712-1.079-3.006-1.079c-1.053,0-1.924,0.238-2.584,0.705
		c-1.658,1.152-1.871,2.957-1.871,4.396c0,3.111,1.563,4.824,4.402,4.824c1.771,0,2.759-0.7,3.268-1.277
		c0.391-0.421,0.637-0.912,0.757-1.493c0.021-0.097-0.014-0.228-0.076-0.306c-0.225-0.275-1.045-0.301-1.425-0.301
		c-0.27,0-0.593,0-0.693,0.292c-0.367,1.047-1.236,1.24-1.76,1.24c-0.639,0-1.145-0.185-1.506-0.556
		c-0.418-0.426-0.649-1.097-0.683-1.954h5.984c0.179,0,0.322-0.147,0.326-0.323C90.088,76.182,90.137,74.201,88.93,72.965z
		 M85.889,73.71c0.571,0,1.014,0.154,1.312,0.466c0.312,0.316,0.49,0.821,0.524,1.469h-3.884
		C83.999,74.227,84.978,73.71,85.889,73.71z"/>
	<path fill="#535353" d="M99.739,79.822V68.609c0-0.182-0.148-0.328-0.328-0.328h-1.645c-0.18,0-0.326,0.146-0.326,0.328v4.056
		c-0.457-0.432-1.201-0.849-2.402-0.849c-1.982,0-4.299,1.339-4.299,5.12c0,3.533,2.213,4.787,4.107,4.787
		c0.396,0,1.421-0.07,2.355-0.707c0.112-0.076,0.209-0.154,0.296-0.235l0.013,0.449c0.004,0.179,0.148,0.316,0.326,0.316h1.645
		c0.091,0,0.177-0.036,0.24-0.104c0.062-0.066,0.094-0.155,0.086-0.245C99.774,80.75,99.739,80.009,99.739,79.822z M95.06,79.583
		c-1.989,0-2.145-2.179-2.145-2.84c0-2.662,1.872-2.795,2.247-2.795c1.311,0,2.062,0.994,2.062,2.728
		C97.225,79.372,95.567,79.583,95.06,79.583z"/>
</g>
<path fill="#535353" d="M55.486,59.166c-0.665,0-1.314-0.346-1.67-0.965c-0.532-0.921-0.217-2.099,0.706-2.633l20.032-11.565v-3.477
	l-24.958,14.41c-0.595,0.345-1.327,0.346-1.923,0.003l-6.885-3.952c-0.598-0.342-0.968-0.979-0.968-1.669
	c-0.001-0.688,0.367-1.325,0.963-1.672L74.555,28.15v-3.477L35.854,47.017c-0.597,0.344-1.332,0.344-1.928,0
	c-0.595-0.344-0.963-0.98-0.963-1.669v-7.926c0-0.688,0.368-1.325,0.965-1.669l31.847-18.375l-3.005-1.734L35.853,31.166
	c-0.597,0.343-1.331,0.343-1.927-0.002c-0.595-0.345-0.963-0.981-0.963-1.669v-7.926c0-0.688,0.368-1.326,0.963-1.669l21-12.123
	c0.919-0.531,2.1-0.216,2.633,0.707c0.532,0.921,0.216,2.099-0.705,2.631L36.819,22.681v3.477l24.988-14.409
	c0.597-0.343,1.332-0.344,1.927,0.001l6.861,3.959c0.596,0.344,0.962,0.981,0.962,1.669c0,0.689-0.367,1.324-0.963,1.669
	L36.819,38.536v3.474L75.52,19.666c0.596-0.345,1.331-0.345,1.927,0c0.597,0.345,0.964,0.981,0.964,1.669v7.927
	c0,0.689-0.367,1.326-0.964,1.669l-31.835,18.38l3.018,1.732l26.89-15.524c0.596-0.345,1.331-0.345,1.927,0
	c0.597,0.345,0.964,0.981,0.964,1.67l-0.001,7.928c0,0.688-0.368,1.325-0.964,1.668L56.449,58.908
	C56.146,59.083,55.815,59.166,55.486,59.166z"/>
</svg>
