<svg id="Layer_1" data-name="Layer 1" xmlns="http://www.w3.org/2000/svg" viewBox="0 0 283.46 57.41"><title>ossur</title><path d="M132.71,94.06a5,5,0,1,1,5,5A5,5,0,0,1,132.71,94.06Z" transform="translate(-62.68 -86.8)" style="fill:#231f20"/><path d="M148.54,94.06a5,5,0,1,1,5,5A5,5,0,0,1,148.54,94.06Z" transform="translate(-62.68 -86.8)" style="fill:#231f20"/><path d="M280.39,103.65v25.66c0,2.35-1.33,5.94-8.73,5.94-7.6,0-8.46-3.59-8.56-5.94V103.65h-9.37v25.54c0,3.67,1.87,8,9.42,11.45a30.71,30.71,0,0,0,8.77,1.21,27.9,27.9,0,0,0,9.28-1.52c7.52-3,8.53-7.88,8.53-11.14V103.65h-9.33Z" transform="translate(-62.68 -86.8)" style="fill:#231f20"/><path d="M145.79,135.21a13.89,13.89,0,0,1-8.37-2.49c-3-2.25-4.47-6.25-4.54-10.26s1.56-8,4.54-10.26a15.26,15.26,0,0,1,16.7,0c3,2.23,4.49,6.25,4.56,10.26s-1.59,8-4.56,10.26A13.77,13.77,0,0,1,145.79,135.21Zm21.82-12.76a19.67,19.67,0,0,0-6.71-14.78c-3.81-3.22-9.34-4.64-15.11-4.64s-11.35,1.42-15.16,4.64a19.62,19.62,0,0,0,0,29.56c3.82,3.19,9.37,4.62,15.16,4.62s11.3-1.42,15.11-4.62A19.7,19.7,0,0,0,167.62,122.46Z" transform="translate(-62.68 -86.8)" style="fill:#231f20;fill-rule:evenodd"/><path d="M306.07,110h12.63c4.19,0,5.71,1.54,5.71,4.19,0.54,3.64-3.37,5.51-5.57,5.51H306.07V110Zm-9.32,30.7h9.32V126H317c3.27,0,5.5,1.24,5.63,3.72a67.1,67.1,0,0,0,0,7.47,7.49,7.49,0,0,0,1.23,3.46h10v-1.38c-1-.52-1.72-1-1.72-3-0.07-1.87-.19-6.75-0.46-8.28-0.49-3.36-3.47-4.28-5-5.13,3.06-1.47,5-2.65,6.15-5.86a10.41,10.41,0,0,0-.42-7.45c-1.3-4-5.91-5.75-10.46-5.89H296.74v37Z" transform="translate(-62.68 -86.8)" style="fill:#231f20;fill-rule:evenodd"/><path d="M337.19,136.76a4.48,4.48,0,1,0,4.5-4.44A4.45,4.45,0,0,0,337.19,136.76Zm0.83,0a3.67,3.67,0,1,1,3.67,3.83A3.65,3.65,0,0,1,338,136.76Zm1.94,2.62h0.79v-2.24h0.87l1.41,2.24h0.88l-1.49-2.3a1.36,1.36,0,0,0,1.38-1.42c0-1-.61-1.47-1.83-1.47h-2v5.19Zm0.79-4.55h1.08c0.55,0,1.15.11,1.15,0.8s-0.67.85-1.38,0.85h-0.86v-1.65Z" transform="translate(-62.68 -86.8)" style="fill:#231f20;fill-rule:evenodd"/><rect width="52.33" height="57.41" style="fill:#fff"/><path d="M88.85,115.51" transform="translate(-62.68 -86.8)" style="fill:#fff"/><path d="M91.67,113.91c-5,7.23-3,28-3,28h24V105.68C102.44,102.64,95.72,108,91.67,113.91Z" transform="translate(-62.68 -86.8)" style="fill:#231f20"/><path d="M65,89.13v52.75h5.79c-1.45-8.46,2.23-22.48,9.32-31.15,12.5-15.24,32.58-10,32.58-10V89.13H65Z" transform="translate(-62.68 -86.8)" style="fill:#231f20"/><path d="M99,95.88a2.23,2.23,0,1,1,2.24,2.23A2.23,2.23,0,0,1,99,95.88Z" transform="translate(-62.68 -86.8)" style="fill:#fff"/><path d="M106.1,95.88a2.23,2.23,0,1,1,2.23,2.23A2.23,2.23,0,0,1,106.1,95.88Z" transform="translate(-62.68 -86.8)" style="fill:#fff"/><path d="M206.91,114.93c0.37-1.23-.25-4.68-2.62-7.17-4.4-4.58-12.89-4.73-15.32-4.73-11.09,0-16.31,4.37-17.06,10.28s3.31,8.88,8.22,10.25c5.86,1.62,14.83,1.62,17.81,4.17a3.87,3.87,0,0,1-.18,6.26c-1.19.9-4.1,1.67-7.22,1.71s-6.47-.46-8.54-2.18a5.07,5.07,0,0,1-1.92-3.82H171a12.36,12.36,0,0,0,6.35,9.56c3.36,2,8.83,2.66,11.13,2.6,5.05,0,10.34-.57,14.2-2.6,5.66-3,8.1-11.77,2.87-16.25-2.87-2.4-8.23-3.31-10.72-3.64-1.75-.26-9.94-1.58-11.45-2.06-2.06-.65-3.06-1.4-2.81-4,0.31-3,3.67-4.3,8.24-4.25,6.4,0.11,9.45,2.87,9.32,5.85h8.78Z" transform="translate(-62.68 -86.8)" style="fill:#231f20"/><path d="M247.55,114.93c0.37-1.23-.25-4.68-2.62-7.17-4.4-4.58-12.89-4.73-15.32-4.73-11.09,0-16.31,4.37-17.06,10.28s3.31,8.88,8.22,10.25c5.86,1.62,14.83,1.62,17.81,4.17a3.87,3.87,0,0,1-.18,6.26c-1.19.9-4.1,1.67-7.22,1.71s-6.47-.46-8.54-2.18a5.07,5.07,0,0,1-1.92-3.82h-9.08a12.36,12.36,0,0,0,6.35,9.56c3.36,2,8.83,2.66,11.13,2.6,5.05,0,10.34-.57,14.2-2.6,5.66-3,8.1-11.77,2.87-16.25-2.87-2.4-8.23-3.31-10.72-3.64-1.75-.26-9.94-1.58-11.44-2.06-2.06-.65-3.06-1.4-2.81-4,0.31-3,3.67-4.3,8.24-4.25,6.4,0.11,9.45,2.87,9.32,5.85h8.78Z" transform="translate(-62.68 -86.8)" style="fill:#231f20"/></svg>