<svg width="583" height="95" viewBox="0 0 583 95" xmlns="http://www.w3.org/2000/svg" xmlns:xlink="http://www.w3.org/1999/xlink"><title>91421DE1-A217-49B9-A92D-DB41E9AB67E4</title><defs><path id="a" d="M.851 94.314h273.394V.041H.851z"/></defs><g fill="none" fill-rule="evenodd"><path fill="#0F2D8F" d="M415.633 82.658h29.905V29.03h-29.905zM68.208 29.569L52.623 56.236 38.467 29.569H0L38.218 82.75h28.55l38.219-53.182H68.208M164.414 29.583l-.014 3.94c-5.089-2.061-10.91-3.386-17.137-3.745a58.384 58.384 0 0 0-3.42-.104c-1.151 0-2.285.038-3.414.104-20.378 1.168-36.466 12.674-36.466 26.601 0 14.696 17.915 26.707 39.88 26.707 7.453 0 14.436-1.388 20.413-3.785l-.014 3.45h30.173V29.583h-30.001zm-16.9 39.183c-9.174 0-16.898-5.6-16.898-12.387 0-6.786 7.724-12.377 16.897-12.377 9.162 0 16.73 5.59 16.73 12.377 0 6.787-7.568 12.387-16.73 12.387zM267.3.04l-.077 33.46c-5.074-2.046-10.876-3.366-17.074-3.72a57.076 57.076 0 0 0-3.419-.106c-1.153 0-2.29.038-3.414.106-20.38 1.166-36.467 12.672-36.467 26.6 0 14.697 17.914 26.701 39.881 26.701 7.45 0 14.429-1.382 20.408-3.778l-.011 3.448h30.174V.04h-30zm-16.902 68.727c-9.174 0-16.896-5.601-16.896-12.388 0-6.786 7.722-12.377 16.896-12.377 9.164 0 16.729 5.59 16.729 12.377 0 6.787-7.565 12.388-16.73 12.388z"/><g transform="translate(308.4)"><mask id="b" fill="#fff"><use xlink:href="#a"/></mask><path d="M61.304.04l-.077 33.46c-5.074-2.046-10.876-3.366-17.074-3.72a57.076 57.076 0 0 0-3.419-.106c-1.153 0-2.29.038-3.414.106C16.94 30.946.85 42.452.85 56.38c0 14.697 17.916 26.701 39.883 26.701 7.45 0 14.429-1.382 20.406-3.778l-.009 3.448h30.175V.04H61.304zM44.402 68.768c-9.174 0-16.896-5.601-16.896-12.388 0-6.786 7.722-12.377 16.896-12.377 9.164 0 16.729 5.59 16.729 12.377 0 6.787-7.565 12.388-16.73 12.388zM212.617 17.428c-34.042 0-61.638 17.23-61.638 38.49 0 10.435 6.658 19.9 17.457 26.836 11.196 7.187 26.854 11.654 44.181 11.654 17.323 0 32.977-4.467 44.172-11.654 10.804-6.936 17.456-16.4 17.456-26.836 0-21.26-27.6-38.49-61.628-38.49m-10.986 65.666a62.818 62.818 0 0 1-3.419.103c-1.152 0-2.291-.042-3.414-.103-20.378-1.173-36.467-12.68-36.467-26.602 0-14.702 17.915-26.706 39.881-26.706 21.967 0 39.888 12.004 39.888 26.706 0 13.923-16.094 25.43-36.469 26.602" fill="#0F2D8F" mask="url(#b)"/></g><path d="M503.022 44.512c-9.13 0-16.657 5.528-16.657 12.224 0 6.7 7.528 12.214 16.657 12.214 9.126 0 16.811-5.514 16.811-12.214 0-6.696-7.685-12.224-16.81-12.224M430.87 23.16c8.346 0 15.372-5.046 15.372-11.172 0-6.127-7.026-11.178-15.371-11.178-8.35 0-15.233 5.051-15.233 11.178 0 6.126 6.882 11.172 15.233 11.172M576.662 12.191c-3.397 0-6.34 2.715-6.34 6.33 0 3.396 2.724 6.329 6.34 6.329 3.388 0 6.329-2.714 6.329-6.329-.227-3.16-2.941-6.33-6.329-6.33m5.2 6.33c0 2.941-2.04 5.2-5.2 5.2-2.942 0-5.2-2.487-5.2-5.2 0-2.714 2.03-5.202 5.2-5.202 2.713.229 5.2 2.488 5.2 5.202" fill="#0F2D8F"/><path d="M579.825 17.392c0-1.585-1.128-2.032-2.713-2.032h-2.942v6.102h1.813V19.65h.682l1.12 1.812h2.04l-1.585-2.04c.911-.218 1.585-.9 1.585-2.03m-2.713.901h-1.13v-1.576h1.13c.674 0 .902.218.902.675 0 .682-.447.901-.902.901" fill="#0F2D8F"/></g></svg>